<svg xmlns="http://www.w3.org/2000/svg" viewBox="0 0 18.03 17.39"><path d="M.73,16.36a2.53,2.53,0,0,0,1.36-.2c.9-.43.8-.88,1.77-1.28a2.42,2.42,0,0,0,.67-.62,1.4,1.4,0,0,1,0,.39c-.51,1.12-1.2,1.08-2,1.72-.16.12.55.13,1.28,0A3.55,3.55,0,0,0,5,16a3.37,3.37,0,0,0,1.12-1.11c.3-.42.85-1.09,1-1.34a2.42,2.42,0,0,1,1.57-1.18,15.92,15.92,0,0,0,4.5-1.47c1.29-.78,1.14-.6.88-.23a6.61,6.61,0,0,1-1.59,1.06,24,24,0,0,1-2.38,1C8.7,13.39,7.17,14,7,15.63a1.53,1.53,0,0,0,2.2,1.56,1.09,1.09,0,0,0,0-2c-.56-.18-.79.32-1,0s.26-.76,1-1.16a46.18,46.18,0,0,0,5.57-2.59c1.65-1.12,2.44-1.85,2.38-4.54,0-1.21,0-1.78-.11-2.62a21.25,21.25,0,0,1-.22-2.46,1,1,0,0,1,1.05-.44c.31.13.17-.7-.17-1s-.4-.46-1.45-.37a1,1,0,0,0-.81.77c-.32,1.31.87,2.61-.06,3.81-.74,1.16-2.19,2-3.65-.48-.13-.21-.58-.33-1,.1a4.82,4.82,0,0,1,.95,1.24,1.39,1.39,0,0,0,.88.66,3.7,3.7,0,0,0,2.11-.07c.4-.3-.43.56-.59.63a2.61,2.61,0,0,1-2.75-.17c-.67-.65-1.08-2.07-1.75-2.38C9.25,4,8.29,4.46,8,4.21s-.05-.64-.21-.8a.42.42,0,0,0-.63.14A4.15,4.15,0,0,0,6.58,5.6c.18,1.55,2.1,2,3.09,2.09s2.4,0,3.18-.16a4.77,4.77,0,0,1-3.23.75,8.67,8.67,0,0,1-1.15-.23,2.38,2.38,0,0,1-1.06-.48,1.06,1.06,0,0,0-1.2,0,1,1,0,0,1,.65.27A5.78,5.78,0,0,0,8,8.83c.34.19-.09.09.73.44a1.73,1.73,0,0,0,.48.14,7.65,7.65,0,0,0,2.86,0,8,8,0,0,0,4-3.1c.07-.09.18-.09.16,0-.19.93-.64,1.82-2.55,3.27A9.52,9.52,0,0,1,10.12,11,6.29,6.29,0,0,1,8,10.86,10.67,10.67,0,0,0,6.14,10c-1.76-.2-1.84.12-2.39.42-.93.51-1,2.61-1,2.61s.79-.87,1.5-1.49A2.12,2.12,0,0,1,6,11a4,4,0,0,1,1.13.51c.33.16,1,.4,1,.4l-1,0a4.31,4.31,0,0,0-2.68.59,19.06,19.06,0,0,0-2.64,2.61C1.3,15.65.22,15,0,15.41S.51,16.3.73,16.36Z"/></svg>