<svg xmlns="http://www.w3.org/2000/svg" viewBox="0 0 18.03 17.39"><path d="M11,15.63c-.14-1.65-1.68-2.24-3.1-2.89a25.06,25.06,0,0,1-2.38-1A6.18,6.18,0,0,1,4,10.67c-.27-.37-.41-.55.88.23a15.87,15.87,0,0,0,4.49,1.47,2.46,2.46,0,0,1,1.58,1.18c.14.25.7.92,1,1.34A3.46,3.46,0,0,0,13,16a3.59,3.59,0,0,0,1.26.4c.72.1,1.44.09,1.28,0-.83-.64-1.52-.6-2-1.72a1.31,1.31,0,0,1,0-.39,2.27,2.27,0,0,0,.67.62c1,.4.86.85,1.76,1.28a2.53,2.53,0,0,0,1.36.2c.22-.06.86-.65.71-.95s-1.27.24-1.73-.25a20.22,20.22,0,0,0-2.64-2.61A4.35,4.35,0,0,0,11,12l-1,0s.66-.24,1-.4A3.93,3.93,0,0,1,12.06,11a2.12,2.12,0,0,1,1.73.56,19.58,19.58,0,0,1,1.5,1.49s-.08-2.1-1-2.61c-.55-.3-.63-.62-2.39-.42a10.93,10.93,0,0,0-1.89.83A6.31,6.31,0,0,1,7.92,11a9.63,9.63,0,0,1-3.63-1.4C2.38,8.17,1.94,7.28,1.74,6.35c0-.09.09-.09.16,0A8.08,8.08,0,0,0,6,9.45a7.7,7.7,0,0,0,2.87,0,1.59,1.59,0,0,0,.47-.14c.82-.35.39-.25.73-.44a6.13,6.13,0,0,0,1.16-1,1,1,0,0,1,.65-.27,1.07,1.07,0,0,0-1.21,0,2.38,2.38,0,0,1-1.06.48,8.36,8.36,0,0,1-1.15.23,4.81,4.81,0,0,1-3.23-.75c.78.14,2.31.1,3.19.16s2.9-.54,3.08-2.09a4.15,4.15,0,0,0-.56-2,.42.42,0,0,0-.63-.14c-.16.16,0,.64-.2.8S8.79,4,8.43,4.13c-.67.31-1.07,1.73-1.75,2.38a2.61,2.61,0,0,1-2.75.17c-.16-.07-1-.93-.59-.63a3.7,3.7,0,0,0,2.11.07,1.43,1.43,0,0,0,.89-.66,4.93,4.93,0,0,1,.94-1.24c-.39-.43-.84-.31-1-.1C4.86,6.56,3.4,5.76,2.66,4.6,1.73,3.4,2.92,2.1,2.6.79A1,1,0,0,0,1.79,0C.74-.07.67.14.34.39s-.48,1.1-.16,1a1,1,0,0,1,1,.44A17.34,17.34,0,0,1,1,4.26C.93,5.1.91,5.67.89,6.88c-.06,2.69.74,3.42,2.39,4.54A45.48,45.48,0,0,0,8.85,14c.73.4,1.17.91,1,1.16s-.49-.15-1,0a1.09,1.09,0,0,0,0,2A1.52,1.52,0,0,0,11,15.63Z"/></svg>