<svg xmlns="http://www.w3.org/2000/svg" viewBox="0 0 16.98 17.43"><g id="レイヤー_2" data-name="レイヤー 2"><g id="レイヤー_1-2" data-name="レイヤー 1"><path d="M8,15.17H6.15c0-.34,0-.84,0-1.5a3,3,0,0,0-.31-1.52.88.88,0,0,0-.79-.52,1.1,1.1,0,0,0-.47.08.63.63,0,0,0-.23.19l-.17.22a5.09,5.09,0,0,1-.45.37.86.86,0,0,1-.25.13,2.15,2.15,0,0,1-.37,0l-.39,0a.5.5,0,0,1-.5-.33,2.71,2.71,0,0,1-.15-1,.89.89,0,0,1,.24-.5,3.16,3.16,0,0,1,.59-.56,2,2,0,0,0-.88.29,2.08,2.08,0,0,0-.64.61,1.3,1.3,0,0,0-.23.71c0,.13,0,.3,0,.49a1.64,1.64,0,0,0,.28.82A5.74,5.74,0,0,0,2.5,14.3a1.69,1.69,0,0,1,.58,1.32,1.92,1.92,0,0,1-.23,1,1.4,1.4,0,0,1-.62.61,1.79,1.79,0,0,1-.86.2,1.39,1.39,0,0,1-1.19-.57,2.66,2.66,0,0,0,1-.29c.22-.13.33-.43.33-.89a1.5,1.5,0,0,0-.33-.84c-.5-.76-.83-1.27-1-1.54A1.87,1.87,0,0,1,0,12.36a2.58,2.58,0,0,1,.25-1.09,3.22,3.22,0,0,1,.73-1A3.41,3.41,0,0,1,2.12,9.6a4,4,0,0,1,1.44-.25,3.46,3.46,0,0,1,1.19.2,3.34,3.34,0,0,1,1,.57,3.11,3.11,0,0,1,.77.89,5.68,5.68,0,0,1,.62,2.9V14a.14.14,0,0,1,0,.07H8V7.83a3.45,3.45,0,0,1-1.87.72c-.78,0-1.27-.15-1.45-.44a2.61,2.61,0,0,1-.28-1.39,1.8,1.8,0,0,1,.06-.37A1.4,1.4,0,0,0,4.51,6,1.07,1.07,0,0,0,4.3,5.3.56.56,0,0,0,3.83,5a2.23,2.23,0,0,0-.47.06A1.79,1.79,0,0,1,3,5.15s-.07,0-.07-.11.15-.4.45-.65A1.59,1.59,0,0,1,4.47,4a2.48,2.48,0,0,1,1.71.62,2,2,0,0,1,.68,1.53,1.68,1.68,0,0,1-.42,1.28.26.26,0,0,0-.07.16c0,.06,0,.09.13.09a1.53,1.53,0,0,0,1-.33.94.94,0,0,0,.41-.72c0-.38,0-.69,0-.93a2.77,2.77,0,0,0-.47-1.13c-.31-.52-.52-.9-.65-1.15a2.17,2.17,0,0,1-.18-.95.79.79,0,0,1,0-.28A1.92,1.92,0,0,1,8,3.24a3.15,3.15,0,0,0-.09-.42c0-.15-.08-.35-.14-.59s-.09-.46-.11-.65a6.73,6.73,0,0,1,0-.69A.88.88,0,0,1,7.86.31.91.91,0,0,1,8.48,0a1.06,1.06,0,0,1,.64.32.86.86,0,0,1,.25.57,5.4,5.4,0,0,1-.06.89,7.11,7.11,0,0,1-.17.82A5.7,5.7,0,0,0,9,3.24a2.17,2.17,0,0,1,.57-.71,1.81,1.81,0,0,1,.76-.34.79.79,0,0,1,.05.28,2.63,2.63,0,0,1-.09.7L9.09,5.7A.63.63,0,0,0,9,6a2.5,2.5,0,0,0,0,.32,2.73,2.73,0,0,1,0,.35.94.94,0,0,0,.41.72,1.52,1.52,0,0,0,1,.33c.09,0,.14,0,.14-.09a.23.23,0,0,0-.08-.16,1.25,1.25,0,0,1-.3-.53,2.36,2.36,0,0,1-.12-.75,2,2,0,0,1,.31-1.08,2.2,2.2,0,0,1,.87-.78A2.6,2.6,0,0,1,12.5,4a1.6,1.6,0,0,1,1.09.39c.3.25.45.47.45.65s0,.11-.07.11a1.9,1.9,0,0,1-.34-.07A2.41,2.41,0,0,0,13.14,5a.57.57,0,0,0-.47.28,1.14,1.14,0,0,0-.2.65,1.64,1.64,0,0,0,.06.36,1.62,1.62,0,0,1,.06.41,5.21,5.21,0,0,1-.07,1,.94.94,0,0,1-.45.6,2.46,2.46,0,0,1-1.21.23A3.37,3.37,0,0,1,9,7.83v6.24h.8V14s0-.05,0-.08a8.57,8.57,0,0,1,.13-1.62A4,4,0,0,1,10.4,11a3.3,3.3,0,0,1,1.27-1.22,3.46,3.46,0,0,1,1.74-.44,3.81,3.81,0,0,1,1.86.44,3.26,3.26,0,0,1,1.27,1.13A2.67,2.67,0,0,1,17,12.36a2,2,0,0,1-.14.75,3.93,3.93,0,0,1-.41.77c-.12.17-.27.4-.45.68a5.93,5.93,0,0,0-.4.69,1.08,1.08,0,0,0-.12.45c0,.46.11.76.32.88a3,3,0,0,0,1,.28,1.22,1.22,0,0,1-.52.43A1.78,1.78,0,0,1,14.38,17a1.78,1.78,0,0,1-.49-1.35,1.53,1.53,0,0,1,.23-.85,5.25,5.25,0,0,1,.67-.81,3.26,3.26,0,0,0,.59-.69c.12-.19.21-.34.28-.44a1.76,1.76,0,0,0,.12-.23,1.81,1.81,0,0,0,0-.32v-.52a1.3,1.3,0,0,0-.23-.71,2.08,2.08,0,0,0-.64-.61,2,2,0,0,0-.87-.29,2.92,2.92,0,0,1,.59.57.91.91,0,0,1,.23.49,3,3,0,0,1-.14,1.06.5.5,0,0,1-.51.32l-.31,0a1.47,1.47,0,0,1-.42,0,1.1,1.1,0,0,1-.45-.24,6.55,6.55,0,0,1-.7-.67.35.35,0,0,0-.12-.07.24.24,0,0,0-.14,0H11.9a.91.91,0,0,0-.79.52,3.06,3.06,0,0,0-.31,1.52c0,.66,0,1.16,0,1.5H9c0,.4.06.81.12,1.25s.1.68.1.75a.35.35,0,0,1-.05.23.94.94,0,0,1-.32,0H8.12a.67.67,0,0,1-.32,0s0-.1,0-.22,0-.21.1-.65S8,15.63,8,15.17Z"/></g></g></svg>