<svg xmlns="http://www.w3.org/2000/svg" viewBox="0 0 17.9 18"><g id="レイヤー_2" data-name="レイヤー 2"><g id="レイヤー_1-2" data-name="レイヤー 1"><path d="M15.38,11.28l-.55-.16a3.87,3.87,0,0,1,.21.67l0,.28,0,.16h-.24l-.38,0c-.24,0-.46,0-.66,0a1.78,1.78,0,0,1-1.18-.44,1.28,1.28,0,0,1-.51-1c0-.4.29-.83.87-1.3a4.41,4.41,0,0,0-2-.53,7.55,7.55,0,0,0-1.8.27,11.32,11.32,0,0,1-2.5,4.33L5.57,14.74l.17.06,1.17-.25.26,0a.79.79,0,0,1,.5.15.53.53,0,0,1,.23.42,2,2,0,0,1-.43.79L7.38,16l.15.07h.15L8.06,16a2.93,2.93,0,0,1,.62-.08c.35,0,.57.13.64.38l.17.58a1.16,1.16,0,0,0,.9.32,1,1,0,0,0,.75-.31,1,1,0,0,0,.32-.75.78.78,0,0,0-.22-.57.72.72,0,0,0-.55-.24.92.92,0,0,0-.56.23.34.34,0,0,1-.19-.3.64.64,0,0,1,.25-.52,1,1,0,0,1,.66-.22,1.13,1.13,0,0,1,.9.43A1.63,1.63,0,0,1,12.1,16a1.7,1.7,0,0,1-.75,1.43A3.21,3.21,0,0,1,9.43,18H8.6a1.56,1.56,0,0,1-1.42-.6c-.26-.39-.44-.59-.55-.59s-.2.1-.25.3a1.88,1.88,0,0,1-.18.52.46.46,0,0,1-.4.16,1.09,1.09,0,0,1-.87-.46,1.09,1.09,0,0,1-.28-.82l0-.27.18-.73,0-.19A10.52,10.52,0,0,1,2.44,17a11,11,0,0,1-2.35.77A7.69,7.69,0,0,1,1.6,14.21l1-1.31H2.44l-.38.14a1.92,1.92,0,0,1-.66.13A1.21,1.21,0,0,1,.77,13a.74.74,0,0,1-.37-.41L.25,12.1l-.16-.34.14-.09a3.2,3.2,0,0,1,.29-.2L1,11.35l.16,0a1.23,1.23,0,0,0-.43-.58A2.56,2.56,0,0,1,.09,10a3.09,3.09,0,0,1-.09-1A8,8,0,0,1,.13,7.53,2.17,2.17,0,0,1,.85,6.26a1.88,1.88,0,0,1,1.25-.5,1.37,1.37,0,0,1,1,.39,1.27,1.27,0,0,1,.4.95.86.86,0,0,1-.2.59.66.66,0,0,1-.51.23,1,1,0,0,1-.34-.13.76.76,0,0,0,.26-.62A.62.62,0,0,0,2,6.48a1.1,1.1,0,0,0-.81.33,1,1,0,0,0-.34.79c0,.36.1.58.3.68l.58.29a.56.56,0,0,1,.38.5,2.51,2.51,0,0,1-.15.7,1.69,1.69,0,0,0-.11.54l0,.23.47-.4a.67.67,0,0,1,.44-.2.63.63,0,0,1,.48.21.7.7,0,0,1,.21.5,1.28,1.28,0,0,1-.06.34l-.19.7a5.53,5.53,0,0,0-.13.56l0,.14a10.76,10.76,0,0,1,2.17-2.05,10.06,10.06,0,0,1,1.9-1.08l1.25-.51.21-.09,0-.11a11.08,11.08,0,0,0,.19-1.49,3.27,3.27,0,0,0-.55-2,1.39,1.39,0,0,1-1.19.66,1.31,1.31,0,0,1-1-.52,2,2,0,0,1-.44-1.29,4.54,4.54,0,0,1,.1-1l0-.18L6.31,3,7,3.11a5.39,5.39,0,0,1-.48-1,3.65,3.65,0,0,0-.47-1A1.12,1.12,0,0,0,5.12.64a1.2,1.2,0,0,0-.89.41A1.34,1.34,0,0,0,3.84,2a1.23,1.23,0,0,0,.79,1.1,1,1,0,0,1-.6.2C3.31,3.29,3,2.88,3,2.07A1.91,1.91,0,0,1,3.61.6,2.34,2.34,0,0,1,5.25,0,3.74,3.74,0,0,1,8.34,1.74a7.47,7.47,0,0,1,1.3,4.51,9,9,0,0,1-.32,2.33,10.1,10.1,0,0,1,2.14-.24,7.64,7.64,0,0,1,4.63,1.34,3.8,3.8,0,0,1,1.81,3.16,2.56,2.56,0,0,1-.52,1.65,1.59,1.59,0,0,1-1.29.67A1.85,1.85,0,0,1,15,14.84a.89.89,0,0,1-.45-.72,1.88,1.88,0,0,1,.19-.7c.44.55.84.83,1.21.83a1.14,1.14,0,0,0,.86-.39,1.24,1.24,0,0,0,.38-.91C17.21,12.17,16.6,11.61,15.38,11.28Zm.23-4.07.37.13a.45.45,0,0,0,.33-.24.67.67,0,0,0,.12-.34,1.09,1.09,0,0,0-.55-.91,2.33,2.33,0,0,0-1.37-.39,6.27,6.27,0,0,0-2.78.9l-.2-.2a5,5,0,0,0,.9-2.73,2.5,2.5,0,0,0-.33-1.35,1,1,0,0,0-.8-.54.54.54,0,0,0-.63.55l.06.28,0,.09a.54.54,0,0,1-.26.09A.57.57,0,0,1,10,2.32a.89.89,0,0,1-.18-.56A1.06,1.06,0,0,1,10.15,1a1,1,0,0,1,.71-.34,1.68,1.68,0,0,1,1.26.7l0-.27q-.06-.3.57-.66a1.76,1.76,0,0,1,.61.62,2.3,2.3,0,0,1,.14.91,15.14,15.14,0,0,1-.13,1.65l.11-.16L14,2.05A3.18,3.18,0,0,1,14.82.89a1.47,1.47,0,0,1,1-.46.8.8,0,0,1,.83.7L16.76,1l.34-.4.22-.17.24-.09.13.07.06.14c0,.19-.23.46-.65.79l-.18.13a.84.84,0,0,1,.74.88c0,.45-.32.85-1,1.19L14.19,4.8l.21,0a2.09,2.09,0,0,0,.47-.06l.94-.2a.68.68,0,0,1,.3,0,1.4,1.4,0,0,1,1,.35l.28.3a2.3,2.3,0,0,1,.15.23,1.16,1.16,0,0,1-.81.6,1.47,1.47,0,0,1,.56,1,1.1,1.1,0,0,1-.34.81,1.14,1.14,0,0,1-.82.34A.8.8,0,0,1,15.66,8a.5.5,0,0,1-.21-.4l.06-.37ZM12.78,5.06l-.1.17c.43-.2.87-.43,1.33-.69l1.1-.64a1.14,1.14,0,0,0,.7-1c0-.43-.22-.64-.67-.64A1.53,1.53,0,0,0,14,3,18.6,18.6,0,0,0,12.78,5.06ZM7.92,3.14a.6.6,0,0,0-.68.68.58.58,0,0,0,.66.66c.46,0,.68-.22.68-.66a.64.64,0,0,0-.19-.47A.62.62,0,0,0,7.92,3.14ZM14,9.39l-.08,0q-.66.16-.66.72a.62.62,0,0,0,.23.46.79.79,0,0,0,.52.2.63.63,0,0,0,.48-.21.68.68,0,0,0,.2-.49.67.67,0,0,0-.26-.53C14.29,9.42,14.15,9.36,14,9.39Zm-5.64.27.07-.17q-3.3.72-6.22,4.93a6.23,6.23,0,0,0-1.15,2.45c.45-.15.76-.26.93-.34a9.77,9.77,0,0,0,1.37-.79A12.28,12.28,0,0,0,8.39,9.66Z"/></g></g></svg>