<svg xmlns="http://www.w3.org/2000/svg" viewBox="0 0 16.82 12.7"><g id="レイヤー_2" data-name="レイヤー 2"><g id="レイヤー_1-2" data-name="レイヤー 1"><path d="M.77,4.31a.83.83,0,0,0,.55.86l.55.2a.48.48,0,0,1,.34.5c0,.37-.26.56-.79.56a1.47,1.47,0,0,1-1-.33A5.19,5.19,0,0,0,1.78,9.46a7.1,7.1,0,0,0,2.67,1.9,5.13,5.13,0,0,0,2.3.58l.18,0a2.6,2.6,0,0,1-.42-1.16.55.55,0,0,1,.62-.62c.5,0,.75.42.75,1.27,0,.07,0,.18,0,.34s0,.27,0,.33l.16,0a15.55,15.55,0,0,0,1.73.08l.63,0a2.72,2.72,0,0,0,.43-1.46,5.17,5.17,0,0,0-.06-.64c0-.29-.05-.5-.05-.64a2.07,2.07,0,0,1,.83-1.54c.59-.52.93-.84,1-.94a1.31,1.31,0,0,0,.32-.86,1,1,0,0,0-.22-.67.64.64,0,0,0-.52-.29l-.26,0a1.43,1.43,0,0,1-.31.06c-.21,0-.32-.14-.32-.4A1.09,1.09,0,0,1,11.61,4a1.18,1.18,0,0,1,.83-.36,1.53,1.53,0,0,1,1.11.49A1.58,1.58,0,0,1,14,5.28a2.55,2.55,0,0,1-.58,1.23,4.17,4.17,0,0,0-.76,1.85,2.26,2.26,0,0,1,1.52-.69.12.12,0,0,1,.14.14c0,.18-.32.6-1,1.27a3.61,3.61,0,0,0-.68,1.3l-.33.95a5.29,5.29,0,0,0,1.6-.51,2.84,2.84,0,0,1,1-.37,1.4,1.4,0,0,1,1.34.82c.17.48.35,1,.52,1.43H13.38a2.22,2.22,0,0,1-.38,0c-.37-.68-.64-1-.79-1a.69.69,0,0,0-.45.29l-.36.4a3.33,3.33,0,0,1-.34.32l-.13.06H9.61q-5.76,0-8.1-2.85A6.52,6.52,0,0,1,0,5.53,5.8,5.8,0,0,1,1.39,1.59,4.24,4.24,0,0,1,4.7,0,3.26,3.26,0,0,1,6.79.68a2,2,0,0,1,.84,1.65,1.79,1.79,0,0,1-.44,1.19,1.27,1.27,0,0,1-1,.52,1.39,1.39,0,0,1-.86-.43,1.14,1.14,0,0,1-.5-.77A2,2,0,0,1,5.19,2a1.07,1.07,0,0,0,.19-.55A.69.69,0,0,0,5.05.85,1.33,1.33,0,0,0,4.23.61a3.22,3.22,0,0,0-2.41,1.2A3.7,3.7,0,0,0,.77,4.31Z"/></g></g></svg>