<svg xmlns="http://www.w3.org/2000/svg" viewBox="0 0 16.88 12.7"><g id="レイヤー_2" data-name="レイヤー 2"><g id="レイヤー_1-2" data-name="レイヤー 1"><path d="M9.89,11.94h.18a6.29,6.29,0,0,0,2.66-.74,6.93,6.93,0,0,0,2.5-1.93A5.87,5.87,0,0,0,16.38,6.1a1.66,1.66,0,0,1-1,.34q-.75,0-.75-.57a.48.48,0,0,1,.35-.5l.54-.2A.82.82,0,0,0,16,4.31,3.69,3.69,0,0,0,15,1.79,3.17,3.17,0,0,0,12.59.61a1.35,1.35,0,0,0-.82.24.69.69,0,0,0-.33.57,1.56,1.56,0,0,0,.28.68,1.7,1.7,0,0,1,.27.72,1.15,1.15,0,0,1-.5.81,1.45,1.45,0,0,1-.86.41,1.27,1.27,0,0,1-1-.52A1.78,1.78,0,0,1,9.2,2.33,2.07,2.07,0,0,1,10,.68,3.25,3.25,0,0,1,12.12,0a4.31,4.31,0,0,1,3.34,1.59,5.8,5.8,0,0,1,1.42,3.94,6.53,6.53,0,0,1-1.47,4.24,7.28,7.28,0,0,1-4,2.46,17.3,17.3,0,0,1-4.16.47H5.89l-.13-.06a3.27,3.27,0,0,1-.33-.32l-.36-.4c-.18-.19-.32-.29-.44-.29s-.44.35-.81,1H0l.51-1.4a1.42,1.42,0,0,1,1.37-.87,2.75,2.75,0,0,1,1,.4,4.6,4.6,0,0,0,1.54.5l-.32-.95a3.77,3.77,0,0,0-.68-1.3l-.67-.7a1,1,0,0,1-.3-.57l.14-.14a2.4,2.4,0,0,1,1.53.69A4.11,4.11,0,0,0,3.38,6.5a2.58,2.58,0,0,1-.57-1.22,1.54,1.54,0,0,1,.47-1.13,1.5,1.5,0,0,1,1.1-.49A1.15,1.15,0,0,1,5.22,4a1.09,1.09,0,0,1,.36.81c0,.29-.1.42-.32.4L5,5.19l-.14,0a.57.57,0,0,0-.16,0,.66.66,0,0,0-.54.28A1.13,1.13,0,0,0,4,6.08a1.27,1.27,0,0,0,.33.86c.09.1.43.42,1,.94a2.12,2.12,0,0,1,.82,1.54c0,.13,0,.35,0,.64a5.58,5.58,0,0,0-.06.66,2.69,2.69,0,0,0,.43,1.44l.14,0H7.76a10.06,10.06,0,0,0,1-.06l.16,0c0-.06,0-.17,0-.33s0-.27,0-.34c0-.85.25-1.27.76-1.27a.58.58,0,0,1,.43.18.58.58,0,0,1,.18.42A2.54,2.54,0,0,1,9.89,11.94Z"/></g></g></svg>