<svg xmlns="http://www.w3.org/2000/svg" viewBox="0 0 50 49.58"><g id="レイヤー_2" data-name="レイヤー 2"><g id="レイヤー_1-2" data-name="レイヤー 1"><path d="M20.65,40.46a4.92,4.92,0,0,1-1-1.94A12.24,12.24,0,0,1,19.28,36c0-.94-.05-2.21-.05-3.82l-.55-.35a25,25,0,0,0-3.41,4.42,17.47,17.47,0,0,0-1.89,5,14.54,14.54,0,0,1-.91,2.85c-.34.72-.65,1.08-.94,1.08a.78.78,0,0,1-.71-.57,9.23,9.23,0,0,1-.43-1.63c-.13-.71-.32-1.63-.55-2.76a3.62,3.62,0,0,0-.72.91,6,6,0,0,0-.53,1.39c-.14.56-.29,1.26-.42,2.09s-.29,1.77-.47,2.81a1.59,1.59,0,0,1-.38.84,1,1,0,0,1-.74.34c-1.12,0-1.67-1.24-1.67-3.72a11.86,11.86,0,0,1,.15-2,6,6,0,0,0-1.22,1.33,5.39,5.39,0,0,0-.6,1.27c-.13.43-.26.94-.38,1.54a15.34,15.34,0,0,1-.54,2,.92.92,0,0,1-.95.48C.46,49.43,0,48.7,0,47.23a6.4,6.4,0,0,1,1.56-4.11,25.29,25.29,0,0,1,4.29-4l6.06-4.55A35.22,35.22,0,0,0,17.14,30L17,29.6a9.8,9.8,0,0,1-3.46.74,6.56,6.56,0,0,1-4.59-1.55,5.31,5.31,0,0,1-1.69-4.1q0-5.84,7.6-5.83,1.14,0,2.34.12l.2-.17a16.23,16.23,0,0,0-1.91-1.73c-.84-.67-1.83-1.42-3-2.24S9.89,13,8.13,11.76,4.81,9.4,3.41,8.37A8.94,8.94,0,0,1,.92,5.52,6.93,6.93,0,0,1,0,2.19,2.77,2.77,0,0,1,.4.57,1.12,1.12,0,0,1,1.32,0a.94.94,0,0,1,.62.26,1.26,1.26,0,0,1,.4.66c.17.8.31,1.48.44,2A9.51,9.51,0,0,0,3.19,4.4a4.67,4.67,0,0,0,.68,1.16A3.67,3.67,0,0,0,5,6.48a13.58,13.58,0,0,1-.15-2.15,7.09,7.09,0,0,1,.38-2.51c.26-.65.59-1,1-1s.84.36,1.23,1.09a7.49,7.49,0,0,1,.76,2.69c.1,1,.19,1.69.26,2.11a4.09,4.09,0,0,0,.41,1.19A3.24,3.24,0,0,0,9.94,9a30,30,0,0,1,.71-3.8c.22-.76.49-1.13.78-1.13a.94.94,0,0,1,.68.44,3.66,3.66,0,0,1,.55,1.08c.68,2,1.25,3.61,1.7,4.75a20.59,20.59,0,0,0,1.83,3.49,14.89,14.89,0,0,0,2.89,3.24l.3-.15a24.11,24.11,0,0,1-.2-2.71A8.3,8.3,0,0,1,20.7,8.89,5.32,5.32,0,0,1,25.06,7a5.29,5.29,0,0,1,4.15,1.68,6.45,6.45,0,0,1,1.51,4.49A8.46,8.46,0,0,1,30,16.57a7.93,7.93,0,0,1,.83.57,19.36,19.36,0,0,0,3.62-4.36,21,21,0,0,0,2-4.27c.42-1.34.77-2.42,1-3.25S38.12,4,38.52,4a.59.59,0,0,1,.58.46,18.18,18.18,0,0,1,.46,2,20.21,20.21,0,0,0,.6,2.42,2.68,2.68,0,0,0,1.08-1.61,22.5,22.5,0,0,0,.7-3,13.8,13.8,0,0,1,.65-2.66A1.13,1.13,0,0,1,43.67.75c.58,0,1,.44,1.17,1.33a21.38,21.38,0,0,1,.3,4.25A5.12,5.12,0,0,0,46.79,4c.08-.23.26-.83.54-1.78A7.07,7.07,0,0,1,48,.42a1,1,0,0,1,1.65.23A3.16,3.16,0,0,1,50,2.14a6.54,6.54,0,0,1-2,4.72,53,53,0,0,1-7.09,5.61q-5.1,3.57-8.37,6.39a5.79,5.79,0,0,1,.65.87,8.05,8.05,0,0,1,3.41-.7,6.57,6.57,0,0,1,3.23.78A5.55,5.55,0,0,1,42,21.9a5.78,5.78,0,0,1,.23,5.32,4.49,4.49,0,0,1-1.5,1.85,5.33,5.33,0,0,1-2,.91,13.19,13.19,0,0,1-2.55.35c-.92,0-2.1.08-3.55.11l-.22.23a14,14,0,0,0,2.16,2q1.2.89,4.2,3c2,1.39,3.75,2.67,5.23,3.84a55.32,55.32,0,0,1,4.5,4,4.24,4.24,0,0,1,.75,1.1A7.85,7.85,0,0,1,49.8,46a6.2,6.2,0,0,1,.2,1.5c0,1.37-.46,2-1.37,2a.94.94,0,0,1-.75-.31,2.94,2.94,0,0,1-.42-1c-.12-.43-.34-1.33-.67-2.7a4.77,4.77,0,0,0-.71-1.54,2.6,2.6,0,0,0-1.14-1,25.41,25.41,0,0,1,.1,2.71c0,2-.45,3-1.37,3a1.22,1.22,0,0,1-1-.74,7.55,7.55,0,0,1-.74-2.15c-.21-.95-.41-2.09-.61-3.44a3.5,3.5,0,0,0-.37-1.17,2,2,0,0,0-.85-.72,13.82,13.82,0,0,0-.39,2.09A15.58,15.58,0,0,1,39.23,45c-.16.49-.4.73-.71.73a.79.79,0,0,1-.6-.38,2.58,2.58,0,0,1-.43-.84c-.25-.79-.57-1.82-1-3.07A27.9,27.9,0,0,0,35.18,38a17.72,17.72,0,0,0-1.81-3,15.13,15.13,0,0,0-2.6-2.66,2.06,2.06,0,0,1-.63.35,11.28,11.28,0,0,1,.63,3.63A6.39,6.39,0,0,1,30,39.42a5.39,5.39,0,0,1-2.06,2.12,5.61,5.61,0,0,1-2.83.74,6.79,6.79,0,0,1-2.53-.5A4.86,4.86,0,0,1,20.65,40.46Zm.87-24.69A10.89,10.89,0,0,1,25,15.15a9.6,9.6,0,0,1,3,.45,4,4,0,0,0,.57-2,3.81,3.81,0,0,0-1-2.74,3.26,3.26,0,0,0-2.49-1,3.4,3.4,0,0,0-1.92.59A4,4,0,0,0,21.82,12a5.15,5.15,0,0,0-.49,2.28,3.13,3.13,0,0,0,.05.48c0,.24.06.45.08.62S21.51,15.69,21.52,15.77ZM25,17.91a6.38,6.38,0,0,0-4.76,2,6.57,6.57,0,0,0-1.92,4.76,6.32,6.32,0,0,0,2,4.61,6.43,6.43,0,0,0,4.71,2,6.89,6.89,0,0,0,3.39-.86A6.38,6.38,0,0,0,30.8,28a6.27,6.27,0,0,0,.89-3.29,6.62,6.62,0,0,0-2-4.83A6.41,6.41,0,0,0,25,17.91Zm-9.12,9.74a11,11,0,0,1-.47-3.11A10.27,10.27,0,0,1,16,21.18,4.16,4.16,0,0,0,14.65,21a5.25,5.25,0,0,0-3.46,1,3.38,3.38,0,0,0-1.25,2.75,3.05,3.05,0,0,0,1.16,2.45,4.21,4.21,0,0,0,2.78,1A5.56,5.56,0,0,0,15.87,27.65Zm18.26-5.83a10.59,10.59,0,0,1,.52,3.12,6.45,6.45,0,0,1-.82,3.26,12.36,12.36,0,0,0,1.62.1Q40,28.3,40,24.64a3.15,3.15,0,0,0-1.1-2.5,3.79,3.79,0,0,0-2.59-1A5.36,5.36,0,0,0,34.13,21.82ZM28.05,33.66a18.74,18.74,0,0,1-3.26.47,11.27,11.27,0,0,1-3.36-.67c-.07.83-.1,1.36-.1,1.59a4.81,4.81,0,0,0,1,3.29,3.46,3.46,0,0,0,2.74,1.2,3.55,3.55,0,0,0,2.47-1,3.08,3.08,0,0,0,1-2.35A8.26,8.26,0,0,0,28.05,33.66Z"/></g></g></svg>