<svg xmlns="http://www.w3.org/2000/svg" viewBox="0 0 24.5 24"><g id="レイヤー_2" data-name="レイヤー 2"><g id="レイヤー_1-2" data-name="レイヤー 1"><path d="M12.28,15.05a2.16,2.16,0,0,1,.28-1.17,2.29,2.29,0,0,1,.9-.75,4,4,0,0,0,.21,1.1.9.9,0,0,0,.44.51,2.18,2.18,0,0,0,.87.14c.15,0,.35-.14.59-.42a1.59,1.59,0,0,0,.4-.83c0-.41.06-.86.08-1.35s0-1,0-1.47,0-1,.09-1.42A11.87,11.87,0,0,1,16.39,8a9,9,0,0,1-1.57.28c-.54,0-1.24.07-2.09.09s-1.49,0-1.92.08A1.51,1.51,0,0,0,10,8.9c-.28.25-.43.45-.43.59a1.4,1.4,0,0,0,.36,1.12,2.73,2.73,0,0,0,1.42.4,2,2,0,0,1-.75.89,2.2,2.2,0,0,1-1.17.28c-.68,0-1.24,0-1.67,0a9.86,9.86,0,0,1-1.33-.25c-.66-.16-1.12-.26-1.38-.31a4.26,4.26,0,0,0-1-.08,2.67,2.67,0,0,0-1.94.84,2.64,2.64,0,0,0-.84,1.92,1.81,1.81,0,0,0,.48,1.27A1.49,1.49,0,0,0,2.91,16a1.17,1.17,0,0,0,.78-.31A1,1,0,0,0,4,15c0-.53-.3-.83-.89-.9a.75.75,0,0,1,.24-.38.88.88,0,0,1,.45-.1.89.89,0,0,1,.68.36,1.08,1.08,0,0,1,.32.76,1.89,1.89,0,0,1-.5,1.32,1.63,1.63,0,0,1-1.21.53,2.15,2.15,0,0,1-1.87-.9,4.64,4.64,0,0,1-.63-2.66,2.93,2.93,0,0,1,.47-1.73,2.11,2.11,0,0,1,1.45-.82l0-.09a3.3,3.3,0,0,0-.42-.14,1.7,1.7,0,0,1-.51-.21,2,2,0,0,1-.45-.4A3.92,3.92,0,0,1,2.25,8.56a2.19,2.19,0,0,1,.94-.39c.28,0,.7,0,1.24,0a2,2,0,0,1,1,.32c.6.36,1,.61,1.29.74a1.87,1.87,0,0,0,.88.2,1,1,0,0,0,.78-.28,1.08,1.08,0,0,0,.27-.79c0-.82-.47-1.24-1.39-1.24a5,5,0,0,0-.66.17,3.25,3.25,0,0,1-1,.17,4.7,4.7,0,0,1-1.47-.28,6.36,6.36,0,0,1-1.56-.79,4.82,4.82,0,0,1-.9-.76,5.9,5.9,0,0,1-.54-.73l-.44-.7a1.61,1.61,0,0,1,.4-.26.92.92,0,0,1,.32-.09,2,2,0,0,1,.4,0l.28.07a3.34,3.34,0,0,0,.61,0c.06,0,.09-.15.09-.38s-.07-.19-.22-.26a1.62,1.62,0,0,0-.43-.12,4.21,4.21,0,0,1-1-.17.75.75,0,0,1-.41-.48A3.7,3.7,0,0,1,.6,1.31,4.43,4.43,0,0,1,.82,0a5,5,0,0,1,.6.49A3.1,3.1,0,0,0,2.09,1c1.1.46,2,.86,2.66,1.2a13.45,13.45,0,0,1,2,1.32L8.35,4.73A21.33,21.33,0,0,0,10.2,6,8.9,8.9,0,0,0,12,6.88a6.42,6.42,0,0,0,2,.32l.93,0a8.67,8.67,0,0,0,.91,0,4.19,4.19,0,0,0,.82-.15,8.51,8.51,0,0,1,2.27-3.86h-.36a2,2,0,0,1-1.15-.34,1.26,1.26,0,0,1-.51-1V1.63a.37.37,0,0,0,0-.15.17.17,0,0,0-.11-.09.61.61,0,0,0-.27,0c-.15,0-.29.11-.41.32a.53.53,0,0,1-.47.23h-.3a2,2,0,0,1-.39,0,2.49,2.49,0,0,1-.54-.15,1.89,1.89,0,0,1,.25-.9l-.23,0L14.13.72A4.2,4.2,0,0,0,12,1.15a1.36,1.36,0,0,0-.73,1.25,1.07,1.07,0,0,0,.29.73.9.9,0,0,0,.68.31c.55,0,.87-.34,1-1,0,0,0,0,0,0h.08a.22.22,0,0,1,.19.13.49.49,0,0,1,.09.28.85.85,0,0,1-.18.49,1.24,1.24,0,0,1-.52.42,1.77,1.77,0,0,1-.77.16,1.29,1.29,0,0,1-1-.45,1.6,1.6,0,0,1-.4-1.12,1.41,1.41,0,0,1,.13-.64,3.45,3.45,0,0,1,.45-.62A2.84,2.84,0,0,1,12.5.31,4.89,4.89,0,0,1,13.79.07l2.48,0H18a8.42,8.42,0,0,1,1.44.12,7.27,7.27,0,0,1,1.15.4A3.55,3.55,0,0,0,21.76.9a.6.6,0,0,0,.46-.13A5.65,5.65,0,0,1,22.84.2a.93.93,0,0,1,.54-.13.92.92,0,0,1,.67.33,1,1,0,0,1,.3.65A1.24,1.24,0,0,1,24,1.9l-.17.15a.7.7,0,0,0-.2.26.8.8,0,0,0-.08.36,3,3,0,0,0,.32,1,7.14,7.14,0,0,1,.43,1.2,5.94,5.94,0,0,1,.12.86c0,.29,0,.66,0,1.12s0,.88,0,1.27c0,1.21,0,2,0,2.46a4.69,4.69,0,0,1-.23,1.31,2.77,2.77,0,0,1-.72,1.16,2.23,2.23,0,0,1-.58.43,1.54,1.54,0,0,1-.7.14A1.65,1.65,0,0,1,21,13.27a1.26,1.26,0,0,1-.44-1,1.57,1.57,0,0,1,.34-1.06,1,1,0,0,1,.7-.41c.29,0,.43.09.43.27a.19.19,0,0,1,0,.1l-.08,0h-.09a.93.93,0,0,0-.52,1.62,1,1,0,0,0,.71.29,1.35,1.35,0,0,0,1.23-.74,4.14,4.14,0,0,0,.44-2.09,1,1,0,0,0,0-.24c0-.1,0-.19-.06-.26l-.22.11a1.31,1.31,0,0,1-.27.07l-.23,0-.18,0a2.43,2.43,0,0,1-.14-.49,2.1,2.1,0,0,1,0-.41c0-.12,0-.22,0-.32a.47.47,0,0,1,.23-.45.53.53,0,0,0,.32-.45c0-.21,0-.32-.08-.34a1.21,1.21,0,0,0-.42-.06c-.92,0-1.36-.73-1.34-2a9,9,0,0,1-3.87,2.3,5.3,5.3,0,0,0-.14,1.27c0,.48,0,.94,0,1.39a6,6,0,0,0,.33,2,7.34,7.34,0,0,0,.82,1.74q.49.79,1.2,1.71c.46.61.93,1.2,1.39,1.78a15.08,15.08,0,0,1,1.41,2.19c.4.76.78,1.59,1.16,2.49a2.42,2.42,0,0,0,.21.37c.09.13.24.3.43.53l.31.37a4.31,4.31,0,0,1-1.31.23,3.31,3.31,0,0,1-1.29-.2.87.87,0,0,1-.49-.83,8,8,0,0,0-.12-.9.28.28,0,0,0-.29-.26c-.23,0-.37,0-.4.11a2,2,0,0,0-.05.58.77.77,0,0,0,.14.45.21.21,0,0,1,0,.12.68.68,0,0,0,0,.12,1.08,1.08,0,0,1-.36.71l-.71-.43a5.11,5.11,0,0,1-.73-.56,4.87,4.87,0,0,1-.75-.86,6.46,6.46,0,0,1-.78-1.58,4.69,4.69,0,0,1-.29-1.46,3.48,3.48,0,0,1,.17-1,3.67,3.67,0,0,0,.17-.66c0-.93-.41-1.4-1.24-1.4a1,1,0,0,0-1.07,1.07,2.31,2.31,0,0,0,.05.49,1.23,1.23,0,0,0,.17.41c.38.63.65,1.1.81,1.39a1.76,1.76,0,0,1,.24.83v.71a2.91,2.91,0,0,1-.14.89,2.58,2.58,0,0,1-.48.84,4.22,4.22,0,0,1-.93.81,2,2,0,0,1-.39-.45,2.49,2.49,0,0,1-.17-.47,2.7,2.7,0,0,0-.16-.46l-.09,0a2.08,2.08,0,0,1-.82,1.46,2.86,2.86,0,0,1-1.75.49,4.66,4.66,0,0,1-2.67-.63,2.12,2.12,0,0,1-.9-1.86,1.63,1.63,0,0,1,.54-1.23,1.82,1.82,0,0,1,1.3-.51,1.11,1.11,0,0,1,.77.33.93.93,0,0,1,.36.69.82.82,0,0,1-.08.43.74.74,0,0,1-.39.26,1.1,1.1,0,0,0-.26-.64.82.82,0,0,0-.64-.23.94.94,0,0,0-.69.33,1.07,1.07,0,0,0-.31.76A1.59,1.59,0,0,0,9.33,23a1.87,1.87,0,0,0,.9.21,2.68,2.68,0,0,0,1.35-.38,3,3,0,0,0,1.05-1,2.54,2.54,0,0,0,.4-1.38,5.34,5.34,0,0,0-.09-.95c-.06-.33-.14-.68-.24-1s-.19-.69-.25-1a4.43,4.43,0,0,1-.12-.7C12.29,16.27,12.28,15.72,12.28,15.05ZM3.09,24H2.52a8.71,8.71,0,0,1,1.19-3.69,9.45,9.45,0,0,1-1.88.83A8.36,8.36,0,0,1,0,21.53V21a5.41,5.41,0,0,0,1.2-.21,12.12,12.12,0,0,0,1.49-.52,11.52,11.52,0,0,0,1.45-.72l.36.35a14,14,0,0,0-1,2.25A7.81,7.81,0,0,0,3.09,24ZM0,24V22.68a12,12,0,0,0,1.86-.52l-.1.27c-.18.65-.32,1.17-.4,1.57Z"/></g></g></svg>