<svg xmlns="http://www.w3.org/2000/svg" viewBox="0 0 23.87 23.35"><g id="レイヤー_2" data-name="レイヤー 2"><g id="レイヤー_1-2" data-name="レイヤー 1"><path d="M10.32,23.35H0V22.06H.23l.22,0,.34,0c1.6,0,3.08-.07,4.44-.19a23.83,23.83,0,0,0,4-.74,20.84,20.84,0,0,0,3.89-1.54,18.43,18.43,0,0,0,2.75-1.75,18.57,18.57,0,0,0,2.33-2.12,18.5,18.5,0,0,0,1.93-2.48,17.14,17.14,0,0,0,1.47-2.75,20,20,0,0,0,1.19-4,21.46,21.46,0,0,0,.46-4.35A6,6,0,0,0,23.18,1c-.06-.31-.15-.48-.25-.5a1.59,1.59,0,0,0-.26.76c-.07.37-.18,1.06-.34,2.06S22,5.19,21.82,6a19.65,19.65,0,0,1-1.93,5.12,19.31,19.31,0,0,1-3.2,4.31,17.88,17.88,0,0,1-4.16,3.13,18.81,18.81,0,0,1-5.54,2A39,39,0,0,1,.69,21H0v-.59H.6l2,0c.68,0,1.46-.06,2.36-.13a16.09,16.09,0,0,0,3.4-.61,18.94,18.94,0,0,0,3.26-1.26,18.84,18.84,0,0,0,3-1.84,16,16,0,0,0,2.51-2.32,16,16,0,0,0,1.83-2.49,19.85,19.85,0,0,0,1.4-2.85,26.71,26.71,0,0,0,1-3.06c.27-1,.5-2.15.71-3.33,0,0,.06-.33.15-.85s.18-.89.24-1.09a.87.87,0,0,1,.23-.43A.45.45,0,0,1,23,0c.59,0,.89,1.27.89,3.81,0,.88,0,1.66-.1,2.34a4.62,4.62,0,0,1-.1.83V7.1l0,.17.07,0,.05.15a2.44,2.44,0,0,1-.32,1c-.18.32-.49.81-.93,1.48a4.36,4.36,0,0,0-.69,1.3l.14.11.21,0,.66-.31.24-.07.35-.08.17,0,.12.09-.12.48a8.58,8.58,0,0,1-1.26,3.18,2.1,2.1,0,0,1-1.54,1.05h-.53a.68.68,0,0,0-.42.14.44.44,0,0,0-.19.37.46.46,0,0,0,.26.43,1,1,0,0,0,.61.09l.89-.14a1.44,1.44,0,0,1,.41,0,1.35,1.35,0,0,1,.6.16c0,.05-.22.3-.53.75a9.77,9.77,0,0,1-.91,1.16,4.61,4.61,0,0,1-1.13.86,3.13,3.13,0,0,1-1.54.37,1.75,1.75,0,0,1-.61-.09l-.69-.32a1.46,1.46,0,0,0-.39-.07.65.65,0,0,0-.43.16.49.49,0,0,0-.19.39.67.67,0,0,0,.34.64,2.1,2.1,0,0,0,.79.26l.91.14.23,0,.11.2c0,.24-.36.53-1,.88a9.62,9.62,0,0,1-2.75.91A21.58,21.58,0,0,1,10.32,23.35ZM14,4.1V3.67A3.74,3.74,0,0,1,15,1a3.22,3.22,0,0,1,2.45-1,3,3,0,0,1,2.21.88,3,3,0,0,1,.88,2.21,3,3,0,0,1-.11.76,2.12,2.12,0,0,1-.31.64.61.61,0,0,1-.42.26.42.42,0,0,1-.21-.34,3.8,3.8,0,0,1,.09-.56,4.07,4.07,0,0,0,.1-.71A1.9,1.9,0,0,0,19,1.73a2.12,2.12,0,0,0-1.52-.58,1.81,1.81,0,0,0-1,.27.82.82,0,0,0-.41.67.36.36,0,0,0,.32.41l.21-.09.19-.14a1,1,0,0,1,.56-.18.71.71,0,0,1,.37.07,1,1,0,0,1,.25.25,1,1,0,0,0-.27.44,3.69,3.69,0,0,1-.63,1.39,1.25,1.25,0,0,1-1,.44,1.4,1.4,0,0,1-.73-.2,3.79,3.79,0,0,1-.73-.6.9.9,0,0,0-.12.41,5.48,5.48,0,0,0,.24,1.2c.16.58.27,1,.32,1.27a5.23,5.23,0,0,1,.09,1.11,6.94,6.94,0,0,1-.29,2A6.52,6.52,0,0,1,14,11.62a5,5,0,0,1-1,1.11,16.22,16.22,0,0,1-1.65,1.14.39.39,0,0,0-.27.36c0,.14.11.25.34.32a1.92,1.92,0,0,1,.69.29c.13.09.19.29.19.59a1.34,1.34,0,0,1-.24.83,1.59,1.59,0,0,1-.66.49,5.8,5.8,0,0,1-.89.29l-1.13.26L9.28,17l.2-.65-.11-.24-.18,0-.3.09-.17.11a1.84,1.84,0,0,1-.46.18,3.09,3.09,0,0,1-.77.07,3.23,3.23,0,0,1-1.39-.29,3.11,3.11,0,0,1-.95-.69,8.63,8.63,0,0,1-.73-.93A5.84,5.84,0,0,0,3.94,14v-.06c0-.14.14-.21.41-.21a1.41,1.41,0,0,1,.47.14A1.25,1.25,0,0,0,5.3,14a.57.57,0,0,0,.38-.13.38.38,0,0,0,.16-.33c0-.18-.13-.35-.39-.5l-.82-.46A1.48,1.48,0,0,1,4.06,12a2,2,0,0,1-.25-1,2.13,2.13,0,0,1,.74-1.6,2.46,2.46,0,0,1,1.71-.69,2,2,0,0,1,1.35.47,1.45,1.45,0,0,1,.53,1.12.91.91,0,0,1-.39.79L7.68,11l-.12-.48A1,1,0,0,0,7.2,10a1,1,0,0,0-.62-.24.91.91,0,0,0-.7.32,1.12,1.12,0,0,0-.29.78A1.82,1.82,0,0,0,6,12a2.81,2.81,0,0,0,1.22.85,5.07,5.07,0,0,0,1.8.31,5.33,5.33,0,0,0,2.76-.77,5.65,5.65,0,0,0,2.76-4.9A5.08,5.08,0,0,0,14.36,6a2.87,2.87,0,0,0-.5-1q-.3-.31-.51-.27l-.13,0A1.1,1.1,0,0,0,13,5l-.14.3,0,.3a1.31,1.31,0,0,1-.51.94A1.6,1.6,0,0,1,11.23,7a1.66,1.66,0,0,1-.73-.16,1.56,1.56,0,0,1-.56-.42,1.13,1.13,0,0,1-.29-.59c0-.35-.14-.51-.31-.48l-.22,0a1,1,0,0,0-.46.91A1.76,1.76,0,0,0,9.1,7.44a1.24,1.24,0,0,0,1,.52.78.78,0,0,0,.46-.21l.26-.12L11,7.8a.74.74,0,0,1-.35.56,1.34,1.34,0,0,1-.71.19,1.64,1.64,0,0,1-1-.33,2.25,2.25,0,0,1-.73-.85A2.45,2.45,0,0,1,8,6.24a2.6,2.6,0,0,1,.42-1.4,3.25,3.25,0,0,1,1.1-1.08A2.85,2.85,0,0,1,11,3.35a4.63,4.63,0,0,1,2.59.94A7.11,7.11,0,0,0,12.64,3a5.85,5.85,0,0,0-1.41-1A7.14,7.14,0,0,0,9,1.14,14.21,14.21,0,0,0,6.41,1a16,16,0,0,0-2,.11l-1,.09H3.14a5.22,5.22,0,0,1,1.95.74,1.42,1.42,0,0,1,.64,1.23,1.34,1.34,0,0,1-.22.75,1.6,1.6,0,0,1-.61.54,1.92,1.92,0,0,1-.87.2A1.33,1.33,0,0,1,3,4.2a1.49,1.49,0,0,1-.37-1.06,1.84,1.84,0,0,1,.06-.47,2.32,2.32,0,0,1,.12-.35c0-.09.07-.17.09-.23l0-.3a.35.35,0,0,0-.18-.37,1.32,1.32,0,0,0-.71-.15,9.16,9.16,0,0,0-1,.05c-.35,0-.61.06-.79.06L0,1.41V.12H2.78L5.38.05h.53c.67,0,1.21,0,1.62.05A7.92,7.92,0,0,1,8.89.35a9,9,0,0,1,1.6.58,8.08,8.08,0,0,1,2.14,1.32A7.6,7.6,0,0,1,14,4.1Z"/></g></g></svg>