<svg xmlns="http://www.w3.org/2000/svg" viewBox="0 0 26.73 20.07"><g id="レイヤー_2" data-name="レイヤー 2"><g id="レイヤー_1-2" data-name="レイヤー 1"><path d="M16.25,17.92,15.87,17l-.22-.36a11.72,11.72,0,0,1-2.6,2.16,8.73,8.73,0,0,1-3,1,31.61,31.61,0,0,1-4.69.28c-.65,0-1.46,0-2.42-.06l-3-.13V18.4a5.44,5.44,0,0,0,1.4.25h.16a3.46,3.46,0,0,0,.57-.32A.47.47,0,0,0,2.29,18c-.07-.18-.13-.32-.18-.43A1.6,1.6,0,0,1,2,17.22a1.64,1.64,0,0,1-.05-.37,1.19,1.19,0,0,1,.49-.94,1.67,1.67,0,0,1,1.11-.4A1.8,1.8,0,0,1,4.78,16,1.39,1.39,0,0,1,5.29,17a1.2,1.2,0,0,1-.36,1,2.51,2.51,0,0,1-1,.45l-1.61.38,2.49.31a24.08,24.08,0,0,0,2.75.16,11.41,11.41,0,0,0,4.64-.78,8.47,8.47,0,0,0,3.09-2.48l-.36-.57a7.08,7.08,0,0,1-1.16.62,3.39,3.39,0,0,1-1.26.21,2.85,2.85,0,0,1-1.76-.56A1.62,1.62,0,0,1,10,14.44a1.4,1.4,0,0,1,.37-1,1.15,1.15,0,0,1,.86-.4,2,2,0,0,1,1,.28,2.24,2.24,0,0,0,.66.27.39.39,0,0,0,.28-.11.35.35,0,0,0,.12-.28c0-.34-.29-.65-.87-.92a4.81,4.81,0,0,0-2.05-.41,4.53,4.53,0,0,0-1.47.23,2.42,2.42,0,0,0-1,.66,1.3,1.3,0,0,0-.37.88,1,1,0,0,0,.31.79c.43.49.65.84.65,1a.8.8,0,0,1-.36.65L8,16a5.6,5.6,0,0,0-.67-.86,2.27,2.27,0,0,1-.64-1.4,2.31,2.31,0,0,1,.53-1.43,3.83,3.83,0,0,1,1.43-1.1,4.55,4.55,0,0,1,2-.42,4.7,4.7,0,0,1,2.33.53,4.16,4.16,0,0,1,1.41,1.26,9.41,9.41,0,0,1,.84,1.74c.25.68.4,1.07.44,1.16a10.72,10.72,0,0,0,.69-1.74,7.76,7.76,0,0,0,.21-2A6.23,6.23,0,0,0,16,9.11,6.89,6.89,0,0,0,14.48,7a7.12,7.12,0,0,0-2.23-1.48A6.85,6.85,0,0,0,9.59,5a5.26,5.26,0,0,0-3.1.84,2.47,2.47,0,0,0-1.2,2.08,1.27,1.27,0,0,0,.3.84.85.85,0,0,0,.69.36c.42,0,.63-.19.63-.58a2.05,2.05,0,0,0-.16-.6l-.11-.36c0-.19.12-.29.35-.29a.79.79,0,0,1,.64.33,1.13,1.13,0,0,1,.26.76,1.61,1.61,0,0,1-.25.88,1.72,1.72,0,0,1-.71.62,2.25,2.25,0,0,1-1,.22,2.13,2.13,0,0,1-1-.24.87.87,0,0,1-.5-.66l.08-.22s0,0,0-.09a.66.66,0,0,0,0-.16l-.16-.16-.52.08c-.14,0-.29,0-.44-.26a1.39,1.39,0,0,1-.24-.86.72.72,0,0,1,.26-.61.62.62,0,0,1,.5-.15l.55.11a.26.26,0,0,0,.21-.12.36.36,0,0,0,.1-.24.44.44,0,0,0-.31-.4,2.91,2.91,0,0,1-.79-.44A.8.8,0,0,1,3.44,5a1.43,1.43,0,0,1,.65-1.14,2.16,2.16,0,0,1,1.32-.5.9.9,0,0,1,.92.58l.18.38a.59.59,0,0,0,.6.4.8.8,0,0,0,.47-.15.44.44,0,0,0,.21-.37,2.1,2.1,0,0,0-.29-.73,2,2,0,0,1-.29-.81,1.21,1.21,0,0,1,.32-.78,2.21,2.21,0,0,1,.87-.62A3,3,0,0,1,9.59,1a2.15,2.15,0,0,1,1.3.35,1.14,1.14,0,0,1,.5,1,3,3,0,0,1-.14.57,2.63,2.63,0,0,0-.13.63.54.54,0,0,0,.21.43.76.76,0,0,0,.5.17.71.71,0,0,0,.5-.19.75.75,0,0,0,.26-.52l.05-.49a1.15,1.15,0,0,1,.48-.77,1.51,1.51,0,0,1,1-.35,2.47,2.47,0,0,1,1.16.35,3.12,3.12,0,0,1,1.06.91,2,2,0,0,1,.43,1.21,1.14,1.14,0,0,1-.67,1.14l-.28.12a1.05,1.05,0,0,0-.26.16.46.46,0,0,0-.16.24.62.62,0,0,0,.25.46,7.76,7.76,0,0,1,1.88,5.18,6.76,6.76,0,0,1-.37,2.34A12.28,12.28,0,0,1,16,16.17l.36.46a3.41,3.41,0,0,1,1.06-1.4,2.29,2.29,0,0,1,1.34-.46,1.78,1.78,0,0,1,1.25.47,1.54,1.54,0,0,1,.5,1.17,1.26,1.26,0,0,1-.34.92,1.2,1.2,0,0,1-1.49.18l-.39-.26-.34-.1a.48.48,0,0,0-.29.08.3.3,0,0,0-.1.25c0,.38.32.78,1,1.19a4.23,4.23,0,0,0,2.36.61A3.37,3.37,0,0,0,22,19.1a1.87,1.87,0,0,0,.79-.49.91.91,0,0,0,.28-.64.55.55,0,0,0-.17-.41.65.65,0,0,0-.46-.16.6.6,0,0,0-.57.43c-.31,0-.47-.18-.47-.46a.76.76,0,0,1,.36-.61,1.32,1.32,0,0,1,.84-.27,1.59,1.59,0,0,1,.72.16,1.23,1.23,0,0,1,.49.44,1.11,1.11,0,0,1,.18.63,2,2,0,0,1-1.13,1.63A5.43,5.43,0,0,1,20,20a4.62,4.62,0,0,1-2.34-.59A3.21,3.21,0,0,1,16.25,17.92ZM26.71,2.71V5.27l-.28,0h-.3a2.84,2.84,0,0,0-1.4.29.91.91,0,0,0-.5.83c0,.83.83,1.34,2.5,1.53l0,.39c-.27,3.88-1.41,5.81-3.42,5.81a2.53,2.53,0,0,1-1.64-.54A1.62,1.62,0,0,1,21,12.24a.78.78,0,0,1,.17-.51.66.66,0,0,1,.49-.24l.16.12,0,.38c0,.74.33,1.12,1,1.12a1.11,1.11,0,0,0,.87-.42,1.51,1.51,0,0,0,.35-1,2.31,2.31,0,0,0-.34-1.18c-.22-.39-.57-.92-1-1.6a14.4,14.4,0,0,1-1.05-1.78,3.75,3.75,0,0,1-.35-1.62,2.86,2.86,0,0,1,1.1-2.28,1.31,1.31,0,0,1,.76-.34c.13,0,.21.08.24.25.22.85.64,1.28,1.28,1.28a1.15,1.15,0,0,0,1-.53A2.64,2.64,0,0,0,26,2.37a1.41,1.41,0,0,0-.31-.84L25.31,1a.85.85,0,0,1-.16-.47c0-.38.15-.57.46-.57s.62.24.81.72A5.54,5.54,0,0,1,26.71,2.71Z"/></g></g></svg>