<svg xmlns="http://www.w3.org/2000/svg" viewBox="0 0 25.14 18.89"><g id="レイヤー_2" data-name="レイヤー 2"><g id="レイヤー_1-2" data-name="レイヤー 1"><path d="M0,7.76l0-.34Q2.4,7.11,2.4,6a.86.86,0,0,0-.49-.77A2.78,2.78,0,0,0,.56,4.94,3.16,3.16,0,0,0,0,5V2.52A5.06,5.06,0,0,1,.29.65C.46.22.72,0,1.05,0a.38.38,0,0,1,.32.15.56.56,0,0,1,.12.36,1.36,1.36,0,0,1-.27.67,2.08,2.08,0,0,0-.32.6,3.44,3.44,0,0,0-.05.69,2.1,2.1,0,0,0,.32,1.22A1,1,0,0,0,2,4.14a1.09,1.09,0,0,0,.73-.28,1.48,1.48,0,0,0,.43-.75l.08-.34s.08-.07.18-.07a1.07,1.07,0,0,1,.48.16,2.47,2.47,0,0,1,.6.46,2.67,2.67,0,0,1,.5.8,2.8,2.8,0,0,1,.21,1.1,3.44,3.44,0,0,1-.36,1.5,12.4,12.4,0,0,1-1,1.76c-.45.68-.77,1.17-.94,1.48a2.1,2.1,0,0,0-.25,1,1.39,1.39,0,0,0,.32,1,1,1,0,0,0,.78.37c.62,0,.93-.34.93-1l0-.37.13-.09a.64.64,0,0,1,.64.7,1.53,1.53,0,0,1-.29.9,2,2,0,0,1-.78.64,2.63,2.63,0,0,1-1.09.23A2.46,2.46,0,0,1,1,11.92,10.33,10.33,0,0,1,0,7.76ZM9.61,11a7.43,7.43,0,0,0,.17,1.85,11.32,11.32,0,0,0,.65,1.71c.06-.11.21-.48.44-1.11a7.32,7.32,0,0,1,.8-1.61A3.69,3.69,0,0,1,13,10.65a4.44,4.44,0,0,1,2.17-.48,4.22,4.22,0,0,1,1.83.4,3.44,3.44,0,0,1,1.34,1,2.11,2.11,0,0,1,.49,1.33,1.51,1.51,0,0,1-.2.8c-.14.21-.34.46-.59.76a2,2,0,0,0-.46.71,1.16,1.16,0,0,1-.36-.62,1.33,1.33,0,0,1,.41-.75,3.54,3.54,0,0,0,.37-.45,1,1,0,0,0,.12-.53,1.4,1.4,0,0,0-.75-1.2,3.51,3.51,0,0,0-2-.49,4.16,4.16,0,0,0-1.88.41c-.55.28-.82.57-.82.88a.33.33,0,0,0,.1.25.35.35,0,0,0,.26.1,3,3,0,0,0,.58-.26,2.22,2.22,0,0,1,1-.25,1,1,0,0,1,.82.37,1.38,1.38,0,0,1,.33.94,1.52,1.52,0,0,1-.69,1.22,2.7,2.7,0,0,1-1.68.53,4.23,4.23,0,0,1-2.28-.77l-.14.24-.18.3a10.51,10.51,0,0,0,1.32,1.34,6.53,6.53,0,0,0,1.44.91,8.07,8.07,0,0,0,1.89.59,13.19,13.19,0,0,0,2.5.21q.66,0,2.7-.18L23,17.72l-.25-.08-1.25-.27a2.35,2.35,0,0,1-.93-.42,1.14,1.14,0,0,1-.37-.92,1.33,1.33,0,0,1,.49-1,1.76,1.76,0,0,1,1.18-.42,1.57,1.57,0,0,1,1.06.38,1.09,1.09,0,0,1,.46.87,1.42,1.42,0,0,1-.16.61,3.38,3.38,0,0,0-.2.47.33.33,0,0,0,.13.28,5.27,5.27,0,0,0,.57.33l.15,0,.39,0a4.35,4.35,0,0,0,.46-.06,3.42,3.42,0,0,0,.45-.1V18.7l-2.79.12c-.82,0-1.59.07-2.31.07a28.42,28.42,0,0,1-4.39-.28,8.3,8.3,0,0,1-2.8-.93,11.21,11.21,0,0,1-2.42-2l-.21.33-.35.87a2.91,2.91,0,0,1-1.33,1.44,4.37,4.37,0,0,1-2.22.57,5.62,5.62,0,0,1-1.93-.31,3.3,3.3,0,0,1-1.34-.82,1.52,1.52,0,0,1-.48-1.06A1.07,1.07,0,0,1,3,15.83a1.33,1.33,0,0,1,.94-.34,1.24,1.24,0,0,1,.53.12,1,1,0,0,1,.41.32.67.67,0,0,1,.16.41.44.44,0,0,1-.11.3.47.47,0,0,1-.3.14.56.56,0,0,0-.52-.41.54.54,0,0,0-.4.16.5.5,0,0,0-.16.37.89.89,0,0,0,.25.61,1.67,1.67,0,0,0,.71.45,2.9,2.9,0,0,0,1.07.17,4.28,4.28,0,0,0,1.61-.28,3.19,3.19,0,0,0,1.09-.69,1.1,1.1,0,0,0,.4-.72c0-.21-.12-.31-.35-.31l-.34.11-.34.23a1,1,0,0,1-.62.17,1.06,1.06,0,0,1-.79-.33,1.21,1.21,0,0,1-.31-.87,1.43,1.43,0,0,1,.48-1.11,1.66,1.66,0,0,1,1.16-.44,2.11,2.11,0,0,1,1.3.46,3.17,3.17,0,0,1,.95,1.3l.32-.46a15.55,15.55,0,0,1-1-2.1,6.05,6.05,0,0,1-.36-2.19,7.66,7.66,0,0,1,.43-2.54,6.35,6.35,0,0,1,1.19-2.14c.27-.31.4-.52.4-.64a.51.51,0,0,0-.23-.29c-.1,0-.24-.12-.44-.2a.86.86,0,0,1-.45-.41A1.35,1.35,0,0,1,9.43,4a1.85,1.85,0,0,1,.39-1.11,3.09,3.09,0,0,1,1-.85,2.25,2.25,0,0,1,1.13-.34,1.35,1.35,0,0,1,.89.33,1.09,1.09,0,0,1,.44.73l.05.44a.81.81,0,0,0,.23.52.68.68,0,0,0,.48.18.72.72,0,0,0,.48-.17.53.53,0,0,0,.2-.41,2.74,2.74,0,0,0-.12-.6,3.22,3.22,0,0,1-.12-.53,1.08,1.08,0,0,1,.46-.91A2,2,0,0,1,16.13.93a2.73,2.73,0,0,1,1.61.47,1.31,1.31,0,0,1,.68,1.05,1.42,1.42,0,0,1-.24.69,2.29,2.29,0,0,0-.35.8.44.44,0,0,0,.2.34.73.73,0,0,0,.44.15A.6.6,0,0,0,19,4l.15-.37a.87.87,0,0,1,.87-.56,1.77,1.77,0,0,1,.83.23,2.36,2.36,0,0,1,.72.6,1.2,1.2,0,0,1,.3.74,1,1,0,0,1-.77,1,1.87,1.87,0,0,0-.4.19q-.09.06-.09.27a.33.33,0,0,0,.09.23.26.26,0,0,0,.21.1h.12l.37-.1a.67.67,0,0,1,.5.14.72.72,0,0,1,.23.58,1.31,1.31,0,0,1-.22.8c-.14.21-.28.29-.39.25L21.07,8l-.19.17.19.42a.8.8,0,0,1-.47.62,2.26,2.26,0,0,1-1,.21A1.9,1.9,0,0,1,18.28,9a1.47,1.47,0,0,1-.54-1.16A1.12,1.12,0,0,1,18,7.1a.75.75,0,0,1,.58-.29c.23,0,.34.08.34.25a2.12,2.12,0,0,1-.12.45,2.12,2.12,0,0,0-.12.45.61.61,0,0,0,.17.42.56.56,0,0,0,.42.17.79.79,0,0,0,.64-.33,1.26,1.26,0,0,0,.26-.82A2.14,2.14,0,0,0,19.66,6a3.55,3.55,0,0,0-1.44-1,5.76,5.76,0,0,0-2.09-.37,6.44,6.44,0,0,0-3.24.86A6.57,6.57,0,0,0,10.5,7.83,5.81,5.81,0,0,0,9.61,11Z"/></g></g></svg>