<svg xmlns="http://www.w3.org/2000/svg" viewBox="0 0 50 31.57"><path d="M14.19,7.57A10.72,10.72,0,0,0,16,8.64a19.89,19.89,0,0,0,2.73,1.07,8.74,8.74,0,0,0,2.57.46q.87,0,.87-1.56V4.79a19.63,19.63,0,0,1,.17-3A1.91,1.91,0,0,1,23.13.41,3.46,3.46,0,0,1,25,0a3.46,3.46,0,0,1,1.87.41,1.91,1.91,0,0,1,.79,1.37,19.63,19.63,0,0,1,.17,3V8.61c0,1,.3,1.56.92,1.56a8.3,8.3,0,0,0,3.08-.58,19.29,19.29,0,0,0,2.9-1.4,6.77,6.77,0,0,1,1.71-.83c.83,0,1.25.59,1.25,1.76a6.67,6.67,0,0,1-.22,1.7,6.09,6.09,0,0,1-.56,1.48,3.28,3.28,0,0,1-.75.95,29.14,29.14,0,0,1-2.9,2.16c-1.06.68-2.17,1.36-3.34,2a6.54,6.54,0,0,0-2,1.68,3.91,3.91,0,0,0-1,1.71,10.94,10.94,0,0,0-.1,1.68,2.67,2.67,0,0,0,.19,1.11,8.36,8.36,0,0,0,.8,1.29,5.88,5.88,0,0,0,1.66,1.57,4.23,4.23,0,0,0,2,.42,6.89,6.89,0,0,0,2-.32c.68-.22,1.66-.57,3-1.06A31.61,31.61,0,0,1,40,24.39,11.14,11.14,0,0,1,42.84,24a7,7,0,0,1,3.66,1,7.46,7.46,0,0,1,2.57,2.48A5.9,5.9,0,0,1,50,31.36c0,.14-.13.21-.32.21a1,1,0,0,1-.74-.25c-.62-.49-2.4-.74-5.32-.74a14.34,14.34,0,0,0-1.65.1l-2.58.39c-1.21.18-2.05.31-2.53.36a17,17,0,0,1-2,.09,8.15,8.15,0,0,1-2.75-.42,6.12,6.12,0,0,1-2.22-1.45,12.83,12.83,0,0,1-2.06-2.87l-.91-1.67c-.24-.45-.47-.83-.68-1.15a2.94,2.94,0,0,0-.58-.69.92.92,0,0,0-.61-.21q-.66,0-1.5,1.53-1.56,2.73-2.56,4.12a7.27,7.27,0,0,1-2.32,2.1,7.13,7.13,0,0,1-3.43.71,17.3,17.3,0,0,1-2-.09c-.49-.05-1.32-.17-2.47-.35s-2-.31-2.56-.38a12.23,12.23,0,0,0-1.75-.12c-2.92,0-4.7.25-5.32.74a.93.93,0,0,1-.69.25c-.27,0-.41-.38-.41-1.14a5.65,5.65,0,0,1,.93-3A7.39,7.39,0,0,1,3.52,25a7.12,7.12,0,0,1,3.64-1,11.31,11.31,0,0,1,2.92.38,32.68,32.68,0,0,1,3.34,1.09c1.25.48,2.24.83,3,1.06a6.93,6.93,0,0,0,2.09.35,4.06,4.06,0,0,0,2.06-.45,5.64,5.64,0,0,0,1.58-1.54,8.87,8.87,0,0,0,.82-1.23,2.62,2.62,0,0,0,.23-1.17A11,11,0,0,0,23,20.82a2.38,2.38,0,0,0-.46-1,8.38,8.38,0,0,0-1.07-1.32,6.32,6.32,0,0,0-1.4-1.08,37.59,37.59,0,0,1-6.19-4.18,3.72,3.72,0,0,1-1.08-1.67,6.72,6.72,0,0,1-.45-2.46c0-1.17.42-1.76,1.27-1.76A.91.91,0,0,1,14.19,7.57Z"/></svg>