<svg xmlns="http://www.w3.org/2000/svg" viewBox="0 0 9.73 9.71"><path d="M7,3.32V3.09a2.11,2.11,0,0,0,0-.25L5.81,4c-.41.4-.82.82-1.23,1.28s-.87,1-1.36,1.59A22.4,22.4,0,0,0,1.86,8.78c-.15.21-.27.39-.37.51a1.24,1.24,0,0,1-.29.28.74.74,0,0,1-.29.12l-.42,0a4.72,4.72,0,0,1-.49,0V9.53A3.92,3.92,0,0,1,0,8.9a1.3,1.3,0,0,1,.07-.34A22.79,22.79,0,0,1,2.78,6.51a12.84,12.84,0,0,0,1.09-.86c.42-.36.88-.79,1.37-1.27s1-1,1.63-1.68H6.56a7.81,7.81,0,0,0-1,.11,7.21,7.21,0,0,1-.9.1,8.25,8.25,0,0,1-.86,0,1.13,1.13,0,0,1-.58-.24A2.89,2.89,0,0,1,2.6,2a3.16,3.16,0,0,1-.44-.81A2.56,2.56,0,0,1,2,.3c0-.2.07-.3.2-.3s.21.08.37.23.41.43.75.82a.53.53,0,0,0,.2.15.43.43,0,0,0,.23.07A.38.38,0,0,0,4,1.15.53.53,0,0,0,4.16.89a1.17,1.17,0,0,0,0-.33c0-.12,0-.23,0-.33A.2.2,0,0,1,4.39,0a.73.73,0,0,1,.52.25A1.62,1.62,0,0,1,5.3,1c0,.19.11.39.17.59A3.38,3.38,0,0,0,5.64,2a.88.88,0,0,0,.21.3.49.49,0,0,0,.3.1.79.79,0,0,0,.59-.26A1,1,0,0,0,7,1.52a5.78,5.78,0,0,1,.09-1A1.11,1.11,0,0,1,7.29.15.38.38,0,0,1,7.55,0a.22.22,0,0,1,.22.12c0,.09.08.24.14.46A.25.25,0,0,0,8,.77a.29.29,0,0,0,.19.08A.35.35,0,0,0,8.49.7c.23-.32.39-.52.45-.59A.4.4,0,0,1,9.23,0a.47.47,0,0,1,.33.16.47.47,0,0,1,.17.35.4.4,0,0,1-.15.3,5.22,5.22,0,0,1-.52.39.42.42,0,0,0-.21.31.2.2,0,0,0,.05.14.44.44,0,0,0,.15.1,1,1,0,0,0,.2.07l.24.06a.39.39,0,0,1,.16.1.23.23,0,0,1,.08.14.39.39,0,0,1-.24.34,1.57,1.57,0,0,1-.66.19l-.4,0-.3,0-.28.06a1.17,1.17,0,0,0-.25.13.64.64,0,0,0-.32.55.58.58,0,0,0,.16.43,1.17,1.17,0,0,0,.49.25l.54.16a3.76,3.76,0,0,1,.44.15,1.88,1.88,0,0,1,.37.21A1.47,1.47,0,0,1,9.57,5a.74.74,0,0,1,.15.4c0,.08-.08.12-.22.12H9.18a1.17,1.17,0,0,0-.57.11.34.34,0,0,0-.19.31.62.62,0,0,0,.25.46c.27.27.48.46.61.6a4.64,4.64,0,0,1,.32.36.45.45,0,0,1,.12.23c0,.11-.12.16-.36.16l-.19,0a5.55,5.55,0,0,1-1-.33,3,3,0,0,1-.73-.49A1.71,1.71,0,0,1,7,6.24a1.94,1.94,0,0,1-.15-.78,6.58,6.58,0,0,1,0-.8c0-.24.07-.5.11-.78A5.41,5.41,0,0,0,7,3.32Z"/></svg>