<svg xmlns="http://www.w3.org/2000/svg" viewBox="0 0 351.38 351.73">
  <path class="cls-1" d="M263.14,64.28a15.3,15.3,0,0,1-2,8.39,16.06,16.06,0,0,1-6.47,5.43,28.79,28.79,0,0,0-1.48-7.87,6.61,6.61,0,0,0-3.2-3.68,14.62,14.62,0,0,0-6.25-1q-1.66,0-4.24,3.06a10.93,10.93,0,0,0-2.84,6c-.29,2.92-.48,6.15-.57,9.71s-.18,7.08-.26,10.58-.31,6.89-.66,10.19a86.84,86.84,0,0,1-1.57,9.66,64.26,64.26,0,0,1,11.32-2q5.82-.48,15-.65t13.82-.61a10.81,10.81,0,0,0,5.86-2.93c2-1.78,3.06-3.2,3.06-4.24q0-5.86-2.58-8t-10.19-2.89a14.55,14.55,0,0,1,5.42-6.38,16,16,0,0,1,8.4-2q7.33,0,12,.35a76.85,76.85,0,0,1,9.57,1.83q7.14,1.66,9.89,2.23a34.56,34.56,0,0,0,6.86.57,19.13,19.13,0,0,0,13.91-6,19,19,0,0,0,6-13.82A12.86,12.86,0,0,0,338.52,61a10.62,10.62,0,0,0-8-3.68,8.11,8.11,0,0,0-5.6,2.23,6.62,6.62,0,0,0-2.45,4.94q0,5.68,6.38,6.48a5.18,5.18,0,0,1-1.75,2.71,5.93,5.93,0,0,1-3.23.7,6.59,6.59,0,0,1-4.9-2.54,8.13,8.13,0,0,1-2.27-5.51,13.23,13.23,0,0,1,3.63-9.44A11.53,11.53,0,0,1,329,53q8.83,0,13.38,6.47t4.55,19.15q0,7.69-3.37,12.42T333.1,96.9l-.18.7c.59.23,1.59.55,3,1a15.41,15.41,0,0,1,3.67,1.53,13.8,13.8,0,0,1,3.2,2.84,28.86,28.86,0,0,1-7.57,8,15.73,15.73,0,0,1-6.82,2.79q-3,.31-8.88.31a15.2,15.2,0,0,1-7-2.27q-6.39-3.94-9.27-5.38a14,14,0,0,0-6.3-1.45,7.41,7.41,0,0,0-5.6,2,7.89,7.89,0,0,0-1.92,5.68q0,8.92,10,8.92a33.8,33.8,0,0,0,4.72-1.22,25.11,25.11,0,0,1,7-1.23,33.78,33.78,0,0,1,10.54,2.06,44.63,44.63,0,0,1,11.23,5.64,33.72,33.72,0,0,1,6.48,5.51,40.06,40.06,0,0,1,3.89,5.2q1.53,2.49,3.1,5a9.75,9.75,0,0,1-2.84,1.88,6.54,6.54,0,0,1-2.32.66,13,13,0,0,1-2.84-.35c-1-.24-1.71-.41-2.06-.53a21.83,21.83,0,0,0-4.32.22c-.44.15-.66,1.06-.66,2.76,0,.75.51,1.37,1.53,1.83a10.18,10.18,0,0,0,3.1.88,29.34,29.34,0,0,1,7.18,1.22,5.35,5.35,0,0,1,3,3.41q1,2.63,1,8.48a32.58,32.58,0,0,1-1.57,9.45,36.88,36.88,0,0,1-4.38-3.5,21.89,21.89,0,0,0-4.81-3.5q-11.81-4.89-19.06-8.61a90.74,90.74,0,0,1-14.61-9.49l-11.32-8.88a144.14,144.14,0,0,0-13.29-9.4,63.32,63.32,0,0,0-13-6,44.56,44.56,0,0,0-14.3-2.36c-2-.06-4.29-.11-6.74-.13s-4.62,0-6.51.17a30.48,30.48,0,0,0-5.91,1.09q-3.5,14.43-16.26,27.73h2.53a13.87,13.87,0,0,1,8.31,2.44c2.28,1.64,3.5,4.12,3.68,7.44v1.31a2.75,2.75,0,0,0,.17,1,1.39,1.39,0,0,0,.79.7,5.33,5.33,0,0,0,1.92.26c1.11,0,2.1-.76,3-2.27a3.7,3.7,0,0,1,3.41-1.66c.64-.06,1.35-.09,2.14-.09a18.41,18.41,0,0,1,2.8.26,20.9,20.9,0,0,1,3.89,1.14,14,14,0,0,1-1.84,6.47c.47.06,1,.15,1.66.26s1.34.26,2.1.44q10,0,15.22-3.11a9.83,9.83,0,0,0,5.25-9,7.52,7.52,0,0,0-2.1-5.25,6.49,6.49,0,0,0-4.9-2.27q-5.87,0-7,7.35,0,.25-.3.21c-.21,0-.4,0-.57,0a1.72,1.72,0,0,1-1.4-1,3.66,3.66,0,0,1-.61-2,6.17,6.17,0,0,1,1.27-3.5,9.18,9.18,0,0,1,3.76-3,12.75,12.75,0,0,1,5.55-1.18,9.2,9.2,0,0,1,7.17,3.24,11.6,11.6,0,0,1,2.89,8,10,10,0,0,1-1,4.59,24.15,24.15,0,0,1-3.24,4.51,20.5,20.5,0,0,1-8.31,5.29,33.32,33.32,0,0,1-9.31,1.7q-4.68.18-17.8.18-6.21,0-12.72,0a55.44,55.44,0,0,1-10.37-.84,53.15,53.15,0,0,1-8.26-2.88c-3.82-1.58-6.52-2.36-8.09-2.36s-2.74.32-3.32,1a48.24,48.24,0,0,1-4.42,4.07,6.69,6.69,0,0,1-3.89.91,6.46,6.46,0,0,1-4.81-2.36,6.94,6.94,0,0,1-2.19-4.63,8.87,8.87,0,0,1,2.71-6.12c.18-.18.59-.54,1.23-1.1a6,6,0,0,0,1.48-1.88,5.6,5.6,0,0,0,.53-2.53q0-2.37-2.28-7.44a46.88,46.88,0,0,1-3.06-8.65,36.36,36.36,0,0,1-.87-6.13q-.18-3.15-.18-8t.09-9.18q0-13,.13-17.67a33.9,33.9,0,0,1,1.66-9.4A20.1,20.1,0,0,1,183,78.45a15.45,15.45,0,0,1,4.15-3.06,11.33,11.33,0,0,1,5-1,11.92,11.92,0,0,1,8.09,2.75,8.88,8.88,0,0,1,3.19,7A11.39,11.39,0,0,1,201,91.78c-1.66,2-3.34,2.93-5,2.93q-3.06,0-3.06-1.92c0-.41,0-.66.13-.74a.84.84,0,0,1,.57-.14,2.64,2.64,0,0,0,.7-.08q5.94-1.14,5.95-6.74A6.51,6.51,0,0,0,198,80.15a7.35,7.35,0,0,0-5.12-2.05q-5.68,0-8.83,5.29t-3.15,15.08a8.58,8.58,0,0,0,.26,1.66c.18.76.32,1.4.44,1.93a8,8,0,0,1,1.57-.83,8.62,8.62,0,0,1,1.93-.48,11.8,11.8,0,0,1,1.66-.18,11.81,11.81,0,0,0,1.31-.09,18,18,0,0,1,1,3.46,14.54,14.54,0,0,1,.26,3c0,.85-.05,1.62-.05,2.32a3.33,3.33,0,0,1-1.66,3.24c-1.51.87-2.27,2-2.27,3.23,0,1.46.19,2.28.57,2.45a11.72,11.72,0,0,0,3,.44q9.89.52,9.62,14.51,13.74-12.93,27.82-16.52a40.36,40.36,0,0,0,1-9.14q0-5.2,0-10a44.14,44.14,0,0,0-2.31-14.25,59,59,0,0,0-5.91-12.51q-3.58-5.68-8.61-12.24t-10-12.77a108,108,0,0,1-10.15-15.78q-4.29-8.19-8.31-17.89a13.88,13.88,0,0,0-1.53-2.62q-1-1.41-3.1-3.85c-1.4-1.63-2.13-2.51-2.19-2.62a29.65,29.65,0,0,1,9.36-1.67c4.08,0,7.19.47,9.31,1.4s3.31,2.92,3.55,6a43.11,43.11,0,0,0,.83,6.52c.32,1.25,1,1.88,2.05,1.88,1.69,0,2.65-.27,2.89-.79a14.45,14.45,0,0,0,.35-4.2,5.57,5.57,0,0,0-1-3.23,1.29,1.29,0,0,1-.09-.88,7,7,0,0,0,.09-.87q0-2.37,2.53-5.08C207.05,3,208.75,4.07,210.36,5a36.13,36.13,0,0,1,5.29,4A33.8,33.8,0,0,1,221,15.22a46.25,46.25,0,0,1,5.64,11.32,33.73,33.73,0,0,1,2.06,10.54A24.27,24.27,0,0,1,227.45,44a30.16,30.16,0,0,0-1.22,4.72q0,10.07,8.92,10.06a7.49,7.49,0,0,0,7.7-7.7,16.19,16.19,0,0,0-.35-3.54,9.48,9.48,0,0,0-1.23-2.93q-4.11-6.83-5.81-10a12.66,12.66,0,0,1-1.71-5.91V23.53a20.87,20.87,0,0,1,1-6.35,18.32,18.32,0,0,1,3.46-6,30.73,30.73,0,0,1,6.69-5.82,12.14,12.14,0,0,1,2.8,3.2,16.74,16.74,0,0,1,1.22,3.36A20,20,0,0,0,250,15.22l.7-.18q1-7,5.86-10.49t12.59-3.5q12.68,0,19.15,4.55T294.79,19A11.78,11.78,0,0,1,291,27.81a13.06,13.06,0,0,1-9.36,3.67A8.07,8.07,0,0,1,276,29.12a6.77,6.77,0,0,1-2.58-5A6.55,6.55,0,0,1,274,21a5.51,5.51,0,0,1,2.85-1.88,8,8,0,0,0,1.88,4.64,5.93,5.93,0,0,0,4.59,1.66A6.62,6.62,0,0,0,288.28,23a7.79,7.79,0,0,0,2.23-5.46,11.09,11.09,0,0,0-1.66-5.82,11.29,11.29,0,0,0-4.51-4.24A13.83,13.83,0,0,0,277.83,6a19,19,0,0,0-9.67,2.72,21.42,21.42,0,0,0-7.56,7.34A18.43,18.43,0,0,0,257.71,26a37.46,37.46,0,0,0,.66,6.87q.66,3.54,1.75,7.43c.73,2.6,1.33,5,1.79,7.13a47,47,0,0,1,.88,5.07Q263.14,57.11,263.14,64.28ZM329.16,0h4.11q-.87,12.95-8.57,26.5a69.34,69.34,0,0,1,13.56-6,60.21,60.21,0,0,1,13.12-2.76v4.11a37.52,37.52,0,0,0-8.62,1.49,89.13,89.13,0,0,0-10.71,3.72,78.94,78.94,0,0,0-10.41,5.2L319,29.73a95.5,95.5,0,0,0,7.13-16.13A53.35,53.35,0,0,0,329.16,0Zm22.22,0V9.45A90,90,0,0,0,338,13.21l.7-1.93q2-7,2.88-11.28Z"/>
  <path class="cls-1" d="M64.28,88.24a15.39,15.39,0,0,1,8.39,2,16.12,16.12,0,0,1,5.43,6.47,29.11,29.11,0,0,0-7.87,1.49,6.6,6.6,0,0,0-3.68,3.19,14.7,14.7,0,0,0-1,6.26c0,1.1,1,2.52,3.06,4.24a11,11,0,0,0,6,2.84c2.92.29,6.15.48,9.71.57l10.58.26c3.5.09,6.89.31,10.19.66a86.84,86.84,0,0,1,9.66,1.57,64.42,64.42,0,0,1-2-11.32q-.48-5.82-.65-15t-.61-13.82a10.78,10.78,0,0,0-2.93-5.86c-1.78-2-3.2-3.06-4.24-3.06q-5.86,0-8,2.58T93.31,81.51a14.51,14.51,0,0,1-6.38-5.43,16,16,0,0,1-2-8.39q0-7.35.35-12a76.9,76.9,0,0,1,1.83-9.58q1.66-7.12,2.23-9.88a34.74,34.74,0,0,0,.57-6.87,19.11,19.11,0,0,0-6-13.9,19,19,0,0,0-13.82-6A12.81,12.81,0,0,0,61,12.86a10.62,10.62,0,0,0-3.68,8,8.11,8.11,0,0,0,2.23,5.6A6.62,6.62,0,0,0,64.45,29q5.68,0,6.48-6.39a5.24,5.24,0,0,1,2.71,1.75,6,6,0,0,1,.7,3.24,6.59,6.59,0,0,1-2.54,4.9,8.13,8.13,0,0,1-5.51,2.27,13.23,13.23,0,0,1-9.44-3.63A11.53,11.53,0,0,1,53,22.39Q53,13.56,59.47,9T78.62,4.46q7.69,0,12.42,3.37T96.9,18.28l.7.17c.23-.58.55-1.59,1-3a15.49,15.49,0,0,1,1.53-3.68,13.77,13.77,0,0,1,2.84-3.19,28.86,28.86,0,0,1,8,7.57A15.73,15.73,0,0,1,113.73,23q.31,3,.31,8.87a15.2,15.2,0,0,1-2.27,7q-3.94,6.39-5.38,9.27a13.89,13.89,0,0,0-1.45,6.3A7.37,7.37,0,0,0,107,60a7.85,7.85,0,0,0,5.68,1.93q8.92,0,8.92-10a33.8,33.8,0,0,0-1.22-4.72,25.23,25.23,0,0,1-1.23-7,33.73,33.73,0,0,1,2.06-10.54,44.7,44.7,0,0,1,5.64-11.24A33.63,33.63,0,0,1,132.32,12a40.06,40.06,0,0,1,5.2-3.89l5-3.11a9.92,9.92,0,0,1,1.88,2.85,6.55,6.55,0,0,1,.66,2.31,13,13,0,0,1-.35,2.85c-.24,1-.41,1.7-.53,2a22,22,0,0,0,.22,4.33c.15.44,1.06.66,2.76.66.75,0,1.37-.51,1.83-1.53a10.16,10.16,0,0,0,.88-3.11,29.24,29.24,0,0,1,1.22-7.17,5.35,5.35,0,0,1,3.41-3q2.63-1,8.48-1a32.58,32.58,0,0,1,9.45,1.57,37,37,0,0,1-3.5,4.37,22.13,22.13,0,0,0-3.5,4.81q-4.89,11.81-8.61,19.07a90.67,90.67,0,0,1-9.49,14.6L138.48,60a144.14,144.14,0,0,0-9.4,13.29,63.08,63.08,0,0,0-6,13,44.52,44.52,0,0,0-2.36,14.3c-.06,2-.11,4.28-.13,6.73s0,4.62.17,6.52a30.38,30.38,0,0,0,1.09,5.9q14.43,3.5,27.73,16.27v-2.54a13.91,13.91,0,0,1,2.44-8.31q2.46-3.41,7.44-3.67h1.31a3,3,0,0,0,1-.17,1.39,1.39,0,0,0,.7-.79,5.33,5.33,0,0,0,.26-1.92c0-1.11-.76-2.1-2.27-3a3.71,3.71,0,0,1-1.66-3.41c-.06-.64-.09-1.35-.09-2.14a18.41,18.41,0,0,1,.26-2.8,20.69,20.69,0,0,1,1.14-3.89,14,14,0,0,1,6.47,1.83c.06-.46.15-1,.26-1.66s.26-1.34.44-2.1q0-10-3.11-15.21a9.83,9.83,0,0,0-9-5.25,7.52,7.52,0,0,0-5.25,2.1,6.49,6.49,0,0,0-2.27,4.9q0,5.85,7.35,7c.17,0,.24.1.21.31s0,.39,0,.57a1.72,1.72,0,0,1-1,1.4,3.75,3.75,0,0,1-2,.61,6.17,6.17,0,0,1-3.5-1.27,9.18,9.18,0,0,1-3-3.76,12.75,12.75,0,0,1-1.18-5.55,9.2,9.2,0,0,1,3.24-7.17,11.6,11.6,0,0,1,8-2.89,10,10,0,0,1,4.59,1,23.69,23.69,0,0,1,4.51,3.24,20.5,20.5,0,0,1,5.29,8.31,33.32,33.32,0,0,1,1.7,9.31q.18,4.68.18,17.8,0,6.21,0,12.72a55.32,55.32,0,0,1-.84,10.36,53.16,53.16,0,0,1-2.88,8.27c-1.58,3.82-2.36,6.51-2.36,8.09s.32,2.74,1,3.32a46.91,46.91,0,0,1,4.07,4.42,6.67,6.67,0,0,1,.91,3.89,6.46,6.46,0,0,1-2.36,4.81,6.94,6.94,0,0,1-4.63,2.19,8.84,8.84,0,0,1-6.12-2.72c-.18-.17-.54-.58-1.1-1.22a6,6,0,0,0-1.88-1.49,5.6,5.6,0,0,0-2.53-.52q-2.37,0-7.44,2.27a45.44,45.44,0,0,1-8.65,3.06,35.37,35.37,0,0,1-6.13.88q-3.15.17-8,.17t-9.18-.08q-13,0-17.67-.14a33.53,33.53,0,0,1-9.4-1.66,20.08,20.08,0,0,1-8.35-5.2,15.49,15.49,0,0,1-3.06-4.16,11.25,11.25,0,0,1-1-5,11.9,11.9,0,0,1,2.75-8.09,8.88,8.88,0,0,1,7-3.2,11.4,11.4,0,0,1,7.65,2.5c2,1.66,2.93,3.33,2.93,5q0,3.06-1.92,3.06a1.28,1.28,0,0,1-.74-.13.84.84,0,0,1-.14-.57,2.59,2.59,0,0,0-.08-.7q-1.14-6-6.74-5.95a6.48,6.48,0,0,0-4.94,2.23,7.33,7.33,0,0,0-2.05,5.12q0,5.68,5.29,8.83t15.08,3.15a8.58,8.58,0,0,0,1.66-.26c.76-.18,1.4-.33,1.93-.44a8,8,0,0,1-.83-1.58,8.39,8.39,0,0,1-.48-1.92,12,12,0,0,1-.18-1.66,11.81,11.81,0,0,0-.09-1.31,17.31,17.31,0,0,1,3.46-1,14.54,14.54,0,0,1,3-.26c.85,0,1.62,0,2.32,0a3.35,3.35,0,0,1,3.24,1.66c.87,1.52,2,2.28,3.23,2.28,1.46,0,2.28-.19,2.45-.57a11.83,11.83,0,0,0,.44-3q.52-9.89,14.51-9.62Q120.17,139.06,116.58,125a40.36,40.36,0,0,0-9.14-1q-5.2,0-10,0a43.88,43.88,0,0,0-14.25,2.32,58.53,58.53,0,0,0-12.51,5.9q-5.68,3.59-12.24,8.62t-12.77,10a108,108,0,0,1-15.78,10.15q-8.19,4.28-17.89,8.3a13.88,13.88,0,0,0-2.62,1.53q-1.41,1-3.85,3.11C3.88,175.26,3,176,2.89,176a29.59,29.59,0,0,1-1.67-9.35q0-6.12,1.4-9.32c.94-2.12,2.92-3.31,6-3.54a43.11,43.11,0,0,0,6.52-.83c1.25-.32,1.88-1,1.88-2.05,0-1.7-.27-2.66-.79-2.89a14.45,14.45,0,0,0-4.2-.35,5.57,5.57,0,0,0-3.23,1,1.29,1.29,0,0,1-.88.09,7,7,0,0,0-.87-.09q-2.37,0-5.08-2.53Q3.59,143.43,5,141a35.61,35.61,0,0,1,4-5.29,33.84,33.84,0,0,1,6.17-5.34,46.25,46.25,0,0,1,11.32-5.64,33.68,33.68,0,0,1,10.54-2A24.56,24.56,0,0,1,44,123.92a29.54,29.54,0,0,0,4.72,1.23q10.07,0,10.06-8.92a7.49,7.49,0,0,0-7.7-7.7,16.19,16.19,0,0,0-3.54.35,9.45,9.45,0,0,0-2.93,1.22q-6.83,4.11-10,5.82a12.66,12.66,0,0,1-5.91,1.71H23.53a20.87,20.87,0,0,1-6.35-1,18.28,18.28,0,0,1-6-3.45,30.73,30.73,0,0,1-5.82-6.69,12.14,12.14,0,0,1,3.2-2.8,16.15,16.15,0,0,1,3.36-1.22,20,20,0,0,0,3.33-1.14l-.18-.7q-7-1.05-10.49-5.86T1.05,82.21q0-12.69,4.55-19.16T19,56.58a11.79,11.79,0,0,1,8.83,3.85,13.06,13.06,0,0,1,3.67,9.36,8.07,8.07,0,0,1-2.36,5.55,6.77,6.77,0,0,1-5,2.58A6.54,6.54,0,0,1,21,77.35a5.48,5.48,0,0,1-1.88-2.84,8,8,0,0,0,4.64-1.88A5.93,5.93,0,0,0,25.45,68,6.61,6.61,0,0,0,23,63.1a7.79,7.79,0,0,0-5.46-2.23,11.09,11.09,0,0,0-5.82,1.66A11.33,11.33,0,0,0,7.52,67,13.9,13.9,0,0,0,6,73.55a19,19,0,0,0,2.72,9.66,21.45,21.45,0,0,0,7.34,7.57A18.42,18.42,0,0,0,26,93.66,38.32,38.32,0,0,0,32.84,93q3.54-.66,7.43-1.75c2.6-.73,5-1.33,7.13-1.79a47,47,0,0,1,5.07-.88Q57.11,88.25,64.28,88.24ZM0,22.21V18.1q12.95.88,26.5,8.57a69.26,69.26,0,0,1-6-13.55A60.33,60.33,0,0,1,17.75,0h4.11a37.53,37.53,0,0,0,1.49,8.61,89.25,89.25,0,0,0,3.72,10.72,78.2,78.2,0,0,0,5.2,10.4l-2.54,2.63A94.71,94.71,0,0,0,13.6,25.23,53.44,53.44,0,0,0,0,22.21ZM0,0H9.45a90,90,0,0,0,3.76,13.38l-1.93-.7q-7-2-11.28-2.89Z"/>
  <path class="cls-1" d="M88.24,287.45a15.44,15.44,0,0,1,2-8.39,16,16,0,0,1,6.47-5.42,29.2,29.2,0,0,0,1.49,7.87,6.58,6.58,0,0,0,3.19,3.67,14.7,14.7,0,0,0,6.26,1.05c1.1,0,2.52-1,4.24-3.06a11,11,0,0,0,2.84-5.95c.29-2.91.48-6.15.57-9.7s.17-7.09.26-10.59.31-6.89.66-10.19a86.84,86.84,0,0,1,1.57-9.66,63.51,63.51,0,0,1-11.32,2q-5.82.48-15,.65t-13.82.62a10.65,10.65,0,0,0-5.86,2.93c-2,1.77-3.06,3.19-3.06,4.24,0,3.9.86,6.59,2.58,8s5.11,2.42,10.19,2.89a14.45,14.45,0,0,1-5.43,6.38,15.87,15.87,0,0,1-8.39,2q-7.35,0-12-.35a77.58,77.58,0,0,1-9.58-1.84Q39,263,36.25,262.4a34.74,34.74,0,0,0-6.87-.57,19.11,19.11,0,0,0-13.9,6,19,19,0,0,0-6,13.82,12.84,12.84,0,0,0,3.41,9.1,10.61,10.61,0,0,0,8,3.67,8.06,8.06,0,0,0,5.6-2.23A6.61,6.61,0,0,0,29,287.28q0-5.68-6.39-6.47a5.2,5.2,0,0,1,1.75-2.71,5.9,5.9,0,0,1,3.24-.7,6.57,6.57,0,0,1,4.9,2.53,8.13,8.13,0,0,1,2.27,5.51,13.27,13.27,0,0,1-3.63,9.45,11.56,11.56,0,0,1-8.7,3.85q-8.84,0-13.38-6.48T4.46,273.11q0-7.69,3.37-12.42t10.45-5.86l.17-.7c-.58-.23-1.59-.55-3-1a15.49,15.49,0,0,1-3.68-1.53,13.77,13.77,0,0,1-3.19-2.84,28.81,28.81,0,0,1,7.57-8A15.76,15.76,0,0,1,23,238c2-.2,5-.31,8.87-.31a15.11,15.11,0,0,1,7,2.28q6.39,3.93,9.27,5.38a13.89,13.89,0,0,0,6.3,1.44,7.37,7.37,0,0,0,5.59-2,7.88,7.88,0,0,0,1.93-5.69q0-8.91-10-8.92a33,33,0,0,0-4.72,1.23,25.54,25.54,0,0,1-7,1.22,33.68,33.68,0,0,1-10.54-2.05,44.7,44.7,0,0,1-11.24-5.64A34.35,34.35,0,0,1,12,219.42a40.11,40.11,0,0,1-3.89-5.21q-1.53-2.49-3.11-5a10.14,10.14,0,0,1,2.85-1.88,6.71,6.71,0,0,1,2.31-.65A12.45,12.45,0,0,1,13,207c1,.23,1.7.41,2,.52a22,22,0,0,0,4.33-.22c.44-.14.66-1.06.66-2.75,0-.76-.51-1.37-1.53-1.84a10.13,10.13,0,0,0-3.11-.87,28.63,28.63,0,0,1-7.17-1.23,5.33,5.33,0,0,1-3-3.41c-.64-1.75-1-4.57-1-8.48a32.58,32.58,0,0,1,1.57-9.45,37,37,0,0,1,4.37,3.5,21.79,21.79,0,0,0,4.81,3.5q11.81,4.9,19.07,8.61a91.36,91.36,0,0,1,14.6,9.49L60,213.25a144.14,144.14,0,0,0,13.29,9.4,63.63,63.63,0,0,0,13,6,44.79,44.79,0,0,0,14.3,2.36q3.06.09,6.73.13t6.52-.18a29.65,29.65,0,0,0,5.9-1.09q3.5-14.43,16.27-27.72h-2.54a13.92,13.92,0,0,1-8.31-2.45q-3.41-2.44-3.67-7.44V191a3,3,0,0,0-.17-1.05,1.39,1.39,0,0,0-.79-.7,5.33,5.33,0,0,0-1.92-.26c-1.11,0-2.1.76-3,2.28a3.74,3.74,0,0,1-3.41,1.66c-.64.06-1.35.08-2.14.08a17.21,17.21,0,0,1-2.8-.26,19.84,19.84,0,0,1-3.89-1.13,14,14,0,0,1,1.83-6.48c-.46,0-1-.14-1.66-.26s-1.34-.26-2.1-.44q-10,0-15.21,3.11a9.85,9.85,0,0,0-5.25,9,7.52,7.52,0,0,0,2.1,5.25,6.46,6.46,0,0,0,4.9,2.27q5.85,0,7-7.34c0-.18.1-.25.31-.22a3.82,3.82,0,0,0,.57,0,1.72,1.72,0,0,1,1.4,1,3.81,3.81,0,0,1,.61,2A6.17,6.17,0,0,1,96.68,203a9.18,9.18,0,0,1-3.76,3,12.75,12.75,0,0,1-5.55,1.18,9.23,9.23,0,0,1-7.17-3.23,11.63,11.63,0,0,1-2.89-8.05,10,10,0,0,1,1-4.59,23.67,23.67,0,0,1,3.24-4.5,20.53,20.53,0,0,1,8.31-5.3,33.68,33.68,0,0,1,9.31-1.7q4.68-.18,17.8-.18,6.21,0,12.72,0a55.45,55.45,0,0,1,10.36.83,54.28,54.28,0,0,1,8.27,2.88c3.82,1.58,6.51,2.37,8.09,2.37s2.74-.32,3.32-1a45,45,0,0,1,4.42-4.06,6.58,6.58,0,0,1,3.89-.92,6.49,6.49,0,0,1,4.81,2.36A6.94,6.94,0,0,1,175,186.8a8.87,8.87,0,0,1-2.72,6.12c-.17.17-.58.54-1.22,1.09a6,6,0,0,0-1.49,1.88,5.64,5.64,0,0,0-.52,2.54q0,2.35,2.27,7.43a45.5,45.5,0,0,1,3.06,8.66,35.12,35.12,0,0,1,.88,6.12q.17,3.15.17,8.05t-.08,9.18q0,13-.14,17.66a33.6,33.6,0,0,1-1.66,9.41,20.14,20.14,0,0,1-5.2,8.35,15.7,15.7,0,0,1-4.16,3.06,11.25,11.25,0,0,1-5,1,11.9,11.9,0,0,1-8.09-2.76,8.87,8.87,0,0,1-3.2-7,11.4,11.4,0,0,1,2.5-7.65c1.66-1.95,3.33-2.93,5-2.93q3.06,0,3.06,1.92a1.35,1.35,0,0,1-.13.75.85.85,0,0,1-.57.13,2.2,2.2,0,0,0-.7.09q-6,1.13-5.95,6.73a6.48,6.48,0,0,0,2.23,4.94,7.34,7.34,0,0,0,5.12,2.06q5.68,0,8.83-5.29t3.15-15.09a8.69,8.69,0,0,0-.26-1.66c-.18-.76-.33-1.4-.44-1.93a8.65,8.65,0,0,1-1.58.84,9.58,9.58,0,0,1-1.92.48,13.25,13.25,0,0,1-1.66.17,11.81,11.81,0,0,0-1.31.09,17.31,17.31,0,0,1-1-3.46,14.43,14.43,0,0,1-.26-3c0-.84,0-1.62,0-2.32a3.32,3.32,0,0,1,1.66-3.23Q166,238,166,236c0-1.46-.19-2.27-.57-2.45a12,12,0,0,0-3-.43q-9.89-.53-9.62-14.52Q139.06,231.58,125,235.16a40.29,40.29,0,0,0-1,9.14c0,3.47,0,6.8,0,10a43.79,43.79,0,0,0,2.32,14.25,58.53,58.53,0,0,0,5.9,12.51q3.59,5.69,8.62,12.24t10,12.77a108.07,108.07,0,0,1,10.15,15.79q4.28,8.17,8.3,17.88a14.25,14.25,0,0,0,1.53,2.63q1,1.39,3.11,3.84c1.4,1.64,2.13,2.51,2.18,2.63a29.56,29.56,0,0,1-9.35,1.66q-6.12,0-9.32-1.4c-2.12-.93-3.31-2.92-3.54-5.95a42.74,42.74,0,0,0-.83-6.51c-.32-1.26-1-1.88-2.05-1.88-1.7,0-2.66.26-2.89.78a14.45,14.45,0,0,0-.35,4.2,5.57,5.57,0,0,0,1,3.24,1.25,1.25,0,0,1,.09.87,6.91,6.91,0,0,0-.09.88q0,2.36-2.53,5.07c-1.81-1.11-3.52-2.14-5.12-3.11a35.61,35.61,0,0,1-5.29-4,33.76,33.76,0,0,1-5.34-6.16,46.32,46.32,0,0,1-5.64-11.33,33.63,33.63,0,0,1-2-10.54,24.62,24.62,0,0,1,1.22-6.91,29.27,29.27,0,0,0,1.23-4.72q0-10-8.92-10.06a7.49,7.49,0,0,0-7.7,7.7,16.19,16.19,0,0,0,.35,3.54,9.45,9.45,0,0,0,1.22,2.93q4.11,6.83,5.82,10a12.59,12.59,0,0,1,1.71,5.9v5.16a20.81,20.81,0,0,1-1,6.34,18.28,18.28,0,0,1-3.45,6,30.73,30.73,0,0,1-6.69,5.82,12.28,12.28,0,0,1-2.8-3.19,16.47,16.47,0,0,1-1.22-3.37,19.49,19.49,0,0,0-1.14-3.32l-.7.17c-.7,4.67-2.65,8.16-5.86,10.5s-7.4,3.49-12.59,3.49q-12.69,0-19.16-4.54t-6.47-13.38a11.81,11.81,0,0,1,3.85-8.84,13.06,13.06,0,0,1,9.36-3.67,8.11,8.11,0,0,1,5.55,2.36,6.81,6.81,0,0,1,2.58,5,6.49,6.49,0,0,1-.57,3.1,5.42,5.42,0,0,1-2.84,1.88A8,8,0,0,0,72.63,328,5.93,5.93,0,0,0,68,326.28a6.64,6.64,0,0,0-4.94,2.41,7.79,7.79,0,0,0-2.23,5.47A11.05,11.05,0,0,0,62.53,340a11.26,11.26,0,0,0,4.5,4.24,13.9,13.9,0,0,0,6.52,1.49A19,19,0,0,0,83.21,343a21.57,21.57,0,0,0,7.57-7.35,18.4,18.4,0,0,0,2.88-9.88,38.41,38.41,0,0,0-.65-6.87c-.44-2.36-1-4.83-1.75-7.43s-1.33-5-1.79-7.13a46.17,46.17,0,0,1-.88-5.07Q88.25,294.63,88.24,287.45Zm-66,64.28H18.1q.88-12.94,8.57-26.5a69.9,69.9,0,0,1-13.55,6A60.88,60.88,0,0,1,0,334v-4.11a37,37,0,0,0,8.61-1.49,90.9,90.9,0,0,0,10.72-3.71,78.22,78.22,0,0,0,10.4-5.21L32.36,322a95.06,95.06,0,0,0-7.13,16.13A53.53,53.53,0,0,0,22.21,351.73ZM0,351.73v-9.44a91.21,91.21,0,0,0,13.38-3.76l-.7,1.92q-2,7-2.89,11.28Z"/>
  <path class="cls-1" d="M287.1,263.49a15.45,15.45,0,0,1-8.4-2,16.11,16.11,0,0,1-5.42-6.47,28.81,28.81,0,0,0,7.87-1.49,6.58,6.58,0,0,0,3.67-3.19,14.65,14.65,0,0,0,1.05-6.25q0-1.67-3.06-4.24a11,11,0,0,0-5.94-2.85c-2.92-.29-6.15-.48-9.71-.56l-10.58-.27q-5.25-.12-10.19-.65a86.65,86.65,0,0,1-9.67-1.58,62.73,62.73,0,0,1,2,11.33c.32,3.88.54,8.87.66,15s.32,10.72.61,13.81a10.71,10.71,0,0,0,2.93,5.86q2.67,3.06,4.24,3.06,5.87,0,8.05-2.58t2.88-10.18a14.47,14.47,0,0,1,6.39,5.42,16,16,0,0,1,2,8.39q0,7.35-.35,12a77.54,77.54,0,0,1-1.84,9.57q-1.66,7.13-2.23,9.88a34.74,34.74,0,0,0-.57,6.87,20.67,20.67,0,0,0,19.86,19.94,12.87,12.87,0,0,0,9.09-3.41,10.65,10.65,0,0,0,3.67-8.05,8.08,8.08,0,0,0-2.23-5.6,6.58,6.58,0,0,0-4.94-2.44q-5.69,0-6.47,6.38a5.24,5.24,0,0,1-2.71-1.75,5.89,5.89,0,0,1-.7-3.23,6.57,6.57,0,0,1,2.54-4.9,8.08,8.08,0,0,1,5.51-2.28,13.23,13.23,0,0,1,9.44,3.63,11.53,11.53,0,0,1,3.85,8.71q0,8.82-6.47,13.38t-19.15,4.54q-7.69,0-12.42-3.36t-5.86-10.45l-.7-.18c-.23.58-.56,1.59-1,3a15.41,15.41,0,0,1-1.53,3.67,13.64,13.64,0,0,1-2.85,3.19,28.79,28.79,0,0,1-8-7.56,15.93,15.93,0,0,1-2.8-6.82q-.3-3-.3-8.88a15.12,15.12,0,0,1,2.27-7q3.93-6.37,5.38-9.27a13.88,13.88,0,0,0,1.44-6.29,7.39,7.39,0,0,0-2-5.6,7.91,7.91,0,0,0-5.68-1.92q-8.93,0-8.92,10a32.59,32.59,0,0,0,1.22,4.72,25,25,0,0,1,1.22,7,33.63,33.63,0,0,1-2,10.54,44.7,44.7,0,0,1-5.64,11.24,33.68,33.68,0,0,1-5.51,6.47,39.16,39.16,0,0,1-5.2,3.89c-1.67,1-3.34,2.06-5,3.11a9.68,9.68,0,0,1-1.88-2.84,6.59,6.59,0,0,1-.66-2.32,12.94,12.94,0,0,1,.35-2.84c.23-1,.41-1.71.53-2.06a22.87,22.87,0,0,0-.22-4.33c-.15-.44-1.07-.65-2.76-.65q-1.14,0-1.83,1.53a10.1,10.1,0,0,0-.88,3.1,29.24,29.24,0,0,1-1.22,7.17,5.42,5.42,0,0,1-3.41,3q-2.62,1-8.49,1a32.61,32.61,0,0,1-9.44-1.58,36,36,0,0,1,3.5-4.37,21.77,21.77,0,0,0,3.49-4.81q4.91-11.81,8.62-19.06A90.74,90.74,0,0,1,204,303q3.15-4,8.87-11.32a141,141,0,0,0,9.4-13.3,63.39,63.39,0,0,0,6-13,44.79,44.79,0,0,0,2.36-14.3q.09-3.06.13-6.73t-.17-6.52a29.69,29.69,0,0,0-1.1-5.9q-14.43-3.49-27.72-16.27v2.54a13.87,13.87,0,0,1-2.45,8.31c-1.63,2.27-4.11,3.5-7.43,3.67h-1.31a2.74,2.74,0,0,0-1,.18,1.34,1.34,0,0,0-.7.78,5.14,5.14,0,0,0-.26,1.93c0,1.11.75,2.1,2.27,3a3.73,3.73,0,0,1,1.66,3.41c.06.64.09,1.36.09,2.14a18.41,18.41,0,0,1-.26,2.8,21,21,0,0,1-1.14,3.9,14.06,14.06,0,0,1-6.47-1.84c-.06.47-.15,1-.27,1.66s-.26,1.34-.43,2.1q0,10,3.1,15.22a9.86,9.86,0,0,0,9,5.24,7.48,7.48,0,0,0,5.24-2.1,6.45,6.45,0,0,0,2.28-4.89q0-5.87-7.35-7c-.17,0-.25-.1-.22-.31a3.87,3.87,0,0,0,.05-.56,1.71,1.71,0,0,1,1-1.4,3.68,3.68,0,0,1,2-.62,6.27,6.27,0,0,1,3.5,1.27,9.23,9.23,0,0,1,3,3.76,12.83,12.83,0,0,1,1.19,5.56,9.23,9.23,0,0,1-3.24,7.17,11.67,11.67,0,0,1-8.05,2.88,10,10,0,0,1-4.59-1,24.34,24.34,0,0,1-4.5-3.23,20.5,20.5,0,0,1-5.29-8.31,33.77,33.77,0,0,1-1.71-9.32q-.16-4.68-.17-17.79,0-6.21,0-12.73a56.33,56.33,0,0,1,.83-10.36,53.13,53.13,0,0,1,2.89-8.26q2.35-5.73,2.36-8.09c0-1.64-.32-2.74-1-3.33a47.06,47.06,0,0,1-4.07-4.41,6.72,6.72,0,0,1-.92-3.9,6.51,6.51,0,0,1,2.36-4.81,7,7,0,0,1,4.64-2.18,8.82,8.82,0,0,1,6.12,2.71c.18.17.54.58,1.09,1.22a6.16,6.16,0,0,0,1.88,1.49,5.64,5.64,0,0,0,2.54.52c1.57,0,4.05-.75,7.43-2.27a46.45,46.45,0,0,1,8.66-3.06,34.19,34.19,0,0,1,6.12-.87q3.15-.18,8.05-.18c3.26,0,6.33,0,9.18.09q13,0,17.67.13a33.9,33.9,0,0,1,9.4,1.66,20.18,20.18,0,0,1,8.35,5.2,15.86,15.86,0,0,1,3.06,4.16,11.3,11.3,0,0,1,1.05,5,12,12,0,0,1-2.75,8.09,8.92,8.92,0,0,1-7,3.19,11.44,11.44,0,0,1-7.66-2.49c-1.95-1.67-2.93-3.34-2.93-5,0-2,.65-3.06,1.93-3.06.41,0,.65,0,.74.13a.83.83,0,0,1,.13.57,2.25,2.25,0,0,0,.09.7q1.14,5.94,6.73,5.94a6.48,6.48,0,0,0,5-2.23,7.31,7.31,0,0,0,2-5.11q0-5.69-5.29-8.84t-15.09-3.14a7.94,7.94,0,0,0-1.66.26l-1.92.44a8.2,8.2,0,0,1,.83,1.57,9.75,9.75,0,0,1,.48,1.92,11.68,11.68,0,0,1,.17,1.66,12.13,12.13,0,0,0,.09,1.32,17.86,17.86,0,0,1-3.45,1,13.9,13.9,0,0,1-3,.26c-.84,0-1.61,0-2.31,0a3.31,3.31,0,0,1-3.24-1.66c-.87-1.52-1.95-2.27-3.23-2.27-1.46,0-2.28.19-2.45.56a11.83,11.83,0,0,0-.44,3q-.53,9.88-14.52,9.62,12.94,13.73,16.53,27.81a40.26,40.26,0,0,0,9.14,1q5.2,0,10,0a43.9,43.9,0,0,0,14.26-2.32,58.45,58.45,0,0,0,12.5-5.9Q286.4,216,293,211t12.77-10a107.91,107.91,0,0,1,15.78-10.14q8.17-4.29,17.89-8.31A14.2,14.2,0,0,0,342,181q1.39-1,3.85-3.11c1.63-1.39,2.5-2.12,2.62-2.18a29.57,29.57,0,0,1,1.66,9.36c0,4.08-.46,7.18-1.4,9.31s-2.91,3.31-5.94,3.54a42.92,42.92,0,0,0-6.52.83c-1.25.32-1.88,1-1.88,2.06,0,1.69.26,2.65.79,2.88a14,14,0,0,0,4.2.35,5.57,5.57,0,0,0,3.23-1,1.35,1.35,0,0,1,.88-.09,6.8,6.8,0,0,0,.87.09c1.57,0,3.27.85,5.07,2.54-1.1,1.81-2.14,3.51-3.1,5.11a35.1,35.1,0,0,1-4,5.29,33.46,33.46,0,0,1-6.17,5.34A46.14,46.14,0,0,1,324.83,227,33.67,33.67,0,0,1,314.3,229a24.21,24.21,0,0,1-6.91-1.23,28.93,28.93,0,0,0-4.72-1.22q-10.07,0-10.06,8.92a7.46,7.46,0,0,0,7.69,7.69,15.69,15.69,0,0,0,3.55-.35,9.55,9.55,0,0,0,2.93-1.22q6.81-4.11,10-5.82a12.72,12.72,0,0,1,5.9-1.7h5.16a20.76,20.76,0,0,1,6.34,1,18.32,18.32,0,0,1,6,3.45,30.91,30.91,0,0,1,5.81,6.69,11.94,11.94,0,0,1-3.19,2.8,16.23,16.23,0,0,1-3.37,1.23,20.49,20.49,0,0,0-3.32,1.13l.17.7q7,1.05,10.5,5.86t3.5,12.6q0,12.68-4.55,19.15t-13.38,6.47a11.76,11.76,0,0,1-8.83-3.85,13,13,0,0,1-3.68-9.35,8.12,8.12,0,0,1,2.36-5.56,6.81,6.81,0,0,1,5-2.58,6.49,6.49,0,0,1,3.1.57,5.46,5.46,0,0,1,1.88,2.84,8.08,8.08,0,0,0-4.63,1.88,5.93,5.93,0,0,0-1.66,4.59,6.67,6.67,0,0,0,2.4,4.95,7.87,7.87,0,0,0,5.47,2.23,11,11,0,0,0,5.81-1.67,11.29,11.29,0,0,0,4.25-4.5,13.86,13.86,0,0,0,1.48-6.52,19,19,0,0,0-2.71-9.66,21.43,21.43,0,0,0-7.34-7.56,18.35,18.35,0,0,0-9.89-2.89,37.44,37.44,0,0,0-6.86.66c-2.36.43-4.84,1-7.44,1.75s-5,1.32-7.12,1.79a46.19,46.19,0,0,1-5.08.87Q294.27,263.5,287.1,263.49Zm64.28,66v4.11q-12.94-.87-26.5-8.57a69.68,69.68,0,0,1,6,13.56,60.08,60.08,0,0,1,2.75,13.11h-4.11a36.9,36.9,0,0,0-1.48-8.61,92.77,92.77,0,0,0-3.72-10.71,79.56,79.56,0,0,0-5.2-10.41l2.53-2.62a95.1,95.1,0,0,0,16.14,7.12A53,53,0,0,0,351.38,329.52Zm0,22.21h-9.45a90,90,0,0,0-3.76-13.38l1.93.7q7,2,11.28,2.89Z"/>
</svg>