<svg xmlns="http://www.w3.org/2000/svg" viewBox="0 0 445.56 445.56">
  <path class="cls-1" d="M219,129H203.47q.15-4.32.15-12.73,0-8.57-2.58-13t-6.74-4.39a8.92,8.92,0,0,0-4,.68,5.64,5.64,0,0,0-2,1.59l-1.44,1.9a39.15,39.15,0,0,1-3.79,3.14,6.76,6.76,0,0,1-2.12,1.06,12.37,12.37,0,0,1-3.19,0c-1.56-.12-2.68-.19-3.33-.19a4.29,4.29,0,0,1-4.25-2.8q-1.22-2.8-1.21-9,0-1.66,2-4.24a24.86,24.86,0,0,1,5-4.78,16.08,16.08,0,0,0-7.5,2.47A18,18,0,0,0,163.11,94a10.76,10.76,0,0,0-2,6c-.15,1.16-.27,2.58-.34,4.24s.73,4,2.42,6.9,4.76,6.42,9.21,10.46a14.49,14.49,0,0,1,5,11.3,16.91,16.91,0,0,1-2,8.48,12.64,12.64,0,0,1-5.3,5.2,15.86,15.86,0,0,1-7.28,1.7,12,12,0,0,1-10.16-4.85c3.95-.55,6.83-1.39,8.64-2.5s2.73-3.64,2.73-7.58q0-3.11-2.8-7.13-6.37-9.69-8.23-13.07a16.42,16.42,0,0,1-1.85-8,21.65,21.65,0,0,1,2.16-9.24,26.73,26.73,0,0,1,6.14-8.34,28.93,28.93,0,0,1,9.7-5.88,34.41,34.41,0,0,1,12.24-2.16,31.55,31.55,0,0,1,10.16,1.67,29.06,29.06,0,0,1,8.94,4.89A26.91,26.91,0,0,1,207,93.61q5.31,8.79,5.31,24.71a7.42,7.42,0,0,1,0,.76c0,.2-.06.4-.11.61H219V66.63q-9,6.06-15.84,6.06-10,0-12.4-3.71t-2.39-11.83A13.69,13.69,0,0,1,189,54a13.84,13.84,0,0,0,.57-3.41,9.25,9.25,0,0,0-1.74-5.53,4.94,4.94,0,0,0-4-2.43,17.2,17.2,0,0,0-4,.57,17.59,17.59,0,0,1-2.92.57c-.41,0-.61-.33-.61-1,0-1.52,1.28-3.36,3.83-5.54A13.74,13.74,0,0,1,189.22,34,20.82,20.82,0,0,1,203.7,39.3a16.82,16.82,0,0,1,5.83,13q0,7.58-3.56,10.92a1.9,1.9,0,0,0-.61,1.36c0,.51.36.76,1.07.76A13.07,13.07,0,0,0,215,62.53c2.3-1.87,3.45-3.91,3.45-6.14q0-4.85-.15-8t-4-9.59q-3.9-6.56-5.5-9.74A18.16,18.16,0,0,1,207.18,21a7.44,7.44,0,0,1,.46-2.35q7.13,1.29,11.37,8.86a30.37,30.37,0,0,0-.72-3.56q-.49-1.89-1.18-5a52.52,52.52,0,0,1-.94-5.5,53.53,53.53,0,0,1-.27-5.87A7.51,7.51,0,0,1,218,2.65,7.55,7.55,0,0,1,223.33,0a8.77,8.77,0,0,1,5.38,2.73,7,7,0,0,1,2.12,4.85,52.08,52.08,0,0,1-.45,7.58c-.31,2-.8,4.3-1.48,7a54,54,0,0,0-1.18,5.38,18.89,18.89,0,0,1,4.86-6A14.52,14.52,0,0,1,239,18.65a7.68,7.68,0,0,1,.45,2.35,23.05,23.05,0,0,1-.75,6L228.48,48.44a5.4,5.4,0,0,0-.68,2.27,20.33,20.33,0,0,0,.27,2.73,22.37,22.37,0,0,1,.26,3c0,2.18,1.15,4.21,3.45,6.11a12.88,12.88,0,0,0,8.45,2.84c.76,0,1.14-.25,1.14-.76a1.86,1.86,0,0,0-.61-1.36,10.45,10.45,0,0,1-2.61-4.51,20,20,0,0,1-1-6.41,17,17,0,0,1,2.66-9.17,18.39,18.39,0,0,1,7.39-6.67A22.31,22.31,0,0,1,257.51,34a13.74,13.74,0,0,1,9.21,3.26c2.55,2.18,3.83,4,3.83,5.54,0,.65-.2,1-.61,1a20.75,20.75,0,0,1-2.84-.57,18.36,18.36,0,0,0-4.2-.57c-1.47,0-2.78.81-3.95,2.43a9.25,9.25,0,0,0-1.74,5.53,13.27,13.27,0,0,0,.53,3,14.19,14.19,0,0,1,.53,3.52,43.81,43.81,0,0,1-.64,8.53,7.77,7.77,0,0,1-3.83,5q-3.18,2-10.31,2-7,0-15.77-6.06v53.06h6.83a6.13,6.13,0,0,0,0-.72c0-.18-.06-.4-.12-.65a73.58,73.58,0,0,1,1.14-13.79,33.9,33.9,0,0,1,4.09-10.92,28.14,28.14,0,0,1,10.81-10.38,30.29,30.29,0,0,1,14.81-3.72,33.21,33.21,0,0,1,15.81,3.72,27.76,27.76,0,0,1,10.76,9.62,22.65,22.65,0,0,1,3.75,12.28,16.83,16.83,0,0,1-1.13,6.33,38.64,38.64,0,0,1-3.57,6.56L287,123.86a45.94,45.94,0,0,0-3.38,5.83,9.69,9.69,0,0,0-1,3.79c0,4,.91,6.51,2.73,7.54a25.17,25.17,0,0,0,8.56,2.39,10.69,10.69,0,0,1-4.43,3.6,13.52,13.52,0,0,1-5.65,1.25,14.55,14.55,0,0,1-10.42-4q-4.22-4-4.21-11.4a13.36,13.36,0,0,1,2-7.24,40.3,40.3,0,0,1,5.76-6.9,31.64,31.64,0,0,0,5-5.88l2.35-3.75a10.34,10.34,0,0,0,1-1.93,11.85,11.85,0,0,0,.19-2.77V100a10.76,10.76,0,0,0-2-6,18.11,18.11,0,0,0-5.42-5.15,16,16,0,0,0-7.43-2.47,22.92,22.92,0,0,1,5.08,4.82,7.75,7.75,0,0,1,1.9,4.2c0,4.15-.4,7.14-1.18,9a4.27,4.27,0,0,1-4.28,2.76,21.28,21.28,0,0,0-2.69.31,10.41,10.41,0,0,1-3.53,0,10.53,10.53,0,0,1-3.82-2,49.19,49.19,0,0,1-6-5.68,2.55,2.55,0,0,0-1-.61,3.08,3.08,0,0,0-1.25-.19c-.4,0-.93,0-1.59,0q-4,0-6.67,4.39t-2.65,13q0,8.4.15,12.73H227.72c.16,3.39.5,6.92,1,10.61s.79,5.84.79,6.44c0,1.07-.14,1.7-.41,1.9a6.56,6.56,0,0,1-2.69.3l-3.11-.15-3.11.15a5.77,5.77,0,0,1-2.69-.34q-.42-.34-.42-1.86,0,.08.8-5.53T219,129Z"/>
  <path class="cls-1" d="M219,316.55H203.47q.15,4.32.15,12.73,0,8.57-2.58,13c-1.71,2.94-4,4.4-6.74,4.4a9.06,9.06,0,0,1-4-.68,5.87,5.87,0,0,1-2-1.59l-1.44-1.9a39.15,39.15,0,0,0-3.79-3.14,6.83,6.83,0,0,0-2.12-1.07,13.39,13.39,0,0,0-3.19,0c-1.56.13-2.68.19-3.33.19a4.3,4.3,0,0,0-4.25,2.81Q169,344.07,169,350.2q0,1.67,2,4.25a24.55,24.55,0,0,0,5,4.77,16,16,0,0,1-7.5-2.46,18,18,0,0,1-5.42-5.15,10.76,10.76,0,0,1-2-6c-.15-1.16-.27-2.58-.34-4.25s.73-4,2.42-6.89,4.76-6.42,9.21-10.46a14.49,14.49,0,0,0,5-11.3,17,17,0,0,0-2-8.49,12.67,12.67,0,0,0-5.3-5.19,15.73,15.73,0,0,0-7.28-1.7,12,12,0,0,0-10.16,4.85c3.95.55,6.83,1.39,8.64,2.5s2.73,3.64,2.73,7.58q0,3.11-2.8,7.12-6.37,9.7-8.23,13.08a16.42,16.42,0,0,0-1.85,8,21.65,21.65,0,0,0,2.16,9.24,26.84,26.84,0,0,0,6.14,8.34,28.91,28.91,0,0,0,9.7,5.87,34.2,34.2,0,0,0,12.24,2.17,31.55,31.55,0,0,0,10.16-1.67,29.06,29.06,0,0,0,8.94-4.89A26.91,26.91,0,0,0,207,352q5.31-8.81,5.31-24.71a7.42,7.42,0,0,0,0-.76c0-.2-.06-.41-.11-.61H219v53.06q-9-6.06-15.84-6.06-10,0-12.4,3.71t-2.39,11.83a13.53,13.53,0,0,0,.57,3.1,14,14,0,0,1,.57,3.41,9.26,9.26,0,0,1-1.74,5.54,5,5,0,0,1-4,2.42,17.2,17.2,0,0,1-4-.57,18.27,18.27,0,0,0-2.92-.56c-.41,0-.61.32-.61,1,0,1.52,1.28,3.36,3.83,5.54a13.73,13.73,0,0,0,9.21,3.25,20.82,20.82,0,0,0,14.48-5.26,16.84,16.84,0,0,0,5.83-13c0-5.06-1.18-8.69-3.56-10.92a1.9,1.9,0,0,1-.61-1.36c0-.51.36-.76,1.07-.76A13.06,13.06,0,0,1,215,383q3.45,2.81,3.45,6.14,0,4.86-.15,8t-4,9.59q-3.9,6.56-5.5,9.74a18.13,18.13,0,0,0-1.59,8.11,7.44,7.44,0,0,0,.46,2.35q7.13-1.29,11.37-8.87a30.51,30.51,0,0,1-.72,3.57q-.49,1.89-1.18,5a52.81,52.81,0,0,0-.94,5.49,53.73,53.73,0,0,0-.27,5.88,8.22,8.22,0,0,0,7.43,7.58,8.82,8.82,0,0,0,5.38-2.73,7,7,0,0,0,2.12-4.85,52.08,52.08,0,0,0-.45-7.58q-.47-3-1.48-7a52.77,52.77,0,0,1-1.18-5.38,18.82,18.82,0,0,0,4.86,6,14.52,14.52,0,0,0,6.44,2.88,7.68,7.68,0,0,0,.45-2.35,23.13,23.13,0,0,0-.75-6l-10.24-21.45a5.4,5.4,0,0,1-.68-2.27,20.33,20.33,0,0,1,.27-2.73,22.36,22.36,0,0,0,.26-3q0-3.26,3.45-6.1a12.88,12.88,0,0,1,8.45-2.84c.76,0,1.14.25,1.14.76a1.86,1.86,0,0,1-.61,1.36,10.45,10.45,0,0,0-2.61,4.51,19.93,19.93,0,0,0-1,6.41,17,17,0,0,0,2.66,9.17,18.39,18.39,0,0,0,7.39,6.67,22.31,22.31,0,0,0,10.34,2.42,13.73,13.73,0,0,0,9.21-3.25c2.55-2.18,3.83-4,3.83-5.54,0-.66-.2-1-.61-1a21.69,21.69,0,0,0-2.84.56,18.36,18.36,0,0,1-4.2.57,4.93,4.93,0,0,1-3.95-2.42,9.26,9.26,0,0,1-1.74-5.54,13.3,13.3,0,0,1,.53-3,14.19,14.19,0,0,0,.53-3.52,43.74,43.74,0,0,0-.64-8.53,7.77,7.77,0,0,0-3.83-5q-3.18-2-10.31-2-7,0-15.77,6.06V325.87h6.83a6.42,6.42,0,0,1,0,.72c0,.18-.06.39-.12.65A73.58,73.58,0,0,0,235.53,341,34,34,0,0,0,239.62,352a28.28,28.28,0,0,0,10.81,10.38,30.29,30.29,0,0,0,14.81,3.72,33.21,33.21,0,0,0,15.81-3.72,27.78,27.78,0,0,0,10.76-9.63,22.59,22.59,0,0,0,3.75-12.27,16.83,16.83,0,0,0-1.13-6.33,38.64,38.64,0,0,0-3.57-6.56L287,321.7a45.94,45.94,0,0,1-3.38-5.83,9.69,9.69,0,0,1-1-3.79c0-4,.91-6.51,2.73-7.55a25.43,25.43,0,0,1,8.56-2.38,10.69,10.69,0,0,0-4.43-3.6,13.52,13.52,0,0,0-5.65-1.25,14.55,14.55,0,0,0-10.42,4q-4.22,4-4.21,11.4a13.39,13.39,0,0,0,2,7.24,40.3,40.3,0,0,0,5.76,6.9,32,32,0,0,1,5,5.87l2.35,3.76a10,10,0,0,1,1,1.93,11.85,11.85,0,0,1,.19,2.77v4.43a10.76,10.76,0,0,1-2,6,18.11,18.11,0,0,1-5.42,5.15,15.88,15.88,0,0,1-7.43,2.46,22.67,22.67,0,0,0,5.08-4.81,7.77,7.77,0,0,0,1.9-4.21c0-4.14-.4-7.13-1.18-9a4.28,4.28,0,0,0-4.28-2.77,22.66,22.66,0,0,1-2.69-.3,8.07,8.07,0,0,0-7.35,2.05,48.41,48.41,0,0,0-6,5.68,2.55,2.55,0,0,1-1,.61,3.26,3.26,0,0,1-1.25.19c-.4,0-.93,0-1.59,0-2.68,0-4.9-1.46-6.67-4.4S243,335,243,329.28s.05-9.85.15-12.73H227.72c.16-3.39.5-6.92,1-10.61s.79-5.84.79-6.45c0-1.06-.14-1.69-.41-1.89a6.56,6.56,0,0,0-2.69-.3l-3.11.15-3.11-.15a5.77,5.77,0,0,0-2.69.34c-.28.22-.42.84-.42,1.85q0-.08.8,5.54T219,316.55Z"/>
  <path class="cls-1" d="M316.55,218.5V203q4.32.15,12.73.15,8.57,0,13-2.58c2.94-1.71,4.4-4,4.4-6.74a9.06,9.06,0,0,0-.68-4,5.87,5.87,0,0,0-1.59-2l-1.9-1.44a39.15,39.15,0,0,1-3.14-3.79,6.83,6.83,0,0,1-1.07-2.12,13.39,13.39,0,0,1,0-3.19c.13-1.56.19-2.68.19-3.33a4.3,4.3,0,0,1,2.81-4.25q2.81-1.22,8.94-1.21,1.67,0,4.25,2a24.55,24.55,0,0,1,4.77,5,16,16,0,0,0-2.46-7.5,18,18,0,0,0-5.15-5.42,10.76,10.76,0,0,0-6-2c-1.16-.15-2.58-.27-4.25-.34s-4,.73-6.89,2.42S328,167.43,324,171.88a14.49,14.49,0,0,1-11.3,5,17,17,0,0,1-8.49-2,12.67,12.67,0,0,1-5.19-5.3,15.73,15.73,0,0,1-1.7-7.28,12,12,0,0,1,4.85-10.16c.55,4,1.39,6.83,2.5,8.64s3.64,2.73,7.58,2.73q3.11,0,7.12-2.8,9.7-6.37,13.08-8.23a16.42,16.42,0,0,1,8-1.85,21.65,21.65,0,0,1,9.24,2.16A26.84,26.84,0,0,1,358,159a28.91,28.91,0,0,1,5.87,9.7,34.2,34.2,0,0,1,2.17,12.24,31.55,31.55,0,0,1-1.67,10.16,29.06,29.06,0,0,1-4.89,8.94,26.91,26.91,0,0,1-7.54,6.52q-8.81,5.31-24.71,5.31a7.42,7.42,0,0,1-.76,0c-.2,0-.41-.06-.61-.11v6.82h53.06q-6.06-9-6.06-15.84,0-10,3.71-12.4t11.83-2.39a13.53,13.53,0,0,1,3.1.57,14,14,0,0,0,3.41.57,9.26,9.26,0,0,0,5.54-1.74,5,5,0,0,0,2.42-4,17.2,17.2,0,0,0-.57-4.05,18.27,18.27,0,0,1-.56-2.92c0-.41.32-.61,1-.61,1.52,0,3.36,1.28,5.54,3.83a13.73,13.73,0,0,1,3.25,9.21,20.82,20.82,0,0,1-5.26,14.48,16.84,16.84,0,0,1-13,5.83c-5.06,0-8.69-1.18-10.92-3.56a1.9,1.9,0,0,0-1.36-.61c-.51,0-.76.36-.76,1.07a13.06,13.06,0,0,0,2.8,8.52q2.81,3.45,6.14,3.45,4.86,0,8-.15t9.59-4q6.56-3.9,9.74-5.5a18.13,18.13,0,0,1,8.11-1.59,7.44,7.44,0,0,1,2.35.46q-1.29,7.13-8.87,11.37a30.51,30.51,0,0,0,3.57-.72q1.89-.5,5-1.18a52.81,52.81,0,0,1,5.49-.94,53.73,53.73,0,0,1,5.88-.27,8.22,8.22,0,0,1,7.58,7.43,8.79,8.79,0,0,1-2.73,5.38,7,7,0,0,1-4.85,2.12,52.08,52.08,0,0,1-7.58-.45q-3-.47-7-1.48a52.77,52.77,0,0,0-5.38-1.18,18.82,18.82,0,0,1,6,4.86,14.52,14.52,0,0,1,2.88,6.44,7.68,7.68,0,0,1-2.35.45,23.13,23.13,0,0,1-6-.75L397.12,228a5.4,5.4,0,0,0-2.27-.68,20.33,20.33,0,0,0-2.73.27,22.36,22.36,0,0,1-3,.26q-3.26,0-6.1,3.45a12.88,12.88,0,0,0-2.84,8.45c0,.76.25,1.14.76,1.14a1.86,1.86,0,0,0,1.36-.61,10.45,10.45,0,0,1,4.51-2.61,19.93,19.93,0,0,1,6.41-1,17,17,0,0,1,9.17,2.66,18.39,18.39,0,0,1,6.67,7.39A22.31,22.31,0,0,1,411.52,257a13.69,13.69,0,0,1-3.26,9.21Q405,270,402.73,270c-.66,0-1-.2-1-.61a21.69,21.69,0,0,1,.56-2.84,18.36,18.36,0,0,0,.57-4.2,4.93,4.93,0,0,0-2.42-3.95,9.26,9.26,0,0,0-5.54-1.74,13.3,13.3,0,0,0-3,.53,14.19,14.19,0,0,1-3.52.53,43.74,43.74,0,0,1-8.53-.64,7.77,7.77,0,0,1-5-3.83q-2-3.18-2-10.31,0-7,6.06-15.77H325.87V234a6.42,6.42,0,0,0,.72,0c.18,0,.39-.06.65-.12A73.58,73.58,0,0,1,341,235,34,34,0,0,1,352,239.11a28.28,28.28,0,0,1,10.38,10.81,30.29,30.29,0,0,1,3.72,14.81,33.21,33.21,0,0,1-3.72,15.81,27.78,27.78,0,0,1-9.63,10.76,22.59,22.59,0,0,1-12.27,3.75,16.83,16.83,0,0,1-6.33-1.13,38.64,38.64,0,0,1-6.56-3.57l-5.84-3.82a45.94,45.94,0,0,0-5.83-3.38,9.69,9.69,0,0,0-3.79-1c-4,0-6.51.91-7.55,2.73a25.43,25.43,0,0,0-2.38,8.56,10.69,10.69,0,0,1-3.6-4.43,13.52,13.52,0,0,1-1.25-5.65,14.55,14.55,0,0,1,4-10.42q4-4.21,11.4-4.21a13.39,13.39,0,0,1,7.24,2,40.3,40.3,0,0,1,6.9,5.76,32,32,0,0,0,5.87,5l3.76,2.35a10,10,0,0,0,1.93,1,11.79,11.79,0,0,0,2.77.19h4.43a10.76,10.76,0,0,0,6-2,18.11,18.11,0,0,0,5.15-5.42,15.88,15.88,0,0,0,2.46-7.43,22.67,22.67,0,0,1-4.81,5.08,7.77,7.77,0,0,1-4.21,1.9c-4.14,0-7.13-.4-9-1.18a4.28,4.28,0,0,1-2.77-4.28,22.66,22.66,0,0,0-.3-2.69,8.07,8.07,0,0,1,2.05-7.35,48.41,48.41,0,0,1,5.68-6,2.55,2.55,0,0,0,.61-1,3.26,3.26,0,0,0,.19-1.25c0-.4,0-.93,0-1.59,0-2.68-1.46-4.9-4.4-6.67s-7.25-2.65-13-2.65-9.85.05-12.73.15V227.21c-3.39.16-6.92.5-10.61,1s-5.84.79-6.45.79c-1.06,0-1.69-.14-1.89-.41a6.56,6.56,0,0,1-.3-2.69l.15-3.11-.15-3.11a5.77,5.77,0,0,1,.34-2.69c.22-.28.84-.42,1.85-.42q-.08,0,5.54.8T316.55,218.5Z"/>
  <path class="cls-1" d="M129,218.5V203q-4.32.15-12.73.15-8.57,0-13-2.58t-4.39-6.74a8.92,8.92,0,0,1,.68-4,5.64,5.64,0,0,1,1.59-2l1.9-1.44a39.15,39.15,0,0,0,3.14-3.79,6.76,6.76,0,0,0,1.06-2.12,12.37,12.37,0,0,0,0-3.19c-.12-1.56-.19-2.68-.19-3.33a4.29,4.29,0,0,0-2.8-4.25q-2.8-1.22-9-1.21-1.66,0-4.24,2a24.86,24.86,0,0,0-4.78,5A16.08,16.08,0,0,1,88.8,168,18,18,0,0,1,94,162.6a10.76,10.76,0,0,1,6-2c1.16-.15,2.58-.27,4.24-.34s4,.73,6.9,2.42,6.42,4.76,10.46,9.21a14.49,14.49,0,0,0,11.3,5,16.91,16.91,0,0,0,8.48-2,12.64,12.64,0,0,0,5.2-5.3,15.86,15.86,0,0,0,1.7-7.28,12,12,0,0,0-4.85-10.16c-.55,4-1.39,6.83-2.5,8.64s-3.64,2.73-7.58,2.73q-3.11,0-7.13-2.8-9.69-6.37-13.07-8.23a16.42,16.42,0,0,0-8-1.85,21.65,21.65,0,0,0-9.24,2.16A26.73,26.73,0,0,0,87.55,159a28.93,28.93,0,0,0-5.88,9.7,34.41,34.41,0,0,0-2.16,12.24,31.55,31.55,0,0,0,1.67,10.16A29.06,29.06,0,0,0,86.07,200a26.91,26.91,0,0,0,7.54,6.52q8.79,5.31,24.71,5.31a7.42,7.42,0,0,0,.76,0c.2,0,.4-.06.61-.11v6.82H66.63q6.06-9,6.06-15.84,0-10-3.71-12.4t-11.83-2.39a13.69,13.69,0,0,0-3.11.57,13.84,13.84,0,0,1-3.41.57,9.25,9.25,0,0,1-5.53-1.74,4.94,4.94,0,0,1-2.43-4,17.2,17.2,0,0,1,.57-4.05,17.59,17.59,0,0,0,.57-2.92c0-.41-.33-.61-1-.61-1.52,0-3.36,1.28-5.54,3.83A13.74,13.74,0,0,0,34,188.71a20.82,20.82,0,0,0,5.27,14.48,16.82,16.82,0,0,0,13,5.83q7.58,0,10.92-3.56a1.9,1.9,0,0,1,1.36-.61c.51,0,.76.36.76,1.07a13.07,13.07,0,0,1-2.81,8.52c-1.87,2.3-3.91,3.45-6.14,3.45q-4.85,0-8-.15t-9.59-4q-6.56-3.9-9.74-5.5A18.16,18.16,0,0,0,21,206.67a7.44,7.44,0,0,0-2.35.46q1.29,7.13,8.86,11.37a30.37,30.37,0,0,1-3.56-.72q-1.89-.5-5-1.18a52.52,52.52,0,0,0-5.5-.94,53.53,53.53,0,0,0-5.87-.27,7.51,7.51,0,0,0-4.93,2.12A7.55,7.55,0,0,0,0,222.82a8.74,8.74,0,0,0,2.73,5.38,7,7,0,0,0,4.85,2.12,52.08,52.08,0,0,0,7.58-.45c2-.31,4.3-.8,7-1.48a54,54,0,0,1,5.38-1.18,18.89,18.89,0,0,0-6,4.86,14.52,14.52,0,0,0-2.88,6.44A7.68,7.68,0,0,0,21,239a23.05,23.05,0,0,0,6-.75L48.44,228a5.4,5.4,0,0,1,2.27-.68,20.33,20.33,0,0,1,2.73.27,22.37,22.37,0,0,0,3,.26c2.18,0,4.21,1.15,6.11,3.45a12.88,12.88,0,0,1,2.84,8.45c0,.76-.25,1.14-.76,1.14a1.86,1.86,0,0,1-1.36-.61,10.45,10.45,0,0,0-4.51-2.61,20,20,0,0,0-6.41-1,17,17,0,0,0-9.17,2.66,18.39,18.39,0,0,0-6.67,7.39A22.31,22.31,0,0,0,34,257a13.74,13.74,0,0,0,3.26,9.21c2.18,2.55,4,3.83,5.54,3.83.65,0,1-.2,1-.61a20.75,20.75,0,0,0-.57-2.84,18.36,18.36,0,0,1-.57-4.2c0-1.47.81-2.78,2.43-3.95a9.25,9.25,0,0,1,5.53-1.74,13.27,13.27,0,0,1,3,.53,14.19,14.19,0,0,0,3.52.53,43.81,43.81,0,0,0,8.53-.64,7.77,7.77,0,0,0,5-3.83q2-3.18,2-10.31,0-7-6.06-15.77h53.06V234a6.13,6.13,0,0,1-.72,0c-.18,0-.4-.06-.65-.12A73.58,73.58,0,0,0,104.53,235a33.9,33.9,0,0,0-10.92,4.09,28.14,28.14,0,0,0-10.38,10.81,30.29,30.29,0,0,0-3.72,14.81,33.21,33.21,0,0,0,3.72,15.81,27.76,27.76,0,0,0,9.62,10.76,22.65,22.65,0,0,0,12.28,3.75,16.83,16.83,0,0,0,6.33-1.13,38.64,38.64,0,0,0,6.56-3.57l5.84-3.82a45.94,45.94,0,0,1,5.83-3.38,9.69,9.69,0,0,1,3.79-1c4,0,6.51.91,7.54,2.73a25.17,25.17,0,0,1,2.39,8.56A10.69,10.69,0,0,0,147,289a13.52,13.52,0,0,0,1.25-5.65,14.55,14.55,0,0,0-4-10.42q-4-4.21-11.4-4.21a13.36,13.36,0,0,0-7.24,2,40.3,40.3,0,0,0-6.9,5.76,31.64,31.64,0,0,1-5.88,5l-3.75,2.35a10.34,10.34,0,0,1-1.93,1,11.85,11.85,0,0,1-2.77.19H100a10.76,10.76,0,0,1-6-2,18.11,18.11,0,0,1-5.15-5.42,16,16,0,0,1-2.47-7.43,22.92,22.92,0,0,0,4.82,5.08,7.75,7.75,0,0,0,4.2,1.9c4.15,0,7.14-.4,9-1.18a4.27,4.27,0,0,0,2.76-4.28,21.28,21.28,0,0,1,.31-2.69,10.41,10.41,0,0,0,0-3.53,10.53,10.53,0,0,0-2-3.82,49.19,49.19,0,0,0-5.68-6,2.55,2.55,0,0,1-.61-1,3.08,3.08,0,0,1-.19-1.25c0-.4,0-.93,0-1.59q0-4,4.39-6.67t13-2.65q8.4,0,12.73.15V227.21c3.39.16,6.92.5,10.61,1s5.84.79,6.44.79c1.07,0,1.7-.14,1.9-.41a6.56,6.56,0,0,0,.3-2.69l-.15-3.11.15-3.11a5.77,5.77,0,0,0-.34-2.69q-.34-.42-1.86-.42.08,0-5.53.8T129,218.5Z"/>
  <path class="cls-2" d="M246.61,270.37h0a23.75,23.75,0,0,0-23.75-23.76h0a23.75,23.75,0,0,0,23.75-23.75h0a23.75,23.75,0,0,0,23.76,23.75h0A23.76,23.76,0,0,0,246.61,270.37Z"/>
  <path class="cls-2" d="M246.61,222.86h0a23.75,23.75,0,0,0-23.75-23.76h0a23.75,23.75,0,0,0,23.75-23.76h0a23.76,23.76,0,0,0,23.76,23.76h0A23.76,23.76,0,0,0,246.61,222.86Z"/>
  <path class="cls-2" d="M199.1,270.37h0a23.76,23.76,0,0,0-23.76-23.76h0a23.75,23.75,0,0,0,23.76-23.75h0a23.75,23.75,0,0,0,23.76,23.75h0A23.76,23.76,0,0,0,199.1,270.37Z"/>
  <path class="cls-2" d="M199.1,222.86h0a23.76,23.76,0,0,0-23.76-23.76h0a23.76,23.76,0,0,0,23.76-23.76h0a23.76,23.76,0,0,0,23.76,23.76h0A23.75,23.75,0,0,0,199.1,222.86Z"/>
</svg>