<svg xmlns="http://www.w3.org/2000/svg" viewBox="0 0 469.19 470.12">
  <path class="cls-1" d="M370.64,94.51c0,.44,0,.94,0,1.48a8.16,8.16,0,0,0,.14,1.63L378.47,90q3.88-3.86,7.92-8.25t8.71-10.22q4.68-5.83,8.73-12.05c.95-1.4,1.74-2.5,2.39-3.31a8.67,8.67,0,0,1,1.84-1.79,4.6,4.6,0,0,1,1.88-.75,16.13,16.13,0,0,1,2.69-.18c.81,0,1.87,0,3.17.13v1a30.06,30.06,0,0,1-.24,4.08,8,8,0,0,1-.48,2.2Q414.42,62.2,397.9,74q-3,2.09-7,5.56t-8.82,8.15q-4.8,4.67-10.48,10.79.57.06,2,.06a47.82,47.82,0,0,0,6.64-.67,50,50,0,0,1,5.83-.68,53,53,0,0,1,5.5.29A7.43,7.43,0,0,1,395.34,99a17.3,17.3,0,0,1,3.74,3.72,21,21,0,0,1,2.85,5.23,16.4,16.4,0,0,1,1.12,6q0,1.92-1.29,1.92c-.52,0-1.3-.5-2.34-1.49s-2.65-2.75-4.85-5.26a4.27,4.27,0,0,0-1.24-1,3.22,3.22,0,0,0-1.52-.44,2.43,2.43,0,0,0-1.92.76,3.43,3.43,0,0,0-.83,1.71,10.75,10.75,0,0,0-.16,2.12c0,.77,0,1.48.08,2.1,0,1-.47,1.48-1.41,1.48a4.82,4.82,0,0,1-3.33-1.63,10,10,0,0,1-2.48-4.46l-1.1-3.82a25.16,25.16,0,0,0-1.12-3.16,5.21,5.21,0,0,0-1.35-1.88,2.89,2.89,0,0,0-1.9-.66,5.17,5.17,0,0,0-3.82,1.63,6.33,6.33,0,0,0-1.71,4.21,37.88,37.88,0,0,1-.63,6.5,6,6,0,0,1-1.22,2.3,2.29,2.29,0,0,1-1.63.91,1.39,1.39,0,0,1-1.4-.8,21.08,21.08,0,0,1-.9-2.94,2.11,2.11,0,0,0-.7-1.15,1.86,1.86,0,0,0-1.24-.51,2.15,2.15,0,0,0-1.79,1q-2.29,3.08-2.94,3.78a2.37,2.37,0,0,1-1.84.71,3.21,3.21,0,0,1-2.12-1,3,3,0,0,1-1.08-2.26,2.59,2.59,0,0,1,1-2,31.29,31.29,0,0,1,3.34-2.46,2.7,2.7,0,0,0,1.35-2,1.28,1.28,0,0,0-.33-.92,3.19,3.19,0,0,0-1-.64,7.12,7.12,0,0,0-1.27-.44c-.41-.09-.91-.22-1.52-.39a2.36,2.36,0,0,1-1.05-.65,1.32,1.32,0,0,1-.49-.89,2.58,2.58,0,0,1,1.52-2.21,10.68,10.68,0,0,1,4.26-1.18c1-.09,1.85-.16,2.59-.24s1.38-.14,1.9-.22a10.59,10.59,0,0,0,1.77-.42,5.3,5.3,0,0,0,1.65-.82,4,4,0,0,0,2-3.52,3.67,3.67,0,0,0-1-2.76,8.09,8.09,0,0,0-3.2-1.63l-3.46-1a29.07,29.07,0,0,1-2.84-1,10.12,10.12,0,0,1-2.34-1.37,8,8,0,0,1-1.85-2.06,4.54,4.54,0,0,1-1-2.57c0-.5.47-.75,1.42-.75l.94,0,1.13,0a7.47,7.47,0,0,0,3.66-.71,2.21,2.21,0,0,0,1.21-2,4.05,4.05,0,0,0-1.61-3q-2.65-2.55-3.92-3.84a24.74,24.74,0,0,1-2-2.3,3.06,3.06,0,0,1-.79-1.53c0-.69.78-1,2.33-1a4.93,4.93,0,0,1,1.22.18,31.93,31.93,0,0,1,6.63,2.12,17.49,17.49,0,0,1,4.71,3.13,12,12,0,0,1,2.87,4.1,12.78,12.78,0,0,1,1,5,42.94,42.94,0,0,1-.28,5.18c-.19,1.55-.43,3.21-.71,5A28.38,28.38,0,0,0,370.64,94.51Z"/>
  <path class="cls-1" d="M94.56,98.55H96a6.91,6.91,0,0,0,1.63-.14L90,90.71q-3.84-3.87-8.24-7.91T71.55,74.08a148,148,0,0,0-12-8.73C58.11,64.41,57,63.61,56.2,63a8.66,8.66,0,0,1-1.79-1.84,4.86,4.86,0,0,1-.76-1.89,17.33,17.33,0,0,1-.17-2.68c0-.82,0-1.88.13-3.17h1a30.48,30.48,0,0,1,4.09.23,8.08,8.08,0,0,1,2.19.49q1.32.66,13.13,17.18,2.07,3,5.56,7t8.15,8.82q4.67,4.79,10.79,10.48c0-.38.06-1.06.06-2a48,48,0,0,0-.67-6.64,49.69,49.69,0,0,1-.68-5.82c0-1.85.1-3.68.28-5.5a7.61,7.61,0,0,1,1.54-3.72,17.53,17.53,0,0,1,3.72-3.74A21.57,21.57,0,0,1,108,67.25a16.7,16.7,0,0,1,6-1.11c1.28,0,1.92.43,1.92,1.28,0,.53-.5,1.31-1.49,2.34s-2.75,2.66-5.27,4.86a4.12,4.12,0,0,0-1,1.24,3.19,3.19,0,0,0-.44,1.52,2.42,2.42,0,0,0,.75,1.92,3.59,3.59,0,0,0,1.72.83,11.57,11.57,0,0,0,2.12.16c.77,0,1.47,0,2.1-.08,1,0,1.48.47,1.48,1.41A4.84,4.84,0,0,1,114.28,85a9.86,9.86,0,0,1-4.46,2.48L106,88.53a25.16,25.16,0,0,0-3.16,1.12A5,5,0,0,0,101,91a2.87,2.87,0,0,0-.66,1.9,5.12,5.12,0,0,0,1.63,3.81,6.22,6.22,0,0,0,4.21,1.71,40.34,40.34,0,0,1,6.5.63,5.72,5.72,0,0,1,2.29,1.23,2.25,2.25,0,0,1,.91,1.63,1.38,1.38,0,0,1-.8,1.4,19.45,19.45,0,0,1-2.93.89,2.13,2.13,0,0,0-1.15.71,1.82,1.82,0,0,0-.52,1.24,2.16,2.16,0,0,0,1,1.79q3.07,2.3,3.78,2.94a2.36,2.36,0,0,1,.71,1.83,3.19,3.19,0,0,1-1,2.12,3,3,0,0,1-2.26,1.09,2.58,2.58,0,0,1-2-1,31.76,31.76,0,0,1-2.47-3.35,2.7,2.7,0,0,0-2-1.35,1.27,1.27,0,0,0-.91.33,3.19,3.19,0,0,0-.64,1,6.63,6.63,0,0,0-.44,1.27q-.15.62-.39,1.53a2.42,2.42,0,0,1-.65,1.05,1.36,1.36,0,0,1-.89.49,2.59,2.59,0,0,1-2.22-1.53,10.74,10.74,0,0,1-1.18-4.25c-.08-1-.16-1.85-.23-2.59s-.15-1.38-.22-1.9a11.5,11.5,0,0,0-.42-1.78,5.53,5.53,0,0,0-.82-1.65,4,4,0,0,0-3.52-2,3.67,3.67,0,0,0-2.76,1,8,8,0,0,0-1.64,3.2c-.35,1.26-.68,2.41-1,3.46a27.52,27.52,0,0,1-1,2.84A10.49,10.49,0,0,1,85.94,113a8.17,8.17,0,0,1-2.06,1.85,4.54,4.54,0,0,1-2.57,1c-.51,0-.76-.47-.76-1.41,0-.36,0-.67,0-.94s0-.65,0-1.13a7.44,7.44,0,0,0-.71-3.66,2.2,2.2,0,0,0-2-1.21,4.07,4.07,0,0,0-3,1.6q-2.53,2.67-3.83,3.93a26.06,26.06,0,0,1-2.31,2,3.09,3.09,0,0,1-1.52.78c-.69,0-1-.77-1-2.32a4.92,4.92,0,0,1,.19-1.22,31.16,31.16,0,0,1,2.12-6.63A17.18,17.18,0,0,1,71.7,101a12.11,12.11,0,0,1,4.09-2.88,13,13,0,0,1,5-1,43,43,0,0,1,5.19.28c1.55.19,3.21.42,5,.71A28.28,28.28,0,0,0,94.56,98.55Z"/>
  <path class="cls-1" d="M98.64,375.6c0-.44,0-.93,0-1.47a8.26,8.26,0,0,0-.14-1.64l-7.71,7.65c-2.59,2.57-5.23,5.31-7.92,8.25s-5.59,6.33-8.71,10.22-6,7.9-8.73,12c-1,1.41-1.74,2.51-2.39,3.32a8.92,8.92,0,0,1-1.84,1.79,4.89,4.89,0,0,1-1.88.75,16.29,16.29,0,0,1-2.69.17c-.81,0-1.87,0-3.17-.12v-1a30.06,30.06,0,0,1,.24-4.08,8.33,8.33,0,0,1,.48-2.2q.66-1.32,17.18-13.13a89.26,89.26,0,0,0,7-5.56q4-3.48,8.83-8.15t10.47-10.79q-.57-.06-2-.06a48.19,48.19,0,0,0-6.64.68,49.19,49.19,0,0,1-5.83.67,53.17,53.17,0,0,1-5.5-.28,7.52,7.52,0,0,1-3.72-1.54,17.3,17.3,0,0,1-3.74-3.72,21,21,0,0,1-2.85-5.23,16.5,16.5,0,0,1-1.12-6c0-1.28.43-1.91,1.29-1.91.52,0,1.3.49,2.34,1.49s2.65,2.75,4.85,5.26A4.25,4.25,0,0,0,76,362a3.12,3.12,0,0,0,1.53.44,2.41,2.41,0,0,0,1.91-.75,3.43,3.43,0,0,0,.83-1.71,10.81,10.81,0,0,0,.16-2.12c0-.78,0-1.48-.08-2.11,0-1,.47-1.47,1.42-1.47A4.82,4.82,0,0,1,85,355.88a10,10,0,0,1,2.49,4.46c.35,1.26.72,2.53,1.09,3.82a25.53,25.53,0,0,0,1.12,3.15,5.16,5.16,0,0,0,1.35,1.89,2.89,2.89,0,0,0,1.9.66,5.14,5.14,0,0,0,3.82-1.64A6.31,6.31,0,0,0,98.52,364a39.14,39.14,0,0,1,.63-6.5,5.91,5.91,0,0,1,1.22-2.29,2.27,2.27,0,0,1,1.63-.91,1.39,1.39,0,0,1,1.4.8,20.21,20.21,0,0,1,.9,2.94,2.06,2.06,0,0,0,.7,1.14,1.82,1.82,0,0,0,1.24.52,2.14,2.14,0,0,0,1.79-1c1.53-2.05,2.51-3.32,2.94-3.79a2.36,2.36,0,0,1,1.84-.7,3.17,3.17,0,0,1,2.12,1,3,3,0,0,1,1.08,2.26,2.6,2.6,0,0,1-1,2,34.39,34.39,0,0,1-3.34,2.46,2.7,2.7,0,0,0-1.35,2,1.26,1.26,0,0,0,.33.91,3.2,3.2,0,0,0,1,.65A8,8,0,0,0,113,366c.41.09.92.22,1.52.39a2.34,2.34,0,0,1,1,.64,1.34,1.34,0,0,1,.49.9,2.59,2.59,0,0,1-1.52,2.21,10.68,10.68,0,0,1-4.26,1.18l-2.59.23-1.9.22a11.82,11.82,0,0,0-1.77.43,5.52,5.52,0,0,0-1.65.81,4,4,0,0,0-2,3.52,3.68,3.68,0,0,0,1,2.77,8.22,8.22,0,0,0,3.2,1.63l3.46,1a24.6,24.6,0,0,1,2.84,1,10.08,10.08,0,0,1,2.34,1.36,8.17,8.17,0,0,1,1.85,2.06,4.56,4.56,0,0,1,1,2.58q0,.75-1.41.75l-1-.05h-1.13a7.48,7.48,0,0,0-3.66.7,2.23,2.23,0,0,0-1.21,2,4.07,4.07,0,0,0,1.61,2.95c1.78,1.7,3.08,3,3.92,3.83a26.06,26.06,0,0,1,2,2.31,3,3,0,0,1,.79,1.52c0,.69-.78,1-2.33,1a4.55,4.55,0,0,1-1.22-.19,30.78,30.78,0,0,1-6.63-2.12,17.71,17.71,0,0,1-4.71-3.12,12.12,12.12,0,0,1-2.87-4.1,12.78,12.78,0,0,1-1-5,42.82,42.82,0,0,1,.28-5.18c.19-1.55.43-3.21.71-5A28.28,28.28,0,0,0,98.64,375.6Z"/>
  <path class="cls-1" d="M374.72,371.57l-1.48,0a8.22,8.22,0,0,0-1.63.14q3.79,3.84,7.65,7.71t8.24,7.92q4.39,4,10.23,8.71a148,148,0,0,0,12,8.73c1.4.95,2.51,1.74,3.31,2.39a8.43,8.43,0,0,1,1.79,1.84,4.76,4.76,0,0,1,.76,1.88,17.47,17.47,0,0,1,.17,2.69c0,.81,0,1.87-.13,3.17h-1a30.06,30.06,0,0,1-4.08-.24,7.83,7.83,0,0,1-2.2-.48q-1.32-.66-13.13-17.18-2.07-3-5.56-7T381.52,383q-4.66-4.78-10.79-10.47-.06.57-.06,2a47.82,47.82,0,0,0,.67,6.64,50,50,0,0,1,.68,5.83,53,53,0,0,1-.28,5.5,7.61,7.61,0,0,1-1.54,3.72,17.53,17.53,0,0,1-3.72,3.74,21.21,21.21,0,0,1-5.23,2.85,16.5,16.5,0,0,1-6,1.12q-1.92,0-1.92-1.29,0-.78,1.5-2.34c1-1,2.74-2.65,5.26-4.85a4.25,4.25,0,0,0,1-1.24,3.22,3.22,0,0,0,.44-1.52,2.42,2.42,0,0,0-.75-1.92,3.5,3.5,0,0,0-1.72-.83,10.69,10.69,0,0,0-2.12-.16c-.77,0-1.47,0-2.1.08-1,0-1.48-.47-1.48-1.41a4.84,4.84,0,0,1,1.64-3.33,9.92,9.92,0,0,1,4.46-2.48l3.81-1.1a25.16,25.16,0,0,0,3.16-1.12,5.12,5.12,0,0,0,1.88-1.35,2.89,2.89,0,0,0,.66-1.9,5.13,5.13,0,0,0-1.63-3.82,6.31,6.31,0,0,0-4.21-1.71,38,38,0,0,1-6.5-.63,5.83,5.83,0,0,1-2.29-1.22,2.25,2.25,0,0,1-.91-1.63,1.38,1.38,0,0,1,.8-1.4,20.39,20.39,0,0,1,2.93-.9,2.11,2.11,0,0,0,1.15-.7,1.82,1.82,0,0,0,.52-1.24,2.15,2.15,0,0,0-1-1.79q-3.08-2.3-3.78-2.94a2.37,2.37,0,0,1-.71-1.84,3.21,3.21,0,0,1,1-2.12,3,3,0,0,1,2.26-1.08,2.58,2.58,0,0,1,2,1,32.47,32.47,0,0,1,2.47,3.34,2.7,2.7,0,0,0,2,1.35,1.26,1.26,0,0,0,.91-.33,3.19,3.19,0,0,0,.64-1,6.41,6.41,0,0,0,.44-1.27c.1-.41.23-.91.4-1.52a2.25,2.25,0,0,1,.64-1.05,1.32,1.32,0,0,1,.89-.49,2.6,2.6,0,0,1,2.22,1.52,10.68,10.68,0,0,1,1.18,4.26c.08,1,.16,1.85.23,2.59s.15,1.38.22,1.9a10.71,10.71,0,0,0,.43,1.77,5.29,5.29,0,0,0,.81,1.65,4,4,0,0,0,3.52,2,3.65,3.65,0,0,0,2.76-1,8.08,8.08,0,0,0,1.64-3.2c.35-1.26.68-2.41,1-3.46a24.6,24.6,0,0,1,1-2.84,10.08,10.08,0,0,1,1.36-2.34,8.17,8.17,0,0,1,2.06-1.85,4.56,4.56,0,0,1,2.57-1c.51,0,.76.47.76,1.42,0,.35,0,.67-.05.94s0,.65,0,1.13a7.47,7.47,0,0,0,.71,3.66,2.22,2.22,0,0,0,2,1.21,4.08,4.08,0,0,0,2.95-1.61c1.69-1.78,3-3.08,3.83-3.92a26.06,26.06,0,0,1,2.31-2,3,3,0,0,1,1.52-.79c.69,0,1,.78,1,2.33a5,5,0,0,1-.19,1.22,31.35,31.35,0,0,1-2.12,6.63,17.49,17.49,0,0,1-3.13,4.71,12.08,12.08,0,0,1-4.09,2.87,12.78,12.78,0,0,1-5,1,43,43,0,0,1-5.19-.28c-1.55-.19-3.2-.43-5-.71A28.28,28.28,0,0,0,374.72,371.57Z"/>
  <path class="cls-2" d="M226,304.26a7.14,7.14,0,0,0-.83,1.41,13.18,13.18,0,0,0-.83,2.12,6.78,6.78,0,0,0-.36,2c0,.45.4.68,1.21.68h3a14.63,14.63,0,0,1,2.33.13,1.49,1.49,0,0,1,1.07.61,2.69,2.69,0,0,1,.32,1.45,2.73,2.73,0,0,1-.32,1.46,1.53,1.53,0,0,1-1.07.61,14.63,14.63,0,0,1-2.33.13h-3c-.81,0-1.21.24-1.21.71a6.46,6.46,0,0,0,.45,2.39,16.08,16.08,0,0,0,1.08,2.26,5,5,0,0,1,.65,1.33c0,.64-.46,1-1.37,1a5.42,5.42,0,0,1-1.31-.17,4.93,4.93,0,0,1-1.15-.44,2.54,2.54,0,0,1-.74-.58,22.42,22.42,0,0,1-1.67-2.26c-.54-.81-1.06-1.68-1.58-2.59A5.25,5.25,0,0,0,217,315a3.11,3.11,0,0,0-1.33-.75,7.67,7.67,0,0,0-1.3-.08,2,2,0,0,0-.86.15,5.59,5.59,0,0,0-1,.62,4.56,4.56,0,0,0-1.22,1.28,3.3,3.3,0,0,0-.33,1.59,5.48,5.48,0,0,0,.25,1.58c.16.53.44,1.29.82,2.28a26.73,26.73,0,0,1,.87,2.64,8.68,8.68,0,0,1,.3,2.24,5.51,5.51,0,0,1-.76,2.84,5.79,5.79,0,0,1-1.93,2,4.43,4.43,0,0,1-2.34.72,4.81,4.81,0,0,1-.68,0c-.11,0-.17-.1-.17-.25a.77.77,0,0,1,.2-.57c.38-.49.57-1.87.57-4.13a8.71,8.71,0,0,0-.08-1.28c-.05-.4-.15-1.07-.29-2s-.24-1.59-.29-2a14.92,14.92,0,0,1-.07-1.56,6.29,6.29,0,0,1,.33-2.14,4.75,4.75,0,0,1,1.13-1.72,9.81,9.81,0,0,1,2.22-1.6l1.3-.7q.53-.28.9-.54a2.14,2.14,0,0,0,.53-.44.71.71,0,0,0,.16-.48c0-.34-.4-.73-1.19-1.16-1.41-.81-2.47-1.47-3.19-2a5.42,5.42,0,0,1-1.63-1.8,5.56,5.56,0,0,1-.56-2.66,15.14,15.14,0,0,1,.07-1.55c.05-.38.14-1,.28-1.92s.24-1.56.29-2a9.66,9.66,0,0,0,.09-1.35q0-3.41-.57-4.14a.72.72,0,0,1-.2-.53c0-.21.3-.32.89-.32a4.3,4.3,0,0,1,2.33.73,5.74,5.74,0,0,1,1.91,2,5.52,5.52,0,0,1,.75,2.83,8.85,8.85,0,0,1-.3,2.27,25.68,25.68,0,0,1-.85,2.59c-.37,1-.64,1.74-.82,2.31a5.29,5.29,0,0,0-.27,1.62,3.19,3.19,0,0,0,.35,1.6,4.41,4.41,0,0,0,1.2,1.23,6.33,6.33,0,0,0,.95.63,2,2,0,0,0,.91.18,8.14,8.14,0,0,0,1.3-.12,1.83,1.83,0,0,0,.77-.36,5.9,5.9,0,0,0,1-.83,4.61,4.61,0,0,0,.84-1.09,29,29,0,0,1,3.25-4.8,3,3,0,0,1,1.29-.84,5.1,5.1,0,0,1,1.91-.35c.91,0,1.37.33,1.37,1A.76.76,0,0,1,226,304.26Z"/>
  <path class="cls-2" d="M226,265.45a7.31,7.31,0,0,0-.83,1.4,13.56,13.56,0,0,0-.83,2.12,6.79,6.79,0,0,0-.36,2c0,.45.4.67,1.21.67h3a14.63,14.63,0,0,1,2.33.13,1.49,1.49,0,0,1,1.07.61,3.47,3.47,0,0,1,0,2.91,1.49,1.49,0,0,1-1.07.61,14.63,14.63,0,0,1-2.33.13h-3c-.81,0-1.21.24-1.21.71a6.55,6.55,0,0,0,.45,2.4,16.52,16.52,0,0,0,1.08,2.25,5,5,0,0,1,.65,1.33c0,.64-.46,1-1.37,1a5.42,5.42,0,0,1-1.31-.17,4.52,4.52,0,0,1-1.15-.44,2.39,2.39,0,0,1-.74-.58,22.26,22.26,0,0,1-1.67-2.25c-.54-.82-1.06-1.69-1.58-2.6a5.25,5.25,0,0,0-1.3-1.52,3.11,3.11,0,0,0-1.33-.75,8.89,8.89,0,0,0-1.3-.08,2,2,0,0,0-.86.15,6.27,6.27,0,0,0-1,.62,4.45,4.45,0,0,0-1.22,1.29,3.23,3.23,0,0,0-.33,1.58,5.37,5.37,0,0,0,.25,1.58c.16.53.44,1.29.82,2.29a25.8,25.8,0,0,1,.87,2.63,8.8,8.8,0,0,1,.3,2.24,5.49,5.49,0,0,1-.76,2.84,5.79,5.79,0,0,1-1.93,2,4.43,4.43,0,0,1-2.34.72,4.81,4.81,0,0,1-.68,0c-.11,0-.17-.1-.17-.24a.82.82,0,0,1,.2-.58c.38-.48.57-1.86.57-4.13A8.71,8.71,0,0,0,208,287c-.05-.4-.15-1.07-.29-2s-.24-1.59-.29-2a15,15,0,0,1-.07-1.57,6.19,6.19,0,0,1,.33-2.13,4.78,4.78,0,0,1,1.13-1.73A9.81,9.81,0,0,1,211,276l1.3-.7c.35-.19.65-.37.9-.53a2.38,2.38,0,0,0,.53-.45.71.71,0,0,0,.16-.47c0-.35-.4-.74-1.19-1.17-1.41-.81-2.47-1.47-3.19-2a5.42,5.42,0,0,1-1.63-1.8,5.56,5.56,0,0,1-.56-2.66,14.92,14.92,0,0,1,.07-1.54c.05-.39.14-1,.28-1.92s.24-1.56.29-2a9.81,9.81,0,0,0,.09-1.36c0-2.27-.19-3.64-.57-4.13a.73.73,0,0,1-.2-.54c0-.21.3-.31.89-.31a4.37,4.37,0,0,1,2.33.72,5.68,5.68,0,0,1,1.91,2,5.5,5.5,0,0,1,.75,2.83,8.83,8.83,0,0,1-.3,2.26,25.68,25.68,0,0,1-.85,2.59c-.37,1-.64,1.74-.82,2.31a5.38,5.38,0,0,0-.27,1.62,3.16,3.16,0,0,0,.35,1.6,4.28,4.28,0,0,0,1.2,1.23,6.33,6.33,0,0,0,.95.63,2,2,0,0,0,.91.18,8.14,8.14,0,0,0,1.3-.12,1.91,1.91,0,0,0,.77-.35,7,7,0,0,0,1-.83,4.82,4.82,0,0,0,.84-1.09,29.07,29.07,0,0,1,3.25-4.81,3,3,0,0,1,1.29-.84,5.31,5.31,0,0,1,1.91-.35c.91,0,1.37.33,1.37,1A.79.79,0,0,1,226,265.45Z"/>
  <path class="cls-2" d="M226,226.63a7.31,7.31,0,0,0-.83,1.4,14,14,0,0,0-.83,2.12,6.84,6.84,0,0,0-.36,2c0,.45.4.67,1.21.67h3a15.94,15.94,0,0,1,2.33.13,1.53,1.53,0,0,1,1.07.61,2.73,2.73,0,0,1,.32,1.46,2.69,2.69,0,0,1-.32,1.45,1.5,1.5,0,0,1-1.07.62,16.28,16.28,0,0,1-2.33.12h-3c-.81,0-1.21.24-1.21.72a6.46,6.46,0,0,0,.45,2.39,16.08,16.08,0,0,0,1.08,2.26,5,5,0,0,1,.65,1.32c0,.65-.46,1-1.37,1a5.42,5.42,0,0,1-1.31-.17,4.53,4.53,0,0,1-1.15-.43,2.4,2.4,0,0,1-.74-.59,21.19,21.19,0,0,1-1.67-2.25c-.54-.82-1.06-1.68-1.58-2.59a5.28,5.28,0,0,0-1.3-1.53,3.11,3.11,0,0,0-1.33-.75,8.89,8.89,0,0,0-1.3-.08,2,2,0,0,0-.86.15,7.12,7.12,0,0,0-1,.62,4.57,4.57,0,0,0-1.22,1.29,3.25,3.25,0,0,0-.33,1.58,5.49,5.49,0,0,0,.25,1.59c.16.52.44,1.28.82,2.28a26.64,26.64,0,0,1,.87,2.63,8.82,8.82,0,0,1,.3,2.25,5.51,5.51,0,0,1-.76,2.84,5.76,5.76,0,0,1-1.93,2,4.36,4.36,0,0,1-2.34.73,4.81,4.81,0,0,1-.68,0c-.11,0-.17-.1-.17-.25a.77.77,0,0,1,.2-.57q.57-.74.57-4.14a8.57,8.57,0,0,0-.08-1.27c-.05-.41-.15-1.08-.29-2s-.24-1.59-.29-2a14.92,14.92,0,0,1-.07-1.56,6.29,6.29,0,0,1,.33-2.14,4.66,4.66,0,0,1,1.13-1.72,9.81,9.81,0,0,1,2.22-1.61c.52-.27.95-.51,1.3-.7s.65-.37.9-.53a2.14,2.14,0,0,0,.53-.45.71.71,0,0,0,.16-.47c0-.34-.4-.73-1.19-1.17a36.15,36.15,0,0,1-3.19-2,5.42,5.42,0,0,1-1.63-1.8,5.53,5.53,0,0,1-.56-2.66,15.07,15.07,0,0,1,.07-1.54c.05-.38.14-1,.28-1.92s.24-1.56.29-2a9.77,9.77,0,0,0,.09-1.35q0-3.4-.57-4.14a.72.72,0,0,1-.2-.53c0-.21.3-.32.89-.32a4.37,4.37,0,0,1,2.33.72,5.68,5.68,0,0,1,1.91,2,5.52,5.52,0,0,1,.75,2.83,8.78,8.78,0,0,1-.3,2.26A25.79,25.79,0,0,1,212,226c-.37,1-.64,1.73-.82,2.3A5.38,5.38,0,0,0,211,230a3.2,3.2,0,0,0,.35,1.61,4.4,4.4,0,0,0,1.2,1.22,5.81,5.81,0,0,0,.95.64,2.14,2.14,0,0,0,.91.17,9.35,9.35,0,0,0,1.3-.11,2.13,2.13,0,0,0,.77-.36,6.4,6.4,0,0,0,1-.83,4.61,4.61,0,0,0,.84-1.09,29.07,29.07,0,0,1,3.25-4.81,3,3,0,0,1,1.29-.84,5.3,5.3,0,0,1,1.91-.34c.91,0,1.37.33,1.37,1A.79.79,0,0,1,226,226.63Z"/>
  <path class="cls-2" d="M226,187.81a7.14,7.14,0,0,0-.83,1.41,13.44,13.44,0,0,0-.83,2.11,6.9,6.9,0,0,0-.36,2c0,.45.4.68,1.21.68h3a16.28,16.28,0,0,1,2.33.12,1.5,1.5,0,0,1,1.07.62,2.66,2.66,0,0,1,.32,1.45,2.73,2.73,0,0,1-.32,1.46,1.53,1.53,0,0,1-1.07.61,15.94,15.94,0,0,1-2.33.13h-3c-.81,0-1.21.23-1.21.71a6.46,6.46,0,0,0,.45,2.39,16.08,16.08,0,0,0,1.08,2.26,5.18,5.18,0,0,1,.65,1.32c0,.65-.46,1-1.37,1a5.4,5.4,0,0,1-1.31-.16,4.93,4.93,0,0,1-1.15-.44,2.54,2.54,0,0,1-.74-.58,22.42,22.42,0,0,1-1.67-2.26c-.54-.82-1.06-1.68-1.58-2.59a5.25,5.25,0,0,0-1.3-1.52,3,3,0,0,0-1.33-.76,9.11,9.11,0,0,0-1.3-.07,2.06,2.06,0,0,0-.86.14,6.52,6.52,0,0,0-1,.63,4.56,4.56,0,0,0-1.22,1.28,3.3,3.3,0,0,0-.33,1.59,5.48,5.48,0,0,0,.25,1.58c.16.53.44,1.29.82,2.28a27.53,27.53,0,0,1,.87,2.63,8.82,8.82,0,0,1,.3,2.25,5.51,5.51,0,0,1-.76,2.84,5.79,5.79,0,0,1-1.93,2,4.43,4.43,0,0,1-2.34.72,4.81,4.81,0,0,1-.68,0c-.11,0-.17-.1-.17-.25a.77.77,0,0,1,.2-.57q.57-.73.57-4.14a8.66,8.66,0,0,0-.08-1.27c-.05-.4-.15-1.07-.29-2s-.24-1.59-.29-2a14.92,14.92,0,0,1-.07-1.56,6.29,6.29,0,0,1,.33-2.14,4.66,4.66,0,0,1,1.13-1.72,9.81,9.81,0,0,1,2.22-1.6l1.3-.7c.35-.2.65-.37.9-.54a2.14,2.14,0,0,0,.53-.44.73.73,0,0,0,.16-.48c0-.34-.4-.73-1.19-1.17a36.52,36.52,0,0,1-3.19-2,4.93,4.93,0,0,1-2.19-4.47,15.07,15.07,0,0,1,.07-1.54c.05-.38.14-1,.28-1.92s.24-1.56.29-2a9.77,9.77,0,0,0,.09-1.35q0-3.41-.57-4.14a.72.72,0,0,1-.2-.53c0-.21.3-.32.89-.32a4.37,4.37,0,0,1,2.33.72,5.86,5.86,0,0,1,1.91,2,5.52,5.52,0,0,1,.75,2.83,8.91,8.91,0,0,1-.3,2.27,25.68,25.68,0,0,1-.85,2.59c-.37,1-.64,1.74-.82,2.3a5.4,5.4,0,0,0-.27,1.63,3.19,3.19,0,0,0,.35,1.6,4.55,4.55,0,0,0,1.2,1.23,6.33,6.33,0,0,0,.95.63,2,2,0,0,0,.91.18,8.14,8.14,0,0,0,1.3-.12,2,2,0,0,0,.77-.36,5.9,5.9,0,0,0,1-.83,4.61,4.61,0,0,0,.84-1.09,29,29,0,0,1,3.25-4.8,3,3,0,0,1,1.29-.85,5.3,5.3,0,0,1,1.91-.34c.91,0,1.37.33,1.37,1A.76.76,0,0,1,226,187.81Z"/>
  <path class="cls-2" d="M226,149a7,7,0,0,0-.83,1.4,13.56,13.56,0,0,0-.83,2.12,6.79,6.79,0,0,0-.36,2c0,.44.4.67,1.21.67h3a14.63,14.63,0,0,1,2.33.13,1.49,1.49,0,0,1,1.07.61,3.47,3.47,0,0,1,0,2.91,1.49,1.49,0,0,1-1.07.61,14.63,14.63,0,0,1-2.33.13h-3c-.81,0-1.21.24-1.21.71a6.55,6.55,0,0,0,.45,2.4,16.52,16.52,0,0,0,1.08,2.25,5,5,0,0,1,.65,1.33c0,.64-.46,1-1.37,1a5.42,5.42,0,0,1-1.31-.17,4.52,4.52,0,0,1-1.15-.44,2.39,2.39,0,0,1-.74-.58,22.42,22.42,0,0,1-1.67-2.26c-.54-.81-1.06-1.68-1.58-2.59a5.25,5.25,0,0,0-1.3-1.52,3.11,3.11,0,0,0-1.33-.75,7.67,7.67,0,0,0-1.3-.08,2,2,0,0,0-.86.15,6.27,6.27,0,0,0-1,.62,4.45,4.45,0,0,0-1.22,1.29,3.23,3.23,0,0,0-.33,1.58,5.43,5.43,0,0,0,.25,1.58c.16.53.44,1.29.82,2.29a25.8,25.8,0,0,1,.87,2.63,8.74,8.74,0,0,1,.3,2.24,5.49,5.49,0,0,1-.76,2.84,5.79,5.79,0,0,1-1.93,2,4.43,4.43,0,0,1-2.34.72,4.81,4.81,0,0,1-.68,0c-.11,0-.17-.1-.17-.24a.8.8,0,0,1,.2-.58c.38-.49.57-1.86.57-4.13a8.71,8.71,0,0,0-.08-1.28c-.05-.4-.15-1.07-.29-2s-.24-1.59-.29-2a14.92,14.92,0,0,1-.07-1.56,6.29,6.29,0,0,1,.33-2.14,4.75,4.75,0,0,1,1.13-1.72,9.81,9.81,0,0,1,2.22-1.6l1.3-.7q.53-.28.9-.54a2.14,2.14,0,0,0,.53-.44.71.71,0,0,0,.16-.48c0-.34-.4-.73-1.19-1.16-1.41-.81-2.47-1.47-3.19-2a5.42,5.42,0,0,1-1.63-1.8,5.56,5.56,0,0,1-.56-2.66,15.29,15.29,0,0,1,.07-1.55c.05-.38.14-1,.28-1.92s.24-1.55.29-2a9.81,9.81,0,0,0,.09-1.36c0-2.27-.19-3.65-.57-4.13a.75.75,0,0,1-.2-.54c0-.21.3-.31.89-.31a4.37,4.37,0,0,1,2.33.72,5.68,5.68,0,0,1,1.91,2,5.5,5.5,0,0,1,.75,2.83,8.83,8.83,0,0,1-.3,2.26,25.68,25.68,0,0,1-.85,2.59c-.37,1-.64,1.74-.82,2.31a5.29,5.29,0,0,0-.27,1.62,3.16,3.16,0,0,0,.35,1.6,4.28,4.28,0,0,0,1.2,1.23,6.33,6.33,0,0,0,.95.63,2,2,0,0,0,.91.18,8.14,8.14,0,0,0,1.3-.12,1.83,1.83,0,0,0,.77-.36,5.9,5.9,0,0,0,1-.83,4.77,4.77,0,0,0,.84-1.08,29.07,29.07,0,0,1,3.25-4.81,3,3,0,0,1,1.29-.84,5.31,5.31,0,0,1,1.91-.35c.91,0,1.37.33,1.37,1A.79.79,0,0,1,226,149Z"/>
  <path class="cls-2" d="M278.16,304.26a7.67,7.67,0,0,0-.83,1.41,14.18,14.18,0,0,0-.83,2.12,6.78,6.78,0,0,0-.36,2c0,.45.4.68,1.21.68h3a14.63,14.63,0,0,1,2.33.13,1.49,1.49,0,0,1,1.07.61,2.69,2.69,0,0,1,.32,1.45,2.73,2.73,0,0,1-.32,1.46,1.53,1.53,0,0,1-1.07.61,14.63,14.63,0,0,1-2.33.13h-3c-.81,0-1.21.24-1.21.71a6.46,6.46,0,0,0,.45,2.39,15.11,15.11,0,0,0,1.09,2.26,5.17,5.17,0,0,1,.64,1.33c0,.64-.46,1-1.37,1a5.42,5.42,0,0,1-1.31-.17,5.11,5.11,0,0,1-1.15-.44,2.54,2.54,0,0,1-.74-.58,22.42,22.42,0,0,1-1.67-2.26c-.54-.81-1.06-1.68-1.58-2.59a5.25,5.25,0,0,0-1.3-1.52,3.11,3.11,0,0,0-1.33-.75,7.67,7.67,0,0,0-1.3-.08,2,2,0,0,0-.86.15,6,6,0,0,0-1,.62,4.56,4.56,0,0,0-1.22,1.28,3.3,3.3,0,0,0-.33,1.59,5.48,5.48,0,0,0,.25,1.58c.17.53.44,1.29.82,2.28a26.73,26.73,0,0,1,.87,2.64,8.68,8.68,0,0,1,.3,2.24,5.42,5.42,0,0,1-.76,2.84,5.79,5.79,0,0,1-1.93,2,4.43,4.43,0,0,1-2.34.72,4.81,4.81,0,0,1-.68,0c-.11,0-.17-.1-.17-.25a.77.77,0,0,1,.2-.57c.38-.49.57-1.87.57-4.13a10.4,10.4,0,0,0-.07-1.28l-.3-2c-.15-.94-.24-1.59-.29-2a14.92,14.92,0,0,1-.07-1.56,6.29,6.29,0,0,1,.33-2.14,4.75,4.75,0,0,1,1.13-1.72,9.81,9.81,0,0,1,2.22-1.6l1.3-.7q.52-.28.9-.54a2.14,2.14,0,0,0,.53-.44.71.71,0,0,0,.16-.48c0-.34-.39-.73-1.19-1.16-1.41-.81-2.47-1.47-3.19-2a5.42,5.42,0,0,1-1.63-1.8,5.56,5.56,0,0,1-.56-2.66,15.14,15.14,0,0,1,.07-1.55c.05-.38.14-1,.28-1.92s.24-1.56.3-2a11.53,11.53,0,0,0,.08-1.35q0-3.41-.57-4.14a.72.72,0,0,1-.2-.53c0-.21.3-.32.89-.32a4.3,4.3,0,0,1,2.33.73,5.74,5.74,0,0,1,1.91,2,5.52,5.52,0,0,1,.75,2.83,8.85,8.85,0,0,1-.3,2.27,25.68,25.68,0,0,1-.85,2.59c-.37,1-.64,1.74-.82,2.31a5.29,5.29,0,0,0-.27,1.62,3.19,3.19,0,0,0,.35,1.6,4.41,4.41,0,0,0,1.2,1.23,6.33,6.33,0,0,0,1,.63,2,2,0,0,0,.91.18,8.14,8.14,0,0,0,1.3-.12,1.83,1.83,0,0,0,.77-.36,5.9,5.9,0,0,0,1-.83,4.61,4.61,0,0,0,.84-1.09,29,29,0,0,1,3.25-4.8,3,3,0,0,1,1.29-.84,5.1,5.1,0,0,1,1.91-.35c.91,0,1.37.33,1.37,1A.7.7,0,0,1,278.16,304.26Z"/>
  <path class="cls-2" d="M278.16,265.45a7.87,7.87,0,0,0-.83,1.4,14.62,14.62,0,0,0-.83,2.12,6.79,6.79,0,0,0-.36,2c0,.45.4.67,1.21.67h3a14.63,14.63,0,0,1,2.33.13,1.49,1.49,0,0,1,1.07.61,3.47,3.47,0,0,1,0,2.91,1.49,1.49,0,0,1-1.07.61,14.63,14.63,0,0,1-2.33.13h-3c-.81,0-1.21.24-1.21.71a6.55,6.55,0,0,0,.45,2.4,15.49,15.49,0,0,0,1.09,2.25,5.17,5.17,0,0,1,.64,1.33c0,.64-.46,1-1.37,1a5.42,5.42,0,0,1-1.31-.17,4.68,4.68,0,0,1-1.15-.44,2.39,2.39,0,0,1-.74-.58,22.26,22.26,0,0,1-1.67-2.25c-.54-.82-1.06-1.69-1.58-2.6a5.25,5.25,0,0,0-1.3-1.52,3.11,3.11,0,0,0-1.33-.75,8.89,8.89,0,0,0-1.3-.08,2,2,0,0,0-.86.15,6.75,6.75,0,0,0-1,.62,4.45,4.45,0,0,0-1.22,1.29,3.23,3.23,0,0,0-.33,1.58,5.37,5.37,0,0,0,.25,1.58c.17.53.44,1.29.82,2.29a25.8,25.8,0,0,1,.87,2.63,8.8,8.8,0,0,1,.3,2.24,5.39,5.39,0,0,1-.76,2.84,5.79,5.79,0,0,1-1.93,2,4.43,4.43,0,0,1-2.34.72,4.81,4.81,0,0,1-.68,0c-.11,0-.17-.1-.17-.24a.82.82,0,0,1,.2-.58c.38-.48.57-1.86.57-4.13a10.4,10.4,0,0,0-.07-1.28l-.3-2c-.15-.93-.24-1.59-.29-2a15,15,0,0,1-.07-1.57,6.19,6.19,0,0,1,.33-2.13,4.78,4.78,0,0,1,1.13-1.73,9.81,9.81,0,0,1,2.22-1.6l1.3-.7c.35-.19.65-.37.9-.53a2.38,2.38,0,0,0,.53-.45.71.71,0,0,0,.16-.47c0-.35-.39-.74-1.19-1.17-1.41-.81-2.47-1.47-3.19-2a5.42,5.42,0,0,1-1.63-1.8,5.56,5.56,0,0,1-.56-2.66,14.92,14.92,0,0,1,.07-1.54c.05-.39.14-1,.28-1.92s.24-1.56.3-2a11.71,11.71,0,0,0,.08-1.36c0-2.27-.19-3.64-.57-4.13a.73.73,0,0,1-.2-.54c0-.21.3-.31.89-.31a4.37,4.37,0,0,1,2.33.72,5.68,5.68,0,0,1,1.91,2,5.5,5.5,0,0,1,.75,2.83,8.83,8.83,0,0,1-.3,2.26,25.68,25.68,0,0,1-.85,2.59c-.37,1-.64,1.74-.82,2.31a5.38,5.38,0,0,0-.27,1.62,3.16,3.16,0,0,0,.35,1.6,4.28,4.28,0,0,0,1.2,1.23,6.33,6.33,0,0,0,1,.63,2,2,0,0,0,.91.18,8.14,8.14,0,0,0,1.3-.12,1.91,1.91,0,0,0,.77-.35,7,7,0,0,0,1-.83,4.82,4.82,0,0,0,.84-1.09,29.07,29.07,0,0,1,3.25-4.81,3,3,0,0,1,1.29-.84A5.31,5.31,0,0,1,277,264c.91,0,1.37.33,1.37,1A.72.72,0,0,1,278.16,265.45Z"/>
  <path class="cls-2" d="M278.16,226.63a7.87,7.87,0,0,0-.83,1.4,15.09,15.09,0,0,0-.83,2.12,6.84,6.84,0,0,0-.36,2c0,.45.4.67,1.21.67h3a15.94,15.94,0,0,1,2.33.13,1.53,1.53,0,0,1,1.07.61A2.73,2.73,0,0,1,284,235a2.69,2.69,0,0,1-.32,1.45,1.5,1.5,0,0,1-1.07.62,16.28,16.28,0,0,1-2.33.12h-3c-.81,0-1.21.24-1.21.72a6.46,6.46,0,0,0,.45,2.39,15.11,15.11,0,0,0,1.09,2.26,5.19,5.19,0,0,1,.64,1.32c0,.65-.46,1-1.37,1a5.42,5.42,0,0,1-1.31-.17,4.68,4.68,0,0,1-1.15-.43,2.4,2.4,0,0,1-.74-.59,21.19,21.19,0,0,1-1.67-2.25c-.54-.82-1.06-1.68-1.58-2.59a5.28,5.28,0,0,0-1.3-1.53,3.11,3.11,0,0,0-1.33-.75,8.89,8.89,0,0,0-1.3-.08,2,2,0,0,0-.86.15,7.76,7.76,0,0,0-1,.62,4.57,4.57,0,0,0-1.22,1.29,3.25,3.25,0,0,0-.33,1.58,5.49,5.49,0,0,0,.25,1.59c.17.52.44,1.28.82,2.28a26.64,26.64,0,0,1,.87,2.63,8.82,8.82,0,0,1,.3,2.25,5.42,5.42,0,0,1-.76,2.84,5.76,5.76,0,0,1-1.93,2,4.36,4.36,0,0,1-2.34.73,4.81,4.81,0,0,1-.68,0c-.11,0-.17-.1-.17-.25a.77.77,0,0,1,.2-.57q.57-.74.57-4.14a10.24,10.24,0,0,0-.07-1.27l-.3-2c-.15-.94-.24-1.59-.29-2a14.92,14.92,0,0,1-.07-1.56,6.29,6.29,0,0,1,.33-2.14,4.66,4.66,0,0,1,1.13-1.72,9.81,9.81,0,0,1,2.22-1.61l1.3-.7c.35-.19.65-.37.9-.53a2.14,2.14,0,0,0,.53-.45.71.71,0,0,0,.16-.47c0-.34-.39-.73-1.19-1.17a36.15,36.15,0,0,1-3.19-2,5.42,5.42,0,0,1-1.63-1.8,5.53,5.53,0,0,1-.56-2.66,15.07,15.07,0,0,1,.07-1.54c.05-.38.14-1,.28-1.92s.24-1.56.3-2a11.67,11.67,0,0,0,.08-1.35q0-3.4-.57-4.14a.72.72,0,0,1-.2-.53c0-.21.3-.32.89-.32a4.37,4.37,0,0,1,2.33.72,5.68,5.68,0,0,1,1.91,2,5.52,5.52,0,0,1,.75,2.83,8.78,8.78,0,0,1-.3,2.26,25.79,25.79,0,0,1-.85,2.6c-.37,1-.64,1.73-.82,2.3a5.38,5.38,0,0,0-.27,1.62,3.2,3.2,0,0,0,.35,1.61,4.4,4.4,0,0,0,1.2,1.22,5.81,5.81,0,0,0,1,.64,2.14,2.14,0,0,0,.91.17,9.35,9.35,0,0,0,1.3-.11,2.13,2.13,0,0,0,.77-.36,6.4,6.4,0,0,0,1-.83,4.61,4.61,0,0,0,.84-1.09,29.07,29.07,0,0,1,3.25-4.81,3,3,0,0,1,1.29-.84,5.3,5.3,0,0,1,1.91-.34c.91,0,1.37.33,1.37,1A.72.72,0,0,1,278.16,226.63Z"/>
  <path class="cls-2" d="M278.16,187.81a7.67,7.67,0,0,0-.83,1.41,14.49,14.49,0,0,0-.83,2.11,6.9,6.9,0,0,0-.36,2c0,.45.4.68,1.21.68h3a16.28,16.28,0,0,1,2.33.12,1.5,1.5,0,0,1,1.07.62,2.66,2.66,0,0,1,.32,1.45,2.73,2.73,0,0,1-.32,1.46,1.53,1.53,0,0,1-1.07.61,15.94,15.94,0,0,1-2.33.13h-3c-.81,0-1.21.23-1.21.71a6.46,6.46,0,0,0,.45,2.39,15.11,15.11,0,0,0,1.09,2.26,5.36,5.36,0,0,1,.64,1.32c0,.65-.46,1-1.37,1a5.4,5.4,0,0,1-1.31-.16,5.11,5.11,0,0,1-1.15-.44,2.54,2.54,0,0,1-.74-.58,22.42,22.42,0,0,1-1.67-2.26c-.54-.82-1.06-1.68-1.58-2.59a5.25,5.25,0,0,0-1.3-1.52,3,3,0,0,0-1.33-.76,9.11,9.11,0,0,0-1.3-.07,2.06,2.06,0,0,0-.86.14,7.05,7.05,0,0,0-1,.63,4.56,4.56,0,0,0-1.22,1.28,3.3,3.3,0,0,0-.33,1.59,5.48,5.48,0,0,0,.25,1.58c.17.53.44,1.29.82,2.28a27.53,27.53,0,0,1,.87,2.63,8.82,8.82,0,0,1,.3,2.25,5.42,5.42,0,0,1-.76,2.84,5.79,5.79,0,0,1-1.93,2,4.43,4.43,0,0,1-2.34.72,4.81,4.81,0,0,1-.68,0c-.11,0-.17-.1-.17-.25a.77.77,0,0,1,.2-.57q.57-.73.57-4.14a10.35,10.35,0,0,0-.07-1.27l-.3-2c-.15-.94-.24-1.59-.29-2a14.92,14.92,0,0,1-.07-1.56,6.29,6.29,0,0,1,.33-2.14A4.66,4.66,0,0,1,261,200a9.81,9.81,0,0,1,2.22-1.6l1.3-.7c.35-.2.65-.37.9-.54a2.14,2.14,0,0,0,.53-.44.73.73,0,0,0,.16-.48c0-.34-.39-.73-1.19-1.17a36.52,36.52,0,0,1-3.19-2,4.93,4.93,0,0,1-2.19-4.47,15.07,15.07,0,0,1,.07-1.54c.05-.38.14-1,.28-1.92s.24-1.56.3-2a11.67,11.67,0,0,0,.08-1.35q0-3.41-.57-4.14a.72.72,0,0,1-.2-.53c0-.21.3-.32.89-.32a4.37,4.37,0,0,1,2.33.72,5.86,5.86,0,0,1,1.91,2,5.52,5.52,0,0,1,.75,2.83,8.91,8.91,0,0,1-.3,2.27,25.68,25.68,0,0,1-.85,2.59c-.37,1-.64,1.74-.82,2.3a5.4,5.4,0,0,0-.27,1.63,3.19,3.19,0,0,0,.35,1.6,4.55,4.55,0,0,0,1.2,1.23,6.33,6.33,0,0,0,1,.63,2,2,0,0,0,.91.18,8.14,8.14,0,0,0,1.3-.12,2,2,0,0,0,.77-.36,5.9,5.9,0,0,0,1-.83,4.61,4.61,0,0,0,.84-1.09,29,29,0,0,1,3.25-4.8,3,3,0,0,1,1.29-.85,5.3,5.3,0,0,1,1.91-.34c.91,0,1.37.33,1.37,1A.7.7,0,0,1,278.16,187.81Z"/>
  <path class="cls-2" d="M278.16,149a7.52,7.52,0,0,0-.83,1.4,14.62,14.62,0,0,0-.83,2.12,6.79,6.79,0,0,0-.36,2c0,.44.4.67,1.21.67h3a14.63,14.63,0,0,1,2.33.13,1.49,1.49,0,0,1,1.07.61,3.47,3.47,0,0,1,0,2.91,1.49,1.49,0,0,1-1.07.61,14.63,14.63,0,0,1-2.33.13h-3c-.81,0-1.21.24-1.21.71a6.55,6.55,0,0,0,.45,2.4,15.49,15.49,0,0,0,1.09,2.25,5.17,5.17,0,0,1,.64,1.33c0,.64-.46,1-1.37,1a5.42,5.42,0,0,1-1.31-.17,4.68,4.68,0,0,1-1.15-.44,2.39,2.39,0,0,1-.74-.58,22.42,22.42,0,0,1-1.67-2.26c-.54-.81-1.06-1.68-1.58-2.59a5.25,5.25,0,0,0-1.3-1.52,3.11,3.11,0,0,0-1.33-.75,7.67,7.67,0,0,0-1.3-.08,2,2,0,0,0-.86.15,6.75,6.75,0,0,0-1,.62,4.45,4.45,0,0,0-1.22,1.29,3.23,3.23,0,0,0-.33,1.58,5.43,5.43,0,0,0,.25,1.58c.17.53.44,1.29.82,2.29a25.8,25.8,0,0,1,.87,2.63,8.74,8.74,0,0,1,.3,2.24,5.39,5.39,0,0,1-.76,2.84,5.79,5.79,0,0,1-1.93,2,4.43,4.43,0,0,1-2.34.72,4.81,4.81,0,0,1-.68,0c-.11,0-.17-.1-.17-.24a.8.8,0,0,1,.2-.58c.38-.49.57-1.86.57-4.13a10.4,10.4,0,0,0-.07-1.28l-.3-2c-.15-.93-.24-1.59-.29-2a14.92,14.92,0,0,1-.07-1.56,6.29,6.29,0,0,1,.33-2.14,4.75,4.75,0,0,1,1.13-1.72,9.81,9.81,0,0,1,2.22-1.6l1.3-.7q.52-.28.9-.54a2.14,2.14,0,0,0,.53-.44.71.71,0,0,0,.16-.48c0-.34-.39-.73-1.19-1.16-1.41-.81-2.47-1.47-3.19-2a5.42,5.42,0,0,1-1.63-1.8,5.56,5.56,0,0,1-.56-2.66,15.29,15.29,0,0,1,.07-1.55c.05-.38.14-1,.28-1.92s.24-1.55.3-2a11.71,11.71,0,0,0,.08-1.36c0-2.27-.19-3.65-.57-4.13a.75.75,0,0,1-.2-.54c0-.21.3-.31.89-.31a4.37,4.37,0,0,1,2.33.72,5.68,5.68,0,0,1,1.91,2,5.5,5.5,0,0,1,.75,2.83,8.83,8.83,0,0,1-.3,2.26,25.68,25.68,0,0,1-.85,2.59c-.37,1-.64,1.74-.82,2.31a5.29,5.29,0,0,0-.27,1.62,3.16,3.16,0,0,0,.35,1.6,4.28,4.28,0,0,0,1.2,1.23,6.33,6.33,0,0,0,1,.63,2,2,0,0,0,.91.18,8.14,8.14,0,0,0,1.3-.12,1.83,1.83,0,0,0,.77-.36,5.9,5.9,0,0,0,1-.83,4.77,4.77,0,0,0,.84-1.08,29.07,29.07,0,0,1,3.25-4.81,3,3,0,0,1,1.29-.84,5.31,5.31,0,0,1,1.91-.35c.91,0,1.37.33,1.37,1A.72.72,0,0,1,278.16,149Z"/>
  <path class="cls-2" d="M330.46,265.45a7.87,7.87,0,0,0-.83,1.4,14.62,14.62,0,0,0-.83,2.12,6.79,6.79,0,0,0-.36,2c0,.45.41.67,1.21.67h3a14.63,14.63,0,0,1,2.33.13,1.49,1.49,0,0,1,1.07.61,3.47,3.47,0,0,1,0,2.91,1.49,1.49,0,0,1-1.07.61,14.63,14.63,0,0,1-2.33.13h-3c-.8,0-1.21.24-1.21.71a6.55,6.55,0,0,0,.45,2.4,16.59,16.59,0,0,0,1.09,2.25,4.81,4.81,0,0,1,.64,1.33c0,.64-.46,1-1.37,1a5.42,5.42,0,0,1-1.31-.17,4.68,4.68,0,0,1-1.15-.44,2.39,2.39,0,0,1-.74-.58,22.26,22.26,0,0,1-1.67-2.25c-.54-.82-1.06-1.69-1.58-2.6a5.1,5.1,0,0,0-1.3-1.52,3.11,3.11,0,0,0-1.33-.75,8.89,8.89,0,0,0-1.3-.08,2,2,0,0,0-.86.15,6.75,6.75,0,0,0-1,.62,4.45,4.45,0,0,0-1.22,1.29,3.23,3.23,0,0,0-.33,1.58,5.37,5.37,0,0,0,.25,1.58c.17.53.44,1.29.82,2.29a21.64,21.64,0,0,1,.87,2.63,8.8,8.8,0,0,1,.3,2.24,5.39,5.39,0,0,1-.76,2.84,5.79,5.79,0,0,1-1.93,2,4.43,4.43,0,0,1-2.33.72,4.88,4.88,0,0,1-.69,0c-.11,0-.17-.1-.17-.24a.82.82,0,0,1,.2-.58c.38-.48.58-1.86.58-4.13a10.34,10.34,0,0,0-.08-1.28c-.06-.4-.15-1.07-.3-2s-.24-1.59-.29-2a15,15,0,0,1-.07-1.57,6.19,6.19,0,0,1,.33-2.13,4.78,4.78,0,0,1,1.13-1.73,9.81,9.81,0,0,1,2.22-1.6l1.3-.7c.35-.19.65-.37.9-.53a2.38,2.38,0,0,0,.53-.45.71.71,0,0,0,.16-.47c0-.35-.39-.74-1.18-1.17a37.53,37.53,0,0,1-3.2-2,5.42,5.42,0,0,1-1.63-1.8,5.56,5.56,0,0,1-.56-2.66,14.92,14.92,0,0,1,.07-1.54c.05-.39.14-1,.28-1.92s.24-1.56.3-2a9.81,9.81,0,0,0,.09-1.36c0-2.27-.2-3.64-.58-4.13a.73.73,0,0,1-.2-.54c0-.21.3-.31.89-.31a4.37,4.37,0,0,1,2.33.72,5.68,5.68,0,0,1,1.91,2,5.5,5.5,0,0,1,.75,2.83,8.83,8.83,0,0,1-.3,2.26,23.37,23.37,0,0,1-.85,2.59c-.37,1-.64,1.74-.82,2.31a5.38,5.38,0,0,0-.27,1.62,3.16,3.16,0,0,0,.35,1.6,4.28,4.28,0,0,0,1.2,1.23,6.33,6.33,0,0,0,.95.63,2,2,0,0,0,.91.18,8,8,0,0,0,1.3-.12,1.91,1.91,0,0,0,.77-.35,7,7,0,0,0,1-.83,4.82,4.82,0,0,0,.84-1.09,29.71,29.71,0,0,1,3.25-4.81,3,3,0,0,1,1.3-.84,5.25,5.25,0,0,1,1.9-.35c.91,0,1.37.33,1.37,1A.72.72,0,0,1,330.46,265.45Z"/>
  <path class="cls-2" d="M330.46,226.63a7.87,7.87,0,0,0-.83,1.4,15.09,15.09,0,0,0-.83,2.12,6.84,6.84,0,0,0-.36,2c0,.45.41.67,1.21.67h3A15.94,15.94,0,0,1,335,233a1.53,1.53,0,0,1,1.07.61,2.73,2.73,0,0,1,.32,1.46,2.69,2.69,0,0,1-.32,1.45,1.5,1.5,0,0,1-1.07.62,16.28,16.28,0,0,1-2.33.12h-3c-.8,0-1.21.24-1.21.72a6.46,6.46,0,0,0,.45,2.39,16.15,16.15,0,0,0,1.09,2.26,4.82,4.82,0,0,1,.64,1.32c0,.65-.46,1-1.37,1a5.42,5.42,0,0,1-1.31-.17,4.68,4.68,0,0,1-1.15-.43,2.4,2.4,0,0,1-.74-.59,21.19,21.19,0,0,1-1.67-2.25c-.54-.82-1.06-1.68-1.58-2.59a5.13,5.13,0,0,0-1.3-1.53,3.11,3.11,0,0,0-1.33-.75,8.89,8.89,0,0,0-1.3-.08,2,2,0,0,0-.86.15,7.76,7.76,0,0,0-1,.62,4.57,4.57,0,0,0-1.22,1.29,3.25,3.25,0,0,0-.33,1.58,5.49,5.49,0,0,0,.25,1.59c.17.52.44,1.28.82,2.28a22.22,22.22,0,0,1,.87,2.63,8.82,8.82,0,0,1,.3,2.25,5.42,5.42,0,0,1-.76,2.84,5.76,5.76,0,0,1-1.93,2,4.36,4.36,0,0,1-2.33.73,4.88,4.88,0,0,1-.69,0c-.11,0-.17-.1-.17-.25a.77.77,0,0,1,.2-.57c.38-.49.58-1.87.58-4.14a10.18,10.18,0,0,0-.08-1.27c-.06-.41-.15-1.08-.3-2s-.24-1.59-.29-2a14.92,14.92,0,0,1-.07-1.56,6.29,6.29,0,0,1,.33-2.14,4.66,4.66,0,0,1,1.13-1.72,9.81,9.81,0,0,1,2.22-1.61c.52-.27.95-.51,1.3-.7s.65-.37.9-.53a2.14,2.14,0,0,0,.53-.45.71.71,0,0,0,.16-.47c0-.34-.39-.73-1.18-1.17a35.13,35.13,0,0,1-3.2-2,5.42,5.42,0,0,1-1.63-1.8,5.53,5.53,0,0,1-.56-2.66,15.07,15.07,0,0,1,.07-1.54c.05-.38.14-1,.28-1.92s.24-1.56.3-2a9.77,9.77,0,0,0,.09-1.35c0-2.27-.2-3.65-.58-4.14a.72.72,0,0,1-.2-.53c0-.21.3-.32.89-.32a4.37,4.37,0,0,1,2.33.72,5.68,5.68,0,0,1,1.91,2,5.52,5.52,0,0,1,.75,2.83,8.78,8.78,0,0,1-.3,2.26,23.47,23.47,0,0,1-.85,2.6c-.37,1-.64,1.73-.82,2.3a5.38,5.38,0,0,0-.27,1.62,3.2,3.2,0,0,0,.35,1.61,4.4,4.4,0,0,0,1.2,1.22,5.81,5.81,0,0,0,.95.64,2.14,2.14,0,0,0,.91.17,9.23,9.23,0,0,0,1.3-.11,2.13,2.13,0,0,0,.77-.36,6.4,6.4,0,0,0,1-.83,4.61,4.61,0,0,0,.84-1.09,29.71,29.71,0,0,1,3.25-4.81,3,3,0,0,1,1.3-.84,5.25,5.25,0,0,1,1.9-.34c.91,0,1.37.33,1.37,1A.72.72,0,0,1,330.46,226.63Z"/>
  <path class="cls-2" d="M330.46,187.81a7.67,7.67,0,0,0-.83,1.41,14.49,14.49,0,0,0-.83,2.11,6.9,6.9,0,0,0-.36,2c0,.45.41.68,1.21.68h3a16.28,16.28,0,0,1,2.33.12,1.5,1.5,0,0,1,1.07.62,2.66,2.66,0,0,1,.32,1.45,2.73,2.73,0,0,1-.32,1.46,1.53,1.53,0,0,1-1.07.61,15.94,15.94,0,0,1-2.33.13h-3c-.8,0-1.21.23-1.21.71a6.46,6.46,0,0,0,.45,2.39,16.15,16.15,0,0,0,1.09,2.26,5,5,0,0,1,.64,1.32c0,.65-.46,1-1.37,1a5.4,5.4,0,0,1-1.31-.16,5.11,5.11,0,0,1-1.15-.44,2.54,2.54,0,0,1-.74-.58,22.42,22.42,0,0,1-1.67-2.26c-.54-.82-1.06-1.68-1.58-2.59a5.1,5.1,0,0,0-1.3-1.52,3,3,0,0,0-1.33-.76,9.11,9.11,0,0,0-1.3-.07,2.06,2.06,0,0,0-.86.14,7.05,7.05,0,0,0-1,.63,4.56,4.56,0,0,0-1.22,1.28,3.3,3.3,0,0,0-.33,1.59,5.48,5.48,0,0,0,.25,1.58c.17.53.44,1.29.82,2.28a22.84,22.84,0,0,1,.87,2.63,8.82,8.82,0,0,1,.3,2.25,5.42,5.42,0,0,1-.76,2.84,5.79,5.79,0,0,1-1.93,2,4.43,4.43,0,0,1-2.33.72,4.88,4.88,0,0,1-.69,0c-.11,0-.17-.1-.17-.25a.77.77,0,0,1,.2-.57c.38-.49.58-1.87.58-4.14a10.3,10.3,0,0,0-.08-1.27c-.06-.4-.15-1.07-.3-2s-.24-1.59-.29-2a14.92,14.92,0,0,1-.07-1.56,6.29,6.29,0,0,1,.33-2.14,4.66,4.66,0,0,1,1.13-1.72,9.81,9.81,0,0,1,2.22-1.6l1.3-.7c.35-.2.65-.37.9-.54a2.14,2.14,0,0,0,.53-.44.73.73,0,0,0,.16-.48c0-.34-.39-.73-1.18-1.17a35.48,35.48,0,0,1-3.2-2,4.93,4.93,0,0,1-2.19-4.47,15.07,15.07,0,0,1,.07-1.54c.05-.38.14-1,.28-1.92s.24-1.56.3-2a9.77,9.77,0,0,0,.09-1.35c0-2.27-.2-3.65-.58-4.14a.72.72,0,0,1-.2-.53c0-.21.3-.32.89-.32a4.37,4.37,0,0,1,2.33.72,5.86,5.86,0,0,1,1.91,2,5.52,5.52,0,0,1,.75,2.83,8.91,8.91,0,0,1-.3,2.27,23.37,23.37,0,0,1-.85,2.59c-.37,1-.64,1.74-.82,2.3a5.4,5.4,0,0,0-.27,1.63,3.19,3.19,0,0,0,.35,1.6A4.55,4.55,0,0,0,317,194a6.33,6.33,0,0,0,.95.63,2,2,0,0,0,.91.18,8,8,0,0,0,1.3-.12,2,2,0,0,0,.77-.36,5.9,5.9,0,0,0,1-.83,4.61,4.61,0,0,0,.84-1.09,29.6,29.6,0,0,1,3.25-4.8,3.09,3.09,0,0,1,1.3-.85,5.25,5.25,0,0,1,1.9-.34c.91,0,1.37.33,1.37,1A.7.7,0,0,1,330.46,187.81Z"/>
  <path class="cls-2" d="M173.6,265.45a8.53,8.53,0,0,0-.83,1.4,15.87,15.87,0,0,0-.83,2.12,6.74,6.74,0,0,0-.35,2c0,.45.4.67,1.2.67h3a14.54,14.54,0,0,1,2.33.13,1.47,1.47,0,0,1,1.07.61,3.47,3.47,0,0,1,0,2.91,1.47,1.47,0,0,1-1.07.61,14.54,14.54,0,0,1-2.33.13h-3c-.8,0-1.2.24-1.2.71a6.54,6.54,0,0,0,.44,2.4,16.59,16.59,0,0,0,1.09,2.25,4.81,4.81,0,0,1,.64,1.33c0,.64-.45,1-1.36,1a5.43,5.43,0,0,1-1.32-.17,4.84,4.84,0,0,1-1.15-.44,2.39,2.39,0,0,1-.74-.58,22.26,22.26,0,0,1-1.67-2.25c-.53-.82-1.06-1.69-1.57-2.6a5.29,5.29,0,0,0-1.31-1.52,3.15,3.15,0,0,0-1.32-.75,9,9,0,0,0-1.31-.08,2.07,2.07,0,0,0-.86.15,6.75,6.75,0,0,0-1,.62,4.59,4.59,0,0,0-1.22,1.29,3.35,3.35,0,0,0-.32,1.58,5.36,5.36,0,0,0,.24,1.58c.17.53.44,1.29.83,2.29a25.8,25.8,0,0,1,.87,2.63,9.25,9.25,0,0,1,.29,2.24,5.39,5.39,0,0,1-.76,2.84,5.79,5.79,0,0,1-1.93,2,4.4,4.4,0,0,1-2.33.72,5,5,0,0,1-.69,0c-.11,0-.16-.1-.16-.24a.81.81,0,0,1,.19-.58c.39-.48.58-1.86.58-4.13a10.34,10.34,0,0,0-.08-1.28q-.07-.6-.3-2c-.14-.93-.24-1.59-.28-2a12.65,12.65,0,0,1-.07-1.57,6.45,6.45,0,0,1,.32-2.13,4.91,4.91,0,0,1,1.13-1.73,9.89,9.89,0,0,1,2.23-1.6l1.29-.7c.35-.19.65-.37.9-.53a2.75,2.75,0,0,0,.54-.45.75.75,0,0,0,.15-.47c0-.35-.39-.74-1.18-1.17-1.41-.81-2.48-1.47-3.2-2a5.42,5.42,0,0,1-1.63-1.8,5.56,5.56,0,0,1-.55-2.66,12.53,12.53,0,0,1,.07-1.54q.06-.58.27-1.92c.14-.9.24-1.56.3-2a9.81,9.81,0,0,0,.09-1.36c0-2.27-.19-3.64-.58-4.13a.73.73,0,0,1-.19-.54c0-.21.29-.31.89-.31a4.34,4.34,0,0,1,2.32.72,5.68,5.68,0,0,1,1.91,2,5.5,5.5,0,0,1,.75,2.83,9.28,9.28,0,0,1-.29,2.26c-.2.76-.49,1.62-.85,2.59s-.65,1.74-.83,2.31a5.69,5.69,0,0,0-.26,1.62,3.17,3.17,0,0,0,.34,1.6,4.28,4.28,0,0,0,1.2,1.23,6.88,6.88,0,0,0,.95.63,2,2,0,0,0,.91.18,8.26,8.26,0,0,0,1.31-.12,2,2,0,0,0,.77-.35,8.26,8.26,0,0,0,1-.83A5.47,5.47,0,0,0,166,270a29.67,29.67,0,0,1,3.24-4.81,3.05,3.05,0,0,1,1.3-.84,5.27,5.27,0,0,1,1.91-.35c.91,0,1.36.33,1.36,1A.72.72,0,0,1,173.6,265.45Z"/>
  <path class="cls-2" d="M173.6,226.63a8.53,8.53,0,0,0-.83,1.4,16.42,16.42,0,0,0-.83,2.12,6.79,6.79,0,0,0-.35,2c0,.45.4.67,1.2.67h3a15.85,15.85,0,0,1,2.33.13,1.51,1.51,0,0,1,1.07.61,2.73,2.73,0,0,1,.32,1.46,2.69,2.69,0,0,1-.32,1.45,1.48,1.48,0,0,1-1.07.62,16.18,16.18,0,0,1-2.33.12h-3q-1.2,0-1.2.72a6.45,6.45,0,0,0,.44,2.39,16.15,16.15,0,0,0,1.09,2.26,4.82,4.82,0,0,1,.64,1.32c0,.65-.45,1-1.36,1a5.43,5.43,0,0,1-1.32-.17,4.84,4.84,0,0,1-1.15-.43,2.4,2.4,0,0,1-.74-.59,21.19,21.19,0,0,1-1.67-2.25c-.53-.82-1.06-1.68-1.57-2.59a5.32,5.32,0,0,0-1.31-1.53,3.15,3.15,0,0,0-1.32-.75,9,9,0,0,0-1.31-.08,2.07,2.07,0,0,0-.86.15,7.76,7.76,0,0,0-1,.62,4.72,4.72,0,0,0-1.22,1.29,3.38,3.38,0,0,0-.32,1.58,5.48,5.48,0,0,0,.24,1.59c.17.52.44,1.28.83,2.28a26.64,26.64,0,0,1,.87,2.63,9.26,9.26,0,0,1,.29,2.25,5.42,5.42,0,0,1-.76,2.84,5.76,5.76,0,0,1-1.93,2,4.33,4.33,0,0,1-2.33.73,5,5,0,0,1-.69,0c-.11,0-.16-.1-.16-.25a.77.77,0,0,1,.19-.57c.39-.49.58-1.87.58-4.14a10.18,10.18,0,0,0-.08-1.27q-.07-.61-.3-2c-.14-.94-.24-1.59-.28-2a12.57,12.57,0,0,1-.07-1.56,6.56,6.56,0,0,1,.32-2.14,4.79,4.79,0,0,1,1.13-1.72,9.9,9.9,0,0,1,2.23-1.61l1.29-.7c.35-.19.65-.37.9-.53a2.44,2.44,0,0,0,.54-.45.75.75,0,0,0,.15-.47c0-.34-.39-.73-1.18-1.17a36.61,36.61,0,0,1-3.2-2,5.42,5.42,0,0,1-1.63-1.8,5.54,5.54,0,0,1-.55-2.66,12.64,12.64,0,0,1,.07-1.54q.06-.57.27-1.92c.14-.9.24-1.56.3-2a9.77,9.77,0,0,0,.09-1.35c0-2.27-.19-3.65-.58-4.14a.72.72,0,0,1-.19-.53c0-.21.29-.32.89-.32a4.34,4.34,0,0,1,2.32.72,5.68,5.68,0,0,1,1.91,2,5.52,5.52,0,0,1,.75,2.83,9.22,9.22,0,0,1-.29,2.26c-.2.76-.49,1.63-.85,2.6s-.65,1.73-.83,2.3a5.69,5.69,0,0,0-.26,1.62,3.21,3.21,0,0,0,.34,1.61,4.4,4.4,0,0,0,1.2,1.22,6.27,6.27,0,0,0,.95.64,2.17,2.17,0,0,0,.91.17,9.48,9.48,0,0,0,1.31-.11,2.21,2.21,0,0,0,.77-.36,7.44,7.44,0,0,0,1-.83,5.2,5.2,0,0,0,.84-1.09,29.67,29.67,0,0,1,3.24-4.81,3.05,3.05,0,0,1,1.3-.84,5.26,5.26,0,0,1,1.91-.34c.91,0,1.36.33,1.36,1A.72.72,0,0,1,173.6,226.63Z"/>
  <path class="cls-2" d="M173.6,187.81a8.29,8.29,0,0,0-.83,1.41,15.72,15.72,0,0,0-.83,2.11,6.84,6.84,0,0,0-.35,2c0,.45.4.68,1.2.68h3a16.18,16.18,0,0,1,2.33.12,1.48,1.48,0,0,1,1.07.62,2.66,2.66,0,0,1,.32,1.45,2.73,2.73,0,0,1-.32,1.46,1.51,1.51,0,0,1-1.07.61,15.85,15.85,0,0,1-2.33.13h-3c-.8,0-1.2.23-1.2.71a6.45,6.45,0,0,0,.44,2.39,16.15,16.15,0,0,0,1.09,2.26,5,5,0,0,1,.64,1.32c0,.65-.45,1-1.36,1a5.42,5.42,0,0,1-1.32-.16,5.31,5.31,0,0,1-1.15-.44,2.54,2.54,0,0,1-.74-.58,22.42,22.42,0,0,1-1.67-2.26c-.53-.82-1.06-1.68-1.57-2.59a5.29,5.29,0,0,0-1.31-1.52,3.08,3.08,0,0,0-1.32-.76,9.26,9.26,0,0,0-1.31-.07,2.09,2.09,0,0,0-.86.14,7.05,7.05,0,0,0-1,.63,4.71,4.71,0,0,0-1.22,1.28,3.43,3.43,0,0,0-.32,1.59,5.46,5.46,0,0,0,.24,1.58c.17.53.44,1.29.83,2.28a27.53,27.53,0,0,1,.87,2.63,9.26,9.26,0,0,1,.29,2.25,5.42,5.42,0,0,1-.76,2.84,5.79,5.79,0,0,1-1.93,2,4.4,4.4,0,0,1-2.33.72,5,5,0,0,1-.69,0c-.11,0-.16-.1-.16-.25a.77.77,0,0,1,.19-.57c.39-.49.58-1.87.58-4.14a10.3,10.3,0,0,0-.08-1.27q-.07-.6-.3-2c-.14-.94-.24-1.59-.28-2a12.57,12.57,0,0,1-.07-1.56,6.56,6.56,0,0,1,.32-2.14,4.79,4.79,0,0,1,1.13-1.72,9.89,9.89,0,0,1,2.23-1.6l1.29-.7c.35-.2.65-.37.9-.54a2.45,2.45,0,0,0,.54-.44.78.78,0,0,0,.15-.48c0-.34-.39-.73-1.18-1.17a37,37,0,0,1-3.2-2,4.9,4.9,0,0,1-2.18-4.47,12.64,12.64,0,0,1,.07-1.54q.06-.57.27-1.92c.14-.89.24-1.56.3-2a9.77,9.77,0,0,0,.09-1.35c0-2.27-.19-3.65-.58-4.14a.72.72,0,0,1-.19-.53c0-.21.29-.32.89-.32a4.34,4.34,0,0,1,2.32.72,5.86,5.86,0,0,1,1.91,2,5.52,5.52,0,0,1,.75,2.83,9.36,9.36,0,0,1-.29,2.27c-.2.76-.49,1.62-.85,2.59s-.65,1.74-.83,2.3a5.7,5.7,0,0,0-.26,1.63,3.2,3.2,0,0,0,.34,1.6,4.55,4.55,0,0,0,1.2,1.23,6.88,6.88,0,0,0,.95.63,2,2,0,0,0,.91.18,8.26,8.26,0,0,0,1.31-.12,2,2,0,0,0,.77-.36,6.76,6.76,0,0,0,1-.83,5.2,5.2,0,0,0,.84-1.09,29.57,29.57,0,0,1,3.24-4.8,3.15,3.15,0,0,1,1.3-.85,5.26,5.26,0,0,1,1.91-.34c.91,0,1.36.33,1.36,1A.7.7,0,0,1,173.6,187.81Z"/>
  <path class="cls-1" d="M187.08,321a7.31,7.31,0,0,0,.83-1.4,14,14,0,0,0,.83-2.12,6.84,6.84,0,0,0,.36-2c0-.45-.4-.67-1.21-.67h-3a14.69,14.69,0,0,1-2.34-.13,1.53,1.53,0,0,1-1.07-.61,2.73,2.73,0,0,1-.31-1.46,2.69,2.69,0,0,1,.31-1.45,1.49,1.49,0,0,1,1.07-.61,14.69,14.69,0,0,1,2.34-.13h3c.81,0,1.21-.24,1.21-.72a6.7,6.7,0,0,0-.44-2.39,16.71,16.71,0,0,0-1.09-2.26,5,5,0,0,1-.65-1.32c0-.65.46-1,1.37-1a5.5,5.5,0,0,1,1.32.17,5,5,0,0,1,1.14.43,2.43,2.43,0,0,1,.74.59,21.24,21.24,0,0,1,1.68,2.25c.53.82,1.06,1.68,1.57,2.59a5.05,5.05,0,0,0,1.31,1.53,3,3,0,0,0,1.32.75,9,9,0,0,0,1.31.08,2.11,2.11,0,0,0,.86-.15,8.53,8.53,0,0,0,1-.62,4.39,4.39,0,0,0,1.21-1.29,3.23,3.23,0,0,0,.33-1.58,5.06,5.06,0,0,0-.25-1.58c-.16-.53-.44-1.29-.82-2.29a26.64,26.64,0,0,1-.87-2.63,8.82,8.82,0,0,1-.3-2.25,5.45,5.45,0,0,1,.77-2.84,5.73,5.73,0,0,1,1.92-2,4.36,4.36,0,0,1,2.34-.73,4.81,4.81,0,0,1,.68,0c.11,0,.17.11.17.25a.77.77,0,0,1-.2.57q-.57.74-.57,4.14a8.8,8.8,0,0,0,.08,1.28c.05.4.15,1.07.29,2s.24,1.59.29,2a12.65,12.65,0,0,1,.07,1.57,6.23,6.23,0,0,1-.33,2.13,4.63,4.63,0,0,1-1.12,1.72A10.13,10.13,0,0,1,202,310.5l-1.3.7c-.34.19-.64.37-.9.53a2.64,2.64,0,0,0-.53.45.71.71,0,0,0-.16.47c0,.35.4.73,1.19,1.17a34.7,34.7,0,0,1,3.19,2,5.46,5.46,0,0,1,1.64,1.8,5.54,5.54,0,0,1,.55,2.66,12.53,12.53,0,0,1-.07,1.54c-.05.39-.14,1-.28,1.92s-.23,1.56-.29,2a9.81,9.81,0,0,0-.09,1.36c0,2.26.19,3.64.57,4.13a.72.72,0,0,1,.2.53c0,.22-.3.32-.89.32a4.4,4.4,0,0,1-2.33-.72,5.66,5.66,0,0,1-1.9-2,5.43,5.43,0,0,1-.76-2.83,8.78,8.78,0,0,1,.3-2.26,25.79,25.79,0,0,1,.85-2.6c.37-1,.64-1.73.82-2.3a5.38,5.38,0,0,0,.27-1.62,3.2,3.2,0,0,0-.35-1.61,4.48,4.48,0,0,0-1.19-1.22,5.81,5.81,0,0,0-.95-.63,2,2,0,0,0-.91-.18,8.16,8.16,0,0,0-1.31.12,1.91,1.91,0,0,0-.77.35,7.44,7.44,0,0,0-1,.83,4.82,4.82,0,0,0-.84,1.09,29.07,29.07,0,0,1-3.25,4.81,3,3,0,0,1-1.29.84,5.31,5.31,0,0,1-1.91.35c-.91,0-1.37-.33-1.37-1A.79.79,0,0,1,187.08,321Z"/>
  <path class="cls-1" d="M187.08,282.22a7,7,0,0,0,.83-1.4,13.56,13.56,0,0,0,.83-2.12,6.79,6.79,0,0,0,.36-2c0-.44-.4-.67-1.21-.67h-3a14.69,14.69,0,0,1-2.34-.13,1.49,1.49,0,0,1-1.07-.61,3.57,3.57,0,0,1,0-2.91,1.49,1.49,0,0,1,1.07-.61,14.69,14.69,0,0,1,2.34-.13h3c.81,0,1.21-.24,1.21-.71a6.76,6.76,0,0,0-.44-2.4,16.59,16.59,0,0,0-1.09-2.25,5,5,0,0,1-.65-1.33c0-.64.46-1,1.37-1a5.5,5.5,0,0,1,1.32.17,4.59,4.59,0,0,1,1.14.44,2.27,2.27,0,0,1,.74.58,22.47,22.47,0,0,1,1.68,2.26c.53.81,1.06,1.68,1.57,2.59a5.14,5.14,0,0,0,1.31,1.52,3,3,0,0,0,1.32.75,7.8,7.8,0,0,0,1.31.08,2.11,2.11,0,0,0,.86-.15,7.32,7.32,0,0,0,1-.62,4.39,4.39,0,0,0,1.21-1.29,3.23,3.23,0,0,0,.33-1.58,5.11,5.11,0,0,0-.25-1.58c-.16-.53-.44-1.29-.82-2.29a25.8,25.8,0,0,1-.87-2.63,8.8,8.8,0,0,1-.3-2.24,5.4,5.4,0,0,1,.77-2.84,5.76,5.76,0,0,1,1.92-2,4.43,4.43,0,0,1,2.34-.72,4.81,4.81,0,0,1,.68,0c.11,0,.17.1.17.24a.8.8,0,0,1-.2.58c-.38.49-.57,1.86-.57,4.13a8.71,8.71,0,0,0,.08,1.28c.05.4.15,1.07.29,2s.25,1.59.29,2a12.47,12.47,0,0,1,.07,1.56,6.29,6.29,0,0,1-.33,2.14,4.71,4.71,0,0,1-1.12,1.72,10.13,10.13,0,0,1-2.23,1.6l-1.3.7q-.51.28-.9.54a2.35,2.35,0,0,0-.53.44.71.71,0,0,0-.16.48c0,.34.4.73,1.19,1.16a37,37,0,0,1,3.19,2,5.46,5.46,0,0,1,1.64,1.8,5.56,5.56,0,0,1,.55,2.66,12.82,12.82,0,0,1-.07,1.55c0,.38-.14,1-.28,1.91s-.23,1.56-.29,2a9.81,9.81,0,0,0-.09,1.36c0,2.27.19,3.65.57,4.13a.75.75,0,0,1,.2.54c0,.21-.3.31-.89.31a4.34,4.34,0,0,1-2.32-.72,5.6,5.6,0,0,1-1.91-2,5.41,5.41,0,0,1-.76-2.83,8.83,8.83,0,0,1,.3-2.26,25.68,25.68,0,0,1,.85-2.59c.37-1,.64-1.74.82-2.31a5.33,5.33,0,0,0,.27-1.62,3.16,3.16,0,0,0-.35-1.6,4.37,4.37,0,0,0-1.19-1.23,7.54,7.54,0,0,0-.95-.63,2,2,0,0,0-.91-.18,8.16,8.16,0,0,0-1.31.12,1.91,1.91,0,0,0-.77.35,7.54,7.54,0,0,0-1,.84,4.77,4.77,0,0,0-.84,1.08,29.07,29.07,0,0,1-3.25,4.81,3,3,0,0,1-1.29.84,5.31,5.31,0,0,1-1.91.35c-.91,0-1.37-.33-1.37-1A.79.79,0,0,1,187.08,282.22Z"/>
  <path class="cls-1" d="M187.08,243.41a7.14,7.14,0,0,0,.83-1.41,13.44,13.44,0,0,0,.83-2.11,6.9,6.9,0,0,0,.36-2c0-.45-.4-.68-1.21-.68h-3a16.34,16.34,0,0,1-2.34-.12,1.5,1.5,0,0,1-1.07-.62,2.69,2.69,0,0,1-.31-1.45,2.73,2.73,0,0,1,.31-1.46,1.53,1.53,0,0,1,1.07-.61,16,16,0,0,1,2.34-.13h3c.81,0,1.21-.24,1.21-.71a6.66,6.66,0,0,0-.44-2.39,16.15,16.15,0,0,0-1.09-2.26,5.18,5.18,0,0,1-.65-1.32c0-.65.46-1,1.37-1a5.48,5.48,0,0,1,1.32.16,5,5,0,0,1,1.14.44,2.41,2.41,0,0,1,.74.58,22.47,22.47,0,0,1,1.68,2.26c.53.82,1.06,1.68,1.57,2.59a5.14,5.14,0,0,0,1.31,1.52,3,3,0,0,0,1.32.76,9.26,9.26,0,0,0,1.31.07,2.31,2.31,0,0,0,.86-.14,7.68,7.68,0,0,0,1-.63,4.5,4.5,0,0,0,1.21-1.28,3.3,3.3,0,0,0,.33-1.59,5.16,5.16,0,0,0-.25-1.58c-.16-.53-.44-1.29-.82-2.28a26.73,26.73,0,0,1-.87-2.64,8.68,8.68,0,0,1-.3-2.24,5.43,5.43,0,0,1,.77-2.84,5.76,5.76,0,0,1,1.92-2,4.43,4.43,0,0,1,2.34-.72,4.81,4.81,0,0,1,.68,0c.11,0,.17.1.17.25a.77.77,0,0,1-.2.57q-.57.73-.57,4.14a8.66,8.66,0,0,0,.08,1.27c.05.4.15,1.07.29,2s.25,1.59.29,2a12.57,12.57,0,0,1,.07,1.56,6.29,6.29,0,0,1-.33,2.14,4.71,4.71,0,0,1-1.12,1.72,10.13,10.13,0,0,1-2.23,1.6l-1.3.7c-.34.2-.64.37-.9.54a2.35,2.35,0,0,0-.53.44.73.73,0,0,0-.16.48c0,.34.4.73,1.19,1.17a35,35,0,0,1,3.19,2,4.88,4.88,0,0,1,2.19,4.47,12.64,12.64,0,0,1-.07,1.54c0,.38-.14,1-.28,1.92s-.23,1.56-.29,2a9.66,9.66,0,0,0-.09,1.35q0,3.41.57,4.14a.72.72,0,0,1,.2.53c0,.21-.3.32-.89.32a4.27,4.27,0,0,1-2.32-.73,5.65,5.65,0,0,1-1.91-2,5.43,5.43,0,0,1-.76-2.83,8.91,8.91,0,0,1,.3-2.27A25.68,25.68,0,0,1,201,244c.37-1,.64-1.74.82-2.3a5.4,5.4,0,0,0,.27-1.63,3.19,3.19,0,0,0-.35-1.6,4.5,4.5,0,0,0-1.19-1.23,7.54,7.54,0,0,0-.95-.63,2,2,0,0,0-.91-.18,8.16,8.16,0,0,0-1.31.12,1.83,1.83,0,0,0-.77.36,6.76,6.76,0,0,0-1,.83,4.61,4.61,0,0,0-.84,1.09,29,29,0,0,1-3.25,4.8,3,3,0,0,1-1.29.85,5.3,5.3,0,0,1-1.91.34c-.91,0-1.37-.33-1.37-1A.76.76,0,0,1,187.08,243.41Z"/>
  <path class="cls-1" d="M187.08,204.59a7.31,7.31,0,0,0,.83-1.4,14,14,0,0,0,.83-2.12,6.84,6.84,0,0,0,.36-2c0-.45-.4-.67-1.21-.67h-3a16,16,0,0,1-2.34-.13,1.53,1.53,0,0,1-1.07-.61,2.73,2.73,0,0,1-.31-1.46,2.67,2.67,0,0,1,.31-1.45,1.5,1.5,0,0,1,1.07-.62,16.34,16.34,0,0,1,2.34-.12h3c.81,0,1.21-.24,1.21-.72a6.66,6.66,0,0,0-.44-2.39,16.15,16.15,0,0,0-1.09-2.26,5.18,5.18,0,0,1-.65-1.32c0-.65.46-1,1.37-1a5,5,0,0,1,1.32.17,4.6,4.6,0,0,1,1.14.43,2.29,2.29,0,0,1,.74.59,21.24,21.24,0,0,1,1.68,2.25c.53.82,1.06,1.68,1.57,2.59a5.17,5.17,0,0,0,1.31,1.53,3,3,0,0,0,1.32.75,9,9,0,0,0,1.31.08,2.11,2.11,0,0,0,.86-.15,8.53,8.53,0,0,0,1-.62,4.51,4.51,0,0,0,1.21-1.29,3.25,3.25,0,0,0,.33-1.58,5.17,5.17,0,0,0-.25-1.59c-.16-.52-.44-1.29-.82-2.28a26.64,26.64,0,0,1-.87-2.63,8.82,8.82,0,0,1-.3-2.25,5.43,5.43,0,0,1,.77-2.84,5.85,5.85,0,0,1,1.92-2,4.43,4.43,0,0,1,2.34-.72,4.81,4.81,0,0,1,.68,0c.11,0,.17.1.17.25a.77.77,0,0,1-.2.57q-.57.74-.57,4.14a8.57,8.57,0,0,0,.08,1.27c.05.41.15,1.08.29,2s.25,1.59.29,2a12.57,12.57,0,0,1,.07,1.56,6.29,6.29,0,0,1-.33,2.14,4.63,4.63,0,0,1-1.12,1.72A9.81,9.81,0,0,1,202,194l-1.3.71c-.34.19-.64.37-.9.53a2.35,2.35,0,0,0-.53.45.71.71,0,0,0-.16.47c0,.34.4.73,1.19,1.17a34.7,34.7,0,0,1,3.19,2,5.46,5.46,0,0,1,1.64,1.8,5.54,5.54,0,0,1,.55,2.66,12.64,12.64,0,0,1-.07,1.54c0,.38-.14,1-.28,1.92s-.23,1.56-.29,2a9.77,9.77,0,0,0-.09,1.35q0,3.4.57,4.14a.72.72,0,0,1,.2.53c0,.21-.3.32-.89.32a4.34,4.34,0,0,1-2.32-.72,5.6,5.6,0,0,1-1.91-2,5.43,5.43,0,0,1-.76-2.83,8.78,8.78,0,0,1,.3-2.26,25.79,25.79,0,0,1,.85-2.6c.37-1,.64-1.73.82-2.3a5.38,5.38,0,0,0,.27-1.62,3.2,3.2,0,0,0-.35-1.61,4.48,4.48,0,0,0-1.19-1.22,6.82,6.82,0,0,0-.95-.64,2.17,2.17,0,0,0-.91-.17,9.36,9.36,0,0,0-1.31.11,2.13,2.13,0,0,0-.77.36,6.76,6.76,0,0,0-1,.83,4.61,4.61,0,0,0-.84,1.09,29.07,29.07,0,0,1-3.25,4.81,3,3,0,0,1-1.29.84,5.3,5.3,0,0,1-1.91.34c-.91,0-1.37-.33-1.37-1A.77.77,0,0,1,187.08,204.59Z"/>
  <path class="cls-1" d="M239.29,321a7.31,7.31,0,0,0,.83-1.4,15.1,15.1,0,0,0,.84-2.12,7.14,7.14,0,0,0,.35-2c0-.45-.4-.67-1.21-.67h-3a14.69,14.69,0,0,1-2.34-.13,1.55,1.55,0,0,1-1.07-.61,2.73,2.73,0,0,1-.31-1.46,2.69,2.69,0,0,1,.31-1.45,1.51,1.51,0,0,1,1.07-.61,14.69,14.69,0,0,1,2.34-.13h3c.81,0,1.21-.24,1.21-.72a6.7,6.7,0,0,0-.44-2.39,16.71,16.71,0,0,0-1.09-2.26,4.82,4.82,0,0,1-.64-1.32c0-.65.45-1,1.36-1a5.5,5.5,0,0,1,1.32.17,5,5,0,0,1,1.14.43,2.62,2.62,0,0,1,.75.59,22.66,22.66,0,0,1,1.67,2.25c.53.82,1.06,1.68,1.57,2.59a5.05,5.05,0,0,0,1.31,1.53,3.09,3.09,0,0,0,1.32.75,9,9,0,0,0,1.31.08,2.11,2.11,0,0,0,.86-.15,7.76,7.76,0,0,0,1-.62,4.39,4.39,0,0,0,1.21-1.29,3.23,3.23,0,0,0,.33-1.58A5.06,5.06,0,0,0,254,306c-.16-.53-.44-1.29-.82-2.29a26.64,26.64,0,0,1-.87-2.63,8.82,8.82,0,0,1-.3-2.25,5.45,5.45,0,0,1,.77-2.84,5.67,5.67,0,0,1,1.93-2,4.3,4.3,0,0,1,2.33-.73,4.81,4.81,0,0,1,.68,0c.11,0,.17.11.17.25a.77.77,0,0,1-.2.57q-.57.74-.57,4.14a10.47,10.47,0,0,0,.08,1.28c.05.4.15,1.07.29,2s.25,1.59.29,2a12.65,12.65,0,0,1,.07,1.57,6.23,6.23,0,0,1-.33,2.13,4.63,4.63,0,0,1-1.12,1.72,10.13,10.13,0,0,1-2.23,1.61l-1.29.7c-.35.19-.65.37-.9.53a2.48,2.48,0,0,0-.54.45.76.76,0,0,0-.16.47c0,.35.4.73,1.19,1.17a34.7,34.7,0,0,1,3.19,2,5.46,5.46,0,0,1,1.64,1.8,5.54,5.54,0,0,1,.55,2.66,12.53,12.53,0,0,1-.07,1.54c0,.39-.14,1-.28,1.92s-.23,1.56-.29,2a9.81,9.81,0,0,0-.09,1.36c0,2.26.19,3.64.57,4.13a.72.72,0,0,1,.2.53c0,.22-.3.32-.89.32a4.34,4.34,0,0,1-2.32-.72,5.6,5.6,0,0,1-1.91-2,5.53,5.53,0,0,1-.76-2.83,8.78,8.78,0,0,1,.3-2.26,25.79,25.79,0,0,1,.85-2.6c.37-1,.65-1.73.82-2.3a5.38,5.38,0,0,0,.27-1.62,3.2,3.2,0,0,0-.35-1.61,4.48,4.48,0,0,0-1.19-1.22,5.81,5.81,0,0,0-.95-.63,2,2,0,0,0-.91-.18,8.16,8.16,0,0,0-1.31.12,1.91,1.91,0,0,0-.77.35,7.44,7.44,0,0,0-1,.83,4.82,4.82,0,0,0-.84,1.09,29.67,29.67,0,0,1-3.24,4.81,3.05,3.05,0,0,1-1.3.84,5.31,5.31,0,0,1-1.91.35c-.91,0-1.36-.33-1.36-1A.78.78,0,0,1,239.29,321Z"/>
  <path class="cls-1" d="M239.29,282.22a7,7,0,0,0,.83-1.4,14.63,14.63,0,0,0,.84-2.12,7.08,7.08,0,0,0,.35-2c0-.44-.4-.67-1.21-.67h-3a14.69,14.69,0,0,1-2.34-.13,1.51,1.51,0,0,1-1.07-.61,3.57,3.57,0,0,1,0-2.91,1.51,1.51,0,0,1,1.07-.61,14.69,14.69,0,0,1,2.34-.13h3c.81,0,1.21-.24,1.21-.71a6.76,6.76,0,0,0-.44-2.4,16.59,16.59,0,0,0-1.09-2.25,4.81,4.81,0,0,1-.64-1.33c0-.64.45-1,1.36-1a5.5,5.5,0,0,1,1.32.17,4.59,4.59,0,0,1,1.14.44,2.44,2.44,0,0,1,.75.58,24.06,24.06,0,0,1,1.67,2.26c.53.81,1.06,1.68,1.57,2.59a5.14,5.14,0,0,0,1.31,1.52,3.09,3.09,0,0,0,1.32.75,7.8,7.8,0,0,0,1.31.08,2.11,2.11,0,0,0,.86-.15,6.75,6.75,0,0,0,1-.62,4.39,4.39,0,0,0,1.21-1.29,3.23,3.23,0,0,0,.33-1.58,5.11,5.11,0,0,0-.25-1.58c-.16-.53-.44-1.29-.82-2.29a25.8,25.8,0,0,1-.87-2.63,8.8,8.8,0,0,1-.3-2.24,5.4,5.4,0,0,1,.77-2.84,5.7,5.7,0,0,1,1.93-2,4.37,4.37,0,0,1,2.33-.72,4.81,4.81,0,0,1,.68,0c.11,0,.17.1.17.24a.8.8,0,0,1-.2.58c-.38.49-.57,1.86-.57,4.13a10.34,10.34,0,0,0,.08,1.28c.05.4.15,1.07.29,2s.25,1.59.29,2a12.47,12.47,0,0,1,.07,1.56,6.29,6.29,0,0,1-.33,2.14,4.71,4.71,0,0,1-1.12,1.72,10.13,10.13,0,0,1-2.23,1.6l-1.29.7q-.53.28-.9.54a2.23,2.23,0,0,0-.54.44.77.77,0,0,0-.16.48c0,.34.4.73,1.19,1.16a37,37,0,0,1,3.19,2,5.46,5.46,0,0,1,1.64,1.8,5.56,5.56,0,0,1,.55,2.66,12.82,12.82,0,0,1-.07,1.55c0,.38-.14,1-.28,1.91s-.23,1.56-.29,2a9.81,9.81,0,0,0-.09,1.36c0,2.27.19,3.65.57,4.13a.75.75,0,0,1,.2.54c0,.21-.3.31-.89.31a4.34,4.34,0,0,1-2.32-.72,5.6,5.6,0,0,1-1.91-2,5.5,5.5,0,0,1-.76-2.83,8.83,8.83,0,0,1,.3-2.26,25.68,25.68,0,0,1,.85-2.59c.37-1,.65-1.74.82-2.31a5.33,5.33,0,0,0,.27-1.62,3.16,3.16,0,0,0-.35-1.6,4.37,4.37,0,0,0-1.19-1.23,7.54,7.54,0,0,0-.95-.63,2,2,0,0,0-.91-.18,8.16,8.16,0,0,0-1.31.12,1.91,1.91,0,0,0-.77.35,7.54,7.54,0,0,0-1,.84,4.77,4.77,0,0,0-.84,1.08,29.67,29.67,0,0,1-3.24,4.81,3.05,3.05,0,0,1-1.3.84,5.31,5.31,0,0,1-1.91.35c-.91,0-1.36-.33-1.36-1A.78.78,0,0,1,239.29,282.22Z"/>
  <path class="cls-1" d="M239.29,243.41a7.14,7.14,0,0,0,.83-1.41,14.49,14.49,0,0,0,.84-2.11,7.2,7.2,0,0,0,.35-2c0-.45-.4-.68-1.21-.68h-3a16.34,16.34,0,0,1-2.34-.12,1.52,1.52,0,0,1-1.07-.62,2.69,2.69,0,0,1-.31-1.45,2.73,2.73,0,0,1,.31-1.46,1.55,1.55,0,0,1,1.07-.61,16,16,0,0,1,2.34-.13h3c.81,0,1.21-.24,1.21-.71a6.66,6.66,0,0,0-.44-2.39,16.15,16.15,0,0,0-1.09-2.26,5,5,0,0,1-.64-1.32c0-.65.45-1,1.36-1a5.48,5.48,0,0,1,1.32.16,5,5,0,0,1,1.14.44,2.6,2.6,0,0,1,.75.58,24.06,24.06,0,0,1,1.67,2.26c.53.82,1.06,1.68,1.57,2.59a5.14,5.14,0,0,0,1.31,1.52,3,3,0,0,0,1.32.76,9.26,9.26,0,0,0,1.31.07,2.31,2.31,0,0,0,.86-.14,7.05,7.05,0,0,0,1-.63A4.5,4.5,0,0,0,254,231.5a3.3,3.3,0,0,0,.33-1.59,5.16,5.16,0,0,0-.25-1.58c-.16-.53-.44-1.29-.82-2.28a26.73,26.73,0,0,1-.87-2.64,8.68,8.68,0,0,1-.3-2.24,5.43,5.43,0,0,1,.77-2.84,5.7,5.7,0,0,1,1.93-2,4.37,4.37,0,0,1,2.33-.72,4.81,4.81,0,0,1,.68,0c.11,0,.17.1.17.25a.77.77,0,0,1-.2.57q-.57.73-.57,4.14a10.3,10.3,0,0,0,.08,1.27c.05.4.15,1.07.29,2s.25,1.59.29,2a12.57,12.57,0,0,1,.07,1.56,6.29,6.29,0,0,1-.33,2.14,4.71,4.71,0,0,1-1.12,1.72,10.13,10.13,0,0,1-2.23,1.6l-1.29.7c-.35.2-.65.37-.9.54a2.23,2.23,0,0,0-.54.44.79.79,0,0,0-.16.48c0,.34.4.73,1.19,1.17a35,35,0,0,1,3.19,2,4.88,4.88,0,0,1,2.19,4.47,12.64,12.64,0,0,1-.07,1.54c0,.38-.14,1-.28,1.92s-.23,1.56-.29,2a9.66,9.66,0,0,0-.09,1.35q0,3.41.57,4.14a.72.72,0,0,1,.2.53c0,.21-.3.32-.89.32a4.27,4.27,0,0,1-2.32-.73,5.65,5.65,0,0,1-1.91-2,5.53,5.53,0,0,1-.76-2.83,8.91,8.91,0,0,1,.3-2.27,25.68,25.68,0,0,1,.85-2.59c.37-1,.65-1.74.82-2.3a5.4,5.4,0,0,0,.27-1.63,3.19,3.19,0,0,0-.35-1.6,4.5,4.5,0,0,0-1.19-1.23,7.54,7.54,0,0,0-.95-.63,2,2,0,0,0-.91-.18,8.16,8.16,0,0,0-1.31.12,1.83,1.83,0,0,0-.77.36,6.76,6.76,0,0,0-1,.83,4.61,4.61,0,0,0-.84,1.09,29.57,29.57,0,0,1-3.24,4.8,3.15,3.15,0,0,1-1.3.85,5.3,5.3,0,0,1-1.91.34c-.91,0-1.36-.33-1.36-1A.75.75,0,0,1,239.29,243.41Z"/>
  <path class="cls-1" d="M239.29,204.59a7.31,7.31,0,0,0,.83-1.4,15.1,15.1,0,0,0,.84-2.12,7.14,7.14,0,0,0,.35-2c0-.45-.4-.67-1.21-.67h-3a16,16,0,0,1-2.34-.13,1.55,1.55,0,0,1-1.07-.61,2.73,2.73,0,0,1-.31-1.46,2.67,2.67,0,0,1,.31-1.45,1.52,1.52,0,0,1,1.07-.62,16.34,16.34,0,0,1,2.34-.12h3c.81,0,1.21-.24,1.21-.72a6.66,6.66,0,0,0-.44-2.39,16.15,16.15,0,0,0-1.09-2.26,5,5,0,0,1-.64-1.32c0-.65.45-1,1.36-1a5,5,0,0,1,1.32.17A4.6,4.6,0,0,1,243,187a2.45,2.45,0,0,1,.75.59,22.66,22.66,0,0,1,1.67,2.25c.53.82,1.06,1.68,1.57,2.59a5.17,5.17,0,0,0,1.31,1.53,3.09,3.09,0,0,0,1.32.75,9,9,0,0,0,1.31.08,2.11,2.11,0,0,0,.86-.15,7.76,7.76,0,0,0,1-.62,4.51,4.51,0,0,0,1.21-1.29,3.25,3.25,0,0,0,.33-1.58,5.17,5.17,0,0,0-.25-1.59c-.16-.52-.44-1.29-.82-2.28a26.64,26.64,0,0,1-.87-2.63,8.82,8.82,0,0,1-.3-2.25,5.43,5.43,0,0,1,.77-2.84,5.79,5.79,0,0,1,1.93-2,4.37,4.37,0,0,1,2.33-.72,4.81,4.81,0,0,1,.68,0c.11,0,.17.1.17.25a.77.77,0,0,1-.2.57q-.57.74-.57,4.14a10.18,10.18,0,0,0,.08,1.27q.08.62.3,2c.14.94.24,1.59.28,2a12.57,12.57,0,0,1,.07,1.56,6.29,6.29,0,0,1-.33,2.14,4.63,4.63,0,0,1-1.12,1.72,9.81,9.81,0,0,1-2.23,1.6l-1.29.71c-.35.19-.65.37-.9.53a2.22,2.22,0,0,0-.54.45.76.76,0,0,0-.16.47c0,.34.4.73,1.19,1.17a34.7,34.7,0,0,1,3.19,2,5.46,5.46,0,0,1,1.64,1.8,5.54,5.54,0,0,1,.55,2.66,12.64,12.64,0,0,1-.07,1.54c0,.38-.14,1-.28,1.92s-.23,1.56-.29,2a9.77,9.77,0,0,0-.09,1.35q0,3.4.57,4.14a.72.72,0,0,1,.2.53c0,.21-.3.32-.89.32a4.34,4.34,0,0,1-2.32-.72,5.6,5.6,0,0,1-1.91-2,5.53,5.53,0,0,1-.76-2.83,8.78,8.78,0,0,1,.3-2.26,25.79,25.79,0,0,1,.85-2.6c.37-1,.65-1.73.82-2.3a5.38,5.38,0,0,0,.27-1.62,3.2,3.2,0,0,0-.35-1.61,4.48,4.48,0,0,0-1.19-1.22,6.82,6.82,0,0,0-.95-.64,2.17,2.17,0,0,0-.91-.17,9.36,9.36,0,0,0-1.31.11,2.13,2.13,0,0,0-.77.36,6.76,6.76,0,0,0-1,.83A4.61,4.61,0,0,0,247,200a29.67,29.67,0,0,1-3.24,4.81,3.05,3.05,0,0,1-1.3.84,5.3,5.3,0,0,1-1.91.34c-.91,0-1.36-.33-1.36-1A.75.75,0,0,1,239.29,204.59Z"/>
  <path class="cls-1" d="M239.29,165.77a7.31,7.31,0,0,0,.83-1.4,14.63,14.63,0,0,0,.84-2.12,7.08,7.08,0,0,0,.35-2c0-.45-.4-.67-1.21-.67h-3a14.69,14.69,0,0,1-2.34-.13,1.51,1.51,0,0,1-1.07-.61,3.57,3.57,0,0,1,0-2.91,1.51,1.51,0,0,1,1.07-.61,14.69,14.69,0,0,1,2.34-.13h3c.81,0,1.21-.24,1.21-.71a6.72,6.72,0,0,0-.44-2.4,16.59,16.59,0,0,0-1.09-2.25,4.81,4.81,0,0,1-.64-1.33c0-.65.45-1,1.36-1a5.5,5.5,0,0,1,1.32.17,5,5,0,0,1,1.14.43,2.62,2.62,0,0,1,.75.59,23.89,23.89,0,0,1,1.67,2.25c.53.82,1.06,1.69,1.57,2.6a5.14,5.14,0,0,0,1.31,1.52,3.09,3.09,0,0,0,1.32.75,9,9,0,0,0,1.31.08,2.11,2.11,0,0,0,.86-.15,6.75,6.75,0,0,0,1-.62,4.39,4.39,0,0,0,1.21-1.29,3.23,3.23,0,0,0,.33-1.58,5.06,5.06,0,0,0-.25-1.58c-.16-.53-.44-1.29-.82-2.29a25.8,25.8,0,0,1-.87-2.63,8.8,8.8,0,0,1-.3-2.24,5.4,5.4,0,0,1,.77-2.84,5.7,5.7,0,0,1,1.93-2,4.37,4.37,0,0,1,2.33-.72,4.81,4.81,0,0,1,.68,0c.11,0,.17.1.17.24a.82.82,0,0,1-.2.58c-.38.48-.57,1.86-.57,4.13a10.34,10.34,0,0,0,.08,1.28q.08.6.3,2c.14.93.24,1.58.28,1.95a12.65,12.65,0,0,1,.07,1.57,6.23,6.23,0,0,1-.33,2.13,4.75,4.75,0,0,1-1.12,1.73,10.13,10.13,0,0,1-2.23,1.6l-1.29.7c-.35.19-.65.37-.9.53a2.48,2.48,0,0,0-.54.45.76.76,0,0,0-.16.47c0,.35.4.74,1.19,1.17a37,37,0,0,1,3.19,2,5.46,5.46,0,0,1,1.64,1.8,5.56,5.56,0,0,1,.55,2.66,12.53,12.53,0,0,1-.07,1.54c0,.39-.14,1-.28,1.92s-.23,1.56-.29,2a9.81,9.81,0,0,0-.09,1.36c0,2.27.19,3.64.57,4.13a.73.73,0,0,1,.2.54c0,.21-.3.31-.89.31a4.34,4.34,0,0,1-2.32-.72,5.6,5.6,0,0,1-1.91-2,5.5,5.5,0,0,1-.76-2.83,8.83,8.83,0,0,1,.3-2.26,25.68,25.68,0,0,1,.85-2.59c.37-1,.65-1.74.82-2.31a5.38,5.38,0,0,0,.27-1.62,3.16,3.16,0,0,0-.35-1.6,4.37,4.37,0,0,0-1.19-1.23,7.54,7.54,0,0,0-.95-.63,2,2,0,0,0-.91-.18,8.16,8.16,0,0,0-1.31.12,1.91,1.91,0,0,0-.77.35,7.44,7.44,0,0,0-1,.83,4.82,4.82,0,0,0-.84,1.09,29.67,29.67,0,0,1-3.24,4.81,3.05,3.05,0,0,1-1.3.84,5.31,5.31,0,0,1-1.91.35c-.91,0-1.36-.33-1.36-1A.78.78,0,0,1,239.29,165.77Z"/>
  <path class="cls-1" d="M291.59,282.22a7.45,7.45,0,0,0,.84-1.4,15.87,15.87,0,0,0,.83-2.12,7.08,7.08,0,0,0,.35-2c0-.44-.4-.67-1.2-.67h-3a14.77,14.77,0,0,1-2.34-.13,1.47,1.47,0,0,1-1.06-.61,3.47,3.47,0,0,1,0-2.91,1.47,1.47,0,0,1,1.06-.61,14.77,14.77,0,0,1,2.34-.13h3c.8,0,1.2-.24,1.2-.71a6.76,6.76,0,0,0-.44-2.4,16.59,16.59,0,0,0-1.09-2.25,4.81,4.81,0,0,1-.64-1.33c0-.64.45-1,1.36-1a5.43,5.43,0,0,1,1.32.17,4.59,4.59,0,0,1,1.14.44,2.32,2.32,0,0,1,.75.58,24.06,24.06,0,0,1,1.67,2.26c.53.81,1.06,1.68,1.57,2.59a5.14,5.14,0,0,0,1.31,1.52,3.09,3.09,0,0,0,1.32.75,7.8,7.8,0,0,0,1.31.08,2.11,2.11,0,0,0,.86-.15,6.75,6.75,0,0,0,1-.62,4.59,4.59,0,0,0,1.22-1.29,3.35,3.35,0,0,0,.32-1.58,5.11,5.11,0,0,0-.25-1.58c-.16-.53-.43-1.29-.82-2.29a25.8,25.8,0,0,1-.87-2.63,8.78,8.78,0,0,1-.29-2.24,5.39,5.39,0,0,1,.76-2.84,5.79,5.79,0,0,1,1.93-2,4.37,4.37,0,0,1,2.33-.72,4.81,4.81,0,0,1,.68,0c.12,0,.17.1.17.24a.76.76,0,0,1-.2.58c-.38.49-.57,1.86-.57,4.13a10.34,10.34,0,0,0,.08,1.28q.07.6.3,2c.14.93.24,1.59.28,2a12.47,12.47,0,0,1,.07,1.56,6.56,6.56,0,0,1-.32,2.14,4.88,4.88,0,0,1-1.13,1.72,10.13,10.13,0,0,1-2.23,1.6l-1.29.7q-.53.28-.9.54a2.45,2.45,0,0,0-.54.44.77.77,0,0,0-.16.48c0,.34.4.73,1.19,1.16,1.41.81,2.48,1.47,3.2,2a4.89,4.89,0,0,1,2.18,4.46,12.82,12.82,0,0,1-.07,1.55c0,.38-.14,1-.27,1.91s-.24,1.56-.3,2a9.81,9.81,0,0,0-.09,1.36c0,2.27.19,3.65.57,4.13a.71.71,0,0,1,.2.54c0,.21-.29.31-.89.31a4.34,4.34,0,0,1-2.32-.72,5.68,5.68,0,0,1-1.91-2,5.5,5.5,0,0,1-.75-2.83,8.82,8.82,0,0,1,.29-2.26,25.68,25.68,0,0,1,.85-2.59c.37-1,.65-1.74.82-2.31a5.33,5.33,0,0,0,.27-1.62,3.17,3.17,0,0,0-.34-1.6,4.42,4.42,0,0,0-1.2-1.23,6.88,6.88,0,0,0-.95-.63,2,2,0,0,0-.91-.18,8.26,8.26,0,0,0-1.31.12,1.91,1.91,0,0,0-.77.35,7.54,7.54,0,0,0-1,.84,5.41,5.41,0,0,0-.84,1.08,29.67,29.67,0,0,1-3.24,4.81,3.05,3.05,0,0,1-1.3.84,5.31,5.31,0,0,1-1.91.35c-.91,0-1.36-.33-1.36-1A.78.78,0,0,1,291.59,282.22Z"/>
  <path class="cls-1" d="M291.59,243.41a7.6,7.6,0,0,0,.84-1.41,15.72,15.72,0,0,0,.83-2.11,7.2,7.2,0,0,0,.35-2c0-.45-.4-.68-1.2-.68h-3a16.44,16.44,0,0,1-2.34-.12,1.48,1.48,0,0,1-1.06-.62,2.6,2.6,0,0,1-.32-1.45,2.64,2.64,0,0,1,.32-1.46,1.5,1.5,0,0,1,1.06-.61,16.1,16.1,0,0,1,2.34-.13h3c.8,0,1.2-.24,1.2-.71a6.66,6.66,0,0,0-.44-2.39,16.15,16.15,0,0,0-1.09-2.26,5,5,0,0,1-.64-1.32c0-.65.45-1,1.36-1a5.42,5.42,0,0,1,1.32.16,5,5,0,0,1,1.14.44,2.47,2.47,0,0,1,.75.58,24.06,24.06,0,0,1,1.67,2.26c.53.82,1.06,1.68,1.57,2.59a5.14,5.14,0,0,0,1.31,1.52,3,3,0,0,0,1.32.76,9.26,9.26,0,0,0,1.31.07,2.31,2.31,0,0,0,.86-.14,7.05,7.05,0,0,0,1-.63,4.71,4.71,0,0,0,1.22-1.28,3.43,3.43,0,0,0,.32-1.59,5.16,5.16,0,0,0-.25-1.58c-.16-.53-.43-1.29-.82-2.28a26.73,26.73,0,0,1-.87-2.64,8.67,8.67,0,0,1-.29-2.24,5.42,5.42,0,0,1,.76-2.84,5.79,5.79,0,0,1,1.93-2,4.37,4.37,0,0,1,2.33-.72,4.81,4.81,0,0,1,.68,0c.12,0,.17.1.17.25a.74.74,0,0,1-.2.57q-.57.73-.57,4.14a10.3,10.3,0,0,0,.08,1.27q.07.6.3,2c.14.94.24,1.59.28,2a12.57,12.57,0,0,1,.07,1.56,6.56,6.56,0,0,1-.32,2.14,4.88,4.88,0,0,1-1.13,1.72,10.13,10.13,0,0,1-2.23,1.6l-1.29.7c-.35.2-.65.37-.9.54a2.45,2.45,0,0,0-.54.44.79.79,0,0,0-.16.48c0,.34.4.73,1.19,1.17a37,37,0,0,1,3.2,2,4.9,4.9,0,0,1,2.18,4.47,12.64,12.64,0,0,1-.07,1.54c0,.38-.14,1-.27,1.92s-.24,1.56-.3,2a9.66,9.66,0,0,0-.09,1.35q0,3.41.57,4.14a.69.69,0,0,1,.2.53c0,.21-.29.32-.89.32a4.27,4.27,0,0,1-2.32-.73,5.74,5.74,0,0,1-1.91-2,5.52,5.52,0,0,1-.75-2.83,8.89,8.89,0,0,1,.29-2.27,25.68,25.68,0,0,1,.85-2.59c.37-1,.65-1.74.82-2.3a5.4,5.4,0,0,0,.27-1.63,3.2,3.2,0,0,0-.34-1.6,4.56,4.56,0,0,0-1.2-1.23,6.88,6.88,0,0,0-.95-.63,2,2,0,0,0-.91-.18,8.26,8.26,0,0,0-1.31.12,1.83,1.83,0,0,0-.77.36,6.76,6.76,0,0,0-1,.83,5.2,5.2,0,0,0-.84,1.09,29.57,29.57,0,0,1-3.24,4.8,3.15,3.15,0,0,1-1.3.85,5.3,5.3,0,0,1-1.91.34c-.91,0-1.36-.33-1.36-1A.75.75,0,0,1,291.59,243.41Z"/>
  <path class="cls-1" d="M291.59,204.59a7.8,7.8,0,0,0,.84-1.4,16.42,16.42,0,0,0,.83-2.12,7.14,7.14,0,0,0,.35-2c0-.45-.4-.67-1.2-.67h-3a16.1,16.1,0,0,1-2.34-.13,1.5,1.5,0,0,1-1.06-.61,2.64,2.64,0,0,1-.32-1.46,2.58,2.58,0,0,1,.32-1.45,1.48,1.48,0,0,1,1.06-.62,16.44,16.44,0,0,1,2.34-.12h3q1.2,0,1.2-.72a6.66,6.66,0,0,0-.44-2.39,16.15,16.15,0,0,0-1.09-2.26,5,5,0,0,1-.64-1.32c0-.65.45-1,1.36-1a5,5,0,0,1,1.32.17,4.6,4.6,0,0,1,1.14.43,2.34,2.34,0,0,1,.75.59,22.66,22.66,0,0,1,1.67,2.25c.53.82,1.06,1.68,1.57,2.59a5.17,5.17,0,0,0,1.31,1.53,3.09,3.09,0,0,0,1.32.75,9,9,0,0,0,1.31.08,2.11,2.11,0,0,0,.86-.15,7.76,7.76,0,0,0,1-.62,4.72,4.72,0,0,0,1.22-1.29,3.38,3.38,0,0,0,.32-1.58,5.17,5.17,0,0,0-.25-1.59c-.16-.52-.43-1.29-.82-2.28a26.64,26.64,0,0,1-.87-2.63,8.8,8.8,0,0,1-.29-2.25,5.42,5.42,0,0,1,.76-2.84,5.88,5.88,0,0,1,1.93-2,4.37,4.37,0,0,1,2.33-.72,4.81,4.81,0,0,1,.68,0c.12,0,.17.1.17.25a.74.74,0,0,1-.2.57q-.57.74-.57,4.14a10.18,10.18,0,0,0,.08,1.27q.07.62.3,2c.14.94.24,1.59.28,2a12.57,12.57,0,0,1,.07,1.56,6.56,6.56,0,0,1-.32,2.14,4.79,4.79,0,0,1-1.13,1.72,9.81,9.81,0,0,1-2.23,1.6l-1.29.71c-.35.19-.65.37-.9.53a2.44,2.44,0,0,0-.54.45.76.76,0,0,0-.16.47c0,.34.4.73,1.19,1.17a36.61,36.61,0,0,1,3.2,2,4.89,4.89,0,0,1,2.18,4.46,12.64,12.64,0,0,1-.07,1.54c0,.38-.14,1-.27,1.92s-.24,1.56-.3,2a9.77,9.77,0,0,0-.09,1.35q0,3.4.57,4.14a.69.69,0,0,1,.2.53c0,.21-.29.32-.89.32a4.34,4.34,0,0,1-2.32-.72,5.68,5.68,0,0,1-1.91-2,5.52,5.52,0,0,1-.75-2.83,8.76,8.76,0,0,1,.29-2.26,25.79,25.79,0,0,1,.85-2.6c.37-1,.65-1.73.82-2.3a5.38,5.38,0,0,0,.27-1.62,3.21,3.21,0,0,0-.34-1.61,4.54,4.54,0,0,0-1.2-1.22,6.27,6.27,0,0,0-.95-.64,2.17,2.17,0,0,0-.91-.17,9.48,9.48,0,0,0-1.31.11,2.13,2.13,0,0,0-.77.36,6.76,6.76,0,0,0-1,.83,5.2,5.2,0,0,0-.84,1.09,29.67,29.67,0,0,1-3.24,4.81,3.05,3.05,0,0,1-1.3.84,5.3,5.3,0,0,1-1.91.34c-.91,0-1.36-.33-1.36-1A.75.75,0,0,1,291.59,204.59Z"/>
  <path class="cls-1" d="M134.74,282.22a8.11,8.11,0,0,0,.83-1.4,15.87,15.87,0,0,0,.83-2.12,6.79,6.79,0,0,0,.36-2c0-.44-.41-.67-1.21-.67h-3a14.63,14.63,0,0,1-2.33-.13,1.49,1.49,0,0,1-1.07-.61,3.47,3.47,0,0,1,0-2.91,1.49,1.49,0,0,1,1.07-.61,14.63,14.63,0,0,1,2.33-.13h3c.8,0,1.21-.24,1.21-.71a6.55,6.55,0,0,0-.45-2.4,16.59,16.59,0,0,0-1.09-2.25,4.81,4.81,0,0,1-.64-1.33c0-.64.45-1,1.36-1a5.43,5.43,0,0,1,1.32.17,4.84,4.84,0,0,1,1.15.44,2.39,2.39,0,0,1,.74.58,22.42,22.42,0,0,1,1.67,2.26c.54.81,1.06,1.68,1.57,2.59a5.29,5.29,0,0,0,1.31,1.52,3.11,3.11,0,0,0,1.33.75,7.6,7.6,0,0,0,1.3.08,2.07,2.07,0,0,0,.86-.15,6.75,6.75,0,0,0,1-.62,4.59,4.59,0,0,0,1.22-1.29,3.24,3.24,0,0,0,.32-1.58,5.41,5.41,0,0,0-.24-1.58c-.17-.53-.44-1.29-.82-2.29a21.64,21.64,0,0,1-.87-2.63,8.8,8.8,0,0,1-.3-2.24,5.39,5.39,0,0,1,.76-2.84,5.79,5.79,0,0,1,1.93-2,4.43,4.43,0,0,1,2.33-.72,5,5,0,0,1,.69,0c.11,0,.16.1.16.24a.8.8,0,0,1-.19.58c-.39.49-.58,1.86-.58,4.13a10.34,10.34,0,0,0,.08,1.28q.07.6.3,2c.14.93.24,1.59.29,2a15.32,15.32,0,0,1,.06,1.56,6.3,6.3,0,0,1-.32,2.14,4.88,4.88,0,0,1-1.13,1.72,9.89,9.89,0,0,1-2.23,1.6l-1.29.7q-.53.28-.9.54a2.45,2.45,0,0,0-.54.44.76.76,0,0,0-.15.48c0,.34.39.73,1.18,1.16,1.41.81,2.48,1.47,3.2,2a5.42,5.42,0,0,1,1.63,1.8,5.56,5.56,0,0,1,.55,2.66c0,.65,0,1.16-.06,1.55s-.14,1-.28,1.91-.24,1.56-.3,2a9.81,9.81,0,0,0-.09,1.36c0,2.27.19,3.65.58,4.13a.74.74,0,0,1,.19.54c0,.21-.29.31-.89.31a4.37,4.37,0,0,1-2.32-.72,5.68,5.68,0,0,1-1.91-2,5.5,5.5,0,0,1-.75-2.83,8.83,8.83,0,0,1,.3-2.26,23.37,23.37,0,0,1,.85-2.59c.37-1,.64-1.74.82-2.31a5.63,5.63,0,0,0,.26-1.62,3.17,3.17,0,0,0-.34-1.6,4.28,4.28,0,0,0-1.2-1.23,6.33,6.33,0,0,0-.95-.63,2,2,0,0,0-.91-.18,8,8,0,0,0-1.3.12,1.93,1.93,0,0,0-.78.35,7.54,7.54,0,0,0-1,.84,5.41,5.41,0,0,0-.84,1.08,29.67,29.67,0,0,1-3.24,4.81,3,3,0,0,1-1.3.84,5.27,5.27,0,0,1-1.91.35c-.91,0-1.36-.33-1.36-1A.72.72,0,0,1,134.74,282.22Z"/>
  <path class="cls-1" d="M134.74,243.41a8.29,8.29,0,0,0,.83-1.41,15.72,15.72,0,0,0,.83-2.11,6.9,6.9,0,0,0,.36-2c0-.45-.41-.68-1.21-.68h-3a16.28,16.28,0,0,1-2.33-.12,1.5,1.5,0,0,1-1.07-.62,2.69,2.69,0,0,1-.32-1.45,2.73,2.73,0,0,1,.32-1.46,1.53,1.53,0,0,1,1.07-.61,15.94,15.94,0,0,1,2.33-.13h3c.8,0,1.21-.24,1.21-.71a6.46,6.46,0,0,0-.45-2.39,16.15,16.15,0,0,0-1.09-2.26,5,5,0,0,1-.64-1.32c0-.65.45-1,1.36-1a5.42,5.42,0,0,1,1.32.16,5.31,5.31,0,0,1,1.15.44,2.54,2.54,0,0,1,.74.58,22.42,22.42,0,0,1,1.67,2.26c.54.82,1.06,1.68,1.57,2.59a5.29,5.29,0,0,0,1.31,1.52,3,3,0,0,0,1.33.76,9,9,0,0,0,1.3.07,2.27,2.27,0,0,0,.86-.14,7.05,7.05,0,0,0,1-.63,4.71,4.71,0,0,0,1.22-1.28,3.3,3.3,0,0,0,.32-1.59,5.46,5.46,0,0,0-.24-1.58c-.17-.53-.44-1.29-.82-2.28a22.31,22.31,0,0,1-.87-2.64,8.68,8.68,0,0,1-.3-2.24,5.42,5.42,0,0,1,.76-2.84,5.79,5.79,0,0,1,1.93-2,4.43,4.43,0,0,1,2.33-.72,5,5,0,0,1,.69,0c.11,0,.16.1.16.25a.77.77,0,0,1-.19.57c-.39.49-.58,1.87-.58,4.14a10.3,10.3,0,0,0,.08,1.27q.07.6.3,2c.14.94.24,1.59.29,2a15.46,15.46,0,0,1,.06,1.56,6.3,6.3,0,0,1-.32,2.14,4.88,4.88,0,0,1-1.13,1.72,9.89,9.89,0,0,1-2.23,1.6l-1.29.7c-.35.2-.65.37-.9.54a2.45,2.45,0,0,0-.54.44.78.78,0,0,0-.15.48c0,.34.39.73,1.18,1.17a37,37,0,0,1,3.2,2,5.52,5.52,0,0,1,1.63,1.8,5.58,5.58,0,0,1,.55,2.67c0,.64,0,1.16-.06,1.54s-.14,1-.28,1.92-.24,1.56-.3,2a9.66,9.66,0,0,0-.09,1.35c0,2.27.19,3.65.58,4.14a.72.72,0,0,1,.19.53c0,.21-.29.32-.89.32a4.3,4.3,0,0,1-2.32-.73,5.74,5.74,0,0,1-1.91-2,5.52,5.52,0,0,1-.75-2.83,8.91,8.91,0,0,1,.3-2.27,23.37,23.37,0,0,1,.85-2.59c.37-1,.64-1.74.82-2.3a5.7,5.7,0,0,0,.26-1.63,3.2,3.2,0,0,0-.34-1.6,4.41,4.41,0,0,0-1.2-1.23,6.33,6.33,0,0,0-.95-.63,2,2,0,0,0-.91-.18,8,8,0,0,0-1.3.12,1.85,1.85,0,0,0-.78.36,6.76,6.76,0,0,0-1,.83,5.2,5.2,0,0,0-.84,1.09,29.57,29.57,0,0,1-3.24,4.8,3.09,3.09,0,0,1-1.3.85,5.26,5.26,0,0,1-1.91.34c-.91,0-1.36-.33-1.36-1A.7.7,0,0,1,134.74,243.41Z"/>
  <path class="cls-1" d="M134.74,204.59a8.53,8.53,0,0,0,.83-1.4,16.42,16.42,0,0,0,.83-2.12,6.84,6.84,0,0,0,.36-2c0-.45-.41-.67-1.21-.67h-3a15.94,15.94,0,0,1-2.33-.13,1.53,1.53,0,0,1-1.07-.61,2.73,2.73,0,0,1-.32-1.46,2.66,2.66,0,0,1,.32-1.45,1.5,1.5,0,0,1,1.07-.62,16.28,16.28,0,0,1,2.33-.12h3c.8,0,1.21-.24,1.21-.72a6.46,6.46,0,0,0-.45-2.39,16.15,16.15,0,0,0-1.09-2.26,5,5,0,0,1-.64-1.32c0-.65.45-1,1.36-1a5,5,0,0,1,1.32.17,4.84,4.84,0,0,1,1.15.43,2.4,2.4,0,0,1,.74.59,21.19,21.19,0,0,1,1.67,2.25c.54.82,1.06,1.68,1.57,2.59a5.32,5.32,0,0,0,1.31,1.53,3.11,3.11,0,0,0,1.33.75,8.79,8.79,0,0,0,1.3.08,2.07,2.07,0,0,0,.86-.15,7.76,7.76,0,0,0,1-.62,4.72,4.72,0,0,0,1.22-1.29,3.26,3.26,0,0,0,.32-1.58,5.48,5.48,0,0,0-.24-1.59c-.17-.52-.44-1.29-.82-2.28a22.22,22.22,0,0,1-.87-2.63,8.82,8.82,0,0,1-.3-2.25,5.42,5.42,0,0,1,.76-2.84,5.88,5.88,0,0,1,1.93-2,4.43,4.43,0,0,1,2.33-.72,5,5,0,0,1,.69,0c.11,0,.16.1.16.25a.77.77,0,0,1-.19.57c-.39.49-.58,1.87-.58,4.14a10.18,10.18,0,0,0,.08,1.27q.07.62.3,2c.14.94.24,1.59.29,2a15.46,15.46,0,0,1,.06,1.56,6.3,6.3,0,0,1-.32,2.14,4.79,4.79,0,0,1-1.13,1.72,9.59,9.59,0,0,1-2.23,1.6l-1.29.71c-.35.19-.65.37-.9.53a2.44,2.44,0,0,0-.54.45.75.75,0,0,0-.15.47c0,.34.39.73,1.18,1.17a36.61,36.61,0,0,1,3.2,2,5.42,5.42,0,0,1,1.63,1.8,5.54,5.54,0,0,1,.55,2.66c0,.64,0,1.16-.06,1.54s-.14,1-.28,1.92-.24,1.56-.3,2a9.77,9.77,0,0,0-.09,1.35c0,2.27.19,3.65.58,4.14a.72.72,0,0,1,.19.53c0,.21-.29.32-.89.32a4.37,4.37,0,0,1-2.32-.72,5.68,5.68,0,0,1-1.91-2,5.52,5.52,0,0,1-.75-2.83,8.78,8.78,0,0,1,.3-2.26,23.47,23.47,0,0,1,.85-2.6c.37-1,.64-1.73.82-2.3a5.69,5.69,0,0,0,.26-1.62,3.21,3.21,0,0,0-.34-1.61,4.4,4.4,0,0,0-1.2-1.22,5.81,5.81,0,0,0-.95-.64,2.17,2.17,0,0,0-.91-.17,9.23,9.23,0,0,0-1.3.11,2.16,2.16,0,0,0-.78.36,6.76,6.76,0,0,0-1,.83,5.2,5.2,0,0,0-.84,1.09,29.67,29.67,0,0,1-3.24,4.81,3,3,0,0,1-1.3.84,5.26,5.26,0,0,1-1.91.34c-.91,0-1.36-.33-1.36-1A.7.7,0,0,1,134.74,204.59Z"/>
  <path class="cls-1" d="M154.19,149.05h-.91a5.63,5.63,0,0,0-1,.09l4.7,4.74q2.36,2.37,5.06,4.86t6.28,5.35q3.59,2.88,7.4,5.36c.86.58,1.54,1.07,2,1.47a5.21,5.21,0,0,1,1.1,1.13,3,3,0,0,1,.47,1.16,10.29,10.29,0,0,1,.1,1.64c0,.51,0,1.16-.08,1.95h-.63a20.09,20.09,0,0,1-2.51-.14,5.25,5.25,0,0,1-1.35-.3q-.81-.4-8.06-10.55-1.28-1.81-3.42-4.3c-1.43-1.65-3.09-3.45-5-5.42s-4.12-4.1-6.63-6.43a11.87,11.87,0,0,0,0,1.25,29,29,0,0,0,.42,4.08,31.47,31.47,0,0,1,.41,3.58c0,1.13-.06,2.26-.17,3.38a4.56,4.56,0,0,1-1,2.28,10.54,10.54,0,0,1-2.28,2.3,13.29,13.29,0,0,1-3.22,1.76,10.27,10.27,0,0,1-3.66.68c-.79,0-1.18-.26-1.18-.79,0-.32.31-.8.92-1.44s1.69-1.63,3.23-3a2.52,2.52,0,0,0,.6-.76,2,2,0,0,0,.27-.94,1.47,1.47,0,0,0-.47-1.17,2.07,2.07,0,0,0-1.05-.51,6.54,6.54,0,0,0-1.3-.1c-.47,0-.91,0-1.29,0-.61,0-.91-.29-.91-.87a3,3,0,0,1,1-2,6.07,6.07,0,0,1,2.73-1.53l2.35-.67a14.42,14.42,0,0,0,1.94-.69,3,3,0,0,0,1.15-.83,1.77,1.77,0,0,0,.41-1.16,3.15,3.15,0,0,0-1-2.35,3.83,3.83,0,0,0-2.59-1.05,23.26,23.26,0,0,1-4-.39,3.4,3.4,0,0,1-1.41-.75,1.4,1.4,0,0,1-.56-1,.85.85,0,0,1,.49-.86,12.25,12.25,0,0,1,1.81-.55,1.32,1.32,0,0,0,.7-.43,1.16,1.16,0,0,0,.32-.77,1.31,1.31,0,0,0-.6-1.09c-1.26-.94-2-1.54-2.32-1.81a1.45,1.45,0,0,1-.44-1.13,2,2,0,0,1,.62-1.3,1.86,1.86,0,0,1,1.39-.66,1.57,1.57,0,0,1,1.2.58A20.48,20.48,0,0,1,145.8,141a1.66,1.66,0,0,0,1.23.83.76.76,0,0,0,.56-.21,1.83,1.83,0,0,0,.4-.6,4.53,4.53,0,0,0,.27-.78c.06-.25.14-.57.24-.94a1.53,1.53,0,0,1,.39-.65.83.83,0,0,1,.55-.29,1.58,1.58,0,0,1,1.36.93,6.56,6.56,0,0,1,.73,2.61c.05.61.1,1.14.14,1.6s.09.84.14,1.16a6.05,6.05,0,0,0,.26,1.09,3.24,3.24,0,0,0,.5,1,2.45,2.45,0,0,0,2.16,1.23,2.26,2.26,0,0,0,1.7-.6,5,5,0,0,0,1-2c.22-.77.42-1.47.61-2.12a14.62,14.62,0,0,1,.61-1.74,6.06,6.06,0,0,1,.83-1.44,5.16,5.16,0,0,1,1.27-1.14,2.77,2.77,0,0,1,1.58-.6c.31,0,.46.29.46.87,0,.22,0,.41,0,.58s0,.4,0,.7a4.52,4.52,0,0,0,.44,2.24,1.35,1.35,0,0,0,1.22.75,2.5,2.5,0,0,0,1.82-1c1-1.09,1.82-1.9,2.35-2.41a17,17,0,0,1,1.42-1.25,1.86,1.86,0,0,1,.93-.49c.43,0,.64.48.64,1.43a2.77,2.77,0,0,1-.12.75,18.39,18.39,0,0,1-1.3,4.07,10.61,10.61,0,0,1-1.92,2.9,7.39,7.39,0,0,1-2.51,1.76,7.94,7.94,0,0,1-3.08.59,27.75,27.75,0,0,1-3.18-.17c-1-.12-2-.26-3.06-.44A17.88,17.88,0,0,0,154.19,149.05Z"/>
  <path class="cls-1" d="M313.46,151.5c0-.27,0-.57,0-.9a4.93,4.93,0,0,0-.09-1c-1.57,1.56-3.15,3.12-4.73,4.7s-3.21,3.26-4.87,5.06-3.43,3.9-5.35,6.28-3.7,4.85-5.36,7.4q-.87,1.29-1.47,2a5.46,5.46,0,0,1-1.13,1.1,3,3,0,0,1-1.15.46,10.51,10.51,0,0,1-1.65.1c-.5,0-1.15,0-1.95-.07V176a20.21,20.21,0,0,1,.14-2.51,5.49,5.49,0,0,1,.3-1.35q.4-.81,10.55-8.06,1.82-1.28,4.3-3.41t5.42-5q2.94-2.87,6.43-6.63c-.23,0-.65,0-1.25,0a29,29,0,0,0-4.08.42,29.21,29.21,0,0,1-3.58.41,31.74,31.74,0,0,1-3.38-.17,4.6,4.6,0,0,1-2.28-.95,10.32,10.32,0,0,1-2.3-2.28,13,13,0,0,1-1.75-3.21,10.16,10.16,0,0,1-.69-3.67c0-.78.26-1.17.79-1.17.32,0,.8.3,1.44.91s1.63,1.69,3,3.23a2.52,2.52,0,0,0,.76.6,2,2,0,0,0,.94.27,1.47,1.47,0,0,0,1.17-.46,2.15,2.15,0,0,0,.51-1.05,6,6,0,0,0,.1-1.31c0-.47,0-.9-.05-1.29a.78.78,0,0,1,.87-.9,3,3,0,0,1,2.05,1,6.1,6.1,0,0,1,1.52,2.74c.22.77.44,1.55.68,2.34a14.56,14.56,0,0,0,.68,1.94,3.07,3.07,0,0,0,.83,1.16,1.79,1.79,0,0,0,1.17.4,3.14,3.14,0,0,0,2.34-1,3.83,3.83,0,0,0,1.05-2.59,23.39,23.39,0,0,1,.39-4,3.66,3.66,0,0,1,.75-1.41,1.4,1.4,0,0,1,1-.56.85.85,0,0,1,.86.5,11.63,11.63,0,0,1,.55,1.8,1.25,1.25,0,0,0,.44.7,1.08,1.08,0,0,0,.76.32,1.34,1.34,0,0,0,1.1-.6c.94-1.26,1.54-2,1.8-2.32a1.44,1.44,0,0,1,1.13-.43,2,2,0,0,1,1.3.61,1.88,1.88,0,0,1,.67,1.39,1.62,1.62,0,0,1-.59,1.21,19.63,19.63,0,0,1-2.06,1.51,1.66,1.66,0,0,0-.83,1.24.78.78,0,0,0,.21.56,1.83,1.83,0,0,0,.6.39,4.35,4.35,0,0,0,.79.27l.93.24a1.56,1.56,0,0,1,.65.4.83.83,0,0,1,.3.55,1.6,1.6,0,0,1-.94,1.36,6.69,6.69,0,0,1-2.61.72L319,149c-.46,0-.85.09-1.17.13a7,7,0,0,0-1.09.26,3.4,3.4,0,0,0-1,.5,2.44,2.44,0,0,0-1.24,2.16,2.26,2.26,0,0,0,.6,1.7,4.85,4.85,0,0,0,2,1l2.12.61a16.65,16.65,0,0,1,1.74.61,6.24,6.24,0,0,1,1.44.84,4.94,4.94,0,0,1,1.14,1.26,2.8,2.8,0,0,1,.6,1.58c0,.31-.29.47-.87.47l-.58,0H322a4.55,4.55,0,0,0-2.25.43,1.35,1.35,0,0,0-.74,1.23,2.48,2.48,0,0,0,1,1.81c1.09,1,1.9,1.83,2.41,2.35a17.28,17.28,0,0,1,1.26,1.42,1.89,1.89,0,0,1,.48.94c0,.42-.48.63-1.43.63a2.72,2.72,0,0,1-.75-.11,19.5,19.5,0,0,1-4.07-1.3,11.08,11.08,0,0,1-2.9-1.92,7.53,7.53,0,0,1-1.76-2.52,7.9,7.9,0,0,1-.59-3.08,27.75,27.75,0,0,1,.17-3.18c.12-1,.26-2,.44-3.06A17.88,17.88,0,0,0,313.46,151.5Z"/>
  <path class="cls-1" d="M311,321h.91a4.88,4.88,0,0,0,1-.08l-4.7-4.74q-2.36-2.39-5.06-4.86c-1.8-1.65-3.9-3.44-6.28-5.35s-4.85-3.71-7.4-5.37c-.86-.57-1.54-1.06-2-1.46a5.2,5.2,0,0,1-1.1-1.13,2.87,2.87,0,0,1-.47-1.16,10.51,10.51,0,0,1-.1-1.65c0-.5,0-1.15.07-1.95h.64a18.19,18.19,0,0,1,2.51.15,4.84,4.84,0,0,1,1.35.3q.81.4,8.06,10.55,1.27,1.81,3.42,4.29t5,5.42q2.87,2.94,6.63,6.44c0-.24,0-.65,0-1.26a29.27,29.27,0,0,0-.42-4.08,31.23,31.23,0,0,1-.41-3.58c0-1.13.06-2.25.17-3.37a4.63,4.63,0,0,1,1-2.29,10.73,10.73,0,0,1,2.28-2.29,13.07,13.07,0,0,1,3.21-1.76,10.15,10.15,0,0,1,3.67-.68c.78,0,1.18.26,1.18.79,0,.32-.31.8-.92,1.43s-1.69,1.63-3.23,3a2.58,2.58,0,0,0-.6.77,1.92,1.92,0,0,0-.27.93,1.51,1.51,0,0,0,.46,1.18,2.14,2.14,0,0,0,1.06.51,7.39,7.39,0,0,0,1.3.1l1.29,0c.6,0,.91.29.91.87a3,3,0,0,1-1,2,6.1,6.1,0,0,1-2.74,1.52l-2.34.68a16.14,16.14,0,0,0-1.94.68,3.3,3.3,0,0,0-1.16.83,1.79,1.79,0,0,0-.4,1.17,3.16,3.16,0,0,0,1,2.35,3.88,3.88,0,0,0,2.59,1.05,24.86,24.86,0,0,1,4,.38,3.65,3.65,0,0,1,1.41.75,1.42,1.42,0,0,1,.56,1,.87.87,0,0,1-.49.86,13.65,13.65,0,0,1-1.81.55,1.26,1.26,0,0,0-.7.43,1.14,1.14,0,0,0-.32.76,1.32,1.32,0,0,0,.6,1.1c1.26.94,2,1.54,2.32,1.81a1.44,1.44,0,0,1,.44,1.12,2,2,0,0,1-.62,1.31,1.87,1.87,0,0,1-1.39.66,1.59,1.59,0,0,1-1.21-.59A20.75,20.75,0,0,1,319.4,329a1.66,1.66,0,0,0-1.23-.83.78.78,0,0,0-.56.2,1.84,1.84,0,0,0-.4.61,4.53,4.53,0,0,0-.27.78c-.06.25-.14.56-.24.94a1.43,1.43,0,0,1-.4.64.83.83,0,0,1-.55.3,1.59,1.59,0,0,1-1.36-.93,6.79,6.79,0,0,1-.72-2.62c-.05-.6-.1-1.13-.14-1.59s-.09-.85-.14-1.17a6.26,6.26,0,0,0-.26-1.09,3.53,3.53,0,0,0-.5-1,2.45,2.45,0,0,0-2.16-1.23,2.29,2.29,0,0,0-1.7.59,5,5,0,0,0-1,2c-.22.77-.42,1.48-.61,2.12a16.08,16.08,0,0,1-.61,1.75,6.46,6.46,0,0,1-.84,1.44,5.09,5.09,0,0,1-1.26,1.13,2.8,2.8,0,0,1-1.58.6c-.31,0-.46-.29-.46-.87,0-.21,0-.41,0-.57s0-.4,0-.7a4.6,4.6,0,0,0-.43-2.25,1.36,1.36,0,0,0-1.23-.74,2.49,2.49,0,0,0-1.81,1c-1,1.09-1.82,1.89-2.35,2.41a17,17,0,0,1-1.42,1.25,1.89,1.89,0,0,1-.94.48c-.42,0-.63-.47-.63-1.42a3.31,3.31,0,0,1,.11-.76,19.09,19.09,0,0,1,1.31-4.07,10.55,10.55,0,0,1,1.92-2.89,7.42,7.42,0,0,1,2.51-1.77,7.93,7.93,0,0,1,3.08-.58,25.65,25.65,0,0,1,3.18.17c.95.12,2,.26,3.06.43A16,16,0,0,0,311,321Z"/>
  <path class="cls-1" d="M151.74,318.53c0,.27,0,.58,0,.91a4.23,4.23,0,0,0,.09,1l4.73-4.69q2.38-2.37,4.86-5.07c1.66-1.8,3.44-3.89,5.36-6.28s3.7-4.85,5.36-7.39c.58-.87,1.07-1.54,1.47-2a5.44,5.44,0,0,1,1.12-1.1,2.92,2.92,0,0,1,1.16-.46,10.34,10.34,0,0,1,1.65-.11c.5,0,1.15,0,1.95.08V294a18,18,0,0,1-.15,2.5,5,5,0,0,1-.29,1.35q-.4.81-10.56,8.07c-1.2.85-2.64,2-4.29,3.41s-3.46,3.1-5.42,5-4.1,4.12-6.43,6.62a11.87,11.87,0,0,0,1.25,0,30.51,30.51,0,0,0,4.08-.41,30,30,0,0,1,3.58-.42,31.75,31.75,0,0,1,3.38.18,4.57,4.57,0,0,1,2.28.94,10.59,10.59,0,0,1,2.3,2.29,12.69,12.69,0,0,1,1.75,3.21,10.15,10.15,0,0,1,.69,3.66c0,.79-.27,1.18-.79,1.18-.32,0-.8-.3-1.44-.91s-1.63-1.69-3-3.24a2.67,2.67,0,0,0-.76-.59,2,2,0,0,0-.94-.27,1.5,1.5,0,0,0-1.18.46,2.15,2.15,0,0,0-.51,1,6.64,6.64,0,0,0-.09,1.3c0,.48,0,.91,0,1.29,0,.61-.29.91-.87.91a3,3,0,0,1-2-1,6.1,6.1,0,0,1-1.52-2.74c-.22-.77-.44-1.55-.68-2.34a15.53,15.53,0,0,0-.68-1.94,3.18,3.18,0,0,0-.83-1.16,1.79,1.79,0,0,0-1.17-.41,3.15,3.15,0,0,0-2.34,1,3.83,3.83,0,0,0-1.05,2.58,24.73,24.73,0,0,1-.39,4,3.68,3.68,0,0,1-.75,1.4,1.38,1.38,0,0,1-1,.56.85.85,0,0,1-.86-.49,12.42,12.42,0,0,1-.55-1.8,1.3,1.3,0,0,0-.44-.71,1.12,1.12,0,0,0-.76-.32,1.33,1.33,0,0,0-1.1.6c-.94,1.26-1.54,2-1.8,2.33a1.46,1.46,0,0,1-1.13.43,1.92,1.92,0,0,1-1.3-.62,1.83,1.83,0,0,1-.67-1.38,1.6,1.6,0,0,1,.59-1.21,20.36,20.36,0,0,1,2.05-1.51,1.66,1.66,0,0,0,.83-1.24.76.76,0,0,0-.2-.56,1.89,1.89,0,0,0-.61-.39,3.3,3.3,0,0,0-.78-.27c-.25-.06-.56-.14-.93-.25a1.44,1.44,0,0,1-.65-.39.83.83,0,0,1-.3-.55,1.58,1.58,0,0,1,.94-1.36,6.36,6.36,0,0,1,2.61-.72l1.59-.15c.46,0,.85-.09,1.17-.13a8.43,8.43,0,0,0,1.09-.26,3.19,3.19,0,0,0,1-.51,2.42,2.42,0,0,0,1.24-2.16,2.23,2.23,0,0,0-.6-1.69,5,5,0,0,0-2-1l-2.12-.6a16.86,16.86,0,0,1-1.75-.61,6.18,6.18,0,0,1-1.43-.84,4.94,4.94,0,0,1-1.14-1.26,2.82,2.82,0,0,1-.6-1.59c0-.31.29-.46.87-.46l.58,0h.69a4.56,4.56,0,0,0,2.25-.44,1.34,1.34,0,0,0,.74-1.22,2.5,2.5,0,0,0-1-1.81c-1.09-1.05-1.9-1.83-2.41-2.36a15.62,15.62,0,0,1-1.26-1.41,1.89,1.89,0,0,1-.48-.94c0-.42.48-.64,1.43-.64a2.77,2.77,0,0,1,.75.12,18.93,18.93,0,0,1,4.07,1.3,10.4,10.4,0,0,1,2.89,1.92A7.42,7.42,0,0,1,152,307a7.89,7.89,0,0,1,.59,3.07,25.7,25.7,0,0,1-.18,3.19c-.11,1-.26,2-.43,3.06A17.79,17.79,0,0,0,151.74,318.53Z"/>
  <path class="cls-3" d="M226.51,4.72c.65,2.5-.37,6.91-1.24,8.74-2.76,5.78-5.68,5.12-8.26,11.34-.81,1.94-4,4.29-4,4.29a8.07,8.07,0,0,0,2.52-.1c7.17-3.26,6.95-7.69,11-13,.8-1,.86,3.57.23,8.23a24.08,24.08,0,0,1-2.58,8.06c-1.52,2.71-3.85,4.85-7.18,7.21-2.66,1.88-7,5.47-8.61,6.38A16,16,0,0,0,200.87,56c-1.56,7.37-4.28,20.2-9.47,28.88-5,8.3-3.81,7.38-1.46,5.66,1-.73,3.05-3.37,6.81-10.18,3.46-6.25,4.07-10,6.5-15.3,4.2-9.13,8-19,18.58-19.92,8.1-.69,14,7.7,10,14.1-4.33,7-11.58,3.94-12.79.09-1.15-3.62,2.07-5.07-.2-6.71-1.58-1.14-4.86,1.7-7.44,6.42s-9.58,25.48-16.63,35.8c-7.25,10.61-11.93,15.71-29.23,15.36-7.75-.16-11.42-.25-16.83-.73-7-.61-14.63-2-15.78-1.43-2,.94-3.63,4.72-2.82,6.74s-4.54,1.13-6.27-1.09-2.93-2.54-2.37-9.29a6.22,6.22,0,0,1,4.93-5.2c8.42-2.06,16.8,5.59,24.53-.41,7.41-4.77,12.6-14.11-3.13-23.47-1.35-.81-2.11-3.69.65-6.21a31.89,31.89,0,0,0,8,6.07c2.64,1.43,3.43,3.42,4.21,5.71,1.36,4,.72,12.06-.42,13.56-1.95,2.57,3.6-2.79,4.05-3.82,3.09-6.93,2.26-14.18-1.12-17.69C159,68.63,149.93,66,147.93,61.73c-1.08-2.29,2.12-8.46.5-10.46-1-1.24-4.1-.3-5.13-1.31-.58-.56-1.2-3.18.87-4.05,3.31-1.4,8.23-4.17,13.18-3.6,10,1.15,13,13.52,13.44,19.82-.36,5.64-.11,15.45-1,20.49,2.15-1.71,5.76-11.22,4.79-20.79a56.65,56.65,0,0,0-1.44-7.38c-.47-1.52-.91-4.34-3.06-6.83-2.91-3.34,0-7.73,0-7.73a6.58,6.58,0,0,0,1.71,4.18c2.14,2.08,4.85,4.74,6.36,7.43,1.24,2.2.59-.59,2.82,4.68a11.8,11.8,0,0,1,.94,3.07c1,5,1.55,13.56.27,18.42-3.37,12.75-13.87,21.19-20,26-.57.45-.53,1.14,0,1,5.95-1.23,11.72-4.11,21-16.38,2.73-3.62,8.74-16.54,9-23.29.14-3.71.35-9.91-1-13.36-1.67-4.32-4.9-8.57-5.32-12.21-1.3-11.3.75-11.8,2.69-15.34,3.28-6,16.77-6.51,16.77-6.51a133.33,133.33,0,0,0-9.56,9.65,13.56,13.56,0,0,0-3.63,11.11c.16,1.9,1.59,3.75,3.27,7.24,1,2.15,2.61,6.44,2.61,6.44s.23-5.4.24-6.53c.07-6-.23-10.91,3.8-17.26,3.11-4.9,11.84-12.3,16.79-17,3.12-2.95-1-9.86,1.62-11.15C222.37-.79,226.13,3.27,226.51,4.72Z"/>
  <path class="cls-3" d="M241.93,465.39c-.64-2.5.37-6.91,1.24-8.73,2.76-5.78,5.68-5.12,8.26-11.34.81-1.94,4-4.3,4-4.3a8.15,8.15,0,0,0-2.52.11c-7.17,3.25-6.95,7.69-11,13-.8,1-.86-3.57-.23-8.23a24,24,0,0,1,2.58-8.06c1.52-2.71,3.85-4.85,7.18-7.21,2.66-1.88,7-5.47,8.61-6.39a15.91,15.91,0,0,0,7.58-10.14c1.56-7.36,4.28-20.2,9.47-28.87,5-8.31,3.81-7.39,1.46-5.66-1,.73-3.05,3.37-6.81,10.17-3.46,6.25-4.07,10-6.5,15.31-4.2,9.13-8,19-18.58,19.91-8.1.7-14-7.7-10-14.09,4.33-7,11.58-3.94,12.79-.1,1.15,3.62-2.07,5.08.2,6.72,1.58,1.14,4.86-1.71,7.44-6.43s9.58-25.47,16.63-35.79c7.25-10.62,11.93-15.71,29.23-15.36,7.75.16,11.42.25,16.83.72,7,.62,14.63,2,15.78,1.44,2-.95,3.63-4.72,2.83-6.74s4.53-1.13,6.27,1.09c1.61,2.06,2.92,2.53,2.36,9.29a6.24,6.24,0,0,1-4.93,5.2c-8.42,2.06-16.8-5.59-24.53.4-7.41,4.77-12.6,14.12,3.13,23.48,1.35.81,2.11,3.69-.65,6.2a31.73,31.73,0,0,0-8-6.06c-2.64-1.43-3.43-3.42-4.21-5.71-1.36-4-.72-12.06.42-13.56,2-2.57-3.6,2.78-4.05,3.81-3.09,6.93-2.26,14.19,1.12,17.7,4.15,4.31,13.26,6.94,15.27,11.21,1.07,2.29-2.13,8.47-.51,10.47,1,1.24,4.1.29,5.13,1.31.58.56,1.2,3.18-.87,4-3.31,1.39-8.23,4.17-13.18,3.6-9.95-1.15-12.95-13.52-13.44-19.83.36-5.63.12-15.44,1-20.49-2.15,1.71-5.76,11.23-4.79,20.8a56.5,56.5,0,0,0,1.44,7.37c.47,1.53.91,4.35,3.07,6.83,2.9,3.35,0,7.73,0,7.73a6.58,6.58,0,0,0-1.71-4.18c-2.14-2.07-4.85-4.74-6.36-7.42-1.24-2.2-.59.59-2.82-4.69a11.8,11.8,0,0,1-.94-3.07c-1-5-1.55-13.56-.27-18.42,3.37-12.74,13.87-21.19,20-26,.57-.45.53-1.14,0-1-5.95,1.22-11.72,4.11-21,16.38-2.73,3.61-8.74,16.53-9,23.29-.14,3.7-.35,9.9,1,13.36,1.67,4.31,4.9,8.56,5.32,12.21,1.31,11.3-.75,11.8-2.69,15.34-3.28,6-16.76,6.5-16.76,6.5a133,133,0,0,0,9.55-9.64,13.56,13.56,0,0,0,3.63-11.11c-.15-1.91-1.59-3.76-3.27-7.25-1-2.14-2.6-6.44-2.6-6.44s-.24,5.4-.25,6.53c-.07,6,.23,10.91-3.8,17.27-3.1,4.9-11.84,12.3-16.79,17-3.12,2.95,1,9.86-1.62,11.15C246.07,470.91,242.31,466.85,241.93,465.39Z"/>
  <path class="cls-3" d="M4.72,242.79c2.5-.64,6.91.37,8.74,1.24,5.78,2.76,5.12,5.68,11.34,8.27,1.94.8,4.29,4,4.29,4a8,8,0,0,0-.1-2.51c-3.26-7.18-7.69-7-13-11-1-.8,3.57-.86,8.23-.23a24.32,24.32,0,0,1,8.06,2.58c2.71,1.52,4.85,3.85,7.21,7.18,1.88,2.66,5.47,7,6.38,8.61A15.93,15.93,0,0,0,56,268.43c7.37,1.56,20.2,4.28,28.88,9.47,8.3,5,7.38,3.81,5.66,1.46-.73-1-3.37-3-10.18-6.81-6.25-3.46-10-4.07-15.3-6.5-9.13-4.2-19-8-19.92-18.58-.69-8.1,7.7-14,14.1-10,7,4.33,3.94,11.58.09,12.79-3.62,1.15-5.07-2.07-6.71.2-1.14,1.58,1.7,4.86,6.42,7.44s25.48,9.58,35.8,16.63c10.61,7.25,15.71,11.93,15.36,29.24-.16,7.74-.25,11.41-.73,16.82-.61,7-2,14.64-1.43,15.78.94,2,4.72,3.63,6.74,2.83s1.13,4.53-1.09,6.27-2.54,2.93-9.29,2.36a6.22,6.22,0,0,1-5.2-4.93c-2.06-8.42,5.59-16.79-.41-24.53-4.77-7.41-14.11-12.6-23.47,3.13-.81,1.35-3.69,2.11-6.21-.65a31.89,31.89,0,0,0,6.07-8c1.43-2.64,3.42-3.43,5.71-4.21,4-1.36,12.06-.72,13.56.42,2.57,2-2.79-3.59-3.82-4.05-6.93-3.08-14.18-2.25-17.69,1.12-4.32,4.15-6.94,13.26-11.22,15.27-2.29,1.07-8.46-2.13-10.46-.51C50,321.88,51,325,50,326c-.56.58-3.18,1.2-4.05-.87-1.4-3.31-4.17-8.23-3.6-13.18C43.46,302,55.83,299,62.13,298.52c5.64.35,15.45.11,20.49,1-1.71-2.15-11.22-5.76-20.79-4.79a58.37,58.37,0,0,0-7.38,1.44c-1.52.47-4.34.91-6.83,3.07-3.34,2.9-7.73,0-7.73,0a6.58,6.58,0,0,0,4.18-1.71c2.08-2.14,4.74-4.84,7.43-6.36,2.2-1.24-.59-.59,4.68-2.81a11.88,11.88,0,0,1,3.07-.95c5-1,13.56-1.55,18.42-.27,12.75,3.37,21.19,13.87,26,20,.45.57,1.14.53,1,0-1.23-5.95-4.11-11.72-16.38-21-3.62-2.73-16.54-8.74-23.29-9-3.71-.14-9.91-.35-13.36,1-4.32,1.67-8.57,4.9-12.21,5.32-11.3,1.31-11.8-.75-15.34-2.69-6-3.28-6.51-16.76-6.51-16.76a132,132,0,0,0,9.65,9.55,13.56,13.56,0,0,0,11.11,3.63c1.9-.15,3.75-1.59,7.24-3.27,2.15-1,6.44-2.6,6.44-2.6s-5.4-.24-6.53-.25c-6-.07-10.91.23-17.26-3.8-4.9-3.1-12.3-11.84-17-16.79-2.95-3.12-9.86,1-11.15-1.62C-.79,246.93,3.27,243.17,4.72,242.79Z"/>
  <path class="cls-3" d="M464.46,227.53c-2.5.65-6.91-.37-8.73-1.24-5.78-2.75-5.12-5.67-11.34-8.26-1.94-.81-4.3-4-4.3-4a8.15,8.15,0,0,0,.11,2.52c3.25,7.17,7.69,6.95,13,11,1,.79-3.57.85-8.23.22a24,24,0,0,1-8.06-2.57c-2.71-1.52-4.85-3.85-7.21-7.19-1.88-2.66-5.47-7-6.38-8.6a15.88,15.88,0,0,0-10.15-7.58c-7.36-1.56-20.2-4.28-28.87-9.47-8.31-5-7.39-3.81-5.66-1.46.73,1,3.37,3,10.17,6.81,6.25,3.46,10,4.06,15.31,6.49,9.13,4.2,19,8,19.91,18.59.7,8.1-7.7,14-14.09,10-7-4.33-3.94-11.58-.1-12.8,3.62-1.14,5.08,2.07,6.72-.19,1.14-1.58-1.71-4.87-6.43-7.45s-25.47-9.58-35.79-16.63c-10.62-7.24-15.71-11.93-15.36-29.23.16-7.75.25-11.41.72-16.83.62-7,2-14.63,1.44-15.77-.95-2-4.72-3.64-6.74-2.83s-1.13-4.54,1.09-6.27c2.06-1.62,2.53-2.93,9.29-2.37a6.24,6.24,0,0,1,5.2,4.93c2.06,8.42-5.59,16.8.4,24.53,4.77,7.42,14.12,12.61,23.48-3.12.81-1.36,3.69-2.11,6.2.64a31.68,31.68,0,0,0-6.06,8c-1.43,2.64-3.42,3.42-5.71,4.21-4,1.36-12.06.71-13.56-.42-2.57-2,2.78,3.59,3.81,4.05,6.93,3.08,14.19,2.25,17.7-1.13,4.31-4.15,6.94-13.26,11.21-15.26,2.29-1.08,8.47,2.12,10.47.5,1.24-1,.29-4.09,1.31-5.13.56-.58,3.18-1.2,4,.87,1.39,3.31,4.17,8.24,3.6,13.18-1.15,9.95-13.52,12.95-19.83,13.44-5.63-.36-15.44-.11-20.49-1,1.71,2.15,11.23,5.76,20.8,4.8a58.22,58.22,0,0,0,7.37-1.44c1.53-.47,4.35-.92,6.83-3.07,3.35-2.9,7.73,0,7.73,0a6.61,6.61,0,0,0-4.18,1.7c-2.07,2.14-4.74,4.85-7.42,6.37-2.2,1.24.59.58-4.69,2.81a11.88,11.88,0,0,1-3.07,1c-5,1-13.56,1.55-18.42.26-12.74-3.37-21.19-13.87-26-20-.45-.56-1.14-.53-1,0,1.22,5.95,4.11,11.73,16.38,21,3.61,2.74,16.53,8.74,23.29,9,3.7.13,9.9.34,13.36-1,4.31-1.68,8.56-4.91,12.21-5.33,11.3-1.3,11.8.75,15.34,2.69,6,3.29,6.5,16.77,6.5,16.77a132.16,132.16,0,0,0-9.64-9.56,13.56,13.56,0,0,0-11.11-3.62c-1.91.15-3.76,1.59-7.25,3.26-2.14,1-6.44,2.61-6.44,2.61s5.4.24,6.53.25c6,.06,10.91-.24,17.27,3.79,4.9,3.11,12.3,11.85,17,16.79,3,3.13,9.86-1,11.15,1.63C470,223.39,465.92,227.16,464.46,227.53Z"/>
  <path class="cls-2" d="M241.93,4.72c-.64,2.5.37,6.91,1.24,8.74,2.76,5.78,5.68,5.12,8.26,11.34.81,1.94,4,4.29,4,4.29a8.07,8.07,0,0,1-2.52-.1c-7.17-3.26-6.95-7.69-11-13-.8-1-.86,3.57-.23,8.23a24.08,24.08,0,0,0,2.58,8.06c1.52,2.71,3.85,4.85,7.18,7.21,2.66,1.88,7,5.47,8.61,6.38A16,16,0,0,1,267.57,56c1.56,7.37,4.28,20.2,9.47,28.88,5,8.3,3.81,7.38,1.46,5.66-1-.73-3.05-3.37-6.81-10.18-3.46-6.25-4.07-10-6.5-15.3-4.2-9.13-8-19-18.58-19.92-8.1-.69-14,7.7-10,14.1,4.33,7,11.58,3.94,12.79.09,1.15-3.62-2.07-5.07.2-6.71,1.58-1.14,4.86,1.7,7.44,6.42s9.58,25.48,16.63,35.8c7.25,10.61,11.93,15.71,29.23,15.36,7.75-.16,11.42-.25,16.83-.73,7-.61,14.63-2,15.78-1.43,2,.94,3.63,4.72,2.83,6.74s4.53,1.13,6.27-1.09,2.92-2.54,2.36-9.29a6.22,6.22,0,0,0-4.93-5.2c-8.42-2.06-16.8,5.59-24.53-.41-7.41-4.77-12.6-14.11,3.13-23.47,1.35-.81,2.11-3.69-.65-6.21a31.89,31.89,0,0,1-8,6.07c-2.64,1.43-3.43,3.42-4.21,5.71-1.36,4-.72,12.06.42,13.56,2,2.57-3.6-2.79-4.05-3.82C301,83.71,301.87,76.46,305.25,73c4.15-4.32,13.26-6.94,15.27-11.22,1.07-2.29-2.13-8.46-.51-10.46,1-1.24,4.1-.3,5.13-1.31.58-.56,1.2-3.18-.87-4.05-3.31-1.4-8.23-4.17-13.18-3.6-9.95,1.15-12.95,13.52-13.44,19.82.36,5.64.12,15.45,1,20.49-2.15-1.71-5.76-11.22-4.79-20.79a56.65,56.65,0,0,1,1.44-7.38c.47-1.52.91-4.34,3.07-6.83,2.9-3.34,0-7.73,0-7.73a6.58,6.58,0,0,1-1.71,4.18c-2.14,2.08-4.85,4.74-6.36,7.43-1.24,2.2-.59-.59-2.82,4.68a11.8,11.8,0,0,0-.94,3.07c-1,5-1.55,13.56-.27,18.42,3.37,12.75,13.87,21.19,20,26,.57.45.53,1.14,0,1-5.95-1.23-11.72-4.11-21-16.38-2.73-3.62-8.74-16.54-9-23.29-.14-3.71-.35-9.91,1-13.36,1.67-4.32,4.9-8.57,5.32-12.21,1.31-11.3-.75-11.8-2.69-15.34-3.28-6-16.76-6.51-16.76-6.51a134.21,134.21,0,0,1,9.55,9.65,13.56,13.56,0,0,1,3.63,11.11c-.15,1.9-1.59,3.75-3.27,7.24-1,2.15-2.6,6.44-2.6,6.44s-.24-5.4-.25-6.53c-.07-6,.23-10.91-3.8-17.26-3.1-4.9-11.84-12.3-16.79-17-3.12-2.95,1-9.86-1.62-11.15C246.07-.79,242.31,3.27,241.93,4.72Z"/>
  <path class="cls-2" d="M226.51,465.39c.65-2.5-.37-6.91-1.24-8.73-2.76-5.78-5.68-5.12-8.26-11.34-.81-1.94-4-4.3-4-4.3a8.15,8.15,0,0,1,2.52.11c7.17,3.25,6.95,7.69,11,13,.8,1,.86-3.57.23-8.23a24,24,0,0,0-2.58-8.06c-1.52-2.71-3.85-4.85-7.18-7.21-2.66-1.88-7-5.47-8.61-6.39a15.91,15.91,0,0,1-7.58-10.14c-1.56-7.36-4.28-20.2-9.47-28.87-5-8.31-3.81-7.39-1.46-5.66,1,.73,3.05,3.37,6.81,10.17,3.46,6.25,4.07,10,6.5,15.31,4.2,9.13,8,19,18.58,19.91,8.1.7,14-7.7,10-14.09-4.33-7-11.58-3.94-12.79-.1-1.15,3.62,2.07,5.08-.2,6.72-1.58,1.14-4.86-1.71-7.44-6.43s-9.58-25.47-16.63-35.79c-7.25-10.62-11.93-15.71-29.23-15.36-7.75.16-11.42.25-16.83.72-7,.62-14.63,2-15.78,1.44-2-.95-3.63-4.72-2.82-6.74s-4.54-1.13-6.27,1.09c-1.62,2.06-2.93,2.53-2.37,9.29a6.24,6.24,0,0,0,4.93,5.2c8.42,2.06,16.8-5.59,24.53.4,7.41,4.77,12.6,14.12-3.13,23.48-1.35.81-2.11,3.69.65,6.2a31.73,31.73,0,0,1,8-6.06c2.64-1.43,3.43-3.42,4.21-5.71,1.36-4,.72-12.06-.42-13.56-1.95-2.57,3.6,2.78,4.05,3.81,3.09,6.93,2.26,14.19-1.12,17.7-4.15,4.31-13.26,6.94-15.26,11.21-1.08,2.29,2.12,8.47.5,10.47-1,1.24-4.1.29-5.13,1.31-.58.56-1.2,3.18.87,4,3.31,1.39,8.23,4.17,13.18,3.6,10-1.15,13-13.52,13.44-19.83-.36-5.63-.11-15.44-1-20.49,2.15,1.71,5.76,11.23,4.79,20.8a56.5,56.5,0,0,1-1.44,7.37c-.47,1.53-.91,4.35-3.06,6.83-2.91,3.35,0,7.73,0,7.73a6.58,6.58,0,0,1,1.71-4.18c2.14-2.07,4.85-4.74,6.36-7.42,1.24-2.2.59.59,2.82-4.69a11.8,11.8,0,0,0,.94-3.07c1-5,1.55-13.56.27-18.42-3.37-12.74-13.87-21.19-20-26-.57-.45-.53-1.14,0-1,5.95,1.22,11.72,4.11,21,16.38,2.73,3.61,8.74,16.53,9,23.29.14,3.7.35,9.9-1,13.36-1.67,4.31-4.9,8.56-5.32,12.21-1.3,11.3.75,11.8,2.69,15.34,3.28,6,16.77,6.5,16.77,6.5a132.16,132.16,0,0,1-9.56-9.64,13.56,13.56,0,0,1-3.63-11.11c.16-1.91,1.59-3.76,3.27-7.25,1-2.14,2.61-6.44,2.61-6.44s.23,5.4.24,6.53c.07,6-.23,10.91,3.8,17.27,3.11,4.9,11.84,12.3,16.79,17,3.12,2.95-1,9.86,1.62,11.15C222.37,470.91,226.13,466.85,226.51,465.39Z"/>
  <path class="cls-2" d="M4.72,227.37c2.5.65,6.91-.37,8.74-1.24,5.78-2.76,5.12-5.67,11.34-8.26,1.94-.81,4.29-4,4.29-4a8.07,8.07,0,0,1-.1,2.52c-3.26,7.17-7.69,7-13,11-1,.79,3.57.85,8.23.22a24.08,24.08,0,0,0,8.06-2.58c2.71-1.52,4.85-3.85,7.21-7.18,1.88-2.66,5.47-7,6.38-8.61A16,16,0,0,1,56,201.73c7.37-1.56,20.2-4.27,28.88-9.47,8.3-5,7.38-3.81,5.66-1.46-.73,1-3.37,3-10.18,6.81-6.25,3.46-10,4.07-15.3,6.5-9.13,4.2-19,8-19.92,18.58-.69,8.1,7.7,14,14.1,10,7-4.33,3.94-11.57.09-12.79-3.62-1.15-5.07,2.07-6.71-.2-1.14-1.57,1.7-4.86,6.42-7.44s25.48-9.58,35.8-16.63c10.61-7.25,15.71-11.93,15.36-29.23-.16-7.75-.25-11.41-.73-16.83-.61-7-2-14.63-1.43-15.77.94-2,4.72-3.64,6.74-2.83s1.13-4.54-1.09-6.27-2.54-2.93-9.29-2.37a6.22,6.22,0,0,0-5.2,4.93c-2.06,8.42,5.59,16.8-.41,24.53-4.77,7.41-14.11,12.6-23.47-3.12-.81-1.36-3.69-2.12-6.21.64a31.84,31.84,0,0,1,6.07,8c1.43,2.63,3.42,3.42,5.71,4.2,4,1.36,12.06.72,13.56-.42,2.57-2-2.79,3.6-3.82,4.06-6.93,3.08-14.18,2.25-17.69-1.13-4.32-4.15-6.94-13.26-11.22-15.26-2.29-1.08-8.46,2.12-10.46.5-1.24-1-.3-4.09-1.31-5.13-.56-.58-3.18-1.2-4.05.87-1.4,3.31-4.17,8.24-3.6,13.18,1.15,9.95,13.52,12.95,19.82,13.44,5.64-.36,15.45-.11,20.49-1-1.71,2.15-11.22,5.76-20.79,4.79A58.36,58.36,0,0,1,54.45,174c-1.52-.47-4.34-.92-6.83-3.07-3.34-2.91-7.73,0-7.73,0a6.65,6.65,0,0,1,4.18,1.71c2.08,2.14,4.74,4.85,7.43,6.36,2.2,1.24-.59.59,4.68,2.82a11.8,11.8,0,0,0,3.07.94c5,1,13.56,1.56,18.42.27,12.75-3.37,21.19-13.87,26-20,.45-.56,1.14-.53,1,0-1.23,5.95-4.11,11.72-16.38,21-3.62,2.74-16.54,8.74-23.29,9-3.71.13-9.91.34-13.36-1-4.32-1.68-8.57-4.91-12.21-5.33-11.3-1.3-11.8.75-15.34,2.69-6,3.28-6.51,16.77-6.51,16.77a133.33,133.33,0,0,1,9.65-9.56A13.53,13.53,0,0,1,38.37,193c1.9.15,3.75,1.59,7.24,3.26,2.15,1,6.44,2.61,6.44,2.61s-5.4.23-6.53.25c-6,.06-10.91-.24-17.26,3.79-4.9,3.11-12.3,11.84-17,16.79-2.95,3.12-9.86-1-11.15,1.63C-.79,223.23,3.27,227,4.72,227.37Z"/>
  <path class="cls-2" d="M464.46,243c-2.5-.64-6.91.37-8.73,1.24-5.78,2.76-5.12,5.68-11.34,8.27-1.94.81-4.3,4-4.3,4a8.08,8.08,0,0,1,.11-2.51c3.25-7.17,7.69-7,13-11,1-.8-3.57-.86-8.23-.22a24,24,0,0,0-8.06,2.57c-2.71,1.52-4.85,3.85-7.21,7.18-1.88,2.66-5.47,7-6.38,8.61a15.88,15.88,0,0,1-10.15,7.58c-7.36,1.56-20.2,4.28-28.87,9.47-8.31,5-7.39,3.81-5.66,1.46.73-1,3.37-3,10.17-6.81,6.25-3.46,10-4.07,15.31-6.5,9.13-4.2,19-8,19.91-18.58.7-8.1-7.7-14-14.09-10-7,4.33-3.94,11.58-.1,12.8,3.62,1.14,5.08-2.07,6.72.19,1.14,1.58-1.71,4.87-6.43,7.44s-25.47,9.59-35.79,16.63c-10.62,7.25-15.71,11.93-15.36,29.24.16,7.75.25,11.41.72,16.82.62,7,2,14.64,1.44,15.78-.95,2-4.72,3.64-6.74,2.83s-1.13,4.54,1.09,6.27c2.06,1.61,2.53,2.93,9.29,2.36A6.21,6.21,0,0,0,370,343c2.06-8.43-5.59-16.8.4-24.54,4.77-7.41,14.12-12.6,23.48,3.13.81,1.36,3.69,2.11,6.2-.65a31.5,31.5,0,0,1-6.06-8c-1.43-2.64-3.42-3.43-5.71-4.21-4-1.36-12.06-.71-13.56.42-2.57,2,2.78-3.59,3.81-4.05,6.93-3.08,14.19-2.25,17.7,1.13,4.31,4.14,6.94,13.26,11.21,15.26,2.29,1.07,8.47-2.13,10.47-.5,1.24,1,.29,4.09,1.31,5.13.56.57,3.18,1.19,4-.88,1.39-3.3,4.17-8.23,3.6-13.17-1.15-10-13.52-12.95-19.83-13.44-5.63.35-15.44.11-20.49,1,1.71-2.15,11.23-5.76,20.8-4.79a58.22,58.22,0,0,1,7.37,1.44c1.53.47,4.35.91,6.83,3.07,3.35,2.9,7.73,0,7.73,0a6.61,6.61,0,0,1-4.18-1.7c-2.07-2.14-4.74-4.85-7.42-6.37-2.2-1.24.59-.58-4.69-2.81a11.88,11.88,0,0,0-3.07-1c-5-1-13.56-1.55-18.42-.26-12.74,3.36-21.19,13.86-26,20-.45.57-1.14.54-1,0,1.22-5.94,4.11-11.72,16.38-21,3.61-2.73,16.53-8.73,23.29-9,3.7-.13,9.9-.34,13.36,1,4.31,1.68,8.56,4.91,12.21,5.33,11.3,1.3,11.8-.76,15.34-2.69,6-3.29,6.5-16.77,6.5-16.77a132.16,132.16,0,0,1-9.64,9.56,13.59,13.59,0,0,1-11.11,3.62c-1.91-.15-3.76-1.59-7.25-3.27-2.14-1-6.44-2.6-6.44-2.6s5.4-.24,6.53-.25c6-.06,10.91.23,17.27-3.79,4.9-3.11,12.3-11.85,17-16.8,3-3.12,9.86,1,11.15-1.62C470,247.09,465.92,243.33,464.46,243Z"/>
</svg>