<svg xmlns="http://www.w3.org/2000/svg" viewBox="0 0 512.82 512.53">
  <path class="cls-1" d="M316.61,305a8.65,8.65,0,0,1-4.67-1.11,8.91,8.91,0,0,1-3-3.61,16,16,0,0,0,4.37-.82,3.65,3.65,0,0,0,2.05-1.78,8.13,8.13,0,0,0,.58-3.48c0-.61-.57-1.4-1.7-2.36a6.18,6.18,0,0,0-3.31-1.58c-1.62-.16-3.42-.27-5.4-.31l-5.89-.15q-2.91-.08-5.67-.36a49.28,49.28,0,0,1-5.37-.88,34.58,34.58,0,0,1,1.09,6.3q.27,3.24.37,8.34c.06,3.41.18,6,.34,7.69A6,6,0,0,0,292,314.1c1,1.14,1.77,1.7,2.36,1.7,2.17,0,3.66-.47,4.47-1.43s1.35-2.85,1.61-5.67a8,8,0,0,1,3.55,3,8.85,8.85,0,0,1,1.12,4.67q0,4.08-.19,6.66a43.55,43.55,0,0,1-1,5.33c-.61,2.64-1,4.48-1.24,5.5a19.41,19.41,0,0,0-.31,3.82,11.48,11.48,0,0,0,11,11.09,7.13,7.13,0,0,0,5.06-1.9,5.91,5.91,0,0,0,2.05-4.47,4.5,4.5,0,0,0-1.25-3.12,3.67,3.67,0,0,0-2.74-1.36c-2.11,0-3.31,1.19-3.6,3.55a2.88,2.88,0,0,1-1.51-1,3.29,3.29,0,0,1-.39-1.8,3.65,3.65,0,0,1,1.41-2.72,4.47,4.47,0,0,1,3.06-1.27,7.37,7.37,0,0,1,5.26,2,6.42,6.42,0,0,1,2.14,4.84,8.5,8.5,0,0,1-3.6,7.44q-3.6,2.54-10.66,2.53a11.62,11.62,0,0,1-6.9-1.87,8.36,8.36,0,0,1-3.26-5.81l-.39-.1q-.19.48-.54,1.68a8.75,8.75,0,0,1-.85,2,7.74,7.74,0,0,1-1.58,1.78,16,16,0,0,1-4.45-4.21,8.7,8.7,0,0,1-1.56-3.8c-.11-1.11-.17-2.76-.17-4.93a8.5,8.5,0,0,1,1.26-3.9q2.19-3.54,3-5.15a7.8,7.8,0,0,0,.8-3.51,4.08,4.08,0,0,0-1.12-3.11,4.41,4.41,0,0,0-3.16-1.07q-5,0-5,5.55a17.63,17.63,0,0,0,.68,2.62,14.2,14.2,0,0,1,.68,3.9,18.59,18.59,0,0,1-1.15,5.86,24.73,24.73,0,0,1-3.13,6.25,19,19,0,0,1-3.07,3.6,21.76,21.76,0,0,1-2.89,2.17c-.93.56-1.86,1.14-2.8,1.72a5.38,5.38,0,0,1-1.05-1.58,3.73,3.73,0,0,1-.36-1.29,7.14,7.14,0,0,1,.19-1.58c.13-.57.23-.95.29-1.14a12.55,12.55,0,0,0-.12-2.41c-.08-.24-.59-.37-1.53-.37-.42,0-.76.29-1,.86a5.7,5.7,0,0,0-.49,1.72,16,16,0,0,1-.68,4,3,3,0,0,1-1.9,1.66,15.15,15.15,0,0,1-4.72.53,18.19,18.19,0,0,1-5.25-.87,20.33,20.33,0,0,1,1.94-2.44,11.86,11.86,0,0,0,1.95-2.67q2.73-6.57,4.79-10.61a50.43,50.43,0,0,1,5.28-8.12l4.94-6.31a77.48,77.48,0,0,0,5.23-7.39,35.61,35.61,0,0,0,3.36-7.25,25,25,0,0,0,1.31-7.95c0-1.14.06-2.39.07-3.75s0-2.57-.09-3.63a16.93,16.93,0,0,0-.61-3.28q-8-2-15.42-9.05v1.41a7.68,7.68,0,0,1-1.37,4.62,5.08,5.08,0,0,1-4.13,2.05H263a1.74,1.74,0,0,0-.59.09.77.77,0,0,0-.38.44,2.86,2.86,0,0,0-.15,1.07c0,.62.42,1.17,1.26,1.66a2.06,2.06,0,0,1,.93,1.89c0,.36.05.76.05,1.2a9.66,9.66,0,0,1-.15,1.55,11.71,11.71,0,0,1-.63,2.17,7.78,7.78,0,0,1-3.6-1c0,.26-.08.56-.15.92s-.14.75-.24,1.17c0,3.7.57,6.52,1.73,8.46a5.47,5.47,0,0,0,5,2.92,4.19,4.19,0,0,0,2.92-1.16,3.59,3.59,0,0,0,1.27-2.73q0-3.26-4.09-3.89c-.1,0-.14-.06-.12-.17a1.77,1.77,0,0,0,0-.32,1,1,0,0,1,.54-.78,2.12,2.12,0,0,1,1.12-.34,3.46,3.46,0,0,1,1.94.71,5.18,5.18,0,0,1,1.68,2.09,7.13,7.13,0,0,1,.66,3.09,5.13,5.13,0,0,1-1.8,4,6.48,6.48,0,0,1-4.48,1.61,5.52,5.52,0,0,1-2.55-.54,13.85,13.85,0,0,1-2.51-1.8,11.46,11.46,0,0,1-2.94-4.62,18.82,18.82,0,0,1-.95-5.18c-.06-1.74-.1-5-.1-9.9q0-3.47,0-7.08a30.8,30.8,0,0,1,.46-5.77,29.4,29.4,0,0,1,1.61-4.6,14.29,14.29,0,0,0,1.31-4.5,2.46,2.46,0,0,0-.54-1.85,25.91,25.91,0,0,1-2.26-2.45,3.71,3.71,0,0,1-.51-2.17,3.61,3.61,0,0,1,1.31-2.67,3.89,3.89,0,0,1,2.58-1.22A4.92,4.92,0,0,1,264,258.2c.1.1.3.32.61.68a3.29,3.29,0,0,0,1,.83,3.19,3.19,0,0,0,1.41.29,11.62,11.62,0,0,0,4.14-1.27A25.72,25.72,0,0,1,276,257a19.9,19.9,0,0,1,3.4-.49c1.17-.06,2.66-.09,4.48-.09s3.52,0,5.11.05c4.83,0,8.11,0,9.82.07a18.69,18.69,0,0,1,5.23.92,11.25,11.25,0,0,1,4.65,2.9,8.47,8.47,0,0,1,1.7,2.31,6.28,6.28,0,0,1,.59,2.8,6.67,6.67,0,0,1-1.53,4.5,5,5,0,0,1-3.92,1.77,6.38,6.38,0,0,1-4.26-1.38,3.85,3.85,0,0,1-1.63-2.8c0-1.14.36-1.7,1.07-1.7.23,0,.37,0,.42.07a.52.52,0,0,1,.07.31,1,1,0,0,0,.05.39Q301.92,270,305,270a3.6,3.6,0,0,0,2.75-1.24,4.09,4.09,0,0,0,1.15-2.84A5.47,5.47,0,0,0,306,261q-2.94-1.75-8.39-1.75a4.53,4.53,0,0,0-.92.15l-1.08.24a4.64,4.64,0,0,1,.47.87,5.19,5.19,0,0,1,.26,1.08,6.16,6.16,0,0,1,.1.92c0,.19,0,.44.05.73a9.65,9.65,0,0,1-1.92.56,7.94,7.94,0,0,1-1.66.14l-1.28,0a1.85,1.85,0,0,1-1.8-.92A2.11,2.11,0,0,0,288,261.7c-.81,0-1.26.11-1.36.32a6.8,6.8,0,0,0-.24,1.68q-.3,5.49-8.08,5.35,7.2,7.63,9.2,15.47a22.34,22.34,0,0,0,5.08.56c1.93,0,3.79,0,5.57,0a24.46,24.46,0,0,0,7.93-1.29,32.76,32.76,0,0,0,7-3.28q3.17-2,6.81-4.79c2.44-1.87,4.8-3.72,7.11-5.57a59.7,59.7,0,0,1,8.78-5.65q4.55-2.38,9.95-4.62a7.89,7.89,0,0,0,1.46-.85c.52-.37,1.23-.95,2.14-1.73s1.39-1.18,1.46-1.21a16.6,16.6,0,0,1,.92,5.2,13.38,13.38,0,0,1-.78,5.18,3.53,3.53,0,0,1-3.3,2,23.72,23.72,0,0,0-3.63.47c-.7.17-1.05.56-1.05,1.14,0,.94.15,1.48.44,1.61a8.4,8.4,0,0,0,2.34.19,3.08,3.08,0,0,0,1.8-.54.71.71,0,0,1,.48,0,4,4,0,0,0,.49,0,4.27,4.27,0,0,1,2.82,1.42c-.61,1-1.19,1.95-1.72,2.84a21.51,21.51,0,0,1-2.24,3,18.91,18.91,0,0,1-3.43,3,25.77,25.77,0,0,1-6.3,3.14,18.83,18.83,0,0,1-5.87,1.14,13.3,13.3,0,0,1-3.84-.68,16.79,16.79,0,0,0-2.63-.68q-5.59,0-5.59,5a4.14,4.14,0,0,0,1.21,3.06,4.19,4.19,0,0,0,3.07,1.22,8.85,8.85,0,0,0,2-.2,5.14,5.14,0,0,0,1.63-.68q3.79-2.28,5.57-3.23a7,7,0,0,1,3.29-.95h2.87a11.72,11.72,0,0,1,3.52.53,10.33,10.33,0,0,1,3.36,1.92,17.2,17.2,0,0,1,3.24,3.73,7,7,0,0,1-1.78,1.55,8.91,8.91,0,0,1-1.87.68,10.88,10.88,0,0,0-1.85.64l.1.39a8.31,8.31,0,0,1,5.83,3.26,11.59,11.59,0,0,1,2,7q0,7.05-2.53,10.66a8.52,8.52,0,0,1-7.44,3.6,6.58,6.58,0,0,1-4.92-2.14,7.29,7.29,0,0,1-2-5.21,4.54,4.54,0,0,1,1.31-3.09A3.77,3.77,0,0,1,339,310.7a3.64,3.64,0,0,1,1.72.31,3,3,0,0,1,1.05,1.58,4.48,4.48,0,0,0-2.58,1.05,3.29,3.29,0,0,0-.92,2.55,3.68,3.68,0,0,0,1.33,2.75,4.36,4.36,0,0,0,3,1.24,6.39,6.39,0,0,0,5.6-3.43,7.7,7.7,0,0,0,.83-3.62,10.67,10.67,0,0,0-1.51-5.38,12,12,0,0,0-4.09-4.21,10.22,10.22,0,0,0-5.5-1.6,21.32,21.32,0,0,0-3.82.36c-1.31.25-2.69.57-4.13,1s-2.77.73-4,1a27.27,27.27,0,0,1-2.82.49Q320.6,305,316.61,305Zm35.76,36.74V344a34.58,34.58,0,0,1-14.74-4.76,37.9,37.9,0,0,1,3.33,7.54,33.75,33.75,0,0,1,1.54,7.3h-2.29a20.63,20.63,0,0,0-.83-4.8,53,53,0,0,0-2.06-6,44.68,44.68,0,0,0-2.9-5.79l1.41-1.46a52.06,52.06,0,0,0,9,4A29.8,29.8,0,0,0,352.37,341.69Zm0,12.36h-5.25A50.5,50.5,0,0,0,345,346.6l1.07.39c2.59.75,4.68,1.28,6.27,1.61Z"/>
  <path class="cls-1" d="M305.26,196.2a8.6,8.6,0,0,1-1.12,4.67,9,9,0,0,1-3.6,3,16.3,16.3,0,0,0-.83-4.38,3.66,3.66,0,0,0-1.78-2,8.09,8.09,0,0,0-3.47-.59c-.62,0-1.41.57-2.36,1.71a6.06,6.06,0,0,0-1.59,3.31c-.16,1.62-.26,3.42-.31,5.4s-.1,3.94-.15,5.88-.17,3.84-.36,5.67a49.46,49.46,0,0,1-.88,5.38,35.47,35.47,0,0,1,6.3-1.1q3.24-.27,8.35-.36t7.68-.34a6,6,0,0,0,3.26-1.63c1.14-1,1.71-1.78,1.71-2.36,0-2.18-.48-3.67-1.44-4.48s-2.85-1.34-5.67-1.6a8.1,8.1,0,0,1,3-3.56,8.94,8.94,0,0,1,4.67-1.11c2.72,0,4.95.06,6.67.19a43.17,43.17,0,0,1,5.32,1q4,.93,5.5,1.24a19.39,19.39,0,0,0,3.82.32,11.48,11.48,0,0,0,11.09-11.05,7.19,7.19,0,0,0-1.89-5.06,5.94,5.94,0,0,0-4.48-2,4.45,4.45,0,0,0-3.11,1.24,3.67,3.67,0,0,0-1.37,2.75q0,3.16,3.56,3.6a2.89,2.89,0,0,1-1,1.51,3.29,3.29,0,0,1-1.8.39,3.65,3.65,0,0,1-2.72-1.41,4.5,4.5,0,0,1-1.27-3.07,7.38,7.38,0,0,1,2-5.25,6.42,6.42,0,0,1,4.84-2.14,8.53,8.53,0,0,1,7.45,3.6q2.52,3.6,2.53,10.65a11.63,11.63,0,0,1-1.88,6.91,8.38,8.38,0,0,1-5.81,3.26l-.1.39q.5.19,1.68.54a8,8,0,0,1,2,.85,7.51,7.51,0,0,1,1.78,1.58,16.09,16.09,0,0,1-4.21,4.45,8.92,8.92,0,0,1-3.79,1.56c-1.12.11-2.77.17-4.94.17a8.35,8.35,0,0,1-3.89-1.27q-3.56-2.19-5.16-3a7.66,7.66,0,0,0-3.5-.8A4.09,4.09,0,0,0,321,220a4.4,4.4,0,0,0-1.07,3.16q0,5,5.55,5a19.2,19.2,0,0,0,2.62-.68,14.27,14.27,0,0,1,3.9-.68,18.77,18.77,0,0,1,5.86,1.14,24.76,24.76,0,0,1,6.25,3.14,18.36,18.36,0,0,1,3.6,3.07,21.76,21.76,0,0,1,2.17,2.89l1.72,2.8a5.34,5.34,0,0,1-1.58,1,3.48,3.48,0,0,1-1.29.37,7.19,7.19,0,0,1-1.58-.2c-.56-.13-.95-.22-1.14-.29a12.63,12.63,0,0,0-2.41.12c-.24.09-.36.6-.36,1.54,0,.42.28.76.85,1a5.48,5.48,0,0,0,1.72.48,15.93,15.93,0,0,1,4,.69,3,3,0,0,1,1.66,1.89,14.93,14.93,0,0,1,.53,4.72,18.31,18.31,0,0,1-.87,5.26,19.08,19.08,0,0,1-2.43-1.95A12.3,12.3,0,0,0,346,252.5q-6.57-2.73-10.61-4.8a50.43,50.43,0,0,1-8.12-5.28l-6.3-4.93a78.79,78.79,0,0,0-7.4-5.23,34.57,34.57,0,0,0-7.25-3.36,24.73,24.73,0,0,0-7.95-1.32l-3.75-.07c-1.36,0-2.57,0-3.62.1a16.17,16.17,0,0,0-3.29.61q-1.95,8-9.05,15.42h1.41a7.73,7.73,0,0,1,4.63,1.36,5.14,5.14,0,0,1,2,4.14v.73a1.47,1.47,0,0,0,.1.58.76.76,0,0,0,.43.39,2.86,2.86,0,0,0,1.07.15c.62,0,1.17-.42,1.66-1.27a2.08,2.08,0,0,1,1.9-.92c.35,0,.75-.05,1.19-.05a10.8,10.8,0,0,1,1.56.14,11,11,0,0,1,2.16.64,7.86,7.86,0,0,1-1,3.6l.92.14c.36.07.75.15,1.17.25q5.55,0,8.47-1.73a5.49,5.49,0,0,0,2.92-5,4.19,4.19,0,0,0-1.17-2.92,3.62,3.62,0,0,0-2.73-1.26q-3.25,0-3.89,4.09c0,.09-.06.13-.17.12l-.32,0a.94.94,0,0,1-.77-.53,2,2,0,0,1-.34-1.12,3.45,3.45,0,0,1,.7-2,5.18,5.18,0,0,1,2.09-1.68,7.28,7.28,0,0,1,3.09-.65,5.13,5.13,0,0,1,4,1.8,6.47,6.47,0,0,1,1.61,4.47,5.54,5.54,0,0,1-.54,2.56,12.9,12.9,0,0,1-1.8,2.5,11.38,11.38,0,0,1-4.62,3,19.2,19.2,0,0,1-5.18,1q-2.61.09-9.9.09l-7.08,0a31.67,31.67,0,0,1-5.77-.46,30.12,30.12,0,0,1-4.59-1.61,14.16,14.16,0,0,0-4.5-1.31,2.49,2.49,0,0,0-1.85.53,25.47,25.47,0,0,1-2.46,2.26,3.63,3.63,0,0,1-2.17.52,3.59,3.59,0,0,1-2.67-1.32A3.86,3.86,0,0,1,257,252.2a4.9,4.9,0,0,1,1.51-3.4c.1-.1.32-.3.68-.61a3.44,3.44,0,0,0,.83-1.05,3.19,3.19,0,0,0,.29-1.41A11.78,11.78,0,0,0,259,241.6a25.15,25.15,0,0,1-1.71-4.82,19.06,19.06,0,0,1-.48-3.41c-.07-1.16-.1-2.66-.1-4.47s0-3.52.05-5.11q0-7.24.07-9.83a19.13,19.13,0,0,1,.92-5.23,11.25,11.25,0,0,1,2.9-4.65,9,9,0,0,1,2.31-1.7,6.31,6.31,0,0,1,2.8-.58,6.67,6.67,0,0,1,4.5,1.53,5,5,0,0,1,1.77,3.92,6.33,6.33,0,0,1-1.38,4.25,3.82,3.82,0,0,1-2.8,1.63c-1.13,0-1.7-.35-1.7-1.07a.7.7,0,0,1,.07-.41c.05-.05.15-.07.32-.07a1.37,1.37,0,0,0,.39-.05q3.3-.63,3.3-3.75A3.61,3.61,0,0,0,269,205a4.06,4.06,0,0,0-2.84-1.14,5.46,5.46,0,0,0-4.92,2.94c-1.16,2-1.75,4.76-1.75,8.4a4.53,4.53,0,0,0,.15.92c.1.42.18.78.24,1.07a4.36,4.36,0,0,1,.88-.46,5.73,5.73,0,0,1,1.07-.27,7.91,7.91,0,0,1,.92-.1,7.06,7.06,0,0,0,.73,0,9.28,9.28,0,0,1,.56,1.92,8.68,8.68,0,0,1,.15,1.65q0,.71,0,1.29a1.85,1.85,0,0,1-.92,1.8,2.1,2.1,0,0,0-1.27,1.8c0,.81.11,1.27.32,1.36a6.61,6.61,0,0,0,1.68.25q5.49.29,5.35,8.07,7.63-7.2,15.47-9.19a21.88,21.88,0,0,0,.56-5.09c0-1.93,0-3.78,0-5.57a24.5,24.5,0,0,0-1.29-7.93,32.79,32.79,0,0,0-3.29-7q-2-3.15-4.79-6.81t-5.57-7.1a59.62,59.62,0,0,1-5.64-8.78q-2.38-4.56-4.63-9.95a7.58,7.58,0,0,0-.85-1.46c-.37-.52-1-1.23-1.73-2.14s-1.18-1.4-1.21-1.46a16.39,16.39,0,0,1,5.2-.93,13.47,13.47,0,0,1,5.19.78,3.55,3.55,0,0,1,2,3.31,24.07,24.07,0,0,0,.46,3.63c.18.69.56,1,1.14,1,.94,0,1.48-.14,1.61-.44a8,8,0,0,0,.19-2.33,3.15,3.15,0,0,0-.53-1.8.72.72,0,0,1-.05-.49,4.66,4.66,0,0,0,.05-.49,4.34,4.34,0,0,1,1.41-2.82c1,.62,1.95,1.19,2.84,1.73a19.66,19.66,0,0,1,2.95,2.24,18.61,18.61,0,0,1,3,3.43,25.39,25.39,0,0,1,3.13,6.3,18.54,18.54,0,0,1,1.15,5.86,13.77,13.77,0,0,1-.68,3.85,16.19,16.19,0,0,0-.69,2.62q0,5.6,5,5.6a4.17,4.17,0,0,0,4.28-4.28,8.79,8.79,0,0,0-.2-2,5,5,0,0,0-.68-1.63q-2.28-3.8-3.23-5.58a6.92,6.92,0,0,1-.95-3.28v-2.87a11.78,11.78,0,0,1,.53-3.53,10.05,10.05,0,0,1,1.93-3.35,16.9,16.9,0,0,1,3.72-3.24,6.36,6.36,0,0,1,1.55,1.78,9.24,9.24,0,0,1,.69,1.87,10.4,10.4,0,0,0,.63,1.85l.39-.1a8.38,8.38,0,0,1,3.26-5.84,11.67,11.67,0,0,1,7-1.94q7.06,0,10.66,2.53a8.5,8.5,0,0,1,3.6,7.44,6.53,6.53,0,0,1-2.14,4.91,7.24,7.24,0,0,1-5.21,2.05,4.51,4.51,0,0,1-3.09-1.32,3.78,3.78,0,0,1-1.43-2.77,3.68,3.68,0,0,1,.31-1.73,3,3,0,0,1,1.58-1,4.48,4.48,0,0,0,1.05,2.58,3.34,3.34,0,0,0,2.56.92,3.68,3.68,0,0,0,2.74-1.34,4.32,4.32,0,0,0,1.24-3,6.12,6.12,0,0,0-.92-3.23,6.2,6.2,0,0,0-2.51-2.36,7.7,7.7,0,0,0-3.62-.83,10.57,10.57,0,0,0-5.38,1.51,12,12,0,0,0-4.2,4.08,10.17,10.17,0,0,0-1.61,5.5,21.16,21.16,0,0,0,.36,3.82c.25,1.32.57,2.69,1,4.14s.74,2.76,1,4a26.73,26.73,0,0,1,.48,2.82Q305.26,192.21,305.26,196.2ZM342,160.44h2.29a34.7,34.7,0,0,1-4.77,14.74,39.09,39.09,0,0,1,7.54-3.33,33.11,33.11,0,0,1,7.3-1.53v2.29a20.39,20.39,0,0,0-4.79.82,50,50,0,0,0-6,2.07,43.44,43.44,0,0,0-5.79,2.9L336.35,177a52.69,52.69,0,0,0,4-9A30,30,0,0,0,342,160.44Zm12.36,0v5.26a50.85,50.85,0,0,0-7.45,2.09l.39-1.07c.75-2.6,1.28-4.69,1.61-6.28Z"/>
  <path class="cls-1" d="M196.22,207.58a8.52,8.52,0,0,1,4.67,1.12,9,9,0,0,1,3,3.6,16,16,0,0,0-4.38.83,3.68,3.68,0,0,0-2,1.77,8.17,8.17,0,0,0-.59,3.48c0,.62.57,1.4,1.71,2.36a6,6,0,0,0,3.31,1.58c1.62.16,3.42.27,5.4.32l5.88.14q2.93.08,5.67.37a47.14,47.14,0,0,1,5.38.88,35.74,35.74,0,0,1-1.1-6.31q-.27-3.22-.36-8.34t-.34-7.69a6,6,0,0,0-1.63-3.26c-1-1.13-1.78-1.7-2.36-1.7-2.17,0-3.67.48-4.48,1.44s-1.34,2.84-1.6,5.66a8,8,0,0,1-3.56-3,8.94,8.94,0,0,1-1.11-4.67q0-4.1.19-6.67a45.3,45.3,0,0,1,1-5.33q.93-4,1.24-5.49a19.46,19.46,0,0,0,.32-3.82,11.5,11.5,0,0,0-11-11.1,7.19,7.19,0,0,0-5.06,1.9,5.94,5.94,0,0,0-2,4.48,4.49,4.49,0,0,0,1.24,3.11,3.68,3.68,0,0,0,2.75,1.36q3.17,0,3.6-3.55a2.94,2.94,0,0,1,1.51,1,3.29,3.29,0,0,1,.39,1.8,3.65,3.65,0,0,1-1.41,2.73,4.51,4.51,0,0,1-3.07,1.26,7.39,7.39,0,0,1-5.25-2,6.42,6.42,0,0,1-2.14-4.85,8.52,8.52,0,0,1,3.6-7.44q3.6-2.53,10.65-2.53a11.63,11.63,0,0,1,6.91,1.87,8.4,8.4,0,0,1,3.26,5.82l.39.09c.13-.32.31-.88.54-1.67a8.26,8.26,0,0,1,.85-2.05,7.48,7.48,0,0,1,1.58-1.77,15.81,15.81,0,0,1,4.45,4.21,8.92,8.92,0,0,1,1.56,3.79c.11,1.12.17,2.77.17,4.94a8.35,8.35,0,0,1-1.27,3.89c-1.46,2.37-2.45,4.09-3,5.16a7.79,7.79,0,0,0-.8,3.5,4.12,4.12,0,0,0,1.12,3.12,4.4,4.4,0,0,0,3.16,1.07q5,0,5-5.55a19.14,19.14,0,0,0-.68-2.63,14.14,14.14,0,0,1-.68-3.89,18.77,18.77,0,0,1,1.14-5.86,24.82,24.82,0,0,1,3.14-6.26,19,19,0,0,1,3.07-3.6A22.53,22.53,0,0,1,237,163l2.8-1.73a5.61,5.61,0,0,1,1,1.58,3.58,3.58,0,0,1,.37,1.29,7,7,0,0,1-.2,1.58,10.56,10.56,0,0,1-.29,1.15,12.7,12.7,0,0,0,.12,2.41c.09.24.6.36,1.54.36.42,0,.76-.28,1-.85a5.76,5.76,0,0,0,.49-1.73,15.77,15.77,0,0,1,.68-4,3,3,0,0,1,1.89-1.65,14.87,14.87,0,0,1,4.72-.54,18,18,0,0,1,5.26.88,19.08,19.08,0,0,1-2,2.43,12.3,12.3,0,0,0-1.94,2.68q-2.73,6.57-4.8,10.6a49.83,49.83,0,0,1-5.28,8.13l-4.93,6.3a77.5,77.5,0,0,0-5.23,7.4,34.49,34.49,0,0,0-3.36,7.24,24.82,24.82,0,0,0-1.31,8c0,1.13-.06,2.38-.08,3.75s0,2.57.1,3.62a16.08,16.08,0,0,0,.61,3.28q8,2,15.42,9.05v-1.41a7.72,7.72,0,0,1,1.36-4.62,5.11,5.11,0,0,1,4.14-2h.73a1.44,1.44,0,0,0,.58-.1.75.75,0,0,0,.39-.44,2.79,2.79,0,0,0,.15-1.07c0-.61-.42-1.17-1.27-1.65a2.08,2.08,0,0,1-.92-1.9c0-.36,0-.75,0-1.19a9.67,9.67,0,0,1,.15-1.56,10.27,10.27,0,0,1,.63-2.16,7.86,7.86,0,0,1,3.6,1c0-.26.08-.57.14-.93s.15-.74.25-1.16q0-5.55-1.73-8.47a5.47,5.47,0,0,0-5-2.92,4.19,4.19,0,0,0-2.92,1.17,3.61,3.61,0,0,0-1.26,2.72c0,2.18,1.36,3.47,4.09,3.9.09,0,.13.05.12.17a1.71,1.71,0,0,0,0,.31,1,1,0,0,1-.53.78,2,2,0,0,1-1.12.34,3.45,3.45,0,0,1-1.95-.7,5.15,5.15,0,0,1-1.68-2.1,7.21,7.21,0,0,1-.65-3.09,5.13,5.13,0,0,1,1.8-4,6.47,6.47,0,0,1,4.47-1.6,5.67,5.67,0,0,1,2.56.53,13.49,13.49,0,0,1,2.5,1.8,11.47,11.47,0,0,1,2.95,4.63,19.13,19.13,0,0,1,1,5.18q.09,2.6.09,9.9c0,2.3,0,4.66,0,7.08a31.55,31.55,0,0,1-.46,5.76,30.14,30.14,0,0,1-1.61,4.6,14.44,14.44,0,0,0-1.31,4.5,2.49,2.49,0,0,0,.53,1.85,27.54,27.54,0,0,1,2.27,2.46,3.7,3.7,0,0,1,.51,2.16,3.59,3.59,0,0,1-1.32,2.68,3.84,3.84,0,0,1-2.58,1.21,4.93,4.93,0,0,1-3.4-1.5c-.1-.1-.3-.33-.61-.68a3.3,3.3,0,0,0-1.05-.83,3.06,3.06,0,0,0-1.41-.29,11.78,11.78,0,0,0-4.13,1.26,25.72,25.72,0,0,1-4.82,1.7,19.06,19.06,0,0,1-3.41.49c-1.16.07-2.65.1-4.47.1s-3.52,0-5.11,0q-7.25,0-9.83-.07a18.78,18.78,0,0,1-5.23-.93,11.2,11.2,0,0,1-4.64-2.89,8.83,8.83,0,0,1-1.71-2.31,6.31,6.31,0,0,1-.58-2.8,6.63,6.63,0,0,1,1.53-4.5,4.93,4.93,0,0,1,3.92-1.78,6.33,6.33,0,0,1,4.26,1.39,3.82,3.82,0,0,1,1.62,2.8c0,1.13-.35,1.7-1.07,1.7a.79.79,0,0,1-.41-.07.49.49,0,0,1-.07-.32,1.37,1.37,0,0,0,0-.39c-.42-2.2-1.67-3.31-3.75-3.31a3.65,3.65,0,0,0-2.75,1.24,4.1,4.1,0,0,0-1.14,2.85,5.44,5.44,0,0,0,2.94,4.91c2,1.17,4.76,1.75,8.4,1.75a4.33,4.33,0,0,0,.92-.14l1.07-.24a5,5,0,0,1-.46-.88,5.73,5.73,0,0,1-.27-1.07,7.91,7.91,0,0,1-.1-.92,7.06,7.06,0,0,0,0-.73,9.47,9.47,0,0,1,1.92-.56,7.3,7.3,0,0,1,1.65-.15c.47,0,.9,0,1.29,0a1.84,1.84,0,0,1,1.8.93,2.11,2.11,0,0,0,1.8,1.26c.81,0,1.27-.1,1.36-.31a6.61,6.61,0,0,0,.25-1.68q.28-5.51,8.07-5.35-7.2-7.65-9.19-15.48a22.47,22.47,0,0,0-5.09-.55l-5.57,0a24.5,24.5,0,0,0-7.93,1.29,32.45,32.45,0,0,0-6.95,3.28q-3.17,2-6.82,4.8t-7.1,5.57a60.46,60.46,0,0,1-8.78,5.64q-4.54,2.38-10,4.62a7.67,7.67,0,0,0-1.46.86c-.52.37-1.23.94-2.14,1.72s-1.4,1.19-1.46,1.22a16.45,16.45,0,0,1-.93-5.21,13.41,13.41,0,0,1,.78-5.18,3.55,3.55,0,0,1,3.31-2,24.07,24.07,0,0,0,3.63-.46c.69-.18,1-.56,1-1.14,0-.95-.14-1.48-.44-1.61a7.82,7.82,0,0,0-2.33-.2,3.08,3.08,0,0,0-1.8.54.78.78,0,0,1-.49.05l-.48-.05a4.34,4.34,0,0,1-2.83-1.41c.62-1,1.2-2,1.73-2.85A20.15,20.15,0,0,1,165.5,234a19,19,0,0,1,3.43-3,26,26,0,0,1,6.3-3.14,18.77,18.77,0,0,1,5.86-1.14,13.77,13.77,0,0,1,3.85.68,15.61,15.61,0,0,0,2.62.68q5.59,0,5.6-5a4.19,4.19,0,0,0-1.22-3.07,4.14,4.14,0,0,0-3.06-1.21,8.83,8.83,0,0,0-2,.19,5.38,5.38,0,0,0-1.63.68q-3.79,2.3-5.57,3.24a7.1,7.1,0,0,1-3.29,1h-2.87a11.48,11.48,0,0,1-3.53-.54,9.94,9.94,0,0,1-3.35-1.92,16.9,16.9,0,0,1-3.24-3.72,6.6,6.6,0,0,1,1.78-1.56,9.27,9.27,0,0,1,1.87-.68,10.4,10.4,0,0,0,1.85-.63l-.1-.39a8.42,8.42,0,0,1-5.84-3.26,11.68,11.68,0,0,1-1.94-7q0-7,2.53-10.65A8.5,8.5,0,0,1,171,190a6.53,6.53,0,0,1,4.91,2.14,7.23,7.23,0,0,1,2,5.2,4.47,4.47,0,0,1-1.32,3.09,3.76,3.76,0,0,1-2.77,1.44,3.66,3.66,0,0,1-1.73-.32,3,3,0,0,1-1-1.58,4.54,4.54,0,0,0,2.58-1,3.34,3.34,0,0,0,.92-2.56,3.68,3.68,0,0,0-1.34-2.75,4.37,4.37,0,0,0-3-1.24,6.13,6.13,0,0,0-3.23.93,6.24,6.24,0,0,0-2.36,2.5,7.74,7.74,0,0,0-.83,3.63,10.51,10.51,0,0,0,1.51,5.37,11.86,11.86,0,0,0,4.09,4.21,10.2,10.2,0,0,0,5.49,1.61,20.32,20.32,0,0,0,3.82-.37c1.32-.24,2.69-.57,4.14-1s2.76-.74,4-1a24.08,24.08,0,0,1,2.83-.48Q192.23,207.59,196.22,207.58Zm-35.76-36.73v-2.29a34.51,34.51,0,0,1,14.75,4.77,38.79,38.79,0,0,1-3.34-7.54,33.82,33.82,0,0,1-1.53-7.3h2.29a20.47,20.47,0,0,0,.82,4.79,50,50,0,0,0,2.07,6,43.44,43.44,0,0,0,2.9,5.79L177,176.49a53.14,53.14,0,0,0-9-4A29.1,29.1,0,0,0,160.46,170.85Zm0-12.36h5.26a50.71,50.71,0,0,0,2.09,7.44l-1.07-.39c-2.6-.74-4.69-1.28-6.28-1.6Z"/>
  <path class="cls-1" d="M207.58,316.33a8.56,8.56,0,0,1,1.12-4.67,9,9,0,0,1,3.6-3,15.91,15.91,0,0,0,.83,4.38,3.67,3.67,0,0,0,1.77,2.05,8.19,8.19,0,0,0,3.48.58c.62,0,1.4-.57,2.36-1.7a6,6,0,0,0,1.58-3.31c.16-1.62.27-3.42.32-5.4s.1-3.94.14-5.89.17-3.83.37-5.67a47,47,0,0,1,.88-5.37,35.73,35.73,0,0,1-6.31,1.09q-3.22.27-8.34.37c-3.41.06-6,.18-7.69.34a5.94,5.94,0,0,0-3.26,1.63c-1.13,1-1.7,1.77-1.7,2.36q0,3.25,1.44,4.47t5.66,1.61a8,8,0,0,1-3,3.55,8.85,8.85,0,0,1-4.67,1.12q-4.1,0-6.67-.2a41.31,41.31,0,0,1-5.33-1c-2.64-.61-4.47-1-5.49-1.24a19.55,19.55,0,0,0-3.82-.31,11.48,11.48,0,0,0-11.1,11,7.18,7.18,0,0,0,1.9,5.06,5.94,5.94,0,0,0,4.48,2,4.49,4.49,0,0,0,3.11-1.24,3.64,3.64,0,0,0,1.36-2.75q0-3.15-3.55-3.6a3,3,0,0,1,1-1.5,3.29,3.29,0,0,1,1.8-.39,3.65,3.65,0,0,1,2.73,1.41,4.51,4.51,0,0,1,1.26,3.06,7.4,7.4,0,0,1-2,5.26,6.46,6.46,0,0,1-4.85,2.14,8.52,8.52,0,0,1-7.44-3.6q-2.53-3.6-2.53-10.66a11.67,11.67,0,0,1,1.87-6.91,8.44,8.44,0,0,1,5.82-3.26l.09-.39c-.32-.13-.88-.3-1.67-.53a8.66,8.66,0,0,1-2.05-.85,7.71,7.71,0,0,1-1.77-1.58,15.67,15.67,0,0,1,4.21-4.45,8.67,8.67,0,0,1,3.79-1.56c1.12-.12,2.77-.17,4.94-.17a8.43,8.43,0,0,1,3.89,1.26q3.56,2.19,5.16,3a7.79,7.79,0,0,0,3.5.8,4.16,4.16,0,0,0,3.12-1.12,4.41,4.41,0,0,0,1.07-3.16q0-5-5.55-5a19.14,19.14,0,0,0-2.63.68,13.83,13.83,0,0,1-3.89.69,18.82,18.82,0,0,1-5.86-1.15,24.82,24.82,0,0,1-6.26-3.14,19,19,0,0,1-3.6-3.06,22.58,22.58,0,0,1-2.16-2.9c-.57-.92-1.14-1.85-1.73-2.79a5.44,5.44,0,0,1,1.58-1.05,3.73,3.73,0,0,1,1.29-.36,7,7,0,0,1,1.58.19c.57.13.95.23,1.15.29a12.7,12.7,0,0,0,2.41-.12q.36-.12.36-1.53c0-.42-.28-.76-.85-1a5.48,5.48,0,0,0-1.73-.49,16.24,16.24,0,0,1-4-.68,3,3,0,0,1-1.65-1.9,14.78,14.78,0,0,1-.54-4.72,17.9,17.9,0,0,1,.88-5.25,19.68,19.68,0,0,1,2.43,1.94,12.09,12.09,0,0,0,2.68,2q6.57,2.73,10.6,4.79a50.5,50.5,0,0,1,8.13,5.28l6.3,4.94a79.35,79.35,0,0,0,7.4,5.23,35.52,35.52,0,0,0,7.24,3.36,25.1,25.1,0,0,0,8,1.31c1.13,0,2.38.06,3.75.07s2.57,0,3.62-.09a17.57,17.57,0,0,0,3.28-.61q2-8,9.05-15.43h-1.41a7.72,7.72,0,0,1-4.62-1.36,5.09,5.09,0,0,1-2-4.13v-.73a1.52,1.52,0,0,0-.1-.59.75.75,0,0,0-.44-.39,3,3,0,0,0-1.07-.14c-.61,0-1.17.42-1.65,1.26a2.07,2.07,0,0,1-1.9.93c-.36,0-.75.05-1.19.05a9.67,9.67,0,0,1-1.56-.15,11.64,11.64,0,0,1-2.16-.63,7.78,7.78,0,0,1,1-3.6c-.26,0-.57-.08-.93-.15s-.74-.14-1.16-.24c-3.7,0-6.52.57-8.47,1.73a5.47,5.47,0,0,0-2.92,5,4.17,4.17,0,0,0,1.17,2.92,3.62,3.62,0,0,0,2.72,1.27c2.18,0,3.47-1.37,3.9-4.09,0-.1.05-.14.17-.12l.31,0a1,1,0,0,1,.78.54,2,2,0,0,1,.34,1.12,3.45,3.45,0,0,1-.7,1.94,5.15,5.15,0,0,1-2.1,1.68,7.07,7.07,0,0,1-3.09.66,5.13,5.13,0,0,1-4-1.8,6.48,6.48,0,0,1-1.6-4.48,5.62,5.62,0,0,1,.53-2.55,13.51,13.51,0,0,1,1.8-2.51,11.56,11.56,0,0,1,4.63-2.94,18.39,18.39,0,0,1,5.18-.95q2.6-.1,9.9-.1l7.08,0a30.68,30.68,0,0,1,5.76.46,29.79,29.79,0,0,1,4.6,1.6,14.26,14.26,0,0,0,4.5,1.32,2.45,2.45,0,0,0,1.85-.54,25.47,25.47,0,0,1,2.46-2.26,3.7,3.7,0,0,1,2.16-.51,3.61,3.61,0,0,1,2.68,1.31,3.88,3.88,0,0,1,1.21,2.58,5,5,0,0,1-1.5,3.41l-.68.61a3.16,3.16,0,0,0-.83,1,3.06,3.06,0,0,0-.29,1.41,11.76,11.76,0,0,0,1.26,4.14,25.66,25.66,0,0,1,1.7,4.81,19.2,19.2,0,0,1,.49,3.41c.07,1.17.1,2.66.1,4.48s0,3.52,0,5.11q0,7.25-.07,9.82a18.72,18.72,0,0,1-.93,5.23,11.23,11.23,0,0,1-2.89,4.65,8.78,8.78,0,0,1-2.31,1.7,6.31,6.31,0,0,1-2.8.59,6.59,6.59,0,0,1-4.5-1.54,4.91,4.91,0,0,1-1.78-3.91,6.33,6.33,0,0,1,1.39-4.26,3.8,3.8,0,0,1,2.8-1.63c1.13,0,1.7.36,1.7,1.07a.74.74,0,0,1-.07.41.48.48,0,0,1-.32.08,1.09,1.09,0,0,0-.39.05c-2.2.42-3.31,1.67-3.31,3.74a3.63,3.63,0,0,0,1.24,2.75,4.1,4.1,0,0,0,2.85,1.14,5.44,5.44,0,0,0,4.91-2.94q1.75-2.94,1.75-8.39a4.4,4.4,0,0,0-.14-.93c-.1-.42-.18-.77-.24-1.07a4.17,4.17,0,0,1-2,.73,6.16,6.16,0,0,1-.92.1c-.2,0-.44,0-.73.05a9.65,9.65,0,0,1-.56-1.92,7.43,7.43,0,0,1-.15-1.66c0-.47,0-.9,0-1.29a1.86,1.86,0,0,1,.93-1.8,2.09,2.09,0,0,0,1.26-1.8c0-.81-.1-1.26-.31-1.36a6.32,6.32,0,0,0-1.68-.24q-5.51-.3-5.35-8.08-7.65,7.2-15.48,9.2a22.38,22.38,0,0,0-.55,5.08c0,1.93,0,3.79,0,5.57a24.46,24.46,0,0,0,1.29,7.93,32.76,32.76,0,0,0,3.28,7q2,3.17,4.8,6.81t5.57,7.1a60.55,60.55,0,0,1,5.64,8.79q2.38,4.54,4.62,9.95a8,8,0,0,0,.86,1.46c.37.52.94,1.23,1.72,2.14s1.19,1.39,1.22,1.46a16.71,16.71,0,0,1-5.21.92,13.41,13.41,0,0,1-5.18-.78,3.55,3.55,0,0,1-2-3.31,24.07,24.07,0,0,0-.46-3.62q-.27-1.05-1.14-1.05c-.95,0-1.48.15-1.61.44a7.86,7.86,0,0,0-.2,2.34,3.08,3.08,0,0,0,.54,1.8.75.75,0,0,1,.05.48,4.66,4.66,0,0,0-.05.49,4.3,4.3,0,0,1-1.41,2.82l-2.85-1.73a20,20,0,0,1-2.94-2.23,19,19,0,0,1-3-3.43,26.13,26.13,0,0,1-3.14-6.3,18.83,18.83,0,0,1-1.14-5.87,13.65,13.65,0,0,1,.68-3.84,15.6,15.6,0,0,0,.68-2.63q0-5.6-5-5.59a4.14,4.14,0,0,0-4.28,4.28,9,9,0,0,0,.19,2,5.38,5.38,0,0,0,.68,1.63q2.3,3.8,3.24,5.57a7.07,7.07,0,0,1,1,3.28V339a11.43,11.43,0,0,1-.54,3.53,10,10,0,0,1-1.92,3.36,16.62,16.62,0,0,1-3.72,3.23,6.74,6.74,0,0,1-1.56-1.77,9.5,9.5,0,0,1-.68-1.87,10.13,10.13,0,0,0-.63-1.85l-.39.09a8.4,8.4,0,0,1-3.26,5.84,11.62,11.62,0,0,1-7,1.95q-7,0-10.65-2.53a8.53,8.53,0,0,1-3.6-7.45,6.53,6.53,0,0,1,2.14-4.91,7.26,7.26,0,0,1,5.2-2,4.46,4.46,0,0,1,3.09,1.31,3.78,3.78,0,0,1,1.44,2.77,3.64,3.64,0,0,1-.32,1.73,3,3,0,0,1-1.58,1.05,4.49,4.49,0,0,0-1-2.58,3.3,3.3,0,0,0-2.56-.93,3.72,3.72,0,0,0-2.75,1.34,4.39,4.39,0,0,0-1.24,3,6.14,6.14,0,0,0,.93,3.24,6.24,6.24,0,0,0,2.5,2.36,7.74,7.74,0,0,0,3.63.83,10.61,10.61,0,0,0,5.37-1.51,12,12,0,0,0,4.21-4.09,10.23,10.23,0,0,0,1.61-5.5,20.48,20.48,0,0,0-.37-3.82c-.24-1.31-.57-2.69-1-4.13s-.74-2.77-1-4a24.33,24.33,0,0,1-.48-2.82Q207.59,320.32,207.58,316.33Zm-36.73,35.76h-2.29a34.47,34.47,0,0,1,4.77-14.74,38.75,38.75,0,0,1-7.54,3.33,33.87,33.87,0,0,1-7.3,1.54v-2.29a20.56,20.56,0,0,0,4.79-.83,50,50,0,0,0,6-2.07,43.41,43.41,0,0,0,5.79-2.89l1.46,1.41a52.79,52.79,0,0,0-4,9A29,29,0,0,0,170.85,352.09Zm-12.36,0v-5.25a50.71,50.71,0,0,0,7.44-2.09l-.39,1.07c-.74,2.59-1.28,4.68-1.6,6.27Z"/>
  <path class="cls-2" d="M352.37,359.23v-5.18H310.82a92.2,92.2,0,0,0-13.94,1,56.8,56.8,0,0,0-10.36,2.46,27.61,27.61,0,0,0-6.18,2.94c-1.38,1-2.13,1.78-2.26,2.41l.38.75,2.4.43a20.33,20.33,0,0,1,5.19,1.25,2.71,2.71,0,0,1,1.61,2.71,2,2,0,0,1-.74,1.6,2.63,2.63,0,0,1-1.76.62,3.45,3.45,0,0,1-1.56-.33l-2.93-1.23a5.39,5.39,0,0,0-2.31-.38,12.31,12.31,0,0,0-6,1.49,18.89,18.89,0,0,0-4.79,3.7,41.09,41.09,0,0,0-3.8,4.72,26.4,26.4,0,0,1-2,2.74,5.05,5.05,0,0,0,2.5.66,7.46,7.46,0,0,0,1-.1l.66-.09,3.58-.57a3.36,3.36,0,0,1,2.29.38,1.91,1.91,0,0,1,1.21,1.74,1.78,1.78,0,0,1-.74,1.44,2.74,2.74,0,0,1-1.81.59h-2q-2.13,0-4.81,2.6a17.39,17.39,0,0,0-3.21,4.38,31.43,31.43,0,0,0-2.22,6.16c-.66,2.5-1,3.78-1,3.84l-.52,1.94.52.42.56-.09a12.38,12.38,0,0,0,2.5-.62l2.64-1.22.85-.19.57.47a13.16,13.16,0,0,1-2.27,4.58q-2,3-3.67,5.73a12.17,12.17,0,0,0-1.89,5.12l.19.52.33.28.19.56v.48c0-.57-.12.7-.36,3.79s-.35,6.1-.35,9Q256.43,448,260,448a2,2,0,0,0,2-1.58,75.83,75.83,0,0,0,1.7-8.23c.77-4.44,1.75-9.07,2.94-13.92a84.59,84.59,0,0,1,7.74-20,73.42,73.42,0,0,1,12-16.3,69.93,69.93,0,0,1,15.87-12.12,80.33,80.33,0,0,1,19.27-7.65A55.91,55.91,0,0,1,328,367c2.49-.33,4.85-.56,7.1-.71s5.14-.27,8.66-.4c.25,0,.64,0,1.18,0l1.41-.1h6v-2.12h-1.08q-7.55,0-12.83.16a101.9,101.9,0,0,0-10.95,1,76.32,76.32,0,0,0-11.86,2.74A80.48,80.48,0,0,0,302.7,373a70.73,70.73,0,0,0-13.39,9.2,76.18,76.18,0,0,0-11.18,12.1,78.18,78.18,0,0,0-8.42,14.17,76.07,76.07,0,0,0-5.17,15.43c-.88,4.46-1.53,8-2,10.56s-.73,4.58-.94,6A35,35,0,0,1,261,444a4.54,4.54,0,0,1-.95,2.06c-.34-.07-.64-.74-.89-2a26.51,26.51,0,0,1-.38-4.91,85.21,85.21,0,0,1,4.2-27,75.75,75.75,0,0,1,12.19-22.93A73.54,73.54,0,0,1,294.28,372a82.34,82.34,0,0,1,25.07-10.24,100.43,100.43,0,0,1,12.93-1.86q7.46-.63,17.12-.64Zm-12.64,84.16h-1.08l-4,.37c-2.64.26-5.47.38-8.49.38a56.49,56.49,0,0,1-10.07-.75,30.42,30.42,0,0,1-8.94-3.49,22.74,22.74,0,0,1-5.59-4,32.77,32.77,0,0,1-3.79-5.18q5.47,3.76,10.42,3.77a11.25,11.25,0,0,0,5.83-1.63,13,13,0,0,0,4.46-4.34,10.5,10.5,0,0,0,1.69-5.64,9.63,9.63,0,0,0-2.4-6.5,7.25,7.25,0,0,0-5.62-2.79,4.21,4.21,0,0,0-3,1,3.27,3.27,0,0,0-1.16,2l.76.76,1.08-.57.76-.57a1.86,1.86,0,0,1,1.18-.33,4.59,4.59,0,0,1,2.76,1,7.41,7.41,0,0,1,2.12,2.55,7.17,7.17,0,0,1,.82,3.37,4.47,4.47,0,0,1-.87,2.88,2.5,2.5,0,0,1-2,1.08c-.59,0-.94-.39-1-1.18a5.69,5.69,0,0,0-2.2-4.12,6.92,6.92,0,0,0-4.27-1.4,7,7,0,0,0-3.13.71,6.22,6.22,0,0,0-2.34,2,4.73,4.73,0,0,0-.94,2.66l-.1,1.28-.56,1.13a2.85,2.85,0,0,1-1.46,1.18q-2.08-.28-3.4-3.51a20.41,20.41,0,0,1-1.32-7.72,22.64,22.64,0,0,1,3-11.36,22.19,22.19,0,0,1,8-8.28,21,21,0,0,1,11-3.05q6.23,0,10.07,2.69t3.84,6.7a4.56,4.56,0,0,1-1.15,3.14,3.65,3.65,0,0,1-2.81,1.3,3.83,3.83,0,0,1-2.38-.9A4.49,4.49,0,0,1,322,405.7l-.8-2.41a3.55,3.55,0,0,0-1.51,3.21,5.72,5.72,0,0,0,2.17,4.5,7.85,7.85,0,0,0,5.33,1.87,10,10,0,0,0,8.49-4.67,8.41,8.41,0,0,0,1.37-4.53,7.88,7.88,0,0,0-.92-3.66,6.39,6.39,0,0,0-2.34-2.61l-3.3-1.94c-1-.6-1.56-1.27-1.56-2a1.55,1.55,0,0,1,.62-1.25,2.3,2.3,0,0,1,1.51-.49,5.67,5.67,0,0,1,2,.59,6.65,6.65,0,0,0,1.75.59q1.74,0,1.74-1v-.19a19.27,19.27,0,0,1-1.76-2.38,36.23,36.23,0,0,0-2.93-3.75,13.72,13.72,0,0,0-3.94-2.93,12.08,12.08,0,0,0-5.66-1.27,11.32,11.32,0,0,0-2.78.3,10.82,10.82,0,0,0-1.75.59c-.37.19-.74.38-1.08.57l-1.23.47-.71-.28-.47-.94a3.71,3.71,0,0,1,.47-1.47l.29-1.18-.38-1c-1.64.4-3.23.81-4.79,1.2a21.13,21.13,0,0,0-3.87,1.32,6.11,6.11,0,0,0-2.38,1.91,5.19,5.19,0,0,0-.85,3.07,2.89,2.89,0,0,0,.88,2.45,10.49,10.49,0,0,0,3.27,1.32,1.07,1.07,0,0,1,.9,1.18q0,1-5.52,4.34a21.94,21.94,0,0,0-5.9,5.47,25.39,25.39,0,0,0-3.77,7.41,26.92,26.92,0,0,0-1.32,8.3,31.83,31.83,0,0,0,1.39,8.68,36.92,36.92,0,0,1,1.39,5.71,3,3,0,0,1-.47,1.65,16.22,16.22,0,0,0-2.9-2.39,5.8,5.8,0,0,0-3.09-.82q-4.43,0-6.18,6.46a17.17,17.17,0,0,1-.54,1.7,2.8,2.8,0,0,1-.83.9,2.88,2.88,0,0,0,2.5,1.46,3.47,3.47,0,0,0,2.22-.85l.71-.61.94-.29c.85,0,1.28.55,1.28,1.65a3.15,3.15,0,0,1-1.68,2.72,7.63,7.63,0,0,1-4.13,1.06,8.55,8.55,0,0,1-4.29-1.09,8.18,8.18,0,0,1-3.07-3,7.64,7.64,0,0,1-1.13-4,16.9,16.9,0,0,1,.38-2.88,22.08,22.08,0,0,0,.38-2.26,1.6,1.6,0,0,0-.85-1.32l-1.46.75a10.71,10.71,0,0,0-1.75,5.9,12.16,12.16,0,0,0,3.49,8.91,11.82,11.82,0,0,0,8.78,3.54,13.16,13.16,0,0,0,7-1.91,13.4,13.4,0,0,0,4.91-5.31,16,16,0,0,0,1.79-7.54v-1.66a38.27,38.27,0,0,0,2.5,4.23,20.18,20.18,0,0,0,3.42,3.56,35.48,35.48,0,0,0,5.78,3.82,40,40,0,0,0,7.62,3.16,37.53,37.53,0,0,0,6.32,1.27q2.81.28,6.91.29l23.77-.38V442.3l-.94.14c-3.36.32-5.85.48-7.45.48a5.48,5.48,0,0,1-2.72-.55,1.37,1.37,0,0,1-.77-1.48l.19-1.18a16.2,16.2,0,0,1,.58-1.61,7.4,7.4,0,0,0,.59-2.73,6,6,0,0,0-1.53-4.27,5.32,5.32,0,0,0-4.08-1.63,7.43,7.43,0,0,0-5.05,1.77,5.52,5.52,0,0,0-2,4.32,5.84,5.84,0,0,0,2.68,5A19.84,19.84,0,0,0,339.73,443.39Z"/>
  <path class="cls-2" d="M359.54,160.44h-5.19V202a92.3,92.3,0,0,0,1,13.94,56.47,56.47,0,0,0,2.46,10.35,26.72,26.72,0,0,0,3,6.18c1,1.39,1.77,2.14,2.4,2.27l.76-.38.42-2.41a20.77,20.77,0,0,1,1.25-5.19,2.72,2.72,0,0,1,2.71-1.6,2,2,0,0,1,1.61.73,2.66,2.66,0,0,1,.61,1.77,3.45,3.45,0,0,1-.33,1.56l-1.23,2.92a5.45,5.45,0,0,0-.37,2.31,12.34,12.34,0,0,0,1.48,6,19.3,19.3,0,0,0,3.7,4.79,41.88,41.88,0,0,0,4.72,3.79,27.33,27.33,0,0,1,2.74,2,5.05,5.05,0,0,0,.66-2.5,6.07,6.07,0,0,0-.1-1q-.09-.62-.09-.66l-.57-3.59a3.43,3.43,0,0,1,.38-2.29,1.91,1.91,0,0,1,1.75-1.2,1.77,1.77,0,0,1,1.43.73,2.77,2.77,0,0,1,.59,1.82v2c0,1.41.87,3,2.6,4.81a17.26,17.26,0,0,0,4.39,3.21,31.77,31.77,0,0,0,6.15,2.21c2.5.66,3.78,1,3.85,1l1.93.52.42-.52-.09-.57a13.71,13.71,0,0,0-.61-2.5L402.65,250l-.19-.85.47-.56a13,13,0,0,1,4.58,2.26q3,2,5.73,3.68a12.31,12.31,0,0,0,5.12,1.89l.52-.19.28-.33.57-.19h.47c-.57,0,.7.12,3.8.35s6.09.36,9,.36q15.33,0,15.33-3.59a2,2,0,0,0-1.58-2,75.83,75.83,0,0,0-8.23-1.7q-6.64-1.15-13.92-2.95a84.15,84.15,0,0,1-20-7.73,74,74,0,0,1-16.3-12,70,70,0,0,1-12.12-15.88,80.14,80.14,0,0,1-7.64-19.27,53,53,0,0,1-1.21-6.46q-.49-3.72-.7-7.1c-.15-2.25-.28-5.13-.41-8.65,0-.25,0-.65,0-1.18s-.07-1-.1-1.42v-6H364v1.09q0,7.54.17,12.83a101.42,101.42,0,0,0,1,10.94,75.8,75.8,0,0,0,2.74,11.86,80.64,80.64,0,0,0,5.42,13,71.27,71.27,0,0,0,9.2,13.4,76.61,76.61,0,0,0,12.1,11.18,78.84,78.84,0,0,0,14.18,8.42,75.34,75.34,0,0,0,15.42,5.16q6.7,1.32,10.57,2c2.58.43,4.57.74,6,1a35.24,35.24,0,0,1,3.61.68,4.61,4.61,0,0,1,2.05.94c-.07.35-.74.65-2,.9a26.51,26.51,0,0,1-4.91.38,85.21,85.21,0,0,1-27-4.2,75.77,75.77,0,0,1-22.93-12.2,73.56,73.56,0,0,1-17.24-19.15A82.12,82.12,0,0,1,362,193.46a98.38,98.38,0,0,1-1.87-12.92q-.63-7.46-.63-17.13Zm84.15,12.64v1.09l.38,4q.38,4,.37,8.49a56.41,56.41,0,0,1-.75,10.07,30.14,30.14,0,0,1-3.49,8.94,22.82,22.82,0,0,1-4,5.59,32.73,32.73,0,0,1-5.19,3.8q3.76-5.47,3.77-10.43a11.24,11.24,0,0,0-1.63-5.82,12.87,12.87,0,0,0-4.34-4.46,10.45,10.45,0,0,0-5.63-1.7,9.6,9.6,0,0,0-6.51,2.41,7.21,7.21,0,0,0-2.79,5.61,4.24,4.24,0,0,0,1,3,3.28,3.28,0,0,0,2,1.15l.76-.75-.57-1.09c-.16-.22-.34-.47-.56-.75a1.88,1.88,0,0,1-.33-1.18,4.54,4.54,0,0,1,1-2.76,7.4,7.4,0,0,1,2.55-2.12,7.18,7.18,0,0,1,3.37-.83,4.46,4.46,0,0,1,2.88.87,2.52,2.52,0,0,1,1.08,2c0,.6-.39,1-1.17,1a5.74,5.74,0,0,0-4.13,2.19,7,7,0,0,0-1.39,4.27,7.05,7.05,0,0,0,.7,3.14,6.2,6.2,0,0,0,2,2.33,4.77,4.77,0,0,0,2.67,1l1.27.09,1.13.57a2.85,2.85,0,0,1,1.18,1.46c-.19,1.38-1.36,2.52-3.51,3.4a20.39,20.39,0,0,1-7.71,1.32,22.84,22.84,0,0,1-19.65-11,21,21,0,0,1-3-11q0-6.23,2.68-10.07t6.7-3.85a4.55,4.55,0,0,1,3.14,1.16,3.63,3.63,0,0,1,1.3,2.81,3.85,3.85,0,0,1-.9,2.38,4.55,4.55,0,0,1-2.31,1.58l-2.41.8a3.55,3.55,0,0,0,3.21,1.51,5.75,5.75,0,0,0,4.51-2.17,7.91,7.91,0,0,0,1.86-5.33,9.94,9.94,0,0,0-1.25-4.86,9.77,9.77,0,0,0-3.42-3.63,8.41,8.41,0,0,0-4.53-1.37,7.81,7.81,0,0,0-3.65.92,6.33,6.33,0,0,0-2.62,2.33l-1.94,3.31c-.59,1-1.27,1.55-2,1.55a1.53,1.53,0,0,1-1.25-.61,2.27,2.27,0,0,1-.5-1.51,5.93,5.93,0,0,1,.59-2,6.51,6.51,0,0,0,.59-1.74c0-1.17-.33-1.75-1-1.75H392a20,20,0,0,1-2.38,1.77,34.92,34.92,0,0,0-3.75,2.93,13.81,13.81,0,0,0-2.93,3.93,12.13,12.13,0,0,0-1.27,5.66,11,11,0,0,0,.31,2.79,9,9,0,0,0,.59,1.74c.18.38.37.74.56,1.09l.47,1.22-.28.71-.94.47a3.55,3.55,0,0,1-1.47-.47l-1.17-.28-1,.38,1.2,4.78a20.61,20.61,0,0,0,1.32,3.87,6.12,6.12,0,0,0,1.91,2.38,5.12,5.12,0,0,0,3.07.85,2.92,2.92,0,0,0,2.45-.87A10.47,10.47,0,0,0,390,206a1.06,1.06,0,0,1,1.18-.89q1,0,4.34,5.51a21.65,21.65,0,0,0,5.47,5.9,25.15,25.15,0,0,0,7.41,3.77,26.63,26.63,0,0,0,8.3,1.33,31.87,31.87,0,0,0,8.68-1.4,38.29,38.29,0,0,1,5.71-1.39,3.13,3.13,0,0,1,1.65.47,16.15,16.15,0,0,0-2.38,2.91,5.75,5.75,0,0,0-.83,3.08q0,4.44,6.46,6.18c.88.26,1.45.44,1.7.55a2.74,2.74,0,0,1,.9.82,2.87,2.87,0,0,0,1.46-2.5,3.41,3.41,0,0,0-.85-2.21l-.61-.71-.29-.95c0-.84.55-1.27,1.66-1.27a3.14,3.14,0,0,1,2.71,1.68,7.51,7.51,0,0,1,1.06,4.12,8.59,8.59,0,0,1-1.09,4.3,8.15,8.15,0,0,1-3,3.06,7.54,7.54,0,0,1-4,1.13,16.64,16.64,0,0,1-2.88-.37,19.32,19.32,0,0,0-2.26-.38,1.59,1.59,0,0,0-1.32.85L430,241a10.82,10.82,0,0,0,5.9,1.75,12.15,12.15,0,0,0,8.91-3.5,11.79,11.79,0,0,0,3.54-8.77,13.22,13.22,0,0,0-1.91-7,13.38,13.38,0,0,0-5.31-4.9,15.84,15.84,0,0,0-7.54-1.8H431.9a37.42,37.42,0,0,0,4.22-2.5,19.47,19.47,0,0,0,3.56-3.42,35.35,35.35,0,0,0,3.82-5.77,39.31,39.31,0,0,0,3.16-7.62,36.75,36.75,0,0,0,1.27-6.32c.19-1.87.29-4.18.29-6.91l-.38-23.78H442.6l.15.95c.31,3.36.47,5.85.47,7.45a5.33,5.33,0,0,1-.55,2.71,1.39,1.39,0,0,1-1.48.78l-1.18-.19c-.06,0-.6-.2-1.6-.59a7.7,7.7,0,0,0-2.74-.59,6,6,0,0,0-4.27,1.53,5.38,5.38,0,0,0-1.63,4.08,7.39,7.39,0,0,0,1.77,5.05,5.53,5.53,0,0,0,4.32,2,5.85,5.85,0,0,0,5-2.69A19.78,19.78,0,0,0,443.69,173.08Z"/>
  <path class="cls-2" d="M160.46,153.3v5.19H202a90.94,90.94,0,0,0,13.94-1,55.73,55.73,0,0,0,10.35-2.45,26.72,26.72,0,0,0,6.18-2.95c1.39-1,2.14-1.78,2.27-2.4l-.38-.76-2.41-.42a21.23,21.23,0,0,1-5.19-1.25,2.73,2.73,0,0,1-1.6-2.72,2,2,0,0,1,.73-1.6,2.66,2.66,0,0,1,1.77-.61,3.45,3.45,0,0,1,1.56.33l2.92,1.22a5.46,5.46,0,0,0,2.31.38,12.21,12.21,0,0,0,6-1.49,19.07,19.07,0,0,0,4.79-3.7,40,40,0,0,0,3.79-4.72,27.88,27.88,0,0,1,2-2.73,5.05,5.05,0,0,0-2.5-.66,7.17,7.17,0,0,0-1,.09l-.66.1-3.59.56a3.42,3.42,0,0,1-2.29-.37,1.91,1.91,0,0,1-1.2-1.75,1.77,1.77,0,0,1,.73-1.44,2.84,2.84,0,0,1,1.82-.59h2c1.41,0,3-.86,4.81-2.59a17.44,17.44,0,0,0,3.21-4.39,31.77,31.77,0,0,0,2.21-6.15c.66-2.5,1-3.79,1-3.85l.52-1.93-.52-.43-.57.1a12.87,12.87,0,0,0-2.5.61L250,110.19l-.85.18-.56-.47a13.06,13.06,0,0,1,2.26-4.57c1.35-2,2.58-3.93,3.68-5.73a12.36,12.36,0,0,0,1.89-5.12l-.19-.52-.33-.28-.19-.57v-.47c0,.56.12-.7.35-3.8s.36-6.09.36-9q0-15.33-3.59-15.33a2,2,0,0,0-2,1.58,75.25,75.25,0,0,0-1.7,8.23q-1.16,6.64-3,13.91a84.39,84.39,0,0,1-7.73,20,74.28,74.28,0,0,1-12,16.3,70,70,0,0,1-15.88,12.12,80.07,80.07,0,0,1-19.26,7.64,55.71,55.71,0,0,1-6.47,1.2q-3.72.49-7.1.71c-2.24.14-5.13.28-8.65.4-.25,0-.65,0-1.18.05l-1.42.09h-6v2.13h1.09q7.55,0,12.83-.17a99,99,0,0,0,10.94-1A75,75,0,0,0,197.19,145a80.11,80.11,0,0,0,12.94-5.43,70.44,70.44,0,0,0,13.4-9.19,76.61,76.61,0,0,0,11.18-12.1,79.19,79.19,0,0,0,8.42-14.18,75.55,75.55,0,0,0,5.16-15.42q1.34-6.71,2-10.57c.43-2.58.74-4.58.95-6a34.72,34.72,0,0,1,.68-3.61,4.61,4.61,0,0,1,.94-2.05c.35.06.65.74.9,2a26.39,26.39,0,0,1,.38,4.9,85.31,85.31,0,0,1-4.2,27,75.62,75.62,0,0,1-12.2,22.92,73.39,73.39,0,0,1-19.15,17.24,81.89,81.89,0,0,1-25.07,10.24,96.86,96.86,0,0,1-12.92,1.86q-7.45.65-17.13.64ZM173.1,69.15h1.09l4-.38q4-.37,8.49-.38a55.38,55.38,0,0,1,10.07.76,29.87,29.87,0,0,1,8.94,3.49,22.29,22.29,0,0,1,5.59,4,32.73,32.73,0,0,1,3.8,5.19Q209.57,78,204.61,78a11.32,11.32,0,0,0-5.82,1.62A13,13,0,0,0,194.33,84a10.51,10.51,0,0,0-1.7,5.64A9.68,9.68,0,0,0,195,96.13a7.23,7.23,0,0,0,5.61,2.78,4.24,4.24,0,0,0,3-1,3.19,3.19,0,0,0,1.15-2l-.75-.75L203,95.7l-.75.57a1.88,1.88,0,0,1-1.18.33,4.51,4.51,0,0,1-2.76-1,7.38,7.38,0,0,1-2.12-2.54,7.22,7.22,0,0,1-.83-3.38,4.45,4.45,0,0,1,.87-2.87,2.51,2.51,0,0,1,2-1.09c.6,0,.95.4,1,1.18a5.74,5.74,0,0,0,2.19,4.13,7,7,0,0,0,4.27,1.39,7.06,7.06,0,0,0,3.14-.71,6.09,6.09,0,0,0,2.33-1.95,4.8,4.8,0,0,0,.95-2.67l.09-1.27.57-1.14a2.9,2.9,0,0,1,1.46-1.18c1.38.19,2.52,1.36,3.4,3.52a20.32,20.32,0,0,1,1.32,7.71,22.84,22.84,0,0,1-11,19.65,21,21,0,0,1-11,3q-6.23,0-10.07-2.69t-3.85-6.7a4.54,4.54,0,0,1,1.16-3.13,3.62,3.62,0,0,1,2.81-1.3,3.85,3.85,0,0,1,2.38.9,4.41,4.41,0,0,1,1.58,2.31l.8,2.4a3.54,3.54,0,0,0,1.51-3.2,5.72,5.72,0,0,0-2.17-4.51,7.91,7.91,0,0,0-5.33-1.86,10,10,0,0,0-8.49,4.67,8.36,8.36,0,0,0-1.37,4.53,7.87,7.87,0,0,0,.92,3.65,6.34,6.34,0,0,0,2.34,2.62l3.3,1.93c1,.6,1.55,1.28,1.55,2a1.54,1.54,0,0,1-.61,1.25,2.33,2.33,0,0,1-1.51.5,5.93,5.93,0,0,1-2-.59,6.14,6.14,0,0,0-1.74-.59c-1.17,0-1.75.33-1.75,1v.19a20,20,0,0,1,1.77,2.38A36.23,36.23,0,0,0,181,127a13.79,13.79,0,0,0,3.93,2.92,12.15,12.15,0,0,0,5.67,1.28,11.4,11.4,0,0,0,2.78-.31,9,9,0,0,0,1.74-.59l1.09-.57,1.22-.47.71.29.47.94a3.51,3.51,0,0,1-.47,1.46l-.28,1.18.38,1L203,133a22.16,22.16,0,0,0,3.87-1.32,6.06,6.06,0,0,0,2.38-1.92,5.06,5.06,0,0,0,.85-3.06,2.91,2.91,0,0,0-.87-2.45,10.47,10.47,0,0,0-3.28-1.32,1.07,1.07,0,0,1-.89-1.18q0-1,5.52-4.34a21.63,21.63,0,0,0,5.89-5.48,25.49,25.49,0,0,0,3.78-7.4,27,27,0,0,0,1.32-8.3,31.87,31.87,0,0,0-1.4-8.68,38.29,38.29,0,0,1-1.39-5.71,3.07,3.07,0,0,1,.47-1.65,16.15,16.15,0,0,0,2.91,2.38,5.76,5.76,0,0,0,3.09.83q4.42,0,6.17-6.47c.26-.88.44-1.44.55-1.69a2.65,2.65,0,0,1,.82-.9,2.85,2.85,0,0,0-2.5-1.46,3.41,3.41,0,0,0-2.21.85l-.71.61-1,.28c-.84,0-1.27-.55-1.27-1.65a3.14,3.14,0,0,1,1.68-2.71A7.51,7.51,0,0,1,231,69.15a8.66,8.66,0,0,1,4.3,1.08,8.31,8.31,0,0,1,3.06,3,7.55,7.55,0,0,1,1.13,4A16.56,16.56,0,0,1,239.1,80a19.32,19.32,0,0,0-.38,2.27,1.6,1.6,0,0,0,.85,1.32l1.46-.76A10.76,10.76,0,0,0,242.78,77a12.21,12.21,0,0,0-3.49-8.92,11.82,11.82,0,0,0-8.78-3.53,13.13,13.13,0,0,0-7,1.91,13.42,13.42,0,0,0-4.9,5.3,15.88,15.88,0,0,0-1.8,7.55v1.65a36.54,36.54,0,0,0-2.5-4.22,19.16,19.16,0,0,0-3.42-3.56,35.35,35.35,0,0,0-5.77-3.82,39.31,39.31,0,0,0-7.62-3.16,37.64,37.64,0,0,0-6.32-1.28c-1.87-.19-4.18-.28-6.91-.28L160.46,65v5.23l.95-.14c3.36-.31,5.85-.47,7.45-.47a5.45,5.45,0,0,1,2.71.54,1.4,1.4,0,0,1,.78,1.49l-.19,1.18c0,.06-.2.59-.59,1.6a7.7,7.7,0,0,0-.59,2.74,6,6,0,0,0,1.54,4.27,5.35,5.35,0,0,0,4.08,1.62,7.38,7.38,0,0,0,5-1.77,5.5,5.5,0,0,0,2-4.31A5.86,5.86,0,0,0,181,72,19.94,19.94,0,0,0,173.1,69.15Z"/>
  <path class="cls-2" d="M153.3,352.09h5.19V310.53a90.8,90.8,0,0,0-1-13.93,56.06,56.06,0,0,0-2.45-10.36,27.13,27.13,0,0,0-2.95-6.18c-1-1.38-1.78-2.14-2.4-2.26l-.76.38-.42,2.4a21.23,21.23,0,0,1-1.25,5.19,2.72,2.72,0,0,1-2.72,1.6,2,2,0,0,1-1.6-.73,2.63,2.63,0,0,1-.61-1.77,3.44,3.44,0,0,1,.33-1.55l1.22-2.93a5.39,5.39,0,0,0,.38-2.31,12.2,12.2,0,0,0-1.49-6,18.89,18.89,0,0,0-3.7-4.79,41.09,41.09,0,0,0-4.72-3.8,28.81,28.81,0,0,1-2.73-2A5,5,0,0,0,131,264a7.17,7.17,0,0,0,.09,1c.07.41.1.63.1.66l.56,3.58a3.4,3.4,0,0,1-.37,2.29,1.91,1.91,0,0,1-1.75,1.2,1.77,1.77,0,0,1-1.44-.73,2.79,2.79,0,0,1-.59-1.81v-2q0-2.13-2.59-4.81a17.44,17.44,0,0,0-4.39-3.21,31.07,31.07,0,0,0-6.15-2.22c-2.5-.66-3.79-1-3.85-1l-1.93-.51-.43.51.1.57a12.66,12.66,0,0,0,.61,2.5l1.23,2.64.18.85-.47.57a13.13,13.13,0,0,1-4.57-2.27c-2-1.35-3.93-2.58-5.73-3.68a12.19,12.19,0,0,0-5.12-1.88l-.52.19-.28.33-.57.18h-.47c.56,0-.7-.11-3.8-.35s-6.09-.35-9-.35q-15.33,0-15.33,3.58a2,2,0,0,0,1.58,2,77.92,77.92,0,0,0,8.23,1.7q6.64,1.15,13.91,2.94a84.84,84.84,0,0,1,20,7.74,73.65,73.65,0,0,1,16.3,12A69.71,69.71,0,0,1,136.65,302a80.31,80.31,0,0,1,7.64,19.27,55.5,55.5,0,0,1,1.2,6.46c.33,2.49.57,4.85.71,7.1s.28,5.14.4,8.66c0,.25,0,.64.05,1.18s.06,1,.09,1.41v6h2.13V351q0-7.54-.17-12.83a99.19,99.19,0,0,0-1-10.95A75.12,75.12,0,0,0,145,315.37a80.2,80.2,0,0,0-5.43-12.95A70.37,70.37,0,0,0,130.38,289a76.61,76.61,0,0,0-12.1-11.18,78.6,78.6,0,0,0-14.18-8.42,75.58,75.58,0,0,0-15.42-5.17q-6.71-1.32-10.57-2c-2.58-.42-4.58-.74-6-.94a34.72,34.72,0,0,1-3.61-.68,4.6,4.6,0,0,1-2.05-.95c.06-.34.74-.64,2-.89a25.55,25.55,0,0,1,4.9-.38,85.31,85.31,0,0,1,27,4.2,75.81,75.81,0,0,1,22.92,12.19A73.39,73.39,0,0,1,140.56,294a82.09,82.09,0,0,1,10.24,25.07A97,97,0,0,1,152.66,332q.65,7.46.64,17.12ZM69.15,339.45v-1.08l-.38-4q-.37-4-.38-8.49a55.46,55.46,0,0,1,.76-10.07,29.87,29.87,0,0,1,3.49-8.94,22.48,22.48,0,0,1,4-5.59,32.76,32.76,0,0,1,5.19-3.79Q78,303,78,307.94a11.36,11.36,0,0,0,1.62,5.83A12.93,12.93,0,0,0,84,318.22a10.42,10.42,0,0,0,5.64,1.7,9.67,9.67,0,0,0,6.51-2.4,7.27,7.27,0,0,0,2.78-5.62,4.21,4.21,0,0,0-1-3,3.2,3.2,0,0,0-2-1.16l-.75.76.56,1.08.57.76a1.86,1.86,0,0,1,.33,1.18,4.48,4.48,0,0,1-1,2.75,7.29,7.29,0,0,1-2.54,2.13,7.21,7.21,0,0,1-3.38.82,4.45,4.45,0,0,1-2.87-.87,2.48,2.48,0,0,1-1.09-2c0-.59.4-.94,1.18-1a5.75,5.75,0,0,0,4.13-2.2,6.92,6.92,0,0,0,1.39-4.27,7,7,0,0,0-.71-3.13,6.19,6.19,0,0,0-1.95-2.34,4.78,4.78,0,0,0-2.67-.94l-1.27-.1-1.14-.56a2.88,2.88,0,0,1-1.18-1.47q.28-2.07,3.52-3.39a20.32,20.32,0,0,1,7.71-1.32,22.65,22.65,0,0,1,11.37,3,22.34,22.34,0,0,1,8.28,8,21,21,0,0,1,3,11q0,6.22-2.69,10.07t-6.7,3.84a4.53,4.53,0,0,1-3.13-1.15,3.62,3.62,0,0,1-1.3-2.81,3.83,3.83,0,0,1,.9-2.38,4.41,4.41,0,0,1,2.31-1.58l2.4-.8a3.54,3.54,0,0,0-3.2-1.51,5.72,5.72,0,0,0-4.51,2.17,7.89,7.89,0,0,0-1.86,5.33,9.77,9.77,0,0,0,1.25,4.85,9.88,9.88,0,0,0,3.42,3.64,8.35,8.35,0,0,0,4.53,1.36,7.75,7.75,0,0,0,3.65-.92,6.39,6.39,0,0,0,2.62-2.33l1.93-3.3c.6-1,1.28-1.56,2-1.56a1.57,1.57,0,0,1,1.25.61,2.35,2.35,0,0,1,.5,1.51,5.93,5.93,0,0,1-.59,2,6.17,6.17,0,0,0-.59,1.75q0,1.74,1,1.74h.19a20,20,0,0,1,2.38-1.77,36.2,36.2,0,0,0,3.75-2.92,13.7,13.7,0,0,0,2.92-3.94,12.08,12.08,0,0,0,1.28-5.66,11.28,11.28,0,0,0-.31-2.78,9.14,9.14,0,0,0-.59-1.75q-.28-.57-.57-1.08l-.47-1.23.29-.71.94-.47a3.67,3.67,0,0,1,1.46.47l1.18.29,1-.38-1.2-4.79a22.16,22.16,0,0,0-1.32-3.87,6.13,6.13,0,0,0-1.92-2.38,5.06,5.06,0,0,0-3.06-.85,2.91,2.91,0,0,0-2.45.87,10.69,10.69,0,0,0-1.32,3.28,1.07,1.07,0,0,1-1.18.9q-1,0-4.34-5.52a21.67,21.67,0,0,0-5.48-5.9,25.46,25.46,0,0,0-7.4-3.77,27,27,0,0,0-8.3-1.32,31.83,31.83,0,0,0-8.68,1.39,36.92,36.92,0,0,1-5.71,1.39,3.07,3.07,0,0,1-1.65-.47,16.12,16.12,0,0,0,2.38-2.9,5.81,5.81,0,0,0,.83-3.09q0-4.44-6.47-6.18a16.65,16.65,0,0,1-1.69-.54,2.7,2.7,0,0,1-.9-.83,2.85,2.85,0,0,0-1.46,2.5,3.42,3.42,0,0,0,.85,2.22l.61.71.28.94c0,.85-.55,1.27-1.65,1.27a3.12,3.12,0,0,1-2.71-1.67,7.55,7.55,0,0,1-1.06-4.13,8.65,8.65,0,0,1,1.08-4.29,8.33,8.33,0,0,1,3-3.07,7.64,7.64,0,0,1,4-1.13,16.81,16.81,0,0,1,2.87.38,22.05,22.05,0,0,0,2.27.38,1.62,1.62,0,0,0,1.32-.85l-.76-1.47A10.75,10.75,0,0,0,77,269.78a12.17,12.17,0,0,0-8.92,3.49A11.8,11.8,0,0,0,64.53,282a13.1,13.1,0,0,0,1.91,7,13.44,13.44,0,0,0,5.3,4.91,16,16,0,0,0,7.55,1.79h1.65a36.54,36.54,0,0,0-4.22,2.5,19.84,19.84,0,0,0-3.56,3.42,35.05,35.05,0,0,0-3.82,5.78,38.8,38.8,0,0,0-3.16,7.62,37.64,37.64,0,0,0-1.28,6.32q-.29,2.8-.28,6.91L65,352.09h5.23l-.14-.94q-.47-5.06-.47-7.45a5.49,5.49,0,0,1,.54-2.72,1.38,1.38,0,0,1,1.49-.77l1.18.18c.06,0,.59.2,1.6.59a7.49,7.49,0,0,0,2.74.59A6,6,0,0,0,81.44,340,5.35,5.35,0,0,0,83.06,336a7.41,7.41,0,0,0-1.77-5,5.5,5.5,0,0,0-4.31-2,5.86,5.86,0,0,0-5,2.69A20,20,0,0,0,69.15,339.45Z"/>
  <path class="cls-3" d="M357.67,354.05h-5.3V311.62a93.14,93.14,0,0,1,1-14.22,57.55,57.55,0,0,1,2.5-10.57,28.1,28.1,0,0,1,3-6.31q1.5-2.11,2.46-2.31l.77.38.43,2.46a21.41,21.41,0,0,0,1.28,5.3,2.77,2.77,0,0,0,2.77,1.63,2.07,2.07,0,0,0,1.64-.74,2.76,2.76,0,0,0,.62-1.81,3.45,3.45,0,0,0-.34-1.59l-1.25-3a5.65,5.65,0,0,1-.38-2.36,12.55,12.55,0,0,1,1.51-6.14,19.75,19.75,0,0,1,3.78-4.89,42.84,42.84,0,0,1,4.82-3.88,28.53,28.53,0,0,0,2.79-2,5.13,5.13,0,0,1,.68,2.55,7.71,7.71,0,0,1-.1,1c-.06.42-.1.64-.1.67l-.57,3.66a3.39,3.39,0,0,0,.38,2.34,1.94,1.94,0,0,0,1.78,1.23,1.82,1.82,0,0,0,1.47-.75,2.85,2.85,0,0,0,.6-1.85v-2.07c0-1.45.89-3.09,2.65-4.91a17.74,17.74,0,0,1,4.48-3.28,32.2,32.2,0,0,1,6.28-2.26c2.55-.68,3.86-1,3.93-1.06l2-.53.43.53-.09.58a13.35,13.35,0,0,1-.63,2.55l-1.25,2.69-.19.87.48.58a13.37,13.37,0,0,0,4.67-2.31q3.08-2.07,5.85-3.76a12.59,12.59,0,0,1,5.22-1.92l.53.19.29.34.58.19h.48c-.58,0,.72-.12,3.88-.36s6.22-.36,9.17-.36q15.64,0,15.65,3.66a2.07,2.07,0,0,1-1.61,2,77.88,77.88,0,0,1-8.4,1.74c-4.53.78-9.27,1.79-14.21,3a86.5,86.5,0,0,0-20.39,7.9A75.38,75.38,0,0,0,387,286.73a71.29,71.29,0,0,0-12.37,16.2,82.06,82.06,0,0,0-7.8,19.67,57.05,57.05,0,0,0-1.23,6.6c-.34,2.54-.58,4.95-.72,7.25s-.28,5.24-.41,8.83c0,.26,0,.66-.05,1.21s-.06,1-.1,1.44v6.12H362.2v-1.11q0-7.71.16-13.1a106,106,0,0,1,1-11.17,78.33,78.33,0,0,1,2.79-12.11,83,83,0,0,1,5.54-13.22,72.1,72.1,0,0,1,9.39-13.67,78,78,0,0,1,12.35-11.41,80.34,80.34,0,0,1,14.47-8.6,77.15,77.15,0,0,1,15.75-5.27q6.84-1.35,10.78-2c2.64-.43,4.67-.75,6.12-1a35.9,35.9,0,0,0,3.68-.7,4.78,4.78,0,0,0,2.1-1c-.07-.36-.76-.66-2.07-.92a26.74,26.74,0,0,0-5-.38,87,87,0,0,0-27.57,4.28,77.4,77.4,0,0,0-23.4,12.45,75.08,75.08,0,0,0-17.6,19.55,84,84,0,0,0-10.45,25.59,100.2,100.2,0,0,0-1.9,13.19q-.65,7.62-.65,17.48Zm85.9-12.91V340l.39-4q.38-4,.38-8.67a56.72,56.72,0,0,0-.77-10.28,30.74,30.74,0,0,0-3.56-9.12,22.69,22.69,0,0,0-4.05-5.71,34.33,34.33,0,0,0-5.29-3.88q3.85,5.6,3.85,10.65a11.5,11.5,0,0,1-1.66,5.94,13.22,13.22,0,0,1-4.43,4.55,10.7,10.7,0,0,1-5.76,1.74,9.83,9.83,0,0,1-6.64-2.46,7.4,7.4,0,0,1-2.84-5.73,4.34,4.34,0,0,1,1-3.06,3.32,3.32,0,0,1,2.07-1.18l.77.77-.58,1.11c-.16.23-.35.48-.57.77a1.89,1.89,0,0,0-.34,1.21,4.61,4.61,0,0,0,1,2.81,7.66,7.66,0,0,0,6,3,4.58,4.58,0,0,0,2.94-.89,2.56,2.56,0,0,0,1.1-2c0-.61-.4-1-1.2-1.06a5.82,5.82,0,0,1-4.21-2.24,7,7,0,0,1-1.42-4.35,7.2,7.2,0,0,1,.72-3.21,6.35,6.35,0,0,1,2-2.38,4.83,4.83,0,0,1,2.72-1l1.3-.1,1.15-.58a2.93,2.93,0,0,0,1.21-1.49c-.2-1.41-1.39-2.57-3.59-3.47a20.93,20.93,0,0,0-7.87-1.34,23.13,23.13,0,0,0-11.61,3,22.8,22.8,0,0,0-8.45,8.21,21.46,21.46,0,0,0-3.1,11.24q0,6.36,2.74,10.28t6.84,3.93a4.67,4.67,0,0,0,3.2-1.18,3.71,3.71,0,0,0,1.32-2.87,3.93,3.93,0,0,0-.91-2.43A4.57,4.57,0,0,0,405.1,323l-2.46-.82a3.63,3.63,0,0,1,3.28-1.54,5.87,5.87,0,0,1,4.6,2.21,8.11,8.11,0,0,1,1.9,5.44,10.1,10.1,0,0,1-1.28,5,10,10,0,0,1-3.49,3.71,8.57,8.57,0,0,1-4.62,1.4,7.91,7.91,0,0,1-3.73-.94,6.55,6.55,0,0,1-2.68-2.38l-2-3.37q-.91-1.59-2.07-1.59a1.6,1.6,0,0,0-1.28.62,2.41,2.41,0,0,0-.5,1.54,6,6,0,0,0,.6,2.07,6.53,6.53,0,0,1,.6,1.79c0,1.18-.33,1.78-1,1.78h-.19a19.21,19.21,0,0,0-2.43-1.81,36.67,36.67,0,0,1-3.83-3,14.43,14.43,0,0,1-3-4,12.46,12.46,0,0,1-1.3-5.78,11.28,11.28,0,0,1,.32-2.84,9.36,9.36,0,0,1,.6-1.79c.19-.38.38-.75.58-1.1l.48-1.25-.29-.73-1-.48a3.7,3.7,0,0,0-1.5.48l-1.2.29-1.06-.38,1.23-4.89a21.2,21.2,0,0,1,1.35-3.95,6.11,6.11,0,0,1,1.95-2.43,5.2,5.2,0,0,1,3.13-.87,3,3,0,0,1,2.5.89,10.82,10.82,0,0,1,1.35,3.35,1.08,1.08,0,0,0,1.2.91c.68,0,2.15-1.87,4.43-5.63a22.24,22.24,0,0,1,5.59-6,25.69,25.69,0,0,1,7.56-3.85,27.42,27.42,0,0,1,8.47-1.35,32.89,32.89,0,0,1,8.86,1.42,37.8,37.8,0,0,0,5.83,1.42,3.1,3.1,0,0,0,1.68-.48,16.72,16.72,0,0,1-2.43-3,5.94,5.94,0,0,1-.84-3.15q0-4.53,6.6-6.31a16.86,16.86,0,0,0,1.73-.56,2.66,2.66,0,0,0,.91-.84,2.91,2.91,0,0,1,1.5,2.55A3.52,3.52,0,0,1,439,285l-.63.72-.29,1c0,.87.57,1.3,1.69,1.3a3.21,3.21,0,0,0,2.77-1.71,7.73,7.73,0,0,0,1.08-4.21,8.75,8.75,0,0,0-1.11-4.38,8.21,8.21,0,0,0-3-3.13,7.73,7.73,0,0,0-4-1.16,16.78,16.78,0,0,0-2.94.39,23.34,23.34,0,0,1-2.31.38,1.63,1.63,0,0,1-1.35-.86l.77-1.5a11,11,0,0,1,6-1.78,12.45,12.45,0,0,1,9.1,3.56,12.07,12.07,0,0,1,3.61,9,13.45,13.45,0,0,1-2,7.18,13.72,13.72,0,0,1-5.42,5,16.24,16.24,0,0,1-7.7,1.83h-1.69a36.36,36.36,0,0,1,4.31,2.56,19.63,19.63,0,0,1,3.64,3.49,36.61,36.61,0,0,1,3.9,5.89,40.63,40.63,0,0,1,3.23,7.78,39.35,39.35,0,0,1,1.3,6.45q.29,2.86.28,7.06l-.38,24.27h-5.35l.15-1q.48-5.15.48-7.61a5.49,5.49,0,0,0-.55-2.76,1.43,1.43,0,0,0-1.52-.8l-1.2.19a16.48,16.48,0,0,0-1.64.61,7.8,7.8,0,0,1-2.79.6,6.08,6.08,0,0,1-4.36-1.57,5.43,5.43,0,0,1-1.66-4.16,7.56,7.56,0,0,1,1.8-5.15,5.66,5.66,0,0,1,4.41-2.07,6,6,0,0,1,5.08,2.74A20.26,20.26,0,0,1,443.57,341.14Z"/>
  <path class="cls-3" d="M354.35,155.15v5.29H311.93a94.56,94.56,0,0,1-14.23-1A57.47,57.47,0,0,1,287.13,157a27.46,27.46,0,0,1-6.31-3c-1.41-1-2.18-1.81-2.31-2.45l.38-.77,2.46-.44a21.37,21.37,0,0,0,5.3-1.27,2.77,2.77,0,0,0,1.63-2.77,2,2,0,0,0-.74-1.64,2.72,2.72,0,0,0-1.81-.63,3.58,3.58,0,0,0-1.59.34l-3,1.25a5.47,5.47,0,0,1-2.36.39,12.56,12.56,0,0,1-6.14-1.52,19.28,19.28,0,0,1-4.89-3.78,41.56,41.56,0,0,1-3.87-4.81,30.57,30.57,0,0,0-2-2.8,5.22,5.22,0,0,1,2.55-.67,6.18,6.18,0,0,1,1,.1l.68.09,3.66.58a3.48,3.48,0,0,0,2.33-.38,2,2,0,0,0,1.23-1.79,1.82,1.82,0,0,0-.75-1.46,2.79,2.79,0,0,0-1.85-.61h-2.07c-1.45,0-3.08-.88-4.91-2.64a17.92,17.92,0,0,1-3.28-4.48,32.07,32.07,0,0,1-2.26-6.29c-.67-2.55-1-3.86-1.06-3.92l-.53-2,.53-.43.58.1a12.85,12.85,0,0,1,2.55.62l2.7,1.26.86.19.58-.48a13.37,13.37,0,0,0-2.31-4.67q-2.07-3.09-3.76-5.85a12.58,12.58,0,0,1-1.92-5.23l.19-.53.34-.29.19-.58v-.48q0,.87-.36-3.87t-.36-9.18q0-15.65,3.66-15.64a2.05,2.05,0,0,1,2,1.61,76.7,76.7,0,0,1,1.74,8.4q1.17,6.79,3,14.21a86.05,86.05,0,0,0,7.89,20.39A75.63,75.63,0,0,0,287,125.77a71.6,71.6,0,0,0,16.21,12.38A81.82,81.82,0,0,0,322.9,146a57.88,57.88,0,0,0,6.6,1.23c2.54.33,4.95.57,7.25.72s5.24.28,8.83.41c.26,0,.66,0,1.21.05l1.44.09h6.12v2.17h-1.11q-7.71,0-13.1-.17a101,101,0,0,1-11.17-1,76.08,76.08,0,0,1-12.11-2.79,81.19,81.19,0,0,1-13.22-5.54A72.1,72.1,0,0,1,290,131.74a77.52,77.52,0,0,1-11.41-12.35,79.66,79.66,0,0,1-8.6-14.47,77.88,77.88,0,0,1-5.27-15.74q-1.35-6.84-2-10.79t-1-6.11a36.15,36.15,0,0,0-.7-3.69,4.68,4.68,0,0,0-1-2.09c-.36.06-.66.75-.92,2.07a27.61,27.61,0,0,0-.38,5,87.17,87.17,0,0,0,4.28,27.56,77.57,77.57,0,0,0,12.45,23.41,75.26,75.26,0,0,0,19.55,17.6,83.69,83.69,0,0,0,25.59,10.44,100.23,100.23,0,0,0,13.2,1.91q7.61.65,17.47.65ZM341.44,69.24h-1.1l-4-.38c-2.7-.26-5.58-.39-8.67-.39a57.64,57.64,0,0,0-10.28.77,31.06,31.06,0,0,0-9.12,3.57,23.15,23.15,0,0,0-5.71,4,33.85,33.85,0,0,0-3.87,5.3q5.58-3.86,10.64-3.85A11.47,11.47,0,0,1,315.22,80a13.24,13.24,0,0,1,4.56,4.43,10.71,10.71,0,0,1,1.73,5.75,9.85,9.85,0,0,1-2.46,6.65,7.37,7.37,0,0,1-5.73,2.84,4.32,4.32,0,0,1-3.05-1,3.28,3.28,0,0,1-1.18-2.07l.77-.77,1.1.57c.23.16.48.36.77.58a1.89,1.89,0,0,0,1.21.34,4.61,4.61,0,0,0,2.81-1,7.41,7.41,0,0,0,2.17-2.6,7.32,7.32,0,0,0,.84-3.44,4.52,4.52,0,0,0-.89-2.94,2.55,2.55,0,0,0-2-1.11c-.61,0-1,.4-1.05,1.21a5.91,5.91,0,0,1-2.24,4.21A7.08,7.08,0,0,1,308.22,93a7.16,7.16,0,0,1-3.2-.72,6.31,6.31,0,0,1-2.39-2,4.86,4.86,0,0,1-1-2.72l-.1-1.3L301,85.13a2.94,2.94,0,0,0-1.5-1.2q-2.12.28-3.46,3.59a20.73,20.73,0,0,0-1.35,7.87,23.12,23.12,0,0,0,3,11.6,22.83,22.83,0,0,0,8.21,8.46,21.46,21.46,0,0,0,11.24,3.1q6.36,0,10.29-2.74t3.92-6.84a4.62,4.62,0,0,0-1.18-3.2,3.69,3.69,0,0,0-2.87-1.33,4,4,0,0,0-2.43.92,4.59,4.59,0,0,0-1.61,2.36l-.82,2.45a3.61,3.61,0,0,1-1.54-3.27,5.85,5.85,0,0,1,2.22-4.6,8,8,0,0,1,5.44-1.9,10.2,10.2,0,0,1,8.66,4.76,8.58,8.58,0,0,1,1.4,4.63,7.94,7.94,0,0,1-.94,3.73,6.51,6.51,0,0,1-2.38,2.67l-3.37,2q-1.59.92-1.59,2.07a1.57,1.57,0,0,0,.62,1.27,2.39,2.39,0,0,0,1.55.51,6.1,6.1,0,0,0,2.07-.6,6.31,6.31,0,0,1,1.78-.61c1.19,0,1.78.34,1.78,1V122a19.21,19.21,0,0,0-1.81,2.43,37.75,37.75,0,0,1-3,3.83,13.94,13.94,0,0,1-4,3,12.34,12.34,0,0,1-5.78,1.3,11.32,11.32,0,0,1-2.84-.31,10,10,0,0,1-1.78-.6c-.39-.19-.76-.39-1.11-.58l-1.25-.48-.73.29-.48,1a3.71,3.71,0,0,0,.48,1.49l.29,1.21-.38,1.06-4.89-1.23a21.46,21.46,0,0,1-3.95-1.35,6.29,6.29,0,0,1-2.43-2,5.22,5.22,0,0,1-.87-3.13,3,3,0,0,1,.9-2.5,10.62,10.62,0,0,1,3.34-1.35,1.09,1.09,0,0,0,.92-1.21q0-1-5.64-4.43a22,22,0,0,1-6-5.58,25.94,25.94,0,0,1-3.85-7.56,27.48,27.48,0,0,1-1.35-8.48A32.89,32.89,0,0,1,293.36,88a37.53,37.53,0,0,0,1.42-5.82,3.16,3.16,0,0,0-.48-1.69,16.37,16.37,0,0,1-3,2.43,5.81,5.81,0,0,1-3.15.85q-4.53,0-6.31-6.6c-.26-.9-.44-1.48-.55-1.73a2.94,2.94,0,0,0-.85-.92A3,3,0,0,1,283,73a3.51,3.51,0,0,1,2.26.87l.72.62,1,.29c.87,0,1.3-.56,1.3-1.68a3.19,3.19,0,0,0-1.71-2.77,7.7,7.7,0,0,0-4.21-1.09A8.8,8.8,0,0,0,278,70.35a8.31,8.31,0,0,0-3.13,3,7.73,7.73,0,0,0-1.16,4,16.89,16.89,0,0,0,.39,2.94,19.67,19.67,0,0,1,.38,2.31A1.63,1.63,0,0,1,273.6,84l-1.49-.77a11,11,0,0,1-1.79-6,12.4,12.4,0,0,1,3.57-9.1,12,12,0,0,1,8.95-3.61,13.45,13.45,0,0,1,7.18,2,13.71,13.71,0,0,1,5,5.41,16.25,16.25,0,0,1,1.83,7.71v1.68A35.9,35.9,0,0,1,299.41,77a19.61,19.61,0,0,1,3.49-3.63,35,35,0,0,1,5.9-3.9,39.67,39.67,0,0,1,7.77-3.23,38.42,38.42,0,0,1,6.46-1.3q2.87-.28,7.05-.29l24.27.39v5.34l-1-.14c-3.43-.32-6-.48-7.6-.48a5.53,5.53,0,0,0-2.77.55,1.42,1.42,0,0,0-.8,1.52l.2,1.2c0,.06.2.61.6,1.64a7.76,7.76,0,0,1,.6,2.79,6.11,6.11,0,0,1-1.56,4.36,5.5,5.5,0,0,1-4.17,1.66,7.53,7.53,0,0,1-5.15-1.81,5.62,5.62,0,0,1-2.07-4.4,6,6,0,0,1,2.74-5.08A20.41,20.41,0,0,1,341.44,69.24Z"/>
  <path class="cls-3" d="M155.17,158.49h5.29v42.42a94.65,94.65,0,0,1-1,14.23A57.67,57.67,0,0,1,157,225.71a27.67,27.67,0,0,1-3,6.31c-1,1.41-1.81,2.18-2.45,2.31l-.77-.39-.44-2.45a21.37,21.37,0,0,0-1.27-5.3,2.77,2.77,0,0,0-2.77-1.64,2,2,0,0,0-1.64.75,2.7,2.7,0,0,0-.62,1.8,3.58,3.58,0,0,0,.33,1.59l1.25,3A5.44,5.44,0,0,1,146,234a12.59,12.59,0,0,1-1.52,6.14,19.41,19.41,0,0,1-3.78,4.88,40.62,40.62,0,0,1-4.81,3.88,26,26,0,0,0-2.79,2.05,5.15,5.15,0,0,1-.68-2.55,6.39,6.39,0,0,1,.1-1c.06-.41.09-.64.09-.67l.58-3.66a3.46,3.46,0,0,0-.38-2.33,2,2,0,0,0-1.79-1.23,1.83,1.83,0,0,0-1.46.74,2.83,2.83,0,0,0-.61,1.86v2.07q0,2.16-2.64,4.91a17.63,17.63,0,0,1-4.48,3.27,32,32,0,0,1-6.29,2.27c-2.55.67-3.86,1-3.92,1.06l-2,.53-.44-.53.1-.58a13.65,13.65,0,0,1,.62-2.55l1.26-2.7.19-.87-.48-.57a13.37,13.37,0,0,0-4.67,2.31q-3.09,2.07-5.85,3.75a12.47,12.47,0,0,1-5.23,1.93l-.53-.19-.29-.34-.57-.19h-.49q.87,0-3.87.36t-9.18.36q-15.64,0-15.64-3.66a2.06,2.06,0,0,1,1.61-2.05,78.32,78.32,0,0,1,8.4-1.73q6.8-1.19,14.21-3a85.65,85.65,0,0,0,20.39-7.9,75,75,0,0,0,16.63-12.28,71.33,71.33,0,0,0,12.38-16.2,81.9,81.9,0,0,0,7.8-19.67,57.26,57.26,0,0,0,1.23-6.59c.33-2.54.58-5,.72-7.25s.28-5.24.41-8.84c0-.25,0-.66,0-1.2s.06-1,.09-1.45v-6.11h2.17v1.11q0,7.69-.17,13.09a100.75,100.75,0,0,1-1,11.17A75.84,75.84,0,0,1,146.69,196a80.83,80.83,0,0,1-5.54,13.22,72.49,72.49,0,0,1-9.39,13.68,77.55,77.55,0,0,1-12.35,11.41,79.6,79.6,0,0,1-14.47,8.59,77.29,77.29,0,0,1-15.74,5.28q-6.84,1.35-10.79,2t-6.11,1a36.15,36.15,0,0,0-3.69.7,4.52,4.52,0,0,0-2.09,1c.06.35.75.66,2.07.91a26.63,26.63,0,0,0,5,.39,86.89,86.89,0,0,0,27.56-4.29,77.33,77.33,0,0,0,23.41-12.44,75.26,75.26,0,0,0,17.6-19.55,83.75,83.75,0,0,0,10.44-25.6A100.06,100.06,0,0,0,154.52,179q.64-7.6.65-17.48Zm-85.91,12.9v1.11l-.38,4.05q-.39,4-.39,8.66a57.56,57.56,0,0,0,.77,10.28,31,31,0,0,0,3.57,9.13,22.87,22.87,0,0,0,4,5.7,33.2,33.2,0,0,0,5.3,3.88q-3.86-5.58-3.85-10.64A11.51,11.51,0,0,1,80,197.61a13.21,13.21,0,0,1,4.43-4.55,10.71,10.71,0,0,1,5.75-1.73,9.89,9.89,0,0,1,6.65,2.45,7.4,7.4,0,0,1,2.84,5.73,4.33,4.33,0,0,1-1,3.06,3.33,3.33,0,0,1-2.07,1.18L95.8,203l.57-1.11.58-.77a1.88,1.88,0,0,0,.34-1.2,4.62,4.62,0,0,0-1-2.82,7.49,7.49,0,0,0-2.6-2.16,7.21,7.21,0,0,0-3.44-.85,4.58,4.58,0,0,0-2.94.89,2.56,2.56,0,0,0-1.11,2c0,.61.41,1,1.21,1.06a5.87,5.87,0,0,1,4.21,2.24,7.08,7.08,0,0,1,1.42,4.36,7.19,7.19,0,0,1-.72,3.2,6.28,6.28,0,0,1-2,2.38,5,5,0,0,1-2.72,1l-1.3.09-1.16.58a2.91,2.91,0,0,0-1.2,1.49c.19,1.42,1.39,2.57,3.59,3.47a20.73,20.73,0,0,0,7.87,1.35,23.09,23.09,0,0,0,11.61-3,22.78,22.78,0,0,0,8.45-8.2,21.49,21.49,0,0,0,3.1-11.25q0-6.36-2.74-10.28T109,181.46a4.62,4.62,0,0,0-3.2,1.18,3.67,3.67,0,0,0-1.33,2.86,3.91,3.91,0,0,0,.92,2.43,4.55,4.55,0,0,0,2.36,1.62l2.45.82a3.63,3.63,0,0,1-3.27,1.54,5.85,5.85,0,0,1-4.6-2.22,8.06,8.06,0,0,1-1.9-5.44,10.22,10.22,0,0,1,4.77-8.67,8.51,8.51,0,0,1,4.62-1.39,7.94,7.94,0,0,1,3.73.94,6.51,6.51,0,0,1,2.67,2.38l2,3.37q.91,1.59,2.07,1.59a1.55,1.55,0,0,0,1.27-.63,2.34,2.34,0,0,0,.51-1.54,6,6,0,0,0-.6-2.07,6.68,6.68,0,0,1-.61-1.78c0-1.19.34-1.78,1-1.78H122a20.87,20.87,0,0,0,2.43,1.8,37.78,37.78,0,0,1,3.83,3,13.94,13.94,0,0,1,3,4,12.31,12.31,0,0,1,1.3,5.78,11.32,11.32,0,0,1-.31,2.84,10.26,10.26,0,0,1-.6,1.78c-.19.39-.39.75-.58,1.11l-.48,1.25.29.72,1,.48a3.71,3.71,0,0,0,1.49-.48l1.21-.29,1.06.39L134.39,202a21.34,21.34,0,0,1-1.35,3.94,6.25,6.25,0,0,1-1.95,2.44,5.27,5.27,0,0,1-3.13.86,3,3,0,0,1-2.5-.89,10.71,10.71,0,0,1-1.35-3.35,1.09,1.09,0,0,0-1.2-.91q-1,0-4.43,5.63a22.1,22.1,0,0,1-5.59,6,25.69,25.69,0,0,1-7.56,3.85,27.47,27.47,0,0,1-8.47,1.35A32.44,32.44,0,0,1,88,219.47a39.18,39.18,0,0,0-5.83-1.42,3.16,3.16,0,0,0-1.69.48,17.28,17.28,0,0,1,2.44,3,6,6,0,0,1,.84,3.16q0,4.53-6.6,6.31a16,16,0,0,0-1.73.55,2.76,2.76,0,0,0-.92.84A2.92,2.92,0,0,1,73,229.8a3.49,3.49,0,0,1,.87-2.26l.62-.72.29-1c0-.86-.56-1.3-1.68-1.3a3.19,3.19,0,0,0-2.77,1.71,7.76,7.76,0,0,0-1.09,4.22,8.8,8.8,0,0,0,1.11,4.38,8.38,8.38,0,0,0,3,3.13,7.72,7.72,0,0,0,4,1.15,17.67,17.67,0,0,0,2.94-.38,20.9,20.9,0,0,1,2.31-.39,1.65,1.65,0,0,1,1.35.87l-.77,1.49a11,11,0,0,1-6,1.78,12.39,12.39,0,0,1-9.1-3.56,12.06,12.06,0,0,1-3.61-9,13.44,13.44,0,0,1,2-7.17,13.71,13.71,0,0,1,5.41-5A16.25,16.25,0,0,1,79.62,216H81.3A38.76,38.76,0,0,1,77,213.43a20,20,0,0,1-3.63-3.49,35.45,35.45,0,0,1-3.9-5.9,40.11,40.11,0,0,1-3.23-7.78,38.32,38.32,0,0,1-1.3-6.45q-.29-2.87-.29-7.05L65,158.49h5.34l-.14,1c-.32,3.44-.48,6-.48,7.61a5.56,5.56,0,0,0,.55,2.77,1.42,1.42,0,0,0,1.52.79l1.2-.19c.06,0,.61-.2,1.64-.6a7.76,7.76,0,0,1,2.79-.6,6.11,6.11,0,0,1,4.36,1.56A5.44,5.44,0,0,1,83.47,175a7.53,7.53,0,0,1-1.81,5.15,5.62,5.62,0,0,1-4.4,2.07,6,6,0,0,1-5.08-2.75A20.34,20.34,0,0,1,69.26,171.39Z"/>
  <path class="cls-3" d="M158.49,357.39v-5.3h42.42a93.28,93.28,0,0,1,14.23,1,57.75,57.75,0,0,1,10.57,2.5,28.1,28.1,0,0,1,6.31,3q2.11,1.5,2.31,2.46l-.39.77-2.45.43a21.29,21.29,0,0,0-5.3,1.28,2.77,2.77,0,0,0-1.64,2.77,2,2,0,0,0,.75,1.63,2.71,2.71,0,0,0,1.8.63,3.45,3.45,0,0,0,1.59-.34l3-1.25a5.47,5.47,0,0,1,2.36-.38,12.58,12.58,0,0,1,6.14,1.51,19.41,19.41,0,0,1,4.88,3.78,40.72,40.72,0,0,1,3.88,4.82,26,26,0,0,0,2.05,2.79,5.14,5.14,0,0,1-2.55.67,7.54,7.54,0,0,1-1-.09l-.67-.1-3.66-.58a3.42,3.42,0,0,0-2.33.39,1.94,1.94,0,0,0-1.23,1.78,1.84,1.84,0,0,0,.74,1.47,2.88,2.88,0,0,0,1.86.6h2.07q2.16,0,4.91,2.65a17.46,17.46,0,0,1,3.27,4.48,31.91,31.91,0,0,1,2.27,6.28c.67,2.55,1,3.86,1.06,3.93l.53,2-.53.43-.58-.09a13.35,13.35,0,0,1-2.55-.63l-2.7-1.25-.87-.19-.57.48a13.45,13.45,0,0,0,2.31,4.67q2.07,3.08,3.75,5.85a12.43,12.43,0,0,1,1.93,5.22l-.19.53-.34.29-.19.58v.48c0-.58.12.72.36,3.88s.36,6.22.36,9.17q0,15.64-3.66,15.65a2.07,2.07,0,0,1-2.05-1.61A78.74,78.74,0,0,1,249,438q-1.19-6.78-3-14.2a85.65,85.65,0,0,0-7.9-20.39,75.06,75.06,0,0,0-12.28-16.64,71.29,71.29,0,0,0-16.2-12.37,81.9,81.9,0,0,0-19.67-7.8,53.25,53.25,0,0,0-6.59-1.23q-3.81-.51-7.25-.72c-2.3-.15-5.24-.29-8.84-.41-.25,0-.66,0-1.2-.05l-1.45-.1h-6.11v-2.16h1.11q7.69,0,13.09.16a103.22,103.22,0,0,1,11.17,1A78.07,78.07,0,0,1,196,365.86a82.62,82.62,0,0,1,13.22,5.54,72.49,72.49,0,0,1,13.68,9.39,78.42,78.42,0,0,1,11.41,12.35,80.29,80.29,0,0,1,8.59,14.47,77.18,77.18,0,0,1,5.28,15.75q1.35,6.83,2,10.78t1,6.12a35.9,35.9,0,0,0,.7,3.68,4.57,4.57,0,0,0,1,2.1c.35-.07.66-.76.91-2.08a26.44,26.44,0,0,0,.39-5,87,87,0,0,0-4.29-27.57A77.16,77.16,0,0,0,237.34,388a75.08,75.08,0,0,0-19.55-17.6,84,84,0,0,0-25.6-10.45A100.2,100.2,0,0,0,179,358q-7.6-.65-17.48-.65Zm12.9,85.9h1.11l4.05.39q4,.38,8.66.38a57.56,57.56,0,0,0,10.28-.77,30.68,30.68,0,0,0,9.13-3.56,22.61,22.61,0,0,0,5.7-4.05,33.06,33.06,0,0,0,3.88-5.29q-5.58,3.84-10.64,3.85a11.61,11.61,0,0,1-5.95-1.66,13.3,13.3,0,0,1-4.55-4.43,10.77,10.77,0,0,1-1.73-5.76,9.87,9.87,0,0,1,2.45-6.64,7.37,7.37,0,0,1,5.73-2.84,4.28,4.28,0,0,1,3.06,1,3.28,3.28,0,0,1,1.18,2.07l-.77.77-1.11-.58c-.22-.16-.48-.35-.77-.58a1.94,1.94,0,0,0-1.2-.33,4.67,4.67,0,0,0-2.82,1,7.59,7.59,0,0,0-2.16,2.6,7.28,7.28,0,0,0-.85,3.45,4.53,4.53,0,0,0,.89,2.93,2.56,2.56,0,0,0,2,1.11c.61,0,1-.4,1.06-1.2a5.9,5.9,0,0,1,2.24-4.22,7.14,7.14,0,0,1,4.36-1.42,7.06,7.06,0,0,1,3.2.73,6.25,6.25,0,0,1,2.38,2,5,5,0,0,1,1,2.73l.09,1.3.58,1.15a2.91,2.91,0,0,0,1.49,1.2c1.42-.19,2.57-1.38,3.47-3.58a20.78,20.78,0,0,0,1.35-7.88,23,23,0,0,0-3-11.6,22.78,22.78,0,0,0-8.2-8.45A21.5,21.5,0,0,0,195.66,394q-6.36,0-10.28,2.75t-3.92,6.84a4.62,4.62,0,0,0,1.18,3.2,3.69,3.69,0,0,0,2.86,1.32,3.89,3.89,0,0,0,2.43-.91,4.59,4.59,0,0,0,1.62-2.36l.82-2.46a3.66,3.66,0,0,1,1.54,3.28,5.83,5.83,0,0,1-2.22,4.59,8.06,8.06,0,0,1-5.44,1.91,10.28,10.28,0,0,1-8.67-4.77,8.56,8.56,0,0,1-1.39-4.62,7.91,7.91,0,0,1,.94-3.73,6.48,6.48,0,0,1,2.38-2.68l3.37-2q1.59-.92,1.59-2.07a1.57,1.57,0,0,0-.63-1.28,2.39,2.39,0,0,0-1.54-.5,6,6,0,0,0-2.07.6,6.5,6.5,0,0,1-1.78.6c-1.19,0-1.78-.34-1.78-1v-.19a23.09,23.09,0,0,0,1.8-2.43,36.7,36.7,0,0,1,3-3.83,14,14,0,0,1,4-3,12.43,12.43,0,0,1,5.78-1.3,11.8,11.8,0,0,1,2.84.31,9.35,9.35,0,0,1,1.78.61c.39.19.75.38,1.11.57l1.25.49.72-.29.48-1a3.71,3.71,0,0,0-.48-1.49l-.29-1.2.39-1.06c1.67.42,3.3.82,4.89,1.23a22.16,22.16,0,0,1,3.94,1.34,6.25,6.25,0,0,1,2.44,1.95,5.31,5.31,0,0,1,.86,3.13,3,3,0,0,1-.89,2.51,10.71,10.71,0,0,1-3.35,1.35,1.08,1.08,0,0,0-.91,1.2q0,1,5.63,4.43a22.1,22.1,0,0,1,6,5.59,25.45,25.45,0,0,1,3.85,7.56,27.42,27.42,0,0,1,1.35,8.47,32.5,32.5,0,0,1-1.42,8.86,39.18,39.18,0,0,0-1.42,5.83,3.1,3.1,0,0,0,.48,1.68,16.72,16.72,0,0,1,3-2.43,6,6,0,0,1,3.16-.84q4.53,0,6.31,6.59a17.36,17.36,0,0,0,.55,1.74,2.75,2.75,0,0,0,.84.91,2.9,2.9,0,0,1-2.55,1.49,3.48,3.48,0,0,1-2.26-.86l-.72-.63-1-.29c-.86,0-1.3.57-1.3,1.69a3.22,3.22,0,0,0,1.71,2.77,7.76,7.76,0,0,0,4.22,1.08,8.8,8.8,0,0,0,4.38-1.11,8.43,8.43,0,0,0,3.13-3,7.73,7.73,0,0,0,1.15-4,17.46,17.46,0,0,0-.38-2.93,21.74,21.74,0,0,1-.39-2.31,1.62,1.62,0,0,1,.87-1.35l1.49.77a11,11,0,0,1,1.78,6,12.41,12.41,0,0,1-3.56,9.1,12.06,12.06,0,0,1-9,3.61,13.44,13.44,0,0,1-7.17-1.95,13.74,13.74,0,0,1-5-5.42,16.24,16.24,0,0,1-1.83-7.7v-1.69a37.86,37.86,0,0,1-2.55,4.31,20.29,20.29,0,0,1-3.49,3.64,36.75,36.75,0,0,1-5.9,3.9,40,40,0,0,1-7.78,3.22,37.35,37.35,0,0,1-6.45,1.3,69.76,69.76,0,0,1-7.05.29l-24.27-.38v-5.35l1,.15c3.44.32,6,.48,7.61.48a5.67,5.67,0,0,0,2.77-.55,1.42,1.42,0,0,0,.79-1.52l-.19-1.21c0-.06-.2-.61-.6-1.63a7.81,7.81,0,0,1-.6-2.8,6.09,6.09,0,0,1,1.56-4.35,5.44,5.44,0,0,1,4.17-1.66,7.57,7.57,0,0,1,5.15,1.8,5.64,5.64,0,0,1,2.07,4.41,6,6,0,0,1-2.75,5.08A20.2,20.2,0,0,1,171.39,443.29Z"/>
  <path class="cls-2" d="M369.91,394.2l.41-1.41a10,10,0,0,1-1.75.53l-.72.09-.43.1v-.63s0-.34-.1-1-.09-1.22-.09-1.73a4.59,4.59,0,0,1,1.14-3.08,3.34,3.34,0,0,1,2.58-1.33c1,0,2.17.75,3.4,2.25a11.41,11.41,0,0,0,1.37-5.35A19.42,19.42,0,0,0,375,378a29.63,29.63,0,0,1-11.3-6.52l-2.85-2.86-.15.46.65,3,.05.68a1.93,1.93,0,0,1-.4,1.29,1.3,1.3,0,0,1-1.09.63,5.46,5.46,0,0,1-2.06-1.13l-.34-.24-.19.38.05.41c.08.32.17.65.26,1a6.65,6.65,0,0,1,.22,1.61q0,1.4-1,1.68l-1.51.43a3,3,0,0,0-.84,2.35,2.73,2.73,0,0,0,.81,2,2.57,2.57,0,0,0,2,.83,2.13,2.13,0,0,0,1.5-.57,1.9,1.9,0,0,0,.61-1.44,2.37,2.37,0,0,0-.6-1.47,1,1,0,0,1,.8-.5,1.68,1.68,0,0,1,1.36.67,2.6,2.6,0,0,1,.56,1.7,3,3,0,0,1-1.11,2.37,4.35,4.35,0,0,1-2.88.92,4.39,4.39,0,0,1-3.73-2,8.32,8.32,0,0,1-1.43-5v-2.16c0-1.81.52-3,1.55-3.72s1.55-1.15,1.55-1.44-.27-.5-.79-.65a6.56,6.56,0,0,1-1.35-.45,1.23,1.23,0,0,1-.4-1.06,3.25,3.25,0,0,1,3.33-3l.7.1,1.89.48.51.05a27.11,27.11,0,0,1-4.47-6.41,29.4,29.4,0,0,1-2-6.12,20.05,20.05,0,0,1,9.38,3.94l3.43,2.66-.05-.46s-.11-.34-.35-1a5.27,5.27,0,0,1-.34-1.74,3.2,3.2,0,0,1,.48-1.65,2,2,0,0,1,1.05-1l1.27-.38.89-.41.24.36a6.26,6.26,0,0,1,.53.77c0,.08.14.53.31,1.34l.1.43a3.41,3.41,0,0,0,1.53-1.12,6.15,6.15,0,0,1,1.88-1.78,7.78,7.78,0,0,1,2.49-.24,21.17,21.17,0,0,1,4,.34,5.78,5.78,0,0,1,3.31,1.88,4.83,4.83,0,0,1,1.3,3.28,3.53,3.53,0,0,1-1,2.54,3.31,3.31,0,0,1-2.46,1,2.31,2.31,0,0,1-1.55-.52,1.74,1.74,0,0,1-.61-1.35,2.94,2.94,0,0,1,.34-.89,2,2,0,0,0,1.63.7c1.2,0,1.8-.62,1.8-1.87a2.93,2.93,0,0,0-.86-2.11,2.81,2.81,0,0,0-2.07-.89c-.93,0-1.52.26-1.77.79l-.75,1.51a1.47,1.47,0,0,1-1.32,1,6.52,6.52,0,0,1-1.82-.39,4.29,4.29,0,0,0-1.42-.28l-.6.09,1.06,1.24a1.81,1.81,0,0,1,.53,1.16,1.65,1.65,0,0,1-.57,1.25,1.85,1.85,0,0,1-1.3.53,3.56,3.56,0,0,1-.89-.15l-1.83-.5c-.25-.08-.74-.19-1.46-.34l-.36.05a28.26,28.26,0,0,1,5.35,5.66,27.65,27.65,0,0,1,2.81,5l1.34,3.26.24.56.29,0a29.36,29.36,0,0,0,3.89.51,8.57,8.57,0,0,0,5.16-1.44,3.61,3.61,0,0,1-1.73-3.1,3.4,3.4,0,0,1,1.37-2.7,5.07,5.07,0,0,1,3.36-1.14,10.5,10.5,0,0,1,2.49.27l.46.09-.41,1.37c-.06.22-.19.83-.38,1.82a12.45,12.45,0,0,1,2.72-1.26,9.72,9.72,0,0,0,2.6-1.23,2.93,2.93,0,0,0,1.11-2.42,3.12,3.12,0,0,0-1.07-2.33,3.48,3.48,0,0,0-2.46-1,3.16,3.16,0,0,0-2.86,2.06,2.46,2.46,0,0,1-.52-1.58q0-2.81,3.19-2.81a5,5,0,0,1,3.84,1.72,6.12,6.12,0,0,1,1.56,4.28q0,4.75-4.54,8.06A19.49,19.49,0,0,1,383,379.23a23.28,23.28,0,0,1-6.1-.84,25,25,0,0,1,.65,5.59,20.18,20.18,0,0,1-3.5,12.1q-3.4,4.73-8.26,4.72a6.69,6.69,0,0,1-4.31-1.38,4.12,4.12,0,0,1-1.73-3.34,4.7,4.7,0,0,1,.83-2.8,2.33,2.33,0,0,1,1.88-1.19,5,5,0,0,1,1.82.51c-1.44,1.15-2.16,2.2-2.16,3.14a3.11,3.11,0,0,0,1,2.27,3.32,3.32,0,0,0,2.39,1Q368.6,399,369.91,394.2Zm10.63.6-.36,1a1.27,1.27,0,0,0,.65.86,1.65,1.65,0,0,0,.89.31,2.86,2.86,0,0,0,2.37-1.45,6,6,0,0,0,1-3.56q0-2.88-2.35-7.27l.53-.51a13,13,0,0,0,7.13,2.33,6.63,6.63,0,0,0,3.52-.86,2.47,2.47,0,0,0,1.39-2.09c0-1-.47-1.57-1.41-1.63l-.75.14-.24-.05a1.43,1.43,0,0,1-.21-.67,1.45,1.45,0,0,1,.6-1.14,2.22,2.22,0,0,1,1.46-.49,2.8,2.8,0,0,1,2,.84,2.53,2.53,0,0,1,.89,1.87,4.44,4.44,0,0,1-1.83,3.29l.7,0c.53-.11,1.1.38,1.73,1.47a4.43,4.43,0,0,1-1.61,1.59,5.82,5.82,0,0,1-2.38.37,42.84,42.84,0,0,1-4.31-.33l.43.28,3.64,1.59a8.38,8.38,0,0,1,3,2.12,3.93,3.93,0,0,1,1.19,2.53,2.09,2.09,0,0,1-1.83,2.16l.24.36,1,.89.45.58.24.64-.19.34-.36.14c-.51,0-1.2-.6-2.06-1.7l-.34-.46a2.19,2.19,0,0,1-2.3,1.92q-1.75,0-3.12-2.49c-1.06-2.18-2.11-4.36-3.17-6.55l-.05.55a5.56,5.56,0,0,0,.15,1.22l.52,2.45a2,2,0,0,1,.1.79,3.61,3.61,0,0,1-.91,2.71l-.79.72a2.86,2.86,0,0,1-.6.41,3.09,3.09,0,0,1-1.56-2.11,3.87,3.87,0,0,1-2.71,1.46,2.86,2.86,0,0,1-2.12-.91,3,3,0,0,1-.88-2.13,2,2,0,0,1,.44-1.32,1.3,1.3,0,0,1,1-.55l1,.16Zm5.59-7.36-.43-.27c.51,1.11,1.11,2.26,1.8,3.46l1.68,2.88a3,3,0,0,0,2.5,1.82c1.12,0,1.68-.58,1.68-1.75,0-.93-.64-1.89-1.9-2.88A44.23,44.23,0,0,0,386.13,387.44Zm5-12.7a1.57,1.57,0,0,0-1.78-1.77,1.51,1.51,0,0,0-1.7,1.73c0,1.18.57,1.77,1.7,1.77a1.74,1.74,0,0,0,1.25-.51A1.67,1.67,0,0,0,391.15,374.74Zm-16.32,15.94-.05-.2c-.28-1.15-.91-1.72-1.87-1.72a1.59,1.59,0,0,0-1.2.6,2,2,0,0,0-.52,1.36,1.65,1.65,0,0,0,.54,1.24,1.8,1.8,0,0,0,1.28.52,1.74,1.74,0,0,0,1.39-.66A1.35,1.35,0,0,0,374.83,390.68ZM374.14,376l.45.17q-1.89-8.62-12.88-16.22a15.9,15.9,0,0,0-6.39-3c.39,1.16.68,2,.89,2.42a23.28,23.28,0,0,0,2.07,3.57Q365.26,373,374.14,376Z"/>
  <path class="cls-2" d="M394.51,142.9l-1.42-.41a9.26,9.26,0,0,1,.53,1.76l.09.72.1.43h-.62l-1,.09a15.87,15.87,0,0,1-1.73.1,4.61,4.61,0,0,1-3.08-1.14,3.34,3.34,0,0,1-1.33-2.58c0-1,.75-2.18,2.26-3.41A11.47,11.47,0,0,0,383,137.1a19.71,19.71,0,0,0-4.67.69,29.76,29.76,0,0,1-6.53,11.3L368.9,152l.46.14,3.05-.65.67,0a1.91,1.91,0,0,1,1.29.39,1.31,1.31,0,0,1,.63,1.09,5.55,5.55,0,0,1-1.13,2.07l-.24.33.38.2.41,0,1-.27A7,7,0,0,1,377,155c.93,0,1.49.33,1.68,1l.43,1.51a3.06,3.06,0,0,0,2.36.84,2.79,2.79,0,0,0,2-.8,2.64,2.64,0,0,0,.82-2,2.13,2.13,0,0,0-.57-1.5,1.94,1.94,0,0,0-1.44-.61,2.37,2.37,0,0,0-1.47.6,1,1,0,0,1-.5-.79,1.71,1.71,0,0,1,.67-1.37,2.6,2.6,0,0,1,1.71-.55,3,3,0,0,1,2.36,1.1,4.33,4.33,0,0,1,.92,2.88,4.39,4.39,0,0,1-2,3.73,8.31,8.31,0,0,1-5,1.43h-2.16c-1.81,0-3.05-.51-3.72-1.55s-1.15-1.54-1.44-1.54-.5.26-.65.79a6.17,6.17,0,0,1-.45,1.34,1.22,1.22,0,0,1-1.06.41,2.82,2.82,0,0,1-2.28-1.2,2.87,2.87,0,0,1-.72-2.13l.1-.7.48-1.9.05-.5a27.14,27.14,0,0,1-6.41,4.46,29.36,29.36,0,0,1-6.12,2,20.15,20.15,0,0,1,3.94-9.38l2.66-3.43-.46,0-1,.35a5.31,5.31,0,0,1-1.74.35,3.14,3.14,0,0,1-1.64-.48,2,2,0,0,1-1-1.06l-.38-1.27-.41-.89.36-.24a5.62,5.62,0,0,1,.77-.52c.08,0,.53-.14,1.34-.32l.44-.09a3.59,3.59,0,0,0-1.13-1.54,6.28,6.28,0,0,1-1.78-1.87,7.87,7.87,0,0,1-.24-2.49,21.28,21.28,0,0,1,.34-4,5.81,5.81,0,0,1,1.88-3.31,4.88,4.88,0,0,1,3.28-1.29,3.52,3.52,0,0,1,2.54,1,3.28,3.28,0,0,1,1.06,2.45,2.29,2.29,0,0,1-.53,1.55,1.69,1.69,0,0,1-1.35.61,3.08,3.08,0,0,1-.88-.33,2,2,0,0,0,.69-1.63c0-1.2-.62-1.8-1.87-1.8a2.91,2.91,0,0,0-2.11.86,2.79,2.79,0,0,0-.89,2.06c0,.93.27,1.52.79,1.78l1.52.74a1.47,1.47,0,0,1,1,1.32,6.78,6.78,0,0,1-.38,1.83,4.42,4.42,0,0,0-.29,1.41l.09.6,1.24-1a1.78,1.78,0,0,1,1.16-.53,1.67,1.67,0,0,1,1.25.56,1.87,1.87,0,0,1,.53,1.31,3.63,3.63,0,0,1-.15.89l-.5,1.82c-.08.26-.19.75-.34,1.47l.05.36a28.64,28.64,0,0,1,5.67-5.36,27.52,27.52,0,0,1,5-2.8l3.27-1.35.55-.24.05-.28a30.77,30.77,0,0,0,.5-3.89,8.53,8.53,0,0,0-1.44-5.16,3.63,3.63,0,0,1-3.1,1.73,3.43,3.43,0,0,1-2.7-1.37,5.11,5.11,0,0,1-1.13-3.36,10.61,10.61,0,0,1,.26-2.5l.1-.45,1.36.41c.23.06.83.19,1.83.38a11.57,11.57,0,0,1-1.26-2.72,10.26,10.26,0,0,0-1.24-2.61,3,3,0,0,0-2.42-1.1,3.12,3.12,0,0,0-2.33,1.07,3.48,3.48,0,0,0-1,2.46,3.16,3.16,0,0,0,2.07,2.85,2.52,2.52,0,0,1-1.59.53q-2.81,0-2.81-3.19a5,5,0,0,1,1.72-3.84,6.12,6.12,0,0,1,4.28-1.56q4.76,0,8.07,4.54a19.55,19.55,0,0,1,3.4,11.78,23.15,23.15,0,0,1-.84,6.09,25.61,25.61,0,0,1,5.59-.65,20.1,20.1,0,0,1,12.1,3.51q4.72,3.41,4.72,8.25a6.7,6.7,0,0,1-1.38,4.32,4.15,4.15,0,0,1-3.34,1.73,4.79,4.79,0,0,1-2.8-.83,2.33,2.33,0,0,1-1.19-1.88,5,5,0,0,1,.51-1.83c1.15,1.44,2.2,2.16,3.14,2.16a3.08,3.08,0,0,0,2.27-1,3.3,3.3,0,0,0,1-2.39Q399.28,144.23,394.51,142.9Zm.6-10.63,1,.36A1.22,1.22,0,0,0,397,132a1.64,1.64,0,0,0,.32-.88,2.88,2.88,0,0,0-1.46-2.38,6.08,6.08,0,0,0-3.56-1c-1.92,0-4.34.79-7.27,2.35l-.5-.52a13.09,13.09,0,0,0,2.32-7.13,6.57,6.57,0,0,0-.86-3.53,2.49,2.49,0,0,0-2.09-1.39c-1,0-1.57.47-1.63,1.42l.14.74,0,.24a1.38,1.38,0,0,1-.68.22,1.45,1.45,0,0,1-1.14-.6A2.29,2.29,0,0,1,380,118a2.78,2.78,0,0,1,.84-2,2.51,2.51,0,0,1,1.87-.89A4.44,4.44,0,0,1,386,117l-.05-.69c-.11-.53.38-1.11,1.47-1.73A4.36,4.36,0,0,1,389,116.2a5.76,5.76,0,0,1,.37,2.37,42.78,42.78,0,0,1-.33,4.32l.29-.43,1.58-3.65a8.55,8.55,0,0,1,2.12-3,3.91,3.91,0,0,1,2.54-1.19,2.1,2.1,0,0,1,2.16,1.82l.35-.24.89-1,.58-.46.65-.24.33.2.15.36c0,.51-.6,1.2-1.71,2.06l-.45.34a2.19,2.19,0,0,1,1.92,2.3c0,1.17-.84,2.21-2.5,3.12L391.41,126l.55,0a5.66,5.66,0,0,0,1.23-.14l2.44-.53a2.28,2.28,0,0,1,.8-.09,3.64,3.64,0,0,1,2.71.91l.72.79a2.84,2.84,0,0,1,.4.6,3.07,3.07,0,0,1-2.11,1.56,3.89,3.89,0,0,1,1.47,2.71,2.83,2.83,0,0,1-.92,2.11,2.94,2.94,0,0,1-2.13.89,2.08,2.08,0,0,1-1.32-.44,1.32,1.32,0,0,1-.55-1.05l.17-1Zm-7.37-5.59-.26.43q1.65-.77,3.45-1.8l2.88-1.68a3,3,0,0,0,1.82-2.49c0-1.12-.58-1.68-1.75-1.68q-1.39,0-2.88,1.89A45.09,45.09,0,0,0,387.74,126.68Zm-12.69-5a1.57,1.57,0,0,0-1.78,1.77,1.52,1.52,0,0,0,1.73,1.71,1.54,1.54,0,0,0,1.77-1.71,1.75,1.75,0,0,0-.51-1.25A1.65,1.65,0,0,0,375.05,121.67ZM391,138l-.19.05c-1.16.29-1.73.91-1.73,1.87a1.56,1.56,0,0,0,.6,1.2,2,2,0,0,0,1.37.53,1.63,1.63,0,0,0,1.23-.54,1.77,1.77,0,0,0,.52-1.28,1.72,1.72,0,0,0-.66-1.39A1.36,1.36,0,0,0,391,138Zm-14.71.7.17-.46q-8.62,1.91-16.22,12.89a15.87,15.87,0,0,0-3,6.38,19.79,19.79,0,0,0,6-3Q373.31,147.55,376.27,138.68Z"/>
  <path class="cls-2" d="M142.92,118.33l-.41,1.42a8.58,8.58,0,0,1,1.76-.53l.72-.1.43-.09v.62s0,.34.09,1a16,16,0,0,1,.1,1.73,4.62,4.62,0,0,1-1.14,3.09,3.37,3.37,0,0,1-2.58,1.33c-1,0-2.17-.75-3.41-2.26a11.46,11.46,0,0,0-1.36,5.35,19.85,19.85,0,0,0,.69,4.68,29.64,29.64,0,0,1,11.3,6.53l2.86,2.85.14-.45-.64-3-.05-.67a2,2,0,0,1,.39-1.3,1.32,1.32,0,0,1,1.09-.62A5.39,5.39,0,0,1,155,139l.33.24.2-.39-.05-.41c-.08-.32-.17-.64-.27-1a7.05,7.05,0,0,1-.21-1.61c0-.92.33-1.48,1-1.68l1.51-.43a3,3,0,0,0,.84-2.35,2.72,2.72,0,0,0-.8-2,2.64,2.64,0,0,0-2-.83,2.09,2.09,0,0,0-1.5.58,1.91,1.91,0,0,0-.61,1.44A2.32,2.32,0,0,0,154,132a1,1,0,0,1-.79.51,1.72,1.72,0,0,1-1.37-.68,2.55,2.55,0,0,1-.55-1.7,2.94,2.94,0,0,1,1.1-2.36,4.33,4.33,0,0,1,2.88-.93,4.43,4.43,0,0,1,3.74,2,8.33,8.33,0,0,1,1.42,5V136c0,1.8-.51,3-1.54,3.71s-1.55,1.16-1.55,1.44.26.51.79.65a6,6,0,0,1,1.34.46,1.18,1.18,0,0,1,.41,1.05,3.25,3.25,0,0,1-3.33,3l-.7-.09-1.9-.48-.5,0a27.14,27.14,0,0,1,4.46,6.41,29.45,29.45,0,0,1,2,6.11,20,20,0,0,1-9.38-3.93l-3.43-2.66,0,.45s.12.35.35,1a5.31,5.31,0,0,1,.35,1.74,3.17,3.17,0,0,1-.48,1.64,1.93,1.93,0,0,1-1.06,1l-1.27.39-.89.4-.24-.36a5.87,5.87,0,0,1-.52-.76c0-.08-.14-.53-.32-1.35l-.09-.43a3.51,3.51,0,0,0-1.54,1.13,6.21,6.21,0,0,1-1.87,1.77,7.87,7.87,0,0,1-2.49.24,22.2,22.2,0,0,1-4-.33,5.8,5.8,0,0,1-3.31-1.89,4.84,4.84,0,0,1-1.29-3.27,3.52,3.52,0,0,1,1-2.54,3.28,3.28,0,0,1,2.46-1.06,2.29,2.29,0,0,1,1.54.53,1.68,1.68,0,0,1,.61,1.34,3,3,0,0,1-.33.89,2,2,0,0,0-1.63-.7c-1.2,0-1.8.63-1.8,1.88a3,3,0,0,0,.86,2.11,2.79,2.79,0,0,0,2.06.88c.93,0,1.52-.26,1.78-.79l.74-1.51a1.47,1.47,0,0,1,1.32-1,6.78,6.78,0,0,1,1.83.38,4.42,4.42,0,0,0,1.41.29l.6-.1L140,152.37a1.86,1.86,0,0,1-.53-1.17A1.65,1.65,0,0,1,140,150a1.85,1.85,0,0,1,1.31-.53,4,4,0,0,1,.89.14l1.82.51q.39.12,1.47.33l.36,0a28,28,0,0,1-5.35-5.66,26.73,26.73,0,0,1-2.81-5l-1.35-3.26-.24-.55-.28,0a30.77,30.77,0,0,0-3.89-.5,8.53,8.53,0,0,0-5.16,1.44,3.63,3.63,0,0,1,1.73,3.09,3.43,3.43,0,0,1-1.37,2.7,5.07,5.07,0,0,1-3.36,1.14,11,11,0,0,1-2.49-.26l-.46-.1.41-1.37c.06-.22.19-.83.38-1.82a12.45,12.45,0,0,1-2.72,1.26,10.26,10.26,0,0,0-2.61,1.24,3,3,0,0,0-1.1,2.42,3.14,3.14,0,0,0,1.07,2.33,3.47,3.47,0,0,0,2.46,1,3.14,3.14,0,0,0,2.85-2.06,2.45,2.45,0,0,1,.53,1.58c0,1.88-1.06,2.81-3.19,2.81a5,5,0,0,1-3.84-1.71,6.16,6.16,0,0,1-1.56-4.29q0-4.74,4.54-8.06a19.55,19.55,0,0,1,11.78-3.41,23.15,23.15,0,0,1,6.09.84,25.54,25.54,0,0,1-.65-5.59,20.07,20.07,0,0,1,3.51-12.09q3.41-4.72,8.25-4.73a6.7,6.7,0,0,1,4.32,1.38,4.17,4.17,0,0,1,1.73,3.35,4.76,4.76,0,0,1-.83,2.79,2.3,2.3,0,0,1-1.88,1.19,5.25,5.25,0,0,1-1.83-.5c1.44-1.15,2.16-2.2,2.16-3.14a3.08,3.08,0,0,0-1-2.27,3.3,3.3,0,0,0-2.39-1Q144.25,113.56,142.92,118.33Zm-10.63-.6.36-1a1.22,1.22,0,0,0-.64-.87,1.74,1.74,0,0,0-.89-.31,2.9,2.9,0,0,0-2.38,1.45,6.13,6.13,0,0,0-1,3.57q0,2.88,2.36,7.27l-.53.5a13.1,13.1,0,0,0-7.13-2.33,6.57,6.57,0,0,0-3.53.87,2.47,2.47,0,0,0-1.39,2.08c0,1,.47,1.57,1.42,1.64l.74-.15.24.05a1.38,1.38,0,0,1,.22.67,1.45,1.45,0,0,1-.6,1.14,2.23,2.23,0,0,1-1.47.49,2.78,2.78,0,0,1-2-.84,2.5,2.5,0,0,1-.89-1.87,4.44,4.44,0,0,1,1.82-3.28l-.69,0c-.53.12-1.11-.37-1.73-1.46a4.32,4.32,0,0,1,1.61-1.6,5.94,5.94,0,0,1,2.37-.37,40.62,40.62,0,0,1,4.32.34l-.43-.29-3.65-1.58a8.45,8.45,0,0,1-3-2.13,3.88,3.88,0,0,1-1.19-2.53,2.1,2.1,0,0,1,1.82-2.16l-.24-.36-1-.89-.46-.57-.24-.65.2-.34.36-.14c.51,0,1.2.6,2.06,1.7l.34.46a2.19,2.19,0,0,1,2.3-1.92c1.17,0,2.21.83,3.12,2.5l3.17,6.55,0-.56a5.64,5.64,0,0,0-.14-1.22l-.53-2.45a2.18,2.18,0,0,1-.09-.79,3.62,3.62,0,0,1,.91-2.71L127,113a3.29,3.29,0,0,1,.6-.41,3.09,3.09,0,0,1,1.56,2.11,3.91,3.91,0,0,1,2.71-1.46,2.82,2.82,0,0,1,2.11.91,3,3,0,0,1,.89,2.14,2.08,2.08,0,0,1-.44,1.32,1.32,1.32,0,0,1-1,.55l-1-.17Zm-5.59,7.37.43.26q-.76-1.65-1.8-3.45L123.65,119a3,3,0,0,0-2.49-1.83c-1.12,0-1.68.59-1.68,1.75,0,.93.63,1.89,1.9,2.88A44.88,44.88,0,0,0,126.7,125.1Zm-5,12.69a1.57,1.57,0,0,0,1.77,1.78,1.52,1.52,0,0,0,1.71-1.73c0-1.18-.57-1.78-1.71-1.78a1.72,1.72,0,0,0-1.24.52A1.61,1.61,0,0,0,121.69,137.79ZM138,121.86l.05.19c.29,1.15.91,1.73,1.87,1.73a1.56,1.56,0,0,0,1.2-.6,2,2,0,0,0,.53-1.37,1.67,1.67,0,0,0-.54-1.24,1.81,1.81,0,0,0-1.28-.51,1.72,1.72,0,0,0-1.39.66A1.36,1.36,0,0,0,138,121.86Zm.7,14.71-.46-.17q1.9,8.61,12.89,16.22a15.87,15.87,0,0,0,6.38,3,19.79,19.79,0,0,0-2.95-6Q147.58,139.52,138.7,136.57Z"/>
  <path class="cls-2" d="M118.33,369.63l1.42.41a8.51,8.51,0,0,1-.53-1.75l-.1-.72-.09-.43h.62l1-.1c.64-.06,1.22-.1,1.73-.1a4.62,4.62,0,0,1,3.09,1.14,3.37,3.37,0,0,1,1.33,2.58c0,1-.75,2.18-2.26,3.41a11.47,11.47,0,0,0,5.35,1.37,19.42,19.42,0,0,0,4.68-.7,29.64,29.64,0,0,1,6.53-11.3l2.85-2.85-.45-.15-3,.65-.67.05a2,2,0,0,1-1.3-.4,1.31,1.31,0,0,1-.62-1.09,5.31,5.31,0,0,1,1.13-2.06l.24-.34-.39-.19-.41.05-1,.26a6.58,6.58,0,0,1-1.61.22q-1.38,0-1.68-1l-.43-1.51a3,3,0,0,0-2.35-.84,2.73,2.73,0,0,0-2,.81,2.61,2.61,0,0,0-.83,1.95,2.09,2.09,0,0,0,.58,1.5,1.87,1.87,0,0,0,1.44.61,2.32,2.32,0,0,0,1.46-.6,1,1,0,0,1,.51.79,1.7,1.7,0,0,1-.68,1.37,2.55,2.55,0,0,1-1.7.55,2.91,2.91,0,0,1-2.36-1.1,4.33,4.33,0,0,1-.93-2.88,4.42,4.42,0,0,1,2-3.73,8.33,8.33,0,0,1,5-1.43H136c1.8,0,3,.52,3.71,1.55s1.16,1.55,1.44,1.55.51-.27.65-.79a6.36,6.36,0,0,1,.46-1.35,1.2,1.2,0,0,1,1.05-.41,3.25,3.25,0,0,1,3,3.34l-.09.7-.48,1.89,0,.5a27.14,27.14,0,0,1,6.41-4.46,28.91,28.91,0,0,1,6.11-2A20.08,20.08,0,0,1,154.3,362l-2.66,3.43.45-.05s.35-.11,1-.35a5.27,5.27,0,0,1,1.74-.34,3.17,3.17,0,0,1,1.64.48,2,2,0,0,1,1,1.05l.39,1.27.4.89-.36.24a6.59,6.59,0,0,1-.76.53c-.08,0-.53.13-1.35.31l-.43.1a3.43,3.43,0,0,0,1.13,1.53,6.33,6.33,0,0,1,1.77,1.87,7.9,7.9,0,0,1,.24,2.5,22.16,22.16,0,0,1-.33,4,5.74,5.74,0,0,1-1.89,3.31A4.8,4.8,0,0,1,153,384a3.52,3.52,0,0,1-2.54-1,3.28,3.28,0,0,1-1.06-2.46,2.31,2.31,0,0,1,.53-1.55,1.68,1.68,0,0,1,1.34-.61,2.84,2.84,0,0,1,.89.34,2,2,0,0,0-.7,1.63c0,1.2.63,1.8,1.88,1.8a2.92,2.92,0,0,0,2.11-.87,2.76,2.76,0,0,0,.88-2.06c0-.93-.26-1.52-.79-1.78l-1.51-.74a1.47,1.47,0,0,1-1-1.32,6.8,6.8,0,0,1,.38-1.82,4.47,4.47,0,0,0,.29-1.42l-.1-.6-1.23,1.06a1.86,1.86,0,0,1-1.17.53,1.63,1.63,0,0,1-1.24-.57,1.81,1.81,0,0,1-.53-1.31,3.9,3.9,0,0,1,.14-.88l.51-1.83c.08-.25.19-.74.33-1.46l0-.36a28.27,28.27,0,0,1-5.66,5.35,27.31,27.31,0,0,1-5,2.81l-3.26,1.34-.55.24,0,.29a30.55,30.55,0,0,0-.5,3.89,8.51,8.51,0,0,0,1.44,5.15,3.62,3.62,0,0,1,3.09-1.72,3.4,3.4,0,0,1,2.7,1.37,5.06,5.06,0,0,1,1.14,3.35,11.16,11.16,0,0,1-.26,2.5l-.1.46-1.37-.41c-.22-.07-.83-.19-1.82-.39a12.81,12.81,0,0,1,1.26,2.73,10,10,0,0,0,1.24,2.6,2.92,2.92,0,0,0,2.42,1.1,3.13,3.13,0,0,0,2.33-1.06,3.51,3.51,0,0,0,1-2.46,3.15,3.15,0,0,0-2.06-2.86,2.51,2.51,0,0,1,1.58-.53c1.88,0,2.81,1.07,2.81,3.2a5,5,0,0,1-1.71,3.83,6.16,6.16,0,0,1-4.29,1.56q-4.74,0-8.06-4.53a19.57,19.57,0,0,1-3.41-11.78,23.28,23.28,0,0,1,.84-6.1,25.54,25.54,0,0,1-5.59.65,20.13,20.13,0,0,1-12.09-3.5q-4.72-3.4-4.73-8.26a6.73,6.73,0,0,1,1.38-4.32,4.16,4.16,0,0,1,3.35-1.72,4.76,4.76,0,0,1,2.79.82,2.32,2.32,0,0,1,1.19,1.89,5.16,5.16,0,0,1-.5,1.82c-1.15-1.44-2.2-2.16-3.14-2.16a3.05,3.05,0,0,0-2.27,1,3.28,3.28,0,0,0-1,2.39Q113.56,368.32,118.33,369.63Zm-.6,10.63-1-.36a1.27,1.27,0,0,0-.87.65,1.74,1.74,0,0,0-.31.89,2.89,2.89,0,0,0,1.45,2.37,6.06,6.06,0,0,0,3.57,1q2.88,0,7.27-2.35l.5.53a13.07,13.07,0,0,0-2.33,7.12,6.55,6.55,0,0,0,.87,3.53A2.45,2.45,0,0,0,129,395c1,0,1.57-.47,1.64-1.41l-.15-.75.05-.24a1.31,1.31,0,0,1,1.81.39,2.22,2.22,0,0,1,.49,1.46,2.8,2.8,0,0,1-.84,2,2.53,2.53,0,0,1-1.87.89,4.42,4.42,0,0,1-3.28-1.83l0,.7c.12.53-.37,1.1-1.46,1.73a4.39,4.39,0,0,1-1.6-1.61,6,6,0,0,1-.37-2.38,41,41,0,0,1,.34-4.32l-.29.44-1.58,3.64a8.49,8.49,0,0,1-2.13,3,3.93,3.93,0,0,1-2.53,1.19,2.1,2.1,0,0,1-2.16-1.83l-.36.24-.89,1-.57.46-.65.24-.34-.19-.14-.36c0-.51.6-1.2,1.7-2.07l.46-.33a2.2,2.2,0,0,1-1.92-2.3c0-1.17.83-2.21,2.5-3.12q3.25-1.59,6.55-3.17l-.56-.05a6.34,6.34,0,0,0-1.22.14l-2.45.53a1.91,1.91,0,0,1-.79.1,3.66,3.66,0,0,1-2.71-.91l-.72-.8a2.89,2.89,0,0,1-.41-.59,3.09,3.09,0,0,1,2.11-1.56,3.93,3.93,0,0,1-1.46-2.72,2.84,2.84,0,0,1,.91-2.11,3,3,0,0,1,2.14-.89,2,2,0,0,1,1.32.45,1.29,1.29,0,0,1,.55,1l-.17,1Zm7.37,5.59.26-.43q-1.65.76-3.45,1.8L119,388.9a3,3,0,0,0-1.83,2.5c0,1.12.59,1.68,1.75,1.68.93,0,1.89-.64,2.88-1.9A45.27,45.27,0,0,0,125.1,385.85Zm12.69,5a1.57,1.57,0,0,0,1.78-1.78,1.52,1.52,0,0,0-1.73-1.7c-1.18,0-1.78.57-1.78,1.7a1.75,1.75,0,0,0,.52,1.25A1.65,1.65,0,0,0,137.79,390.87Zm-15.93-16.32.19-.05c1.15-.28,1.73-.91,1.73-1.87a1.56,1.56,0,0,0-.6-1.2,2,2,0,0,0-1.37-.53,1.67,1.67,0,0,0-1.24.54,1.81,1.81,0,0,0-.51,1.29,1.74,1.74,0,0,0,.66,1.39A1.35,1.35,0,0,0,121.86,374.55Zm14.71-.69-.17.45q8.61-1.89,16.22-12.88a15.9,15.9,0,0,0,3-6.39,25.45,25.45,0,0,0-2.42.89,23.55,23.55,0,0,0-3.58,2.06Q139.52,365,136.57,373.86Z"/>
  <path class="cls-3" d="M240.54,488.27l1.29-.71a9,9,0,0,1-1.62-.87l-.57-.44-.38-.23.45-.45.62-.76c.41-.5.8-.93,1.16-1.29a4.6,4.6,0,0,1,3-1.37,3.35,3.35,0,0,1,2.77.88c.73.73,1,2.07.81,4a11.31,11.31,0,0,0,4.75-2.81,19.48,19.48,0,0,0,2.82-3.8,29.77,29.77,0,0,1-3.38-12.61v-4l-.42.22-1.7,2.62-.44.5a1.91,1.91,0,0,1-1.19.64,1.29,1.29,0,0,1-1.22-.33,5.7,5.7,0,0,1-.66-2.26l-.07-.4-.4.13-.26.32c-.17.29-.34.58-.51.89a6.59,6.59,0,0,1-1,1.29c-.66.65-1.29.82-1.88.49l-1.38-.77a3.08,3.08,0,0,0-2.26,1.07,2.76,2.76,0,0,0-.83,2,2.64,2.64,0,0,0,.8,2,2.08,2.08,0,0,0,1.47.65,1.91,1.91,0,0,0,1.45-.58,2.37,2.37,0,0,0,.61-1.46,1,1,0,0,1,.92.2,1.75,1.75,0,0,1,.49,1.44A2.62,2.62,0,0,1,243,474a3,3,0,0,1-2.45.89,4.67,4.67,0,0,1-3.93-5.41,8.35,8.35,0,0,1,2.53-4.56l1.53-1.53c1.28-1.27,2.52-1.79,3.72-1.53s1.91.28,2.12.08.17-.55-.11-1a5.91,5.91,0,0,1-.62-1.28,1.19,1.19,0,0,1,.45-1,3.26,3.26,0,0,1,4.48.24l.43.56,1,1.68.32.39a27.23,27.23,0,0,1,1.38-7.69,28.89,28.89,0,0,1,2.9-5.75,20.16,20.16,0,0,1,3.85,9.42l.54,4.31.29-.36s.16-.33.46-.95a5.36,5.36,0,0,1,1-1.48,3.23,3.23,0,0,1,1.5-.82,2,2,0,0,1,1.44.06l1.17.63.91.34-.08.42a7.78,7.78,0,0,1-.17.92c0,.08-.28.47-.73,1.17l-.24.37a3.47,3.47,0,0,0,1.89.29,6.16,6.16,0,0,1,2.57.07A7.73,7.73,0,0,1,273,464a21.62,21.62,0,0,1,2.58,3.06,5.81,5.81,0,0,1,1,3.67,4.86,4.86,0,0,1-1.4,3.23A3.55,3.55,0,0,1,272.7,475a3.29,3.29,0,0,1-2.49-1,2.29,2.29,0,0,1-.72-1.47,1.67,1.67,0,0,1,.52-1.38,3.07,3.07,0,0,1,.86-.39,2,2,0,0,0,.67,1.64,1.62,1.62,0,0,0,2.59-.05,2.91,2.91,0,0,0,.88-2.1,2.74,2.74,0,0,0-.83-2.09c-.65-.66-1.26-.89-1.81-.7l-1.6.55a1.48,1.48,0,0,1-1.63-.24,6.43,6.43,0,0,1-1-1.56,4.88,4.88,0,0,0-.8-1.21l-.49-.35c0,.54-.09,1.08-.13,1.62a1.81,1.81,0,0,1-.45,1.19A1.65,1.65,0,0,1,265,468a1.86,1.86,0,0,1-1.3-.55,4,4,0,0,1-.53-.73l-.93-1.65a14.75,14.75,0,0,0-.8-1.27l-.29-.22a28.08,28.08,0,0,1-.22,7.79,27.08,27.08,0,0,1-1.52,5.49L258,480.11l-.22.56.17.24a29,29,0,0,0,2.39,3.1,8.52,8.52,0,0,0,4.67,2.63,3.64,3.64,0,0,1,1-3.41,3.44,3.44,0,0,1,2.88-.94,5.08,5.08,0,0,1,3.18,1.57,11.09,11.09,0,0,1,1.58,1.95l.25.39-1.25.68q-.31.17-1.56,1a12.33,12.33,0,0,1,2.81,1,10.1,10.1,0,0,0,2.72,1,2.94,2.94,0,0,0,2.49-.93,3.07,3.07,0,0,0,.89-2.4,3.45,3.45,0,0,0-1-2.45,3.15,3.15,0,0,0-3.48-.56,2.51,2.51,0,0,1,.75-1.5q2-2,4.24.27a5,5,0,0,1,1.5,3.93,6.1,6.1,0,0,1-1.93,4.13q-3.36,3.36-8.9,2.5A19.55,19.55,0,0,1,260.41,487a23,23,0,0,1-3.72-4.91,25.07,25.07,0,0,1-3.5,4.41,20.11,20.11,0,0,1-11,6.08q-5.76.93-9.18-2.5a6.68,6.68,0,0,1-2.08-4,4.13,4.13,0,0,1,1.14-3.58,4.8,4.8,0,0,1,2.57-1.4,2.32,2.32,0,0,1,2.17.5,5.17,5.17,0,0,1,.93,1.64c-1.83-.2-3.08,0-3.75.7a3.08,3.08,0,0,0-.9,2.31,3.32,3.32,0,0,0,1,2.37C235.51,490,237.66,489.9,240.54,488.27Zm7.09,7.94-.95.44a1.24,1.24,0,0,0-.15,1.07,1.65,1.65,0,0,0,.4.85,2.87,2.87,0,0,0,2.71.65,6.1,6.1,0,0,0,3.23-1.8q2-2,3.48-6.81l.73,0a13.15,13.15,0,0,0,3.39,6.69,6.64,6.64,0,0,0,3.11,1.88,2.49,2.49,0,0,0,2.46-.49,1.42,1.42,0,0,0,.15-2.16l-.63-.42-.13-.21a1.34,1.34,0,0,1,.32-.62,1.45,1.45,0,0,1,1.23-.39,2.26,2.26,0,0,1,1.38.69,2.79,2.79,0,0,1,.8,2,2.54,2.54,0,0,1-.7,2,4.41,4.41,0,0,1-3.61,1l.53.46c.45.3.51,1.05.18,2.26a4.34,4.34,0,0,1-2.26,0,5.75,5.75,0,0,1-1.94-1.42,39.35,39.35,0,0,1-2.82-3.29l.1.51,1.46,3.7a8.38,8.38,0,0,1,.64,3.65,3.88,3.88,0,0,1-.95,2.63,2.08,2.08,0,0,1-2.81.23l-.09.43.11,1.36-.09.73-.29.62-.37.1-.36-.15c-.34-.38-.42-1.27-.25-2.66l.08-.56a2.19,2.19,0,0,1-3-.27q-1.25-1.25-.44-4c.79-2.29,1.58-4.58,2.39-6.88l-.43.36a5.75,5.75,0,0,0-.76,1l-1.36,2.1a2,2,0,0,1-.49.63,3.62,3.62,0,0,1-2.56,1.27l-1.07-.05a2.82,2.82,0,0,1-.71-.13,3.08,3.08,0,0,1,.39-2.6,3.94,3.94,0,0,1-3-.88,2.88,2.88,0,0,1-.84-2.14,3,3,0,0,1,.88-2.14,2,2,0,0,1,1.25-.62,1.3,1.3,0,0,1,1.12.35l.56.8Zm9.16-1.25-.12-.5q-.63,1.73-1.17,3.72l-.85,3.22a3,3,0,0,0,.48,3.06,1.52,1.52,0,0,0,2.42,0c.66-.66.89-1.78.7-3.38A45.17,45.17,0,0,0,256.79,495Zm12.52-5.43a1.57,1.57,0,0,0,0-2.51,1.51,1.51,0,0,0-2.42,0,1.53,1.53,0,0,0-.05,2.46,1.69,1.69,0,0,0,1.24.52A1.62,1.62,0,0,0,269.31,489.53Zm-22.8-.27.1-.17a1.9,1.9,0,0,0-.1-2.55,1.54,1.54,0,0,0-1.27-.42,2,2,0,0,0-1.34.59,1.67,1.67,0,0,0-.5,1.26,1.85,1.85,0,0,0,.55,1.27,1.75,1.75,0,0,0,1.45.52A1.36,1.36,0,0,0,246.51,489.26Zm9.91-10.9.2.44q4.75-7.43,2.36-20.58a15.84,15.84,0,0,0-2.39-6.63,25.44,25.44,0,0,0-1.09,2.34,24.11,24.11,0,0,0-1.07,4Q252.23,470,256.42,478.36Z"/>
  <path class="cls-3" d="M488.55,272.32l-.71-1.29a9.56,9.56,0,0,1-.86,1.61l-.45.58-.23.37-.44-.44-.77-.63a15.69,15.69,0,0,1-1.29-1.15,4.63,4.63,0,0,1-1.37-3,3.34,3.34,0,0,1,.88-2.76c.74-.74,2.07-1,4-.82a11.37,11.37,0,0,0-2.81-4.75,19.9,19.9,0,0,0-3.8-2.81,29.6,29.6,0,0,1-12.61,3.37h-4l.22.43,2.62,1.69.51.45a2,2,0,0,1,.63,1.19,1.28,1.28,0,0,1-.33,1.21,5.47,5.47,0,0,1-2.26.67l-.4.06.13.41.33.26c.28.17.57.33.88.5a7,7,0,0,1,1.29,1c.65.65.82,1.28.49,1.88l-.76,1.38a3,3,0,0,0,1.06,2.25,2.72,2.72,0,0,0,2,.83,2.59,2.59,0,0,0,2-.79,2.08,2.08,0,0,0,.65-1.47,1.87,1.87,0,0,0-.58-1.45,2.37,2.37,0,0,0-1.46-.61,1,1,0,0,1,.2-.92,1.72,1.72,0,0,1,1.45-.49,2.66,2.66,0,0,1,1.59.81,2.94,2.94,0,0,1,.89,2.46,4.27,4.27,0,0,1-1.38,2.68,4.39,4.39,0,0,1-4,1.25,8.35,8.35,0,0,1-4.56-2.53l-1.52-1.53q-1.92-1.92-1.54-3.73c.25-1.2.28-1.9.08-2.11s-.55-.17-1,.1a5.88,5.88,0,0,1-1.27.63,1.18,1.18,0,0,1-1-.46,3.26,3.26,0,0,1,.24-4.48l.56-.42,1.68-1,.39-.32a27.23,27.23,0,0,1-7.69-1.38,28.89,28.89,0,0,1-5.75-2.9,20.09,20.09,0,0,1,9.42-3.85l4.31-.54-.36-.29s-.33-.17-1-.46a5.36,5.36,0,0,1-1.48-1,3.22,3.22,0,0,1-.82-1.51,2,2,0,0,1,.06-1.43l.63-1.17.34-.92.42.09a6,6,0,0,1,.92.17c.08,0,.47.28,1.17.73l.37.24a3.49,3.49,0,0,0,.29-1.89,6.4,6.4,0,0,1,.07-2.58,8,8,0,0,1,1.59-1.93,21.62,21.62,0,0,1,3.06-2.58,5.81,5.81,0,0,1,3.67-1,4.81,4.81,0,0,1,3.23,1.4,3.55,3.55,0,0,1,1.08,2.52,3.29,3.29,0,0,1-1,2.49,2.29,2.29,0,0,1-1.47.72,1.7,1.7,0,0,1-1.38-.52,3,3,0,0,1-.39-.87,2,2,0,0,0,1.64-.66,1.62,1.62,0,0,0-.05-2.59,2.9,2.9,0,0,0-2.1-.89,2.81,2.81,0,0,0-2.09.83c-.65.66-.89,1.27-.69,1.82l.54,1.6a1.44,1.44,0,0,1-.24,1.62,6.12,6.12,0,0,1-1.56,1,4.54,4.54,0,0,0-1.2.8L465,246l1.62.13a1.84,1.84,0,0,1,1.2.45,1.63,1.63,0,0,1,.48,1.28,1.88,1.88,0,0,1-.55,1.3,3.56,3.56,0,0,1-.73.52l-1.65.94c-.23.12-.66.39-1.27.79l-.22.29a28.46,28.46,0,0,1,7.79.22,27.78,27.78,0,0,1,5.49,1.53l3.26,1.36.56.22.24-.17a30.4,30.4,0,0,0,3.1-2.39,8.46,8.46,0,0,0,2.63-4.67,3.61,3.61,0,0,1-3.41-1,3.44,3.44,0,0,1-.94-2.87,5,5,0,0,1,1.57-3.18,10.65,10.65,0,0,1,1.95-1.58l.39-.26.68,1.26c.12.2.45.72,1,1.56a11.87,11.87,0,0,1,1-2.82,10.2,10.2,0,0,0,1-2.71,3,3,0,0,0-.93-2.5,3.14,3.14,0,0,0-2.4-.89,3.45,3.45,0,0,0-2.45,1,3.15,3.15,0,0,0-.56,3.48,2.51,2.51,0,0,1-1.5-.75c-1.32-1.32-1.23-2.74.27-4.24a5,5,0,0,1,3.93-1.5,6.09,6.09,0,0,1,4.13,1.92q3.36,3.36,2.5,8.91a19.55,19.55,0,0,1-5.92,10.74,23.32,23.32,0,0,1-4.91,3.72,24.67,24.67,0,0,1,4.41,3.49,20.11,20.11,0,0,1,6.08,11q.93,5.76-2.5,9.18a6.73,6.73,0,0,1-4,2.08,4.15,4.15,0,0,1-3.59-1.15,4.72,4.72,0,0,1-1.39-2.56,2.31,2.31,0,0,1,.49-2.17,4.81,4.81,0,0,1,1.64-.93c-.2,1.83,0,3.08.7,3.75a3.08,3.08,0,0,0,2.31.9,3.32,3.32,0,0,0,2.37-1C490.28,277.35,490.18,275.19,488.55,272.32Zm7.94-7.09.45.95a1.24,1.24,0,0,0,1.06.15,1.58,1.58,0,0,0,.85-.41,2.88,2.88,0,0,0,.66-2.7A6.12,6.12,0,0,0,497.7,260q-2-2-6.81-3.48l0-.73a13,13,0,0,0,6.69-3.4,6.61,6.61,0,0,0,1.88-3.1,2.49,2.49,0,0,0-.49-2.46,1.41,1.41,0,0,0-2.16-.15l-.42.62-.2.14a1.42,1.42,0,0,1-.63-.32,1.44,1.44,0,0,1-.38-1.23,2.27,2.27,0,0,1,.68-1.39,2.83,2.83,0,0,1,2-.79,2.53,2.53,0,0,1,1.95.69,4.44,4.44,0,0,1,1,3.62l.46-.53c.3-.45,1.05-.51,2.26-.19a4.38,4.38,0,0,1,0,2.27,5.75,5.75,0,0,1-1.42,1.94,39.35,39.35,0,0,1-3.29,2.82l.51-.1,3.7-1.46a8.39,8.39,0,0,1,3.65-.65,4,4,0,0,1,2.63.95,2.1,2.1,0,0,1,.24,2.82l.42.08,1.36-.1.73.09.62.29.11.37-.16.36c-.38.33-1.27.42-2.66.25l-.56-.09a2.2,2.2,0,0,1-.27,3c-.83.83-2.15,1-4,.44l-6.87-2.39.35.42a6.2,6.2,0,0,0,1,.77l2.1,1.35a2,2,0,0,1,.63.5,3.58,3.58,0,0,1,1.27,2.56l0,1.07a2.9,2.9,0,0,1-.13.71,3.09,3.09,0,0,1-2.6-.39,3.86,3.86,0,0,1-.88,2.95,2.85,2.85,0,0,1-2.14.85,3,3,0,0,1-2.14-.88,2.1,2.1,0,0,1-.62-1.25,1.33,1.33,0,0,1,.35-1.13l.8-.56Zm-1.25-9.16-.49.11c1.14.42,2.38.81,3.71,1.18l3.23.84a3,3,0,0,0,3.05-.47,1.53,1.53,0,0,0-.05-2.43c-.66-.65-1.78-.89-3.38-.69A43.62,43.62,0,0,0,495.24,256.07Zm-5.43-12.53a1.58,1.58,0,0,0-2.51,0,1.52,1.52,0,0,0,0,2.43,1.54,1.54,0,0,0,2.46.05,1.7,1.7,0,0,0,.52-1.25A1.62,1.62,0,0,0,489.81,243.54Zm-.27,22.81-.17-.1a1.9,1.9,0,0,0-2.55.1,1.56,1.56,0,0,0-.42,1.27A2,2,0,0,0,487,269a1.66,1.66,0,0,0,1.26.49,1.78,1.78,0,0,0,1.27-.54,1.73,1.73,0,0,0,.52-1.45A1.36,1.36,0,0,0,489.54,266.35Zm-10.9-9.91.45-.2q-7.44-4.76-20.59-2.36a15.84,15.84,0,0,0-6.63,2.39c1.1.55,1.88.92,2.34,1.09a24.18,24.18,0,0,0,4,1.06Q470.28,260.63,478.64,256.44Z"/>
  <path class="cls-3" d="M272.32,24.26,271,25a9.56,9.56,0,0,1,1.61.86l.58.44.37.24-.44.44-.63.76A15.69,15.69,0,0,1,271.37,29a4.59,4.59,0,0,1-3,1.38,3.37,3.37,0,0,1-2.76-.88c-.74-.74-1-2.07-.82-4a11.49,11.49,0,0,0-4.75,2.82,19.59,19.59,0,0,0-2.81,3.8,29.6,29.6,0,0,1,3.37,12.6v4l.43-.22,1.69-2.61.45-.51a2,2,0,0,1,1.19-.64,1.3,1.3,0,0,1,1.21.34,5.34,5.34,0,0,1,.67,2.25l.06.41.41-.14.26-.32c.17-.28.33-.58.5-.88a7,7,0,0,1,1-1.29c.65-.66,1.28-.82,1.88-.49l1.38.76A3,3,0,0,0,274,44.35a2.71,2.71,0,0,0,.83-2,2.57,2.57,0,0,0-.79-2,2.13,2.13,0,0,0-1.47-.66,1.88,1.88,0,0,0-1.45.59,2.34,2.34,0,0,0-.61,1.46,1,1,0,0,1-.92-.21,1.69,1.69,0,0,1-.49-1.44,2.6,2.6,0,0,1,.81-1.59,2.94,2.94,0,0,1,2.46-.89A4.27,4.27,0,0,1,275,39.06a4.38,4.38,0,0,1,1.25,4,8.29,8.29,0,0,1-2.53,4.55l-1.53,1.53q-1.92,1.92-3.73,1.54c-1.2-.26-1.9-.28-2.11-.08s-.17.54.1,1a5.66,5.66,0,0,1,.63,1.27,1.17,1.17,0,0,1-.46,1,2.79,2.79,0,0,1-2.46.77,2.85,2.85,0,0,1-2-1l-.42-.56-1-1.68-.32-.39a27.16,27.16,0,0,1-1.38,7.68,28.94,28.94,0,0,1-2.9,5.76,20.09,20.09,0,0,1-3.85-9.42l-.54-4.31-.29.36s-.17.32-.46,1a5.15,5.15,0,0,1-1,1.47,3.13,3.13,0,0,1-1.51.82,1.94,1.94,0,0,1-1.43,0l-1.17-.63-.92-.34.09-.43a5.73,5.73,0,0,1,.17-.91c0-.08.28-.47.73-1.17l.24-.38a3.49,3.49,0,0,0-1.89-.28,6.4,6.4,0,0,1-2.58-.07,7.87,7.87,0,0,1-1.93-1.6,22.15,22.15,0,0,1-2.58-3,5.84,5.84,0,0,1-1-3.68,4.83,4.83,0,0,1,1.4-3.23,3.5,3.5,0,0,1,2.52-1.07,3.29,3.29,0,0,1,2.49,1,2.29,2.29,0,0,1,.72,1.47,1.72,1.72,0,0,1-.52,1.38,3,3,0,0,1-.87.39,2,2,0,0,0-.66-1.65,1.62,1.62,0,0,0-2.59,0,2.93,2.93,0,0,0-.89,2.11,2.79,2.79,0,0,0,.83,2.08c.66.66,1.27.89,1.82.7l1.6-.54a1.45,1.45,0,0,1,1.62.23,6.41,6.41,0,0,1,1,1.57,4.54,4.54,0,0,0,.8,1.2l.49.36c0-.55.09-1.09.13-1.62a1.84,1.84,0,0,1,.45-1.2,1.63,1.63,0,0,1,1.28-.48,1.84,1.84,0,0,1,1.3.55,3.56,3.56,0,0,1,.52.73l.94,1.64c.12.24.39.67.79,1.28l.29.22a28.46,28.46,0,0,1,.22-7.79,27.69,27.69,0,0,1,1.53-5.5l1.36-3.26.22-.56-.17-.23a31,31,0,0,0-2.39-3.11,8.58,8.58,0,0,0-4.67-2.63,3.61,3.61,0,0,1-1,3.41,3.38,3.38,0,0,1-2.87.94,5,5,0,0,1-3.18-1.57,10,10,0,0,1-1.58-2l-.26-.39,1.26-.68c.2-.11.72-.45,1.56-1a12.34,12.34,0,0,1-2.82-1,10,10,0,0,0-2.71-1,3,3,0,0,0-2.5.94,3.14,3.14,0,0,0-.89,2.4,3.47,3.47,0,0,0,1,2.45,3.15,3.15,0,0,0,3.48.56,2.48,2.48,0,0,1-.75,1.49c-1.32,1.33-2.74,1.24-4.24-.27a5,5,0,0,1-1.5-3.93,6.11,6.11,0,0,1,1.92-4.13q3.36-3.36,8.91-2.49a19.49,19.49,0,0,1,10.74,5.92,23.25,23.25,0,0,1,3.72,4.9,25.4,25.4,0,0,1,3.49-4.41,20.15,20.15,0,0,1,11-6.07c3.84-.63,6.9.21,9.18,2.49a6.76,6.76,0,0,1,2.08,4,4.16,4.16,0,0,1-1.15,3.59,4.72,4.72,0,0,1-2.56,1.39,2.31,2.31,0,0,1-2.17-.49,5,5,0,0,1-.93-1.65c1.83.21,3.08,0,3.75-.69a3.08,3.08,0,0,0,.9-2.31,3.34,3.34,0,0,0-1-2.38C277.35,22.54,275.19,22.63,272.32,24.26Zm-7.09-7.94.95-.44a1.27,1.27,0,0,0,.15-1.07,1.66,1.66,0,0,0-.41-.85,2.87,2.87,0,0,0-2.7-.65A6,6,0,0,0,260,15.12q-2,2-3.48,6.8l-.73,0a13,13,0,0,0-3.4-6.68,6.45,6.45,0,0,0-3.1-1.88,2.46,2.46,0,0,0-2.46.49,1.4,1.4,0,0,0-.15,2.15l.62.43.14.2a1.54,1.54,0,0,1-.32.63,1.47,1.47,0,0,1-1.23.38,2.23,2.23,0,0,1-1.39-.69,2.82,2.82,0,0,1-.79-2,2.51,2.51,0,0,1,.69-1.95A4.45,4.45,0,0,1,248,12l-.53-.46c-.45-.29-.51-1-.19-2.25a4.27,4.27,0,0,1,2.27,0,5.69,5.69,0,0,1,1.94,1.41A43,43,0,0,1,254.32,14l-.1-.51-1.46-3.69a8.42,8.42,0,0,1-.65-3.65,3.94,3.94,0,0,1,.95-2.63,2.1,2.1,0,0,1,2.82-.24l.08-.42-.1-1.36L256,.73l.29-.63.37-.1.36.15c.33.39.42,1.28.25,2.67l-.09.56a2.2,2.2,0,0,1,3,.27c.83.82,1,2.15.44,4l-2.39,6.87.42-.36a6.09,6.09,0,0,0,.77-1l1.35-2.11a2.3,2.3,0,0,1,.5-.63,3.62,3.62,0,0,1,2.56-1.27l1.07.05a3,3,0,0,1,.71.14,3.06,3.06,0,0,1-.39,2.59,3.86,3.86,0,0,1,2.95.89A2.83,2.83,0,0,1,269,15a2.93,2.93,0,0,1-.88,2.14,2,2,0,0,1-1.25.62,1.3,1.3,0,0,1-1.13-.35l-.56-.79Zm-9.16,1.26.11.49c.42-1.14.81-2.38,1.18-3.72l.84-3.22a3,3,0,0,0-.47-3.05,1.51,1.51,0,0,0-2.43.05c-.65.65-.89,1.78-.69,3.37A43.66,43.66,0,0,0,256.07,17.58ZM243.54,23a1.58,1.58,0,0,0,0,2.51,1.52,1.52,0,0,0,2.43,0A1.54,1.54,0,0,0,246,23a1.74,1.74,0,0,0-1.25-.52A1.67,1.67,0,0,0,243.54,23Zm22.81.27-.1.17a1.89,1.89,0,0,0,.1,2.54,1.56,1.56,0,0,0,1.27.43,2,2,0,0,0,1.34-.6,1.64,1.64,0,0,0,.49-1.25,1.78,1.78,0,0,0-.54-1.27,1.73,1.73,0,0,0-1.45-.52A1.36,1.36,0,0,0,266.35,23.28Zm-9.91,10.89-.2-.44q-4.76,7.43-2.36,20.58A16,16,0,0,0,256.27,61c.55-1.1.92-1.88,1.09-2.35a23.77,23.77,0,0,0,1.06-4Q260.63,42.53,256.44,34.17Z"/>
  <path class="cls-3" d="M24.26,240.54l.72,1.29a9.68,9.68,0,0,1,.86-1.62l.44-.57.24-.38.44.45.76.62c.5.41.93.8,1.29,1.16a4.57,4.57,0,0,1,1.38,3,3.38,3.38,0,0,1-.88,2.77c-.74.73-2.07,1-4,.81a11.43,11.43,0,0,0,2.82,4.75,19.18,19.18,0,0,0,3.8,2.82,29.77,29.77,0,0,1,12.6-3.38h4l-.22-.42-2.61-1.7-.51-.44a2,2,0,0,1-.64-1.19,1.32,1.32,0,0,1,.34-1.22,5.56,5.56,0,0,1,2.25-.66l.41-.07-.14-.4-.32-.26-.88-.51a6.59,6.59,0,0,1-1.29-1c-.66-.66-.82-1.29-.49-1.88l.76-1.38a3,3,0,0,0-1.07-2.26,2.74,2.74,0,0,0-2-.83,2.62,2.62,0,0,0-2,.8,2.13,2.13,0,0,0-.66,1.47,1.88,1.88,0,0,0,.59,1.45,2.34,2.34,0,0,0,1.46.61,1,1,0,0,1-.21.92,1.72,1.72,0,0,1-1.44.49,2.57,2.57,0,0,1-1.59-.82,2.92,2.92,0,0,1-.89-2.45,4.32,4.32,0,0,1,1.38-2.69,4.4,4.4,0,0,1,4-1.24,8.29,8.29,0,0,1,4.55,2.53l1.53,1.53q1.92,1.92,1.54,3.72c-.26,1.21-.28,1.91-.08,2.12s.54.17,1-.11a5.93,5.93,0,0,1,1.27-.62,1.18,1.18,0,0,1,1,.45,3.25,3.25,0,0,1-.23,4.48l-.56.43-1.68,1-.39.32a27.16,27.16,0,0,1,7.68,1.38,28.94,28.94,0,0,1,5.76,2.9,20.2,20.2,0,0,1-9.42,3.85l-4.31.54.36.29,1,.46a5.15,5.15,0,0,1,1.47,1,3.15,3.15,0,0,1,.82,1.5,2,2,0,0,1,0,1.44l-.63,1.17-.34.91-.43-.08a7.4,7.4,0,0,1-.91-.17c-.08,0-.47-.28-1.17-.73l-.38-.24a3.48,3.48,0,0,0-.28,1.89,6.34,6.34,0,0,1-.07,2.57,7.86,7.86,0,0,1-1.6,1.94,22.15,22.15,0,0,1-3,2.58,5.84,5.84,0,0,1-3.68,1,4.88,4.88,0,0,1-3.23-1.4,3.5,3.5,0,0,1-1.07-2.52,3.29,3.29,0,0,1,1-2.49,2.29,2.29,0,0,1,1.47-.72,1.69,1.69,0,0,1,1.38.52,3.07,3.07,0,0,1,.39.86,2,2,0,0,0-1.65.67,1.62,1.62,0,0,0,0,2.59,2.92,2.92,0,0,0,2.11.88,2.72,2.72,0,0,0,2.08-.83c.66-.65.89-1.26.7-1.81l-.54-1.6a1.47,1.47,0,0,1,.23-1.63,6.75,6.75,0,0,1,1.57-1,4.54,4.54,0,0,0,1.2-.8l.36-.49-1.62-.13a1.84,1.84,0,0,1-1.2-.45,1.64,1.64,0,0,1-.48-1.28,1.82,1.82,0,0,1,.55-1.3,4,4,0,0,1,.73-.53l1.64-.93a14.43,14.43,0,0,0,1.28-.8l.22-.29a28.07,28.07,0,0,1-7.79-.22,27,27,0,0,1-5.5-1.52L32.42,258l-.56-.22-.23.17a29.47,29.47,0,0,0-3.11,2.39A8.58,8.58,0,0,0,25.89,265a3.63,3.63,0,0,1,3.41,1,3.41,3.41,0,0,1,.94,2.88,5,5,0,0,1-1.57,3.18,10.41,10.41,0,0,1-2,1.58l-.39.25-.68-1.25c-.11-.21-.45-.73-1-1.56a12.47,12.47,0,0,1-1,2.81,10.1,10.1,0,0,0-1,2.72,2.92,2.92,0,0,0,.94,2.49A3.07,3.07,0,0,0,26,280a3.46,3.46,0,0,0,2.45-1,3.15,3.15,0,0,0,.56-3.48,2.48,2.48,0,0,1,1.49.75q2,2-.27,4.24a5,5,0,0,1-3.93,1.5,6.12,6.12,0,0,1-4.13-1.93q-3.36-3.36-2.49-8.9a19.49,19.49,0,0,1,5.92-10.74,22.92,22.92,0,0,1,4.9-3.72,25.44,25.44,0,0,1-4.41-3.5,20.1,20.1,0,0,1-6.07-11c-.63-3.84.21-6.9,2.49-9.18a6.7,6.7,0,0,1,4-2.08,4.15,4.15,0,0,1,3.59,1.14,4.78,4.78,0,0,1,1.39,2.57,2.31,2.31,0,0,1-.49,2.17,5.36,5.36,0,0,1-1.65.93c.21-1.83,0-3.08-.69-3.75a3.08,3.08,0,0,0-2.31-.9,3.33,3.33,0,0,0-2.38,1C22.54,235.51,22.63,237.66,24.26,240.54Zm-7.94,7.09-.44-.95a1.23,1.23,0,0,0-1.07-.15,1.73,1.73,0,0,0-.85.4,2.9,2.9,0,0,0-.65,2.71,6,6,0,0,0,1.81,3.23q2,2,6.8,3.48l0,.73a13.08,13.08,0,0,0-6.68,3.39,6.48,6.48,0,0,0-1.88,3.11,2.46,2.46,0,0,0,.49,2.46,1.41,1.41,0,0,0,2.15.15l.43-.63.2-.13a1.43,1.43,0,0,1,.63.32,1.47,1.47,0,0,1,.38,1.23,2.21,2.21,0,0,1-.69,1.38,2.79,2.79,0,0,1-2,.8,2.51,2.51,0,0,1-1.95-.7,4.41,4.41,0,0,1-1-3.61l-.46.53q-.43.67-2.25.18a4.24,4.24,0,0,1,0-2.26,5.69,5.69,0,0,1,1.41-1.94A43,43,0,0,1,14,258.54l-.51.1L9.76,260.1a8.4,8.4,0,0,1-3.65.64,3.84,3.84,0,0,1-2.63-.95A2.09,2.09,0,0,1,3.24,257l-.42-.09L1.46,257l-.73-.09-.63-.29-.1-.37.15-.36c.39-.34,1.28-.42,2.67-.25l.56.08a2.19,2.19,0,0,1,.27-3c.82-.83,2.15-1,4-.44l6.87,2.39-.36-.43a6.07,6.07,0,0,0-1-.76l-2.11-1.36a2.19,2.19,0,0,1-.63-.49,3.62,3.62,0,0,1-1.27-2.56L9.21,248a2.87,2.87,0,0,1,.14-.71,3.06,3.06,0,0,1,2.59.39,3.9,3.9,0,0,1,.89-3A2.86,2.86,0,0,1,15,243.9a2.93,2.93,0,0,1,2.14.88,2,2,0,0,1,.62,1.25,1.27,1.27,0,0,1-.35,1.12l-.79.56Zm1.26,9.16.49-.12q-1.71-.63-3.72-1.17l-3.22-.85a3,3,0,0,0-3.05.48,1.5,1.5,0,0,0,.05,2.42c.65.66,1.78.89,3.37.7A45.2,45.2,0,0,0,17.58,256.79ZM23,269.31a1.57,1.57,0,0,0,2.51,0,1.51,1.51,0,0,0,0-2.42,1.53,1.53,0,0,0-2.46-.05,1.73,1.73,0,0,0-.52,1.24A1.67,1.67,0,0,0,23,269.31Zm.27-22.8.17.1a1.89,1.89,0,0,0,2.54-.1,1.57,1.57,0,0,0,.43-1.27,2,2,0,0,0-.6-1.34,1.64,1.64,0,0,0-1.25-.5,1.83,1.83,0,0,0-1.27.55,1.72,1.72,0,0,0-.52,1.45A1.36,1.36,0,0,0,23.28,246.51Zm10.89,9.91-.44.2q7.43,4.75,20.58,2.36A16,16,0,0,0,61,256.59a24.09,24.09,0,0,0-2.35-1.09,23.7,23.7,0,0,0-4-1.07Q42.53,252.23,34.17,256.42Z"/>
</svg>