<svg xmlns="http://www.w3.org/2000/svg" viewBox="0 0 273.43 62.45"><g id="レイヤー_2" data-name="レイヤー 2"><g id="レイヤー_1-2" data-name="レイヤー 1"><path d="M50.33.14H60.59V1.71H56.31V12.44H54.55V1.71H50.33Z"/><path d="M71.23.16H73V12.44H71.23V7.1h-6.9v5.34H62.57V.16h1.76V5.47h6.9Z"/><path d="M76.24.16h7V1.72H78V5.47h5V7H78v3.82h5.37v1.56H76.24Z"/><path d="M94.93.09h1.24l5.5,12.35h-1.8L98.24,8.8H93l-1.54,3.64H89.65Zm2.58,7.15-2-4.45L93.69,7.24Z"/><path d="M103.52,12.44V.16h3.08a4.48,4.48,0,0,1,3,.92,3.13,3.13,0,0,1,1.09,2.5,3.18,3.18,0,0,1-.54,1.85,3.07,3.07,0,0,1-1.54,1.17,5.37,5.37,0,0,1,1.16,1.06A21.31,21.31,0,0,1,111.31,10c.43.7.77,1.22,1,1.57l.65.88H110.9l-.54-.81a1.27,1.27,0,0,0-.11-.15l-.34-.48-.54-.9-.59-1a9.86,9.86,0,0,0-1-1.2,3.55,3.55,0,0,0-.82-.65,2.77,2.77,0,0,0-1.22-.19h-.46v5.34Zm2.29-10.79h-.53V5.53H106a5,5,0,0,0,1.83-.23,1.67,1.67,0,0,0,.77-.69,2,2,0,0,0,.28-1.05,1.82,1.82,0,0,0-.31-1.05,1.64,1.64,0,0,0-.86-.66A6.2,6.2,0,0,0,105.81,1.65Z"/><path d="M124.73,9.59v1.94a9.21,9.21,0,0,1-4.46,1.05,6.92,6.92,0,0,1-3.5-.82,6.11,6.11,0,0,1-2.26-2.28,6.16,6.16,0,0,1-.84-3.14,6,6,0,0,1,1.91-4.51A6.58,6.58,0,0,1,120.3,0a11.15,11.15,0,0,1,4.3,1V2.9a8.48,8.48,0,0,0-4.21-1.23A4.83,4.83,0,0,0,116.89,3a4.43,4.43,0,0,0-1.4,3.34,4.37,4.37,0,0,0,1.37,3.32,4.9,4.9,0,0,0,3.51,1.3A7.91,7.91,0,0,0,124.73,9.59Z"/><path d="M136.09.16h1.76V12.44h-1.76V7.1h-6.9v5.34h-1.76V.16h1.76V5.47h6.9Z"/><path d="M141.11.16h1.76V12.44h-1.76Z"/><path d="M144.85.14h10.26V1.71h-4.28V12.44h-1.77V1.71h-4.21Z"/><path d="M157.09.16h7V1.72h-5.2V5.47h5V7h-5v3.82h5.37v1.56h-7.13Z"/><path d="M177,9.59v1.94a9.21,9.21,0,0,1-4.46,1.05,6.92,6.92,0,0,1-3.5-.82,6.11,6.11,0,0,1-2.26-2.28,6.16,6.16,0,0,1-.84-3.14,6,6,0,0,1,1.91-4.51A6.58,6.58,0,0,1,172.53,0a11.15,11.15,0,0,1,4.3,1V2.9a8.48,8.48,0,0,0-4.21-1.23A4.83,4.83,0,0,0,169.12,3a4.43,4.43,0,0,0-1.4,3.34,4.37,4.37,0,0,0,1.37,3.32A4.9,4.9,0,0,0,172.6,11,7.91,7.91,0,0,0,177,9.59Z"/><path d="M178.6.14h10.26V1.71h-4.28V12.44h-1.77V1.71H178.6Z"/><path d="M199.51.16h1.77v7a8.2,8.2,0,0,1-.21,2.14,4.81,4.81,0,0,1-.51,1.2,3.74,3.74,0,0,1-.74.85,6.49,6.49,0,0,1-7.67,0,3.79,3.79,0,0,1-.74-.86,4.15,4.15,0,0,1-.5-1.18,8.28,8.28,0,0,1-.2-2.18V.16h1.77v7a5.22,5.22,0,0,0,.39,2.41,2.87,2.87,0,0,0,1.21,1.09,4.19,4.19,0,0,0,1.9.4,3.86,3.86,0,0,0,2.55-.81,2.52,2.52,0,0,0,.75-1,6.45,6.45,0,0,0,.23-2Z"/><path d="M204.39,12.44V.16h3.08a4.48,4.48,0,0,1,3,.92,3.1,3.1,0,0,1,1.09,2.5A3.18,3.18,0,0,1,211,5.43a3.09,3.09,0,0,1-1.53,1.17,5.58,5.58,0,0,1,1.15,1.06A21.31,21.31,0,0,1,212.18,10c.43.7.77,1.22,1,1.57l.65.88h-2.09l-.54-.81-.1-.15-.35-.48-.54-.9-.59-1a9,9,0,0,0-1-1.2,3.55,3.55,0,0,0-.82-.65,2.77,2.77,0,0,0-1.22-.19h-.46v5.34Zm2.29-10.79h-.53V5.53h.67a5,5,0,0,0,1.83-.23,1.67,1.67,0,0,0,.77-.69,2,2,0,0,0,.28-1.05,1.82,1.82,0,0,0-.31-1.05,1.64,1.64,0,0,0-.86-.66A6.2,6.2,0,0,0,206.68,1.65Z"/><path d="M215.69.16h7V1.72h-5.2V5.47h5V7h-5v3.82h5.37v1.56h-7.13Z"/><path d="M133.31,24.57a5,5,0,0,1,3.56,1.36,4.51,4.51,0,0,1,1.42,3.39,4.39,4.39,0,0,1-1.44,3.37A5.09,5.09,0,0,1,133.24,34a4.8,4.8,0,0,1-3.47-1.34,4.44,4.44,0,0,1-1.39-3.35,4.55,4.55,0,0,1,1.4-3.41A4.88,4.88,0,0,1,133.31,24.57Zm.05,1.26a3.58,3.58,0,0,0-2.6,1,3.35,3.35,0,0,0-1,2.52,3.3,3.3,0,0,0,1,2.48,3.79,3.79,0,0,0,5.13,0,3.39,3.39,0,0,0,1-2.51,3.3,3.3,0,0,0-1-2.46A3.51,3.51,0,0,0,133.36,25.83Z"/><path d="M140.28,24.71h4.92v1.17h-3.6v2.57h3.6v1.18h-3.6v4.29h-1.32Z"/><path d="M0,62.11v-.65c.38,0,1.6-.07,1.94-.09.22-.25.27-1.76.27-4.26V51.35c0-2.47,0-4-.27-4.25C1.6,47.08.38,47,0,47v-.66c2.14,0,4.61-.15,7.18-.15,3.89,0,5.49,2.2,5.49,4.84,0,2.47-1.78,4.79-5.38,4.79a7.28,7.28,0,0,1-2.68-.47v1.75c0,2.5,0,4,.27,4.26.34,0,1.89.09,2.28.09v.65Zm4.61-7.25a4.75,4.75,0,0,0,1.51.23c3.17,0,4.12-2.1,4.12-4.14,0-2.37-1.35-4.1-4.32-4.1a8.94,8.94,0,0,0-1.31.09Z"/><path d="M14,62.11v-.65c.39,0,1.6-.07,1.94-.09.22-.25.27-1.76.27-4.26V51.35c0-2.47-.05-4-.27-4.25-.34,0-1.55-.09-1.94-.09v-.66c2.1,0,4.32-.15,6.85-.15,3.93,0,5.44,1.87,5.44,3.94,0,2.29-1.66,3.71-4,4.07,2,.7,3.1,1.17,3.71,4.25.49,2.5,1.3,3.09,2.79,3.09.18,0,.52,0,.67,0l.12.59a7.88,7.88,0,0,1-1.65.15c-2.56,0-3.75-.69-4.43-3.55-.29-3.31-.85-4.21-3.64-4.37l-1.24-.07v2.86c0,2.5,0,4,.27,4.26.33,0,1.57.09,2,.09v.65Zm4.62-8.42h2a3.17,3.17,0,0,0,3.22-3.42c0-2.05-1.28-3.42-4-3.42a7.91,7.91,0,0,0-1.24.09Z"/><path d="M31.09,62.11v-.65c.38,0,1.6-.07,1.94-.09.22-.25.27-1.76.27-4.26V51.35c0-2.47,0-4-.27-4.25-.34,0-1.56-.09-1.94-.09v-.66h6.84V47c-.38,0-1.62.07-2,.09-.23.25-.27,1.75-.27,4.25v5.76c0,2.48,0,4,.27,4.26.33,0,1.57.09,2,.09v.65Z"/><path d="M53.8,62.45,43.61,48.94v8.17c0,2.48,0,4,.27,4.26.34,0,1.55.09,1.93.09v.65H40.55v-.65c.38,0,1.6-.07,1.93-.09.23-.25.27-1.76.27-4.26V47.86c-.47-.54-.65-.67-.87-.76L40.19,47v-.66h4.5L53.51,58V51.35c0-2.47,0-4-.27-4.25-.34,0-1.57-.09-2-.09v-.66h5.29V47c-.38,0-1.62.07-2,.09-.22.25-.27,1.75-.27,4.25v11.1Z"/><path d="M61.88,62.11v-.65c.38,0,1.62-.07,2-.09.22-.25.27-1.76.27-4.26V47H61.88c-1.8,0-2.14.16-2.32,1-.06.26-.31,1.48-.36,1.75h-.65V46.35H72.08v3.38h-.66c0-.27-.29-1.49-.36-1.75-.18-.81-.51-1-2.32-1H66.52v10.1c0,2.5,0,4,.27,4.26.33,0,1.57.09,1.95.09v.65Z"/><path d="M74.3,62.11v-.65c.38,0,1.59-.07,1.93-.09.23-.25.27-1.76.27-4.26V51.35c0-2.47,0-4-.27-4.25-.34,0-1.55-.09-1.93-.09v-.66H85.82L86,49.48h-.66a10.71,10.71,0,0,0-.4-1.5c-.25-.84-.52-1-2.32-1H78.91v6.48H80.6A10,10,0,0,0,83,53.31l.18-2.09h.63v5.22h-.63L83,54.34a9.76,9.76,0,0,0-2.36-.2H78.91v7c.18.18.54.34,1.53.34h.74c2.57,0,4.41-.16,4.53-.75,0,0,.54-2.31.51-2.34h.66v3.74Z"/><path d="M89.26,62.11v-.65c.38,0,1.59-.07,1.93-.09.23-.25.27-1.76.27-4.26V51.35c0-2.47,0-4-.27-4.25-.34,0-1.55-.09-1.93-.09v-.66c2.09,0,4.32-.15,6.84-.15,3.94,0,5.44,1.87,5.44,3.94,0,2.29-1.66,3.71-4,4.07,2,.7,3.1,1.17,3.71,4.25.5,2.5,1.31,3.09,2.79,3.09.18,0,.52,0,.68,0l.11.59a7.84,7.84,0,0,1-1.64.15c-2.57,0-3.76-.69-4.44-3.55-.29-3.31-.85-4.21-3.64-4.37l-1.24-.07v2.86c0,2.5,0,4,.27,4.26.34,0,1.57.09,2,.09v.65Zm4.61-8.42h2a3.17,3.17,0,0,0,3.22-3.42c0-2.05-1.28-3.42-4-3.42a7.91,7.91,0,0,0-1.24.09Z"/><path d="M106.48,61.32l0-2.9h.66s.18.81.18.81a3.43,3.43,0,0,0,3.62,2.61,3.26,3.26,0,0,0,3.42-3.15c0-4.3-7.63-3.24-7.63-8.51,0-2,1.55-4.16,4.93-4.16a8,8,0,0,1,3.82,1.06l.12,2.52h-.66s-.24-1-.27-1a3,3,0,0,0-3.06-2,2.64,2.64,0,0,0-2.88,2.55c0,4.32,7.65,3.24,7.65,8.5,0,2.28-1.68,4.78-5.78,4.78A8.31,8.31,0,0,1,106.48,61.32Z"/><path d="M133.25,62.45a7.77,7.77,0,0,1-7.79-8A8.14,8.14,0,0,1,133.52,46a7.78,7.78,0,0,1,7.8,8A8.15,8.15,0,0,1,133.25,62.45Zm.2-15.8c-2.63,0-5.36,1.8-5.36,7.54,0,5.26,2.82,7.65,5.22,7.65,2.66,0,5.38-1.82,5.38-7.59C138.69,49,135.86,46.65,133.45,46.65Z"/><path d="M142.89,62.11v-.65c.38,0,1.6-.07,1.93-.09.23-.25.27-1.76.27-4.26V51.35c0-2.47,0-4-.27-4.25-.33,0-1.55-.09-1.93-.09v-.66c2.09,0,4.32-.15,6.84-.15,3.94,0,5.45,1.87,5.45,3.94,0,2.29-1.67,3.71-4,4.07,2,.7,3.1,1.17,3.71,4.25.5,2.5,1.31,3.09,2.79,3.09.18,0,.52,0,.68,0l.11.59a7.84,7.84,0,0,1-1.64.15c-2.57,0-3.76-.69-4.44-3.55-.29-3.31-.85-4.21-3.64-4.37l-1.24-.07v2.86c0,2.5.05,4,.27,4.26.34,0,1.58.09,2,.09v.65Zm4.61-8.42h2a3.17,3.17,0,0,0,3.21-3.42c0-2.05-1.28-3.42-4-3.42a7.91,7.91,0,0,0-1.24.09Z"/><path d="M173.33,62.45,163.14,48.94v8.17c0,2.48,0,4,.27,4.26.33,0,1.55.09,1.93.09v.65h-5.26v-.65c.38,0,1.59-.07,1.93-.09.23-.25.27-1.76.27-4.26V47.86c-.47-.54-.65-.67-.88-.76L159.72,47v-.66h4.5L173,58V51.35c0-2.47,0-4-.27-4.25-.34,0-1.58-.09-2-.09v-.66h5.29V47c-.38,0-1.62.07-2,.09-.22.25-.27,1.75-.27,4.25v11.1Z"/><path d="M184.78,62.11v-.65c.41,0,1.85-.07,2.21-.09a21.06,21.06,0,0,0-.92-3.34l-.43-1.23h-5.06l-.41,1.12a24.39,24.39,0,0,0-1.06,3.45c.36,0,1.78.09,2.19.09v.65h-4.77v-.65c.22,0,1.1-.07,1.35-.09a16.16,16.16,0,0,0,1.53-3.52L183.86,46h.5l4,11.72a14.38,14.38,0,0,0,1.51,3.61c.23,0,1.08.09,1.33.09v.65ZM180.89,56h4.48l-2.14-6.33Z"/><path d="M205.51,62.11v-.65c.41,0,1.6-.07,1.94-.09.2-.25.25-1.76.25-4.26l-.11-7.94v-.93c-.12.32-.23.64-.37.95L202,62.42h-.5l-5.06-13.23a8.38,8.38,0,0,1-.32-.92v.9L196,57.11c0,2.48,0,4,.24,4.26.34,0,1.54.09,1.92.09v.65h-5.25v-.65c.39,0,1.6-.07,1.94-.09.23-.25.29-1.76.32-4.26l.2-9.72a1.07,1.07,0,0,0-.36-.29c-.11,0-1.6-.09-1.92-.09v-.66H198l4.73,12.38,4.82-12.38h4.74V47c-.31,0-1.68.07-2,.09-.23.25-.25,1.75-.23,4.25l.09,5.76c0,2.48.07,4,.3,4.26.33,0,1.57.09,2,.09v.65Z"/><path d="M214.69,62.11v-.65c.38,0,1.6-.07,1.94-.09.22-.25.27-1.76.27-4.26V51.35c0-2.47-.05-4-.27-4.25-.34,0-1.56-.09-1.94-.09v-.66h11.52l.16,3.13h-.65a12.08,12.08,0,0,0-.41-1.5c-.24-.84-.51-1-2.31-1h-3.7v6.48H221a10.08,10.08,0,0,0,2.37-.18l.18-2.09h.63v5.22h-.63l-.18-2.1a9.8,9.8,0,0,0-2.37-.2H219.3v7c.18.18.54.34,1.54.34h.74c2.56,0,4.41-.16,4.52-.75.05,0,.54-2.31.52-2.34h.65v3.74Z"/><path d="M243,62.45,232.8,48.94v8.17c0,2.48,0,4,.27,4.26.34,0,1.55.09,1.93.09v.65h-5.26v-.65c.38,0,1.6-.07,1.93-.09.23-.25.27-1.76.27-4.26V47.86c-.47-.54-.65-.67-.87-.76L229.38,47v-.66h4.5L242.7,58V51.35c0-2.47,0-4-.27-4.25-.34,0-1.57-.09-2-.09v-.66h5.29V47c-.38,0-1.62.07-2,.09-.22.25-.27,1.75-.27,4.25v11.1Z"/><path d="M251.07,62.11v-.65c.38,0,1.62-.07,2-.09.22-.25.27-1.76.27-4.26V47h-2.23c-1.8,0-2.14.16-2.32,1-.06.26-.31,1.48-.36,1.75h-.65V46.35h13.53v3.38h-.66c0-.27-.29-1.49-.36-1.75-.18-.81-.51-1-2.31-1h-2.23v10.1c0,2.5,0,4,.27,4.26.34,0,1.57.09,2,.09v.65Z"/><path d="M263.55,61.32l0-2.9h.65s.18.81.18.81A3.44,3.44,0,0,0,268,61.84a3.26,3.26,0,0,0,3.42-3.15c0-4.3-7.63-3.24-7.63-8.51,0-2,1.55-4.16,4.93-4.16a8,8,0,0,1,3.82,1.06l.11,2.52H272s-.25-1-.27-1a3,3,0,0,0-3.06-2,2.64,2.64,0,0,0-2.88,2.55c0,4.32,7.65,3.24,7.65,8.5,0,2.28-1.69,4.78-5.78,4.78A8.31,8.31,0,0,1,263.55,61.32Z"/></g></g></svg>